999
dxfrw 0.6.3
  0
SECTION
  2
HEADER
  9
$ACADVER
  1
AC1021
  9
$DWGCODEPAGE
  3
ANSI_1252
  9
$INSBASE
 10
0
 20
0
 30
0
  9
$EXTMIN
 10
35.7398
 20
-44.03281229928093
 30
0
  9
$EXTMAX
 10
206.547
 20
105.6348042054927
 30
0
  9
$LIMMIN
 10
0
 20
0
  9
$LIMMAX
 10
420
 20
297
  9
$ORTHOMODE
 70
    0
  9
$REGENMODE
 70
    1
  9
$FILLMODE
 70
    1
  9
$QTEXTMODE
 70
    0
  9
$MIRRTEXT
 70
    0
  9
$LTSCALE
 40
1
  9
$ATTMODE
 70
    0
  9
$TEXTSIZE
 40
2.5
  9
$TRACEWID
 40
15.68
  9
$TEXTSTYLE
  7
STANDARD
  9
$CLAYER
  8
0
  9
$CELTYPE
  6
BYLAYER
  9
$CECOLOR
 62
  256
  9
$CELTSCALE
 40
1
  9
$DISPSILH
 70
    0
  9
$DIMSCALE
 40
2.5
  9
$DIMASZ
 40
2.5
  9
$DIMEXO
 40
0.625
  9
$DIMDLI
 40
3.75
  9
$DIMRND
 40
0
  9
$DIMDLE
 40
0
  9
$DIMEXE
 40
1.25
  9
$DIMTP
 40
0
  9
$DIMTM
 40
0
  9
$DIMTXT
 40
2.5
  9
$DIMCEN
 40
2.5
  9
$DIMTSZ
 40
0
  9
$DIMTOL
 70
    0
  9
$DIMLIM
 70
    0
  9
$DIMTIH
 70
    0
  9
$DIMTOH
 70
    0
  9
$DIMSE1
 70
    0
  9
$DIMSE2
 70
    0
  9
$DIMTAD
 70
    1
  9
$DIMZIN
 70
    8
  9
$DIMBLK
  1

  9
$DIMASO
 70
    1
  9
$DIMSHO
 70
    1
  9
$DIMPOST
  1

  9
$DIMAPOST
  1

  9
$DIMALT
 70
    0
  9
$DIMALTD
 70
    3
  9
$DIMALTF
 40
0.03937
  9
$DIMLFAC
 40
1
  9
$DIMTOFL
 70
    1
  9
$DIMTVP
 40
0
  9
$DIMTIX
 70
    0
  9
$DIMSOXD
 70
    0
  9
$DIMSAH
 70
    0
  9
$DIMBLK1
  1

  9
$DIMBLK2
  1

  9
$DIMSTYLE
  2
STANDARD
  9
$DIMCLRD
 70
    0
  9
$DIMCLRE
 70
    0
  9
$DIMCLRT
 70
    0
  9
$DIMTFAC
 40
1
  9
$DIMGAP
 40
0.625
  9
$DIMJUST
 70
    0
  9
$DIMSD1
 70
    0
  9
$DIMSD2
 70
    0
  9
$DIMTOLJ
 70
    0
  9
$DIMTZIN
 70
    8
  9
$DIMALTZ
 70
    0
  9
$DIMALTTZ
 70
    0
  9
$DIMUPT
 70
    0
  9
$DIMDEC
 70
    2
  9
$DIMTDEC
 70
    2
  9
$DIMALTU
 70
    2
  9
$DIMALTTD
 70
    3
  9
$DIMTXSTY
  7
STANDARD
  9
$DIMAUNIT
 70
    0
  9
$DIMADEC
 70
    0
  9
$DIMALTRND
 40
0
  9
$DIMAZIN
 70
    0
  9
$DIMDSEP
 70
   44
  9
$DIMATFIT
 70
    3
  9
$DIMFRAC
 70
    0
  9
$DIMLDRBLK
  1
STANDARD
  9
$DIMLUNIT
 70
    2
  9
$DIMLWD
 70
   -2
  9
$DIMLWE
 70
   -2
  9
$DIMTMOVE
 70
    0
  9
$DIMFXL
 40
1
  9
$DIMFXLON
 70
    0
  9
$DIMJOGANG
 40
0.7854
  9
$DIMTFILL
 70
    0
  9
$DIMTFILLCLR
 70
    0
  9
$DIMARCSYM
 70
    0
  9
$DIMLTYPE
  6

  9
$DIMLTEX1
  6

  9
$DIMLTEX2
  6

  9
$LUNITS
 70
    2
  9
$LUPREC
 70
    4
  9
$SKETCHINC
 40
1
  9
$FILLETRAD
 40
0
  9
$AUNITS
 70
    0
  9
$AUPREC
 70
    2
  9
$MENU
  1
.
  9
$ELEVATION
 40
0
  9
$PELEVATION
 40
0
  9
$THICKNESS
 40
0
  9
$LIMCHECK
 70
    0
  9
$CHAMFERA
 40
0
  9
$CHAMFERB
 40
0
  9
$CHAMFERC
 40
0
  9
$CHAMFERD
 40
0
  9
$SKPOLY
 70
    0
  9
$USRTIMER
 70
    1
  9
$ANGBASE
 50
0
  9
$ANGDIR
 70
    0
  9
$PDMODE
 70
   34
  9
$PDSIZE
 40
0
  9
$PLINEWID
 40
0
  9
$SPLFRAME
 70
    0
  9
$SPLINETYPE
 70
    2
  9
$SPLINESEGS
 70
    8
  9
$HANDSEED
  5
20000
  9
$SURFTAB1
 70
    6
  9
$SURFTAB2
 70
    6
  9
$SURFTYPE
 70
    6
  9
$SURFU
 70
    6
  9
$SURFV
 70
    6
  9
$UCSBASE
  2

  9
$UCSNAME
  2

  9
$UCSORG
 10
0
 20
0
 30
0
  9
$UCSXDIR
 10
1
 20
0
 30
0
  9
$UCSYDIR
 10
0
 20
1
 30
0
  9
$UCSORTHOREF
  2

  9
$UCSORTHOVIEW
 70
    0
  9
$UCSORGTOP
 10
0
 20
0
 30
0
  9
$UCSORGBOTTOM
 10
0
 20
0
 30
0
  9
$UCSORGLEFT
 10
0
 20
0
 30
0
  9
$UCSORGRIGHT
 10
0
 20
0
 30
0
  9
$UCSORGFRONT
 10
0
 20
0
 30
0
  9
$UCSORGBACK
 10
0
 20
0
 30
0
  9
$PUCSBASE
  2

  9
$PUCSNAME
  2

  9
$PUCSORG
 10
0
 20
0
 30
0
  9
$PUCSXDIR
 10
1
 20
0
 30
0
  9
$PUCSYDIR
 10
0
 20
1
 30
0
  9
$PUCSORTHOREF
  2

  9
$PUCSORTHOVIEW
 70
    0
  9
$PUCSORGTOP
 10
0
 20
0
 30
0
  9
$PUCSORGBOTTOM
 10
0
 20
0
 30
0
  9
$PUCSORGLEFT
 10
0
 20
0
 30
0
  9
$PUCSORGRIGHT
 10
0
 20
0
 30
0
  9
$PUCSORGFRONT
 10
0
 20
0
 30
0
  9
$PUCSORGBACK
 10
0
 20
0
 30
0
  9
$USERI1
 70
    0
  9
$USERI2
 70
    0
  9
$USERI3
 70
    0
  9
$USERI4
 70
    0
  9
$USERI5
 70
    0
  9
$USERR1
 40
0
  9
$USERR2
 40
0
  9
$USERR3
 40
0
  9
$USERR4
 40
0
  9
$USERR5
 40
0
  9
$WORLDVIEW
 70
    1
  9
$SHADEDGE
 70
    3
  9
$SHADEDIF
 70
   70
  9
$TILEMODE
 70
    1
  9
$MAXACTVP
 70
   64
  9
$PINSBASE
 10
0
 20
0
 30
0
  9
$PLIMCHECK
 70
    0
  9
$PEXTMIN
 10
0
 20
0
 30
0
  9
$PEXTMAX
 10
0
 20
0
 30
0
  9
$GRIDMODE
 70
    0
  9
$SNAPSTYLE
 70
    0
  9
$PLIMMIN
 10
0
 20
0
  9
$PLIMMAX
 10
297
 20
210
  9
$UNITMODE
 70
    0
  9
$VISRETAIN
 70
    1
  9
$PLINEGEN
 70
    0
  9
$PSLTSCALE
 70
    1
  9
$TREEDEPTH
 70
 3020
  9
$CMLSTYLE
  2
Standard
  9
$CMLJUST
 70
    0
  9
$CMLSCALE
 40
20
  9
$PROXYGRAPHICS
 70
    1
  9
$MEASUREMENT
 70
    1
  9
$CELWEIGHT
370
   -1
  9
$ENDCAPS
280
    0
  9
$JOINSTYLE
280
    0
  9
$LWDISPLAY
290
    0
  9
$INSUNITS
 70
    4
  9
$HYPERLINKBASE
  1

  9
$STYLESHEET
  1

  9
$XEDIT
290
    1
  9
$CEPSNTYPE
380
    0
  9
$PSTYLEMODE
290
    1
  9
$EXTNAMES
290
    1
  9
$PSVPSCALE
 40
1
  9
$OLESTARTUP
290
    0
  9
$SORTENTS
280
  127
  9
$INDEXCTL
280
    0
  9
$HIDETEXT
280
    1
  9
$XCLIPFRAME
290
    0
  9
$HALOGAP
280
    0
  9
$OBSCOLOR
 70
  257
  9
$OBSLTYPE
280
    0
  9
$INTERSECTIONDISPLAY
280
    0
  9
$INTERSECTIONCOLOR
 70
  257
  9
$DIMASSOC
280
    1
  9
$PROJECTNAME
  1

  9
$CAMERADISPLAY
290
    0
  9
$LENSLENGTH
 40
50
  9
$CAMERAHEIGHT
 40
0
  9
$STEPSPERSEC
 40
2
  9
$STEPSIZE
 40
50
  9
$3DDWFPREC
 40
2
  9
$PSOLWIDTH
 40
5
  9
$PSOLHEIGHT
 40
80
  9
$LOFTANG1
 40
1.570796326794897
  9
$LOFTANG2
 40
1.570796326794897
  9
$LOFTMAG1
 40
0
  9
$LOFTMAG2
 40
0
  9
$LOFTPARAM
 70
    7
  9
$LOFTNORMALS
280
    1
  9
$LATITUDE
 40
1
  9
$LONGITUDE
 40
1
  9
$NORTHDIRECTION
 40
0
  9
$TIMEZONE
 70
-8000
  9
$LIGHTGLYPHDISPLAY
280
    1
  9
$TILEMODELIGHTSYNCH
280
    1
  9
$SOLIDHIST
280
    1
  9
$SHOWHIST
280
    1
  9
$DWFFRAME
280
    2
  9
$DGNFRAME
280
    0
  9
$REALWORLDSCALE
290
    1
  9
$INTERFERECOLOR
 62
    1
  9
$CSHADOW
280
    0
  9
$SHADOWPLANELOCATION
 40
0
  0
ENDSEC
  0
SECTION
  2
CLASSES
  0
ENDSEC
  0
SECTION
  2
TABLES
  0
TABLE
  2
VPORT
  5
8
330
0
100
AcDbSymbolTable
 70
    1
  0
VPORT
  5
31
330
2
100
AcDbSymbolTableRecord
100
AcDbViewportTableRecord
  2
*ACTIVE
 70
    0
 10
0
 20
0
 11
1
 21
1
 12
151.1863838309291
 22
54.26141447082661
 13
0
 23
0
 14
10
 24
10
 15
10
 25
10
 16
0
 26
0
 36
1
 17
0
 27
0
 37
0
 40
155.1904067817026
 41
2.334519572953737
 42
50
 43
0
 44
0
 50
0
 51
0
 71
    0
 72
  100
 73
    1
 74
    3
 75
    0
 76
    0
 77
    0
 78
    0
281
    0
 65
    1
110
0
120
0
130
0
111
1
121
0
131
0
112
0
122
1
132
0
 79
    0
146
0
348
10020
 60
    7
 61
    5
292
1
282
    1
141
0
142
0
 63
  250
421
3358443
  0
ENDTAB
  0
TABLE
  2
LTYPE
  5
5
330
0
100
AcDbSymbolTable
 70
    4
  0
LTYPE
  5
14
330
5
100
AcDbSymbolTableRecord
100
AcDbLinetypeTableRecord
  2
ByBlock
 70
    0
  3

 72
   65
 73
    0
 40
0
  0
LTYPE
  5
15
330
5
100
AcDbSymbolTableRecord
100
AcDbLinetypeTableRecord
  2
ByLayer
 70
    0
  3

 72
   65
 73
    0
 40
0
  0
LTYPE
  5
16
330
5
100
AcDbSymbolTableRecord
100
AcDbLinetypeTableRecord
  2
Continuous
 70
    0
  3
Solid line
 72
   65
 73
    0
 40
0
  0
LTYPE
  5
32
330
5
100
AcDbSymbolTableRecord
100
AcDbLinetypeTableRecord
  2
DOT
 70
    0
  3
Dot . . . . . . . . . . . . . . . . . . . . . .
 72
   65
 73
    2
 40
6.35
 49
0
 74
    0
 49
-6.35
 74
    0
  0
LTYPE
  5
33
330
5
100
AcDbSymbolTableRecord
100
AcDbLinetypeTableRecord
  2
DOTTINY
 70
    0
  3
Dot (.15x) .....................................
 72
   65
 73
    2
 40
0.9525
 49
0
 74
    0
 49
-0.9525
 74
    0
  0
LTYPE
  5
34
330
5
100
AcDbSymbolTableRecord
100
AcDbLinetypeTableRecord
  2
DOT2
 70
    0
  3
Dot (.5x) .....................................
 72
   65
 73
    2
 40
3.175
 49
0
 74
    0
 49
-3.175
 74
    0
  0
LTYPE
  5
35
330
5
100
AcDbSymbolTableRecord
100
AcDbLinetypeTableRecord
  2
DOTX2
 70
    0
  3
Dot (2x) .  .  .  .  .  .  .  .  .  .  .  .  .
 72
   65
 73
    2
 40
12.7
 49
0
 74
    0
 49
-12.7
 74
    0
  0
LTYPE
  5
36
330
5
100
AcDbSymbolTableRecord
100
AcDbLinetypeTableRecord
  2
DASHED
 70
    0
  3
Dashed _ _ _ _ _ _ _ _ _ _ _ _ _ _ _ _ _
 72
   65
 73
    2
 40
19.05
 49
12.7
 74
    0
 49
-6.35
 74
    0
  0
LTYPE
  5
37
330
5
100
AcDbSymbolTableRecord
100
AcDbLinetypeTableRecord
  2
DASHEDTINY
 70
    0
  3
Dashed (.15x) _ _ _ _ _ _ _ _ _ _ _ _ _ _ _ _ _
 72
   65
 73
    2
 40
2.8575
 49
1.905
 74
    0
 49
-0.9525
 74
    0
  0
LTYPE
  5
38
330
5
100
AcDbSymbolTableRecord
100
AcDbLinetypeTableRecord
  2
DASHED2
 70
    0
  3
Dashed (.5x) _ _ _ _ _ _ _ _ _ _ _ _ _ _ _ _ _
 72
   65
 73
    2
 40
9.524999999999999
 49
6.35
 74
    0
 49
-3.175
 74
    0
  0
LTYPE
  5
39
330
5
100
AcDbSymbolTableRecord
100
AcDbLinetypeTableRecord
  2
DASHEDX2
 70
    0
  3
Dashed (2x) ____  ____  ____  ____  ____  ___
 72
   65
 73
    2
 40
38.09999999999999
 49
25.4
 74
    0
 49
-12.7
 74
    0
  0
LTYPE
  5
3A
330
5
100
AcDbSymbolTableRecord
100
AcDbLinetypeTableRecord
  2
DASHDOT
 70
    0
  3
Dash dot __ . __ . __ . __ . __ . __ . __ . __
 72
   65
 73
    4
 40
25.4
 49
12.7
 74
    0
 49
-6.35
 74
    0
 49
0
 74
    0
 49
-6.35
 74
    0
  0
LTYPE
  5
3B
330
5
100
AcDbSymbolTableRecord
100
AcDbLinetypeTableRecord
  2
DASHDOTTINY
 70
    0
  3
Dash dot (.15x) _._._._._._._._._._._._._._._.
 72
   65
 73
    4
 40
3.81
 49
1.905
 74
    0
 49
-0.9525
 74
    0
 49
0
 74
    0
 49
-0.9525
 74
    0
  0
LTYPE
  5
3C
330
5
100
AcDbSymbolTableRecord
100
AcDbLinetypeTableRecord
  2
DASHDOT2
 70
    0
  3
Dash dot (.5x) _._._._._._._._._._._._._._._.
 72
   65
 73
    4
 40
12.7
 49
6.35
 74
    0
 49
-3.175
 74
    0
 49
0
 74
    0
 49
-3.175
 74
    0
  0
LTYPE
  5
3D
330
5
100
AcDbSymbolTableRecord
100
AcDbLinetypeTableRecord
  2
DASHDOTX2
 70
    0
  3
Dash dot (2x) ____  .  ____  .  ____  .  ___
 72
   65
 73
    4
 40
50.8
 49
25.4
 74
    0
 49
-12.7
 74
    0
 49
0
 74
    0
 49
-12.7
 74
    0
  0
LTYPE
  5
3E
330
5
100
AcDbSymbolTableRecord
100
AcDbLinetypeTableRecord
  2
DIVIDE
 70
    0
  3
Divide ____ . . ____ . . ____ . . ____ . . ____
 72
   65
 73
    6
 40
31.75
 49
12.7
 74
    0
 49
-6.35
 74
    0
 49
0
 74
    0
 49
-6.35
 74
    0
 49
0
 74
    0
 49
-6.35
 74
    0
  0
LTYPE
  5
3F
330
5
100
AcDbSymbolTableRecord
100
AcDbLinetypeTableRecord
  2
DIVIDETINY
 70
    0
  3
Divide (.15x) __..__..__..__..__..__..__..__.._
 72
   65
 73
    6
 40
4.7625
 49
1.905
 74
    0
 49
-0.9525
 74
    0
 49
0
 74
    0
 49
-0.9525
 74
    0
 49
0
 74
    0
 49
-0.9525
 74
    0
  0
LTYPE
  5
40
330
5
100
AcDbSymbolTableRecord
100
AcDbLinetypeTableRecord
  2
DIVIDE2
 70
    0
  3
Divide (.5x) __..__..__..__..__..__..__..__.._
 72
   65
 73
    6
 40
15.875
 49
6.35
 74
    0
 49
-3.175
 74
    0
 49
0
 74
    0
 49
-3.175
 74
    0
 49
0
 74
    0
 49
-3.175
 74
    0
  0
LTYPE
  5
41
330
5
100
AcDbSymbolTableRecord
100
AcDbLinetypeTableRecord
  2
DIVIDEX2
 70
    0
  3
Divide (2x) ________  .  .  ________  .  .  _
 72
   65
 73
    6
 40
63.5
 49
25.4
 74
    0
 49
-12.7
 74
    0
 49
0
 74
    0
 49
-12.7
 74
    0
 49
0
 74
    0
 49
-12.7
 74
    0
  0
LTYPE
  5
42
330
5
100
AcDbSymbolTableRecord
100
AcDbLinetypeTableRecord
  2
BORDER
 70
    0
  3
Border __ __ . __ __ . __ __ . __ __ . __ __ .
 72
   65
 73
    6
 40
44.45
 49
12.7
 74
    0
 49
-6.35
 74
    0
 49
12.7
 74
    0
 49
-6.35
 74
    0
 49
0
 74
    0
 49
-6.35
 74
    0
  0
LTYPE
  5
43
330
5
100
AcDbSymbolTableRecord
100
AcDbLinetypeTableRecord
  2
BORDERTINY
 70
    0
  3
Border (.15x) __.__.__.__.__.__.__.__.__.__.__.
 72
   65
 73
    6
 40
6.6675
 49
1.905
 74
    0
 49
-0.9525
 74
    0
 49
1.905
 74
    0
 49
-0.9525
 74
    0
 49
0
 74
    0
 49
-0.9525
 74
    0
  0
LTYPE
  5
44
330
5
100
AcDbSymbolTableRecord
100
AcDbLinetypeTableRecord
  2
BORDER2
 70
    0
  3
Border (.5x) __.__.__.__.__.__.__.__.__.__.__.
 72
   65
 73
    6
 40
22.225
 49
6.35
 74
    0
 49
-3.175
 74
    0
 49
6.35
 74
    0
 49
-3.175
 74
    0
 49
0
 74
    0
 49
-3.175
 74
    0
  0
LTYPE
  5
45
330
5
100
AcDbSymbolTableRecord
100
AcDbLinetypeTableRecord
  2
BORDERX2
 70
    0
  3
Border (2x) ____  ____  .  ____  ____  .  ___
 72
   65
 73
    6
 40
88.89999999999999
 49
25.4
 74
    0
 49
-12.7
 74
    0
 49
25.4
 74
    0
 49
-12.7
 74
    0
 49
0
 74
    0
 49
-12.7
 74
    0
  0
LTYPE
  5
46
330
5
100
AcDbSymbolTableRecord
100
AcDbLinetypeTableRecord
  2
CENTER
 70
    0
  3
Center ____ _ ____ _ ____ _ ____ _ ____ _ ____
 72
   65
 73
    4
 40
50.8
 49
31.75
 74
    0
 49
-6.35
 74
    0
 49
6.35
 74
    0
 49
-6.35
 74
    0
  0
LTYPE
  5
47
330
5
100
AcDbSymbolTableRecord
100
AcDbLinetypeTableRecord
  2
CENTERTINY
 70
    0
  3
Center (.15x) ___ _ ___ _ ___ _ ___ _ ___ _ ___
 72
   65
 73
    4
 40
7.62
 49
4.7625
 74
    0
 49
-0.9525
 74
    0
 49
0.9525
 74
    0
 49
-0.9525
 74
    0
  0
LTYPE
  5
48
330
5
100
AcDbSymbolTableRecord
100
AcDbLinetypeTableRecord
  2
CENTER2
 70
    0
  3
Center (.5x) ___ _ ___ _ ___ _ ___ _ ___ _ ___
 72
   65
 73
    4
 40
28.575
 49
19.05
 74
    0
 49
-3.175
 74
    0
 49
3.175
 74
    0
 49
-3.175
 74
    0
  0
LTYPE
  5
49
330
5
100
AcDbSymbolTableRecord
100
AcDbLinetypeTableRecord
  2
CENTERX2
 70
    0
  3
Center (2x) ________  __  ________  __  _____
 72
   65
 73
    4
 40
101.6
 49
63.5
 74
    0
 49
-12.7
 74
    0
 49
12.7
 74
    0
 49
-12.7
 74
    0
  0
ENDTAB
  0
TABLE
  2
LAYER
  5
2
330
0
100
AcDbSymbolTable
 70
    1
  0
LAYER
  5
10
330
2
100
AcDbSymbolTableRecord
100
AcDbLayerTableRecord
  2
0
 70
    0
 62
    7
  6
CONTINUOUS
370
    0
390
F
  0
ENDTAB
  0
TABLE
  2
STYLE
  5
3
330
0
100
AcDbSymbolTable
 70
    3
  0
STYLE
  5
4A
330
2
100
AcDbSymbolTableRecord
100
AcDbTextStyleTableRecord
  2
normallatin1
 70
    0
 40
0
 41
1
 50
0
 71
    0
 42
1
  3
normallatin1
  4

  0
STYLE
  5
4B
330
2
100
AcDbSymbolTableRecord
100
AcDbTextStyleTableRecord
  2
iso
 70
    0
 40
0
 41
1
 50
0
 71
    0
 42
1
  3
iso
  4

  0
STYLE
  5
4C
330
2
100
AcDbSymbolTableRecord
100
AcDbTextStyleTableRecord
  2
Standard
 70
    0
 40
0
 41
1
 50
0
 71
    0
 42
1
  3
txt
  4

  0
ENDTAB
  0
TABLE
  2
VIEW
  5
6
330
0
100
AcDbSymbolTable
 70
    0
  0
ENDTAB
  0
TABLE
  2
UCS
  5
7
330
0
100
AcDbSymbolTable
 70
    0
  0
ENDTAB
  0
TABLE
  2
APPID
  5
9
330
0
100
AcDbSymbolTable
 70
    1
  0
APPID
  5
12
330
9
100
AcDbSymbolTableRecord
100
AcDbRegAppTableRecord
  2
ACAD
 70
    0
  0
APPID
  5
4D
330
9
100
AcDbSymbolTableRecord
100
AcDbRegAppTableRecord
  2
LibreCad
 70
    0
  0
ENDTAB
  0
TABLE
  2
DIMSTYLE
  5
A
330
0
100
AcDbSymbolTable
 70
    1
100
AcDbDimStyleTable
 71
    1
  0
DIMSTYLE
105
4E
330
A
100
AcDbSymbolTableRecord
100
AcDbDimStyleTableRecord
  2
Standard
 70
    0
 40
2.5
 41
2.5
 42
0.625
 43
0.38
 44
1.25
 45
0
 46
0
 47
0
 48
0
 49
1
140
2.5
141
0.09
142
0
143
25.4
144
1
145
0
146
1
147
0.625
148
0
 71
    0
 72
    0
 73
    0
 74
    1
 75
    0
 76
    0
 77
    0
 78
    8
 79
    0
170
    0
171
    2
172
    0
173
    0
174
    0
175
    0
176
    0
177
    0
178
    0
179
    0
271
    2
272
    4
273
    2
274
    2
275
    0
276
    0
277
    2
278
   44
279
    0
280
    0
281
    0
282
    0
283
    1
284
    0
285
    0
286
    0
288
    0
289
    3
340
STANDARD
341

371
   -2
372
   -2
  0
ENDTAB
  0
TABLE
  2
BLOCK_RECORD
  5
1
330
0
100
AcDbSymbolTable
 70
    2
  0
BLOCK_RECORD
  5
1F
330
1
100
AcDbSymbolTableRecord
100
AcDbBlockTableRecord
  2
*Model_Space
 70
    0
280
    1
281
    0
  0
BLOCK_RECORD
  5
1E
330
1
100
AcDbSymbolTableRecord
100
AcDbBlockTableRecord
  2
*Paper_Space
 70
    0
280
    1
281
    0
  0
ENDTAB
  0
ENDSEC
  0
SECTION
  2
BLOCKS
  0
BLOCK
  5
20
330
1F
100
AcDbEntity
  8
0
100
AcDbBlockBegin
  2
*Model_Space
 70
    0
 10
0
 20
0
 30
0
  3
*Model_Space
  1

  0
ENDBLK
  5
21
330
1F
100
AcDbEntity
  8
0
100
AcDbBlockEnd
  0
BLOCK
  5
1C
330
1B
100
AcDbEntity
  8
0
100
AcDbBlockBegin
  2
*Paper_Space
 70
    0
 10
0
 20
0
 30
0
  3
*Paper_Space
  1

  0
ENDBLK
  5
1D
330
1F
100
AcDbEntity
  8
0
100
AcDbBlockEnd
  0
ENDSEC
  0
SECTION
  2
ENTITIES
  0
HATCH
  5
4F
100
AcDbEntity
  8
0
  6
ByLayer
 62
  256
370
   -1
100
AcDbHatch
 10
0
 20
0
 30
0
210
0
220
0
230
1
  2
SOLID
 70
    1
 71
    0
 91
    1
 92
    0
 93
    1
 72
    2
 10
148.6411394570227
 20
14.63750918979105
 40
0.401334846903225
 50
0
 51
360
 73
    1
 97
    0
 75
    0
 76
    1
 98
    0
  0
HATCH
  5
50
100
AcDbEntity
  8
0
  6
ByLayer
 62
  256
370
   -1
100
AcDbHatch
 10
0
 20
0
 30
0
210
0
220
0
230
1
  2
SOLID
 70
    1
 71
    0
 91
    1
 92
    0
 93
    1
 72
    2
 10
163.9025541544681
 20
9.705052964559234
 40
0.401334846903225
 50
0
 51
360
 73
    1
 97
    0
 75
    0
 76
    1
 98
    0
  0
HATCH
  5
51
100
AcDbEntity
  8
0
  6
ByLayer
 62
  256
370
   -1
100
AcDbHatch
 10
0
 20
0
 30
0
210
0
220
0
230
1
  2
SOLID
 70
    1
 71
    0
 91
    1
 92
    0
 93
    1
 72
    2
 10
148.6411394570227
 20
-14.40321484331192
 40
0.401334846903225
 50
0
 51
360
 73
    1
 97
    0
 75
    0
 76
    1
 98
    0
  0
HATCH
  5
52
100
AcDbEntity
  8
0
  6
ByLayer
 62
  256
370
   -1
100
AcDbHatch
 10
0
 20
0
 30
0
210
0
220
0
230
1
  2
SOLID
 70
    1
 71
    0
 91
    1
 92
    0
 93
    1
 72
    2
 10
67.08494873340487
 20
20.12075511895048
 40
0.401334846903225
 50
0
 51
360
 73
    1
 97
    0
 75
    0
 76
    1
 98
    0
  0
HATCH
  5
53
100
AcDbEntity
  8
0
  6
ByLayer
 62
  256
370
   -1
100
AcDbHatch
 10
0
 20
0
 30
0
210
0
220
0
230
1
  2
SOLID
 70
    1
 71
    0
 91
    1
 92
    0
 93
    1
 72
    2
 10
107.8018819363632
 20
14.63750918979105
 40
0.401334846903225
 50
0
 51
360
 73
    1
 97
    0
 75
    0
 76
    1
 98
    0
  0
HATCH
  5
54
100
AcDbEntity
  8
0
  6
ByLayer
 62
  256
370
   -1
100
AcDbHatch
 10
0
 20
0
 30
0
210
0
220
0
230
1
  2
SOLID
 70
    1
 71
    0
 91
    1
 92
    0
 93
    1
 72
    2
 10
116.1863201761791
 20
9.705052964559234
 40
0.401334846903225
 50
0
 51
360
 73
    1
 97
    0
 75
    0
 76
    1
 98
    0
  0
HATCH
  5
55
100
AcDbEntity
  8
0
  6
ByLayer
 62
  256
370
   -1
100
AcDbHatch
 10
0
 20
0
 30
0
210
0
220
0
230
1
  2
SOLID
 70
    1
 71
    0
 91
    1
 92
    0
 93
    1
 72
    2
 10
89.92349307871604
 20
9.705052964559234
 40
0.401334846903225
 50
0
 51
360
 73
    1
 97
    0
 75
    0
 76
    1
 98
    0
  0
HATCH
  5
56
100
AcDbEntity
  8
0
  6
ByLayer
 62
  256
370
   -1
100
AcDbHatch
 10
0
 20
0
 30
0
210
0
220
0
230
1
  2
SOLID
 70
    1
 71
    0
 91
    1
 92
    0
 93
    1
 72
    2
 10
81.53905483890014
 20
14.63750918979105
 40
0.401334846903225
 50
0
 51
360
 73
    1
 97
    0
 75
    0
 76
    1
 98
    0
  0
HATCH
  5
57
100
AcDbEntity
  8
0
  6
ByLayer
 62
  256
370
   -1
100
AcDbHatch
 10
0
 20
0
 30
0
210
0
220
0
230
1
  2
SOLID
 70
    1
 71
    0
 91
    1
 92
    0
 93
    1
 72
    2
 10
142.4491472736422
 20
9.705052964559236
 40
0.401334846903225
 50
0
 51
360
 73
    1
 97
    0
 75
    0
 76
    1
 98
    0
  0
HATCH
  5
58
100
AcDbEntity
  8
0
  6
ByLayer
 62
  256
370
   -1
100
AcDbHatch
 10
0
 20
0
 30
0
210
0
220
0
230
1
  2
SOLID
 70
    1
 71
    0
 91
    1
 92
    0
 93
    1
 72
    2
 10
134.0647090338263
 20
14.63750918979105
 40
0.401334846903225
 50
0
 51
360
 73
    1
 97
    0
 75
    0
 76
    1
 98
    0
  0
HATCH
  5
59
100
AcDbEntity
  8
0
  6
ByLayer
 62
  256
370
   -1
100
AcDbHatch
 10
0
 20
0
 30
0
210
0
220
0
230
1
  2
SOLID
 70
    1
 71
    0
 91
    1
 92
    0
 93
    1
 72
    2
 10
67.08494873340484
 20
0.9655035101658243
 40
0.401334846903225
 50
0
 51
360
 73
    1
 97
    0
 75
    0
 76
    1
 98
    0
  0
HATCH
  5
5A
100
AcDbEntity
  8
0
  6
ByLayer
 62
  256
370
   -1
100
AcDbHatch
 10
0
 20
0
 30
0
210
0
220
0
230
1
  2
SOLID
 70
    1
 71
    0
 91
    1
 92
    0
 93
    1
 72
    2
 10
70.09279510439188
 20
28.12878929870791
 40
0.401334846903225
 50
0
 51
360
 73
    1
 97
    0
 75
    0
 76
    1
 98
    0
  0
HATCH
  5
5B
100
AcDbEntity
  8
0
  6
ByLayer
 62
  256
370
   -1
100
AcDbHatch
 10
0
 20
0
 30
0
210
0
220
0
230
1
  2
SOLID
 70
    1
 71
    0
 91
    1
 92
    0
 93
    1
 72
    2
 10
67.08494873340487
 20
28.12878929870791
 40
0.401334846903225
 50
0
 51
360
 73
    1
 97
    0
 75
    0
 76
    1
 98
    0
  0
CIRCLE
  5
5C
100
AcDbEntity
  8
0
  6
ByLayer
 62
  256
370
   -1
100
AcDbCircle
 10
67.08494873340484
 20
32.75429555332573
 40
0.4710358561694221
  0
CIRCLE
  5
5D
100
AcDbEntity
  8
0
  6
ByLayer
 62
  256
370
   -1
100
AcDbCircle
 10
67.08494873340484
 20
36.06821474612085
 40
0.4710358561694221
  0
LINE
  5
5E
100
AcDbEntity
  8
0
  6
ByLayer
 62
  256
370
   -1
100
AcDbLine
 10
66.24079237407668
 20
36.06821474612085
 11
66.24079237407668
 21
32.75429555332573
  0
CIRCLE
  5
5F
100
AcDbEntity
  8
0
  6
ByLayer
 62
  256
370
   -1
100
AcDbCircle
 10
70.09279510439188
 20
32.75429555332573
 40
0.4710358561694221
  0
CIRCLE
  5
60
100
AcDbEntity
  8
0
  6
ByLayer
 62
  256
370
   -1
100
AcDbCircle
 10
70.09279510439188
 20
36.06821474612085
 40
0.4710358561694221
  0
LINE
  5
61
100
AcDbEntity
  8
0
  6
ByLayer
 62
  256
370
   -1
100
AcDbLine
 10
69.24863874506372
 20
36.06821474612085
 11
69.24863874506372
 21
32.75429555332573
  0
CIRCLE
  5
62
100
AcDbEntity
  8
0
  6
ByLayer
 62
  256
370
   -1
100
AcDbCircle
 10
77.48814647584304
 20
54.42817285078176
 40
0.4710358561694221
  0
MTEXT
  5
63
100
AcDbEntity
  8
0
  6
ByLayer
 62
  256
370
   -1
100
AcDbMText
 10
73.68653903235568
 20
68.01656958385497
 30
0
 40
1
 41
2.555555555555555
 71
    1
 72
    1
  1
AVR
  7
iso
210
0
220
0
230
1
 50
0
 73
    2
 44
1
  0
CIRCLE
  5
64
100
AcDbEntity
  8
0
  6
ByLayer
 62
  256
370
   -1
100
AcDbCircle
 10
81.53905483890014
 20
54.42817285078176
 40
0.4710358561694221
  0
LINE
  5
65
100
AcDbEntity
  8
0
  6
ByLayer
 62
  256
370
   -1
100
AcDbLine
 10
77.48814647584304
 20
54.89920870695119
 11
77.48814647584304
 21
61.57509006979585
  0
LINE
  5
66
100
AcDbEntity
  8
0
  6
ByLayer
 62
  256
370
   -1
100
AcDbLine
 10
77.48814647584304
 20
61.57509006979585
 11
81.53905483890014
 21
61.57509006979585
  0
LINE
  5
67
100
AcDbEntity
  8
0
  6
ByLayer
 62
  256
370
   -1
100
AcDbLine
 10
81.53905483890014
 20
57.94345930783889
 11
82.56442180156948
 21
59.56904107792443
  0
LINE
  5
68
100
AcDbEntity
  8
0
  6
ByLayer
 62
  256
370
   -1
100
AcDbLine
 10
81.53905483890014
 20
59.87124000614504
 11
81.53905483890014
 21
61.57509006979585
  0
LINE
  5
69
100
AcDbEntity
  8
0
  6
ByLayer
 62
  256
370
   -1
100
AcDbLine
 10
81.53905483890014
 20
57.94345930783889
 11
81.53905483890014
 21
54.89920870695119
  0
CIRCLE
  5
6A
100
AcDbEntity
  8
0
  6
ByLayer
 62
  256
370
   -1
100
AcDbCircle
 10
85.87258471565892
 20
54.42817285078176
 40
0.4710358561694221
  0
CIRCLE
  5
6B
100
AcDbEntity
  8
0
  6
ByLayer
 62
  256
370
   -1
100
AcDbCircle
 10
89.92349307871602
 20
54.42817285078176
 40
0.4710358561694221
  0
LINE
  5
6C
100
AcDbEntity
  8
0
  6
ByLayer
 62
  256
370
   -1
100
AcDbLine
 10
85.87258471565892
 20
54.89920870695119
 11
85.87258471565892
 21
61.57509006979585
  0
LINE
  5
6D
100
AcDbEntity
  8
0
  6
ByLayer
 62
  256
370
   -1
100
AcDbLine
 10
85.87258471565892
 20
61.57509006979585
 11
89.92349307871602
 21
61.57509006979585
  0
LINE
  5
6E
100
AcDbEntity
  8
0
  6
ByLayer
 62
  256
370
   -1
100
AcDbLine
 10
89.92349307871602
 20
57.94345930783889
 11
90.94886004138536
 21
59.56904107792443
  0
LINE
  5
6F
100
AcDbEntity
  8
0
  6
ByLayer
 62
  256
370
   -1
100
AcDbLine
 10
89.92349307871602
 20
59.87124000614504
 11
89.92349307871602
 21
61.57509006979585
  0
LINE
  5
70
100
AcDbEntity
  8
0
  6
ByLayer
 62
  256
370
   -1
100
AcDbLine
 10
89.92349307871602
 20
57.94345930783889
 11
89.92349307871602
 21
54.89920870695119
  0
LINE
  5
71
100
AcDbEntity
  8
0
  6
ByLayer
 62
  256
370
   -1
100
AcDbLine
 10
77.48814647584304
 20
53.95713699461234
 11
77.48814647584304
 21
49.41967076254919
  0
LINE
  5
72
100
AcDbEntity
  8
0
  6
ByLayer
 62
  256
370
   -1
100
AcDbLine
 10
67.08494873340484
 20
49.41967076254919
 11
77.48814647584304
 21
49.41967076254919
  0
LINE
  5
73
100
AcDbEntity
  8
0
  6
ByLayer
 62
  256
370
   -1
100
AcDbLine
 10
67.08494873340484
 20
36.53925060229027
 11
67.08494873340484
 21
49.41967076254919
  0
LINE
  5
74
100
AcDbEntity
  8
0
  6
ByLayer
 62
  256
370
   -1
100
AcDbLine
 10
77.48814647584304
 20
53.95713699461234
 11
78.10962912531969
 21
52.2391050869611
  0
LINE
  5
75
100
AcDbEntity
  8
0
  6
ByLayer
 62
  256
370
   -1
100
AcDbLine
 10
85.87258471565892
 20
53.95713699461234
 11
85.25110206618227
 21
52.2391050869611
  0
LINE
  5
76
100
AcDbEntity
  8
0
  6
ByLayer
 62
  256
370
   -1
100
AcDbLine
 10
78.10962912531969
 20
52.2391050869611
 11
85.25110206618227
 21
52.2391050869611
  0
CIRCLE
  5
77
100
AcDbEntity
  8
0
  6
ByLayer
 62
  256
370
   -1
100
AcDbCircle
 10
103.7509735733061
 20
54.89920870695119
 40
0.4710358561694221
  0
CIRCLE
  5
78
100
AcDbEntity
  8
0
  6
ByLayer
 62
  256
370
   -1
100
AcDbCircle
 10
107.8018819363632
 20
54.89920870695119
 40
0.4710358561694221
  0
LINE
  5
79
100
AcDbEntity
  8
0
  6
ByLayer
 62
  256
370
   -1
100
AcDbLine
 10
103.7509735733061
 20
55.37024456312061
 11
103.7509735733061
 21
62.04612592596527
  0
LINE
  5
7A
100
AcDbEntity
  8
0
  6
ByLayer
 62
  256
370
   -1
100
AcDbLine
 10
103.7509735733061
 20
62.04612592596527
 11
107.8018819363632
 21
62.04612592596527
  0
LINE
  5
7B
100
AcDbEntity
  8
0
  6
ByLayer
 62
  256
370
   -1
100
AcDbLine
 10
107.8018819363632
 20
58.41449516400831
 11
108.8272488990326
 21
60.04007693409386
  0
LINE
  5
7C
100
AcDbEntity
  8
0
  6
ByLayer
 62
  256
370
   -1
100
AcDbLine
 10
107.8018819363632
 20
60.34227586231447
 11
107.8018819363632
 21
62.04612592596527
  0
LINE
  5
7D
100
AcDbEntity
  8
0
  6
ByLayer
 62
  256
370
   -1
100
AcDbLine
 10
107.8018819363632
 20
58.41449516400831
 11
107.8018819363632
 21
55.37024456312061
  0
CIRCLE
  5
7E
100
AcDbEntity
  8
0
  6
ByLayer
 62
  256
370
   -1
100
AcDbCircle
 10
112.135411813122
 20
54.89920870695119
 40
0.4710358561694221
  0
CIRCLE
  5
7F
100
AcDbEntity
  8
0
  6
ByLayer
 62
  256
370
   -1
100
AcDbCircle
 10
116.1863201761791
 20
54.89920870695119
 40
0.4710358561694221
  0
LINE
  5
80
100
AcDbEntity
  8
0
  6
ByLayer
 62
  256
370
   -1
100
AcDbLine
 10
112.135411813122
 20
55.37024456312061
 11
112.135411813122
 21
62.04612592596527
  0
LINE
  5
81
100
AcDbEntity
  8
0
  6
ByLayer
 62
  256
370
   -1
100
AcDbLine
 10
112.135411813122
 20
62.04612592596527
 11
116.1863201761791
 21
62.04612592596527
  0
LINE
  5
82
100
AcDbEntity
  8
0
  6
ByLayer
 62
  256
370
   -1
100
AcDbLine
 10
116.1863201761791
 20
58.41449516400831
 11
117.2116871388485
 21
60.04007693409386
  0
LINE
  5
83
100
AcDbEntity
  8
0
  6
ByLayer
 62
  256
370
   -1
100
AcDbLine
 10
116.1863201761791
 20
60.34227586231447
 11
116.1863201761791
 21
62.04612592596527
  0
LINE
  5
84
100
AcDbEntity
  8
0
  6
ByLayer
 62
  256
370
   -1
100
AcDbLine
 10
116.1863201761791
 20
58.41449516400831
 11
116.1863201761791
 21
55.37024456312061
  0
LINE
  5
85
100
AcDbEntity
  8
0
  6
ByLayer
 62
  256
370
   -1
100
AcDbLine
 10
108.2206675918104
 20
59.0784236421562
 11
109.8242261260715
 21
59.0784236421562
  0
LINE
  5
86
100
AcDbEntity
  8
0
  6
ByLayer
 62
  256
370
   -1
100
AcDbLine
 10
109.8242261260715
 20
59.89897701952458
 11
109.8242261260715
 21
58.25787026478782
  0
LINE
  5
87
100
AcDbEntity
  8
0
  6
ByLayer
 62
  256
370
   -1
100
AcDbLine
 10
109.8242261260715
 20
58.25787026478782
 11
109.2909317949455
 21
58.25787026478782
  0
LINE
  5
88
100
AcDbEntity
  8
0
  6
ByLayer
 62
  256
370
   -1
100
AcDbLine
 10
109.8242261260715
 20
59.89897701952458
 11
109.2909317949455
 21
59.89897701952458
  0
LINE
  5
89
100
AcDbEntity
  8
0
  6
ByLayer
 62
  256
370
   -1
100
AcDbLine
 10
116.6051058316262
 20
59.0784236421562
 11
118.2086643658874
 21
59.0784236421562
  0
LINE
  5
8A
100
AcDbEntity
  8
0
  6
ByLayer
 62
  256
370
   -1
100
AcDbLine
 10
118.2086643658874
 20
59.89897701952458
 11
118.2086643658874
 21
58.25787026478782
  0
LINE
  5
8B
100
AcDbEntity
  8
0
  6
ByLayer
 62
  256
370
   -1
100
AcDbLine
 10
118.2086643658874
 20
58.25787026478782
 11
117.6753700347614
 21
58.25787026478782
  0
LINE
  5
8C
100
AcDbEntity
  8
0
  6
ByLayer
 62
  256
370
   -1
100
AcDbLine
 10
118.2086643658874
 20
59.89897701952458
 11
117.6753700347614
 21
59.89897701952458
  0
LINE
  5
8D
100
AcDbEntity
  8
0
  6
ByLayer
 62
  256
370
   -1
100
AcDbLine
 10
103.7509735733061
 20
54.42817285078176
 11
104.3724562227828
 21
52.71014094313053
  0
LINE
  5
8E
100
AcDbEntity
  8
0
  6
ByLayer
 62
  256
370
   -1
100
AcDbLine
 10
112.135411813122
 20
54.42817285078176
 11
111.5139291636454
 21
52.71014094313053
  0
LINE
  5
8F
100
AcDbEntity
  8
0
  6
ByLayer
 62
  256
370
   -1
100
AcDbLine
 10
104.3724562227828
 20
52.71014094313053
 11
111.5139291636454
 21
52.71014094313053
  0
MTEXT
  5
90
100
AcDbEntity
  8
0
  6
ByLayer
 62
  256
370
   -1
100
AcDbMText
 10
77.9241553798019
 20
63.56707241903644
 30
0
 40
1
 41
3.555555343553406
 71
    1
 72
    1
  1
RAISE
  7
iso
210
0
220
0
230
1
 50
0
 73
    2
 44
1
  0
MTEXT
  5
91
100
AcDbEntity
  8
0
  6
ByLayer
 62
  256
370
   -1
100
AcDbMText
 10
85.95558710908918
 20
63.56707241903644
 30
0
 40
1
 41
4.222222222222222
 71
    1
 72
    1
  1
LOWER
  7
iso
210
0
220
0
230
1
 50
0
 73
    2
 44
1
  0
MTEXT
  5
92
100
AcDbEntity
  8
0
  6
ByLayer
 62
  256
370
   -1
100
AcDbMText
 10
65.51613504876663
 20
38.0320177697239
 30
0
 40
1
 41
3.444455555555556
 71
    1
 72
    1
  1
AUTO
  7
normallatin1
210
0
220
0
230
1
 50
90
 73
    2
 44
1
  0
MTEXT
  5
93
100
AcDbEntity
  8
0
  6
ByLayer
 62
  256
370
   -1
100
AcDbMText
 10
68.52398141975367
 20
38.0320177697239
 30
0
 40
1
 41
5.22221111111111
 71
    1
 72
    1
  1
MANUAL
  7
normallatin1
210
0
220
0
230
1
 50
90
 73
    2
 44
1
  0
LINE
  5
94
100
AcDbEntity
  8
0
  6
ByLayer
 62
  256
370
   -1
100
AcDbLine
 10
70.09279510439188
 20
32.28325969715631
 11
70.09279510439188
 21
28.12878929870791
  0
CIRCLE
  5
95
100
AcDbEntity
  8
0
  6
ByLayer
 62
  256
370
   -1
100
AcDbCircle
 10
67.08494873340487
 20
28.12878929870791
 40
0.401334846903225
  0
LINE
  5
96
100
AcDbEntity
  8
0
  6
ByLayer
 62
  256
370
   -1
100
AcDbLine
 10
70.09279510439188
 20
36.53925060229027
 11
70.09279510439188
 21
46.41419527385984
  0
LINE
  5
97
100
AcDbEntity
  8
0
  6
ByLayer
 62
  256
370
   -1
100
AcDbLine
 10
70.09279510439188
 20
46.41419527385984
 11
103.7509735733061
 21
46.41419527385984
  0
LINE
  5
98
100
AcDbEntity
  8
0
  6
ByLayer
 62
  256
370
   -1
100
AcDbLine
 10
103.7509735733061
 20
46.41419527385984
 11
103.7509735733061
 21
54.42817285078176
  0
CIRCLE
  5
99
100
AcDbEntity
  8
0
  6
ByLayer
 62
  256
370
   -1
100
AcDbCircle
 10
73.10064147537892
 20
32.75429555332573
 40
0.4710358561694221
  0
CIRCLE
  5
9A
100
AcDbEntity
  8
0
  6
ByLayer
 62
  256
370
   -1
100
AcDbCircle
 10
73.10064147537892
 20
36.06821474612085
 40
0.4710358561694221
  0
LINE
  5
9B
100
AcDbEntity
  8
0
  6
ByLayer
 62
  256
370
   -1
100
AcDbLine
 10
72.25648511605075
 20
36.06821474612085
 11
72.25648511605075
 21
32.75429555332573
  0
LINE
  5
9C
100
AcDbEntity
  8
0
  6
ByLayer
 62
  256
370
   -1
100
AcDbLine
 10
73.10064147537892
 20
32.28325969715631
 11
73.10064147537892
 21
28.12878929870791
  0
MTEXT
  5
9D
100
AcDbEntity
  8
0
  6
ByLayer
 62
  256
370
   -1
100
AcDbMText
 10
71.53182779074071
 20
38.0320177697239
 30
0
 40
1
 41
2.555566771404464
 71
    1
 72
    1
  1
ISCS
  7
normallatin1
210
0
220
0
230
1
 50
90
 73
    2
 44
1
  0
LINE
  5
9E
100
AcDbEntity
  8
0
  6
ByLayer
 62
  256
370
   -1
100
AcDbLine
 10
73.10064147537892
 20
28.12878929870791
 11
67.08494873340487
 21
28.12878929870791
  0
CIRCLE
  5
9F
100
AcDbEntity
  8
0
  6
ByLayer
 62
  256
370
   -1
100
AcDbCircle
 10
70.09279510439188
 20
28.12878929870791
 40
0.401334846903225
  0
LINE
  5
A0
100
AcDbEntity
  8
0
  6
ByLayer
 62
  256
370
   -1
100
AcDbLine
 10
130.0138006707692
 20
42.5500908531322
 11
73.10064147537892
 21
42.5500908531322
  0
LINE
  5
A1
100
AcDbEntity
  8
0
  6
ByLayer
 62
  256
370
   -1
100
AcDbLine
 10
73.10064147537892
 20
36.53925060229027
 11
73.10064147537892
 21
42.5500908531322
  0
CIRCLE
  5
A2
100
AcDbEntity
  8
0
  6
ByLayer
 62
  256
370
   -1
100
AcDbCircle
 10
130.0138006707692
 20
74.94637309707112
 40
0.9609238235394203
  0
LINE
  5
A3
100
AcDbEntity
  8
0
  6
ByLayer
 62
  256
370
   -1
100
AcDbLine
 10
128.5408378474216
 20
73.59080141965205
 11
131.4867634941169
 21
76.30194477449018
  0
CIRCLE
  5
A4
100
AcDbEntity
  8
0
  6
ByLayer
 62
  256
370
   -1
100
AcDbCircle
 10
134.0647090338263
 20
74.94637309707112
 40
0.9609238235394203
  0
LINE
  5
A5
100
AcDbEntity
  8
0
  6
ByLayer
 62
  256
370
   -1
100
AcDbLine
 10
132.5917462104787
 20
73.59080141965205
 11
135.537671857174
 21
76.30194477449018
  0
CIRCLE
  5
A6
100
AcDbEntity
  8
0
  6
ByLayer
 62
  256
370
   -1
100
AcDbCircle
 10
138.3982389105851
 20
74.94637309707112
 40
0.9609238235394203
  0
LINE
  5
A7
100
AcDbEntity
  8
0
  6
ByLayer
 62
  256
370
   -1
100
AcDbLine
 10
136.9252760872374
 20
73.59080141965205
 11
139.8712017339328
 21
76.30194477449018
  0
CIRCLE
  5
A8
100
AcDbEntity
  8
0
  6
ByLayer
 62
  256
370
   -1
100
AcDbCircle
 10
142.4491472736422
 20
74.94637309707112
 40
0.9609238235394203
  0
LINE
  5
A9
100
AcDbEntity
  8
0
  6
ByLayer
 62
  256
370
   -1
100
AcDbLine
 10
140.9761844502945
 20
73.59080141965205
 11
143.9221100969899
 21
76.30194477449018
  0
LINE
  5
AA
100
AcDbEntity
  8
0
  6
ByLayer
 62
  256
370
   -1
100
AcDbLine
 10
130.0138006707692
 20
73.9854492735317
 11
130.0138006707692
 21
42.5500908531322
  0
LINE
  5
AB
100
AcDbEntity
  8
0
  6
ByLayer
 62
  256
370
   -1
100
AcDbLine
 10
130.0138006707692
 20
73.9854492735317
 11
130.6352833202459
 21
72.26741736588046
  0
LINE
  5
AC
100
AcDbEntity
  8
0
  6
ByLayer
 62
  256
370
   -1
100
AcDbLine
 10
138.3982389105851
 20
73.9854492735317
 11
137.7767562611085
 21
72.26741736588046
  0
LINE
  5
AD
100
AcDbEntity
  8
0
  6
ByLayer
 62
  256
370
   -1
100
AcDbLine
 10
130.6352833202459
 20
72.26741736588046
 11
137.7767562611085
 21
72.26741736588046
  0
CIRCLE
  5
AE
100
AcDbEntity
  8
0
  6
ByLayer
 62
  256
370
   -1
100
AcDbCircle
 10
67.08494873340484
 20
5.591009764785476
 40
0.4710358561694221
  0
CIRCLE
  5
AF
100
AcDbEntity
  8
0
  6
ByLayer
 62
  256
370
   -1
100
AcDbCircle
 10
67.08494873340484
 20
8.904928957580594
 40
0.4710358561694221
  0
LINE
  5
B0
100
AcDbEntity
  8
0
  6
ByLayer
 62
  256
370
   -1
100
AcDbLine
 10
66.24079237407668
 20
8.904928957580594
 11
66.24079237407668
 21
5.591009764785476
  0
LINE
  5
B1
100
AcDbEntity
  8
0
  6
ByLayer
 62
  256
370
   -1
100
AcDbLine
 10
67.08494873340487
 20
32.28325969715729
 11
67.08494873340486
 21
9.375964813747309
  0
MTEXT
  5
B2
100
AcDbEntity
  8
0
  6
ByLayer
 62
  256
370
   -1
100
AcDbMText
 10
65.51613504876663
 20
11.2882388164703
 30
0
 40
1
 41
6.999966666666666
 71
    1
 72
    1
  1
INDIVIDUAL
  7
normallatin1
210
0
220
0
230
1
 50
90
 73
    2
 44
1
  0
CIRCLE
  5
B3
100
AcDbEntity
  8
0
  6
ByLayer
 62
  256
370
   -1
100
AcDbCircle
 10
70.61629568961007
 20
5.591009764785476
 40
0.4710358561694221
  0
CIRCLE
  5
B4
100
AcDbEntity
  8
0
  6
ByLayer
 62
  256
370
   -1
100
AcDbCircle
 10
70.61629568961007
 20
8.904928957580594
 40
0.4710358561694221
  0
LINE
  5
B5
100
AcDbEntity
  8
0
  6
ByLayer
 62
  256
370
   -1
100
AcDbLine
 10
69.7721393302819
 20
8.904928957580594
 11
69.7721393302819
 21
5.591009764785476
  0
MTEXT
  5
B6
100
AcDbEntity
  8
0
  6
ByLayer
 62
  256
370
   -1
100
AcDbMText
 10
69.04748200497185
 20
11.2882388164703
 30
0
 40
1
 41
4.111089039446066
 71
    1
 72
    1
  1
SLAVE
  7
normallatin1
210
0
220
0
230
1
 50
90
 73
    2
 44
1
  0
MTEXT
  5
B7
100
AcDbEntity
  8
0
  6
ByLayer
 62
  256
370
   -1
100
AcDbMText
 10
79.66609265914114
 20
-3.582636661995592
 30
0
 40
1
 41
3.555577830146676
 71
    1
 72
    1
  1
RAISE
  7
normallatin1
210
0
220
0
230
1
 50
90
 73
    2
 44
1
  0
MTEXT
  5
B8
100
AcDbEntity
  8
0
  6
ByLayer
 62
  256
370
   -1
100
AcDbMText
 10
88.05053089895702
 20
-3.582636661994611
 30
0
 40
1
 41
4.222188888888889
 71
    1
 72
    1
  1
LOWER
  7
normallatin1
210
0
220
0
230
1
 50
90
 73
    2
 44
1
  0
LINE
  5
B9
100
AcDbEntity
  8
0
  6
ByLayer
 62
  256
370
   -1
100
AcDbLine
 10
70.61629568961007
 20
5.119973908614227
 11
70.61629568961007
 21
0.9655035101658243
  0
CIRCLE
  5
BA
100
AcDbEntity
  8
0
  6
ByLayer
 62
  256
370
   -1
100
AcDbCircle
 10
67.08494873340484
 20
0.9655035101658243
 40
0.401334846903225
  0
LINE
  5
BB
100
AcDbEntity
  8
0
  6
ByLayer
 62
  256
370
   -1
100
AcDbLine
 10
70.61629568961007
 20
9.375964813750016
 11
70.61629568961007
 21
22.92928782408258
  0
CIRCLE
  5
BC
100
AcDbEntity
  8
0
  6
ByLayer
 62
  256
370
   -1
100
AcDbCircle
 10
81.53905483890014
 20
14.63750918979105
 40
0.401334846903225
  0
CIRCLE
  5
BD
100
AcDbEntity
  8
0
  6
ByLayer
 62
  256
370
   -1
100
AcDbCircle
 10
89.92349307871604
 20
9.705052964559234
 40
0.401334846903225
  0
LINE
  5
BE
100
AcDbEntity
  8
0
  6
ByLayer
 62
  256
370
   -1
100
AcDbLine
 10
107.8018819363632
 20
54.42817285078176
 11
107.8018819363632
 21
14.63750918979105
  0
LINE
  5
BF
100
AcDbEntity
  8
0
  6
ByLayer
 62
  256
370
   -1
100
AcDbLine
 10
116.1863201761791
 20
54.42817285078176
 11
116.1863201761791
 21
9.705052964559234
  0
CIRCLE
  5
C0
100
AcDbEntity
  8
0
  6
ByLayer
 62
  256
370
   -1
100
AcDbCircle
 10
107.8018819363632
 20
14.63750918979105
 40
0.401334846903225
  0
CIRCLE
  5
C1
100
AcDbEntity
  8
0
  6
ByLayer
 62
  256
370
   -1
100
AcDbCircle
 10
116.1863201761791
 20
9.705052964559234
 40
0.401334846903225
  0
LINE
  5
C2
100
AcDbEntity
  8
0
  6
ByLayer
 62
  256
370
   -1
100
AcDbLine
 10
134.0647090338264
 20
73.985449273531
 11
134.0647090338263
 21
14.63750918979105
  0
LINE
  5
C3
100
AcDbEntity
  8
0
  6
ByLayer
 62
  256
370
   -1
100
AcDbLine
 10
142.4491472736422
 20
73.98544927353571
 11
142.4491472736422
 21
9.705052964559234
  0
CIRCLE
  5
C4
100
AcDbEntity
  8
0
  6
ByLayer
 62
  256
370
   -1
100
AcDbCircle
 10
134.0647090338263
 20
14.63750918979105
 40
0.401334846903225
  0
CIRCLE
  5
C5
100
AcDbEntity
  8
0
  6
ByLayer
 62
  256
370
   -1
100
AcDbCircle
 10
142.4491472736422
 20
9.705052964559236
 40
0.401334846903225
  0
LINE
  5
C6
100
AcDbEntity
  8
0
  6
CENTERTINY
 62
  256
370
   -1
100
AcDbLine
 10
94.78122411945536
 20
65.92157710446986
 11
94.78122411945536
 21
54.42817285078176
  0
LINE
  5
C7
100
AcDbEntity
  8
0
  6
CENTERTINY
 62
  256
370
   -1
100
AcDbLine
 10
94.78122411945536
 20
54.42817285078176
 11
73.29013260399745
 21
54.42817285078176
  0
LINE
  5
C8
100
AcDbEntity
  8
0
  6
CENTERTINY
 62
  256
370
   -1
100
AcDbLine
 10
73.29013260399745
 20
54.42817285078176
 11
73.29013260399745
 21
65.92157710446986
  0
LINE
  5
C9
100
AcDbEntity
  8
0
  6
CENTERTINY
 62
  256
370
   -1
100
AcDbLine
 10
73.29013260399745
 20
54.42817285078176
 11
73.29013260399745
 21
65.92157710446986
  0
LINE
  5
CA
100
AcDbEntity
  8
0
  6
CENTERTINY
 62
  256
370
   -1
100
AcDbLine
 10
73.29013260399745
 20
54.42817285078176
 11
73.29013260399745
 21
65.92157710446986
  0
LINE
  5
CB
100
AcDbEntity
  8
0
  6
CENTERTINY
 62
  256
370
   -1
100
AcDbLine
 10
73.29013260399745
 20
54.42817285078176
 11
73.29013260399745
 21
65.92157710446986
  0
LINE
  5
CC
100
AcDbEntity
  8
0
  6
CENTERTINY
 62
  256
370
   -1
100
AcDbLine
 10
73.29013260399745
 20
54.42817285078176
 11
73.29013260399745
 21
65.92157710446986
  0
LINE
  5
CD
100
AcDbEntity
  8
0
  6
CENTERTINY
 62
  256
370
   -1
100
AcDbLine
 10
73.2901
 20
65.9216
 11
94.7812
 21
65.9216
  0
LINE
  5
CE
100
AcDbEntity
  8
0
  6
CENTERTINY
 62
  256
370
   -1
100
AcDbLine
 10
193.953
 20
74.9464
 11
35.7398
 21
74.9464
  0
CIRCLE
  5
CF
100
AcDbEntity
  8
0
  6
ByLayer
 62
  256
370
   -1
100
AcDbCircle
 10
63.55360177719962
 20
5.591009764787303
 40
0.4710358561694221
  0
CIRCLE
  5
D0
100
AcDbEntity
  8
0
  6
ByLayer
 62
  256
370
   -1
100
AcDbCircle
 10
63.55360177719962
 20
8.90492895758242
 40
0.4710358561694221
  0
LINE
  5
D1
100
AcDbEntity
  8
0
  6
ByLayer
 62
  256
370
   -1
100
AcDbLine
 10
62.70944541787145
 20
8.90492895758242
 11
62.70944541787145
 21
5.591009764787303
  0
MTEXT
  5
D2
100
AcDbEntity
  8
0
  6
ByLayer
 62
  256
370
   -1
100
AcDbMText
 10
61.9847880925614
 20
11.28823881647213
 30
0
 40
1
 41
5.222244496813342
 71
    1
 72
    1
  1
MASTER
  7
normallatin1
210
0
220
0
230
1
 50
90
 73
    2
 44
1
  0
LINE
  5
D3
100
AcDbEntity
  8
0
  6
ByLayer
 62
  256
370
   -1
100
AcDbLine
 10
70.61629568961007
 20
0.9655035101658243
 11
63.55360177719962
 21
0.9655035101658243
  0
LINE
  5
D4
100
AcDbEntity
  8
0
  6
ByLayer
 62
  256
370
   -1
100
AcDbLine
 10
63.55360177719962
 20
5.119973908617881
 11
63.55360177719962
 21
0.9655035101658243
  0
LINE
  5
D5
100
AcDbEntity
  8
0
  6
ByLayer
 62
  256
370
   -1
100
AcDbLine
 10
63.55360177719962
 20
9.375964813751843
 11
63.55360177719962
 21
20.12075511895048
  0
LINE
  5
D6
100
AcDbEntity
  8
0
  6
ByLayer
 62
  256
370
   -1
100
AcDbLine
 10
63.55360177719962
 20
20.12075511895048
 11
67.08494873340487
 21
20.12075511895048
  0
CIRCLE
  5
D7
100
AcDbEntity
  8
0
  6
ByLayer
 62
  256
370
   -1
100
AcDbCircle
 10
67.08494873340487
 20
20.12075511895048
 40
0.401334846903225
  0
CIRCLE
  5
D8
100
AcDbEntity
  8
0
  6
ByLayer
 62
  256
370
   -1
100
AcDbCircle
 10
81.53905483890016
 20
-19.39024155528632
 40
0.9609238235394203
  0
LINE
  5
D9
100
AcDbEntity
  8
0
  6
ByLayer
 62
  256
370
   -1
100
AcDbLine
 10
80.06609201555247
 20
-20.74581323270539
 11
83.01201766224783
 21
-18.03466987786725
  0
CIRCLE
  5
DA
100
AcDbEntity
  8
0
  6
ByLayer
 62
  256
370
   -1
100
AcDbCircle
 10
67.08494873340484
 20
-19.39024155528632
 40
0.9609238235394203
  0
LINE
  5
DB
100
AcDbEntity
  8
0
  6
ByLayer
 62
  256
370
   -1
100
AcDbLine
 10
65.61198591005717
 20
-20.74581323270539
 11
68.55791155675252
 21
-18.03466987786725
  0
CIRCLE
  5
DC
100
AcDbEntity
  8
0
  6
ByLayer
 62
  256
370
   -1
100
AcDbCircle
 10
89.92349307871604
 20
-19.39024155528534
 40
0.9609238235394203
  0
LINE
  5
DD
100
AcDbEntity
  8
0
  6
ByLayer
 62
  256
370
   -1
100
AcDbLine
 10
88.45053025536835
 20
-20.74581323270441
 11
91.39645590206371
 21
-18.03466987786627
  0
LINE
  5
DE
100
AcDbEntity
  8
0
  6
ByLayer
 62
  256
370
   -1
100
AcDbLine
 10
81.53905483890014
 20
53.95713699461136
 11
81.53905483890016
 21
-18.4293177317469
  0
LINE
  5
DF
100
AcDbEntity
  8
0
  6
ByLayer
 62
  256
370
   -1
100
AcDbLine
 10
89.92349307871602
 20
53.95713699461234
 11
89.92349307871604
 21
-18.42931773174592
  0
LINE
  5
E0
100
AcDbEntity
  8
0
  6
ByLayer
 62
  256
370
   -1
100
AcDbLine
 10
67.08494873340484
 20
5.119973908616054
 11
67.08494873340484
 21
-18.4293177317469
  0
LINE
  5
E1
100
AcDbEntity
  8
0
  6
CENTERTINY
 62
  256
370
   -1
100
AcDbLine
 10
35.7398
 20
74.9464
 11
35.7398
 21
-19.39024517027224
  0
LINE
  5
E2
100
AcDbEntity
  8
0
  6
CENTERTINY
 62
  256
370
   -1
100
AcDbLine
 10
193.953
 20
-19.39024517027224
 11
35.7398
 21
-19.39024517027224
  0
LINE
  5
E3
100
AcDbEntity
  8
0
  6
CENTERTINY
 62
  256
370
   -1
100
AcDbLine
 10
193.953
 20
74.9464
 11
193.953
 21
-19.39024517027224
  0
LINE
  5
E4
100
AcDbEntity
  8
0
  6
DASHEDTINY
 62
  256
370
   -1
100
AcDbLine
 10
67.0849
 20
-20.35116517027224
 11
67.0849
 21
-33.64862517027224
  0
LINE
  5
E5
100
AcDbEntity
  8
0
  6
DASHEDTINY
 62
  256
370
   -1
100
AcDbLine
 10
81.53900610549532
 20
-20.35116517027224
 11
81.53900610549532
 21
-33.64862517027224
  0
LINE
  5
E6
100
AcDbEntity
  8
0
  6
DASHEDTINY
 62
  256
370
   -1
100
AcDbLine
 10
89.9234443453112
 20
-20.35116517027126
 11
89.9234443453112
 21
-33.64862517027126
  0
LINE
  5
E7
100
AcDbEntity
  8
0
  6
DASHEDTINY
 62
  256
370
   -1
100
AcDbLine
 10
97.1427
 20
-2.62344
 11
97.1427
 21
7.05251
  0
LINE
  5
E8
100
AcDbEntity
  8
0
  6
DASHEDTINY
 62
  256
370
   -1
100
AcDbLine
 10
97.1427
 20
7.05251
 11
42.99901576774018
 21
7.05251
  0
LINE
  5
E9
100
AcDbEntity
  8
0
  6
ByLayer
 62
  256
370
   -1
100
AcDbLine
 10
42.99901576774018
 20
9.603636754217122
 11
42.99901576774018
 21
4.501383245782876
  0
LINE
  5
EA
100
AcDbEntity
  8
0
  6
ByLayer
 62
  256
370
   -1
100
AcDbLine
 10
42.99901576774018
 20
4.501383245782876
 11
45.13638391824863
 21
4.501383245782876
  0
LINE
  5
EB
100
AcDbEntity
  8
0
  6
ByLayer
 62
  256
370
   -1
100
AcDbLine
 10
40.86164761723172
 20
9.603636754217122
 11
42.99901576774018
 21
9.603636754217122
  0
MTEXT
  5
EC
100
AcDbEntity
  8
0
  6
ByLayer
 62
  256
370
   -1
100
AcDbMText
 10
45.41180217586707
 20
11.59778889522521
 30
0
 40
1
 41
5.222244496813342
 71
    1
 72
    1
  1
MASTER
  7
normallatin1
210
0
220
0
230
1
 50
90
 73
    2
 44
1
  0
MTEXT
  5
ED
100
AcDbEntity
  8
0
  6
ByLayer
 62
  256
370
   -1
100
AcDbMText
 10
48.24666145487786
 20
11.75256393459993
 30
0
 40
1
 41
6.999966666666666
 71
    1
 72
    1
  1
INDIVIDUAL
  7
normallatin1
210
0
220
0
230
1
 50
90
 73
    2
 44
1
  0
MTEXT
  5
EE
100
AcDbEntity
  8
0
  6
ByLayer
 62
  256
370
   -1
100
AcDbMText
 10
51.31368329295346
 20
11.59778889522339
 30
0
 40
1
 41
4.111089039446066
 71
    1
 72
    1
  1
SLAVE
  7
normallatin1
210
0
220
0
230
1
 50
90
 73
    2
 44
1
  0
LINE
  5
EF
100
AcDbEntity
  8
0
  6
ByLayer
 62
  256
370
   -1
100
AcDbLine
 10
48.87211714797165
 20
4.825287035240397
 11
46.73021679784593
 21
10.01094051449216
  0
LINE
  5
F0
100
AcDbEntity
  8
0
  6
ByLayer
 62
  256
370
   -1
100
AcDbLine
 10
48.87211714797165
 20
4.825287035240397
 11
48.87211714797165
 21
10.01094051449216
  0
LINE
  5
F1
100
AcDbEntity
  8
0
  6
ByLayer
 62
  256
370
   -1
100
AcDbLine
 10
48.87211714797165
 20
4.825287035240397
 11
51.01401749809737
 21
10.01094051449216
  0
CIRCLE
  5
F2
100
AcDbEntity
  8
0
  6
ByLayer
 62
  256
370
   -1
100
AcDbCircle
 10
148.6411394570227
 20
-19.39024155528534
 40
0.9609238235394203
  0
LINE
  5
F3
100
AcDbEntity
  8
0
  6
ByLayer
 62
  256
370
   -1
100
AcDbLine
 10
147.1681766336751
 20
-20.74581323270441
 11
150.1141022803704
 21
-18.03466987786627
  0
CIRCLE
  5
F4
100
AcDbEntity
  8
0
  6
ByLayer
 62
  256
370
   -1
100
AcDbCircle
 10
148.6411394570227
 20
-4.280403077651048
 40
0.4710358561694221
  0
CIRCLE
  5
F5
100
AcDbEntity
  8
0
  6
ByLayer
 62
  256
370
   -1
100
AcDbCircle
 10
148.6411394570227
 20
-0.966483884855931
 40
0.4710358561694221
  0
LINE
  5
F6
100
AcDbEntity
  8
0
  6
ByLayer
 62
  256
370
   -1
100
AcDbLine
 10
147.7969830976946
 20
-0.966483884855931
 11
147.7969830976946
 21
-4.280403077651048
  0
LINE
  5
F7
100
AcDbEntity
  8
0
  6
ByLayer
 62
  256
370
   -1
100
AcDbLine
 10
148.6411394570227
 20
-0.4954480286865088
 11
148.6411394570227
 21
14.63750918979105
  0
CIRCLE
  5
F8
100
AcDbEntity
  8
0
  6
ByLayer
 62
  256
370
   -1
100
AcDbCircle
 10
148.6411394570227
 20
14.63750918979105
 40
0.401334846903225
  0
CIRCLE
  5
F9
100
AcDbEntity
  8
0
  6
ByLayer
 62
  256
370
   -1
100
AcDbCircle
 10
163.9025541544681
 20
-4.280403077651048
 40
0.4710358561694221
  0
CIRCLE
  5
FA
100
AcDbEntity
  8
0
  6
ByLayer
 62
  256
370
   -1
100
AcDbCircle
 10
163.9025541544681
 20
-0.966483884855931
 40
0.4710358561694221
  0
LINE
  5
FB
100
AcDbEntity
  8
0
  6
ByLayer
 62
  256
370
   -1
100
AcDbLine
 10
163.0583977951399
 20
-0.966483884855931
 11
163.0583977951399
 21
-4.280403077651048
  0
LINE
  5
FC
100
AcDbEntity
  8
0
  6
ByLayer
 62
  256
370
   -1
100
AcDbLine
 10
163.9025541544681
 20
-0.4954480286865088
 11
163.9025541544681
 21
9.705052964559234
  0
CIRCLE
  5
FD
100
AcDbEntity
  8
0
  6
ByLayer
 62
  256
370
   -1
100
AcDbCircle
 10
163.9025541544681
 20
9.705052964559234
 40
0.401334846903225
  0
MTEXT
  5
FE
100
AcDbEntity
  8
0
  6
ByLayer
 62
  256
370
   -1
100
AcDbMText
 10
146.7093884896029
 20
0.5279376593133878
 30
0
 40
1
 41
5.222244496813342
 71
    1
 72
    1
  1
MASTER
  7
normallatin1
210
0
220
0
230
1
 50
90
 73
    2
 44
1
  0
MTEXT
  5
FF
100
AcDbEntity
  8
0
  6
ByLayer
 62
  256
370
   -1
100
AcDbMText
 10
161.9708031870482
 20
0.5279376593133878
 30
0
 40
1
 41
5.222244496813342
 71
    1
 72
    1
  1
MASTER
  7
normallatin1
210
0
220
0
230
1
 50
90
 73
    2
 44
1
  0
LINE
  5
100
100
AcDbEntity
  8
0
  6
ByLayer
 62
  256
370
   -1
100
AcDbLine
 10
148.6411394570227
 20
-18.42931773174592
 11
148.6411394570227
 21
-11.41925118371759
  0
LWPOLYLINE
  5
101
100
AcDbEntity
  8
0
  6
ByLayer
 62
  256
370
   -1
100
AcDbPolyline
 90
    4
 70
    1
 43
0
 10
145.8604579655391
 20
-8.573902680804061
 10
151.4218209485064
 20
-8.573902680804061
 10
151.4218209485064
 20
-11.41925118371759
 10
145.8604579655391
 20
-11.41925118371759
  0
LINE
  5
102
100
AcDbEntity
  8
0
  6
ByLayer
 62
  256
370
   -1
100
AcDbLine
 10
148.6411394570227
 20
-8.573902680804061
 11
148.6411394570227
 21
-4.75143893382047
  0
LWPOLYLINE
  5
103
100
AcDbEntity
  8
0
  6
ByLayer
 62
  256
370
   -1
100
AcDbPolyline
 90
    4
 70
    1
 43
0
 10
161.1218726629844
 20
-8.573902680804061
 10
166.6832356459518
 20
-8.573902680804061
 10
166.6832356459518
 20
-11.41925118371759
 10
161.1218726629844
 20
-11.41925118371759
  0
LINE
  5
104
100
AcDbEntity
  8
0
  6
ByLayer
 62
  256
370
   -1
100
AcDbLine
 10
163.9025541544681
 20
-8.573902680804061
 11
163.9025541544681
 21
-4.75143893382047
  0
LINE
  5
105
100
AcDbEntity
  8
0
  6
ByLayer
 62
  256
370
   -1
100
AcDbLine
 10
163.9025541544681
 20
-14.40321484331192
 11
148.6411394570227
 21
-14.40321484331192
  0
LINE
  5
106
100
AcDbEntity
  8
0
  6
ByLayer
 62
  256
370
   -1
100
AcDbLine
 10
163.9025541544681
 20
-14.40321484331192
 11
163.9025541544681
 21
-11.41925118371759
  0
CIRCLE
  5
107
100
AcDbEntity
  8
0
  6
ByLayer
 62
  256
370
   -1
100
AcDbCircle
 10
148.6411394570227
 20
-14.40321484331192
 40
0.401334846903225
  0
LINE
  5
108
100
AcDbEntity
  8
0
  6
DASHEDTINY
 62
  256
370
   -1
100
AcDbLine
 10
163.0583977951399
 20
-2.62344
 11
97.1427
 21
-2.62344
  0
LINE
  5
109
100
AcDbEntity
  8
0
  6
DASHEDTINY
 62
  256
370
   -1
100
AcDbLine
 10
148.6411394570227
 20
-20.35116537882476
 11
148.6411394570227
 21
-33.64862537882476
  0
LINE
  5
10A
100
AcDbEntity
  8
0
  6
ByLayer
 62
  256
370
   -1
100
AcDbLine
 10
130.0138006707692
 20
75.90729692061053
 11
130.0138006707692
 21
93.61213708281669
  0
LINE
  5
10B
100
AcDbEntity
  8
0
  6
ByLayer
 62
  256
370
   -1
100
AcDbLine
 10
130.0138006707692
 20
93.61213708281669
 11
134.0647090338263
 21
93.61213708281669
  0
LINE
  5
10C
100
AcDbEntity
  8
0
  6
ByLayer
 62
  256
370
   -1
100
AcDbLine
 10
134.0647090338263
 20
89.98050632085973
 11
135.0900759964957
 21
91.60608809094528
  0
LINE
  5
10D
100
AcDbEntity
  8
0
  6
ByLayer
 62
  256
370
   -1
100
AcDbLine
 10
134.0647090338263
 20
91.90828701916588
 11
134.0647090338263
 21
93.61213708281669
  0
LINE
  5
10E
100
AcDbEntity
  8
0
  6
ByLayer
 62
  256
370
   -1
100
AcDbLine
 10
134.0647090338263
 20
89.98050632085973
 11
134.0647090338263
 21
75.90729692061053
  0
LINE
  5
10F
100
AcDbEntity
  8
0
  6
ByLayer
 62
  256
370
   -1
100
AcDbLine
 10
138.3982389105851
 20
75.90729692061053
 11
138.3982389105851
 21
93.61213708281669
  0
LINE
  5
110
100
AcDbEntity
  8
0
  6
ByLayer
 62
  256
370
   -1
100
AcDbLine
 10
138.3982389105851
 20
93.61213708281669
 11
142.4491472736422
 21
93.61213708281669
  0
LINE
  5
111
100
AcDbEntity
  8
0
  6
ByLayer
 62
  256
370
   -1
100
AcDbLine
 10
142.4491472736422
 20
89.98050632085973
 11
143.4745142363116
 21
91.60608809094528
  0
LINE
  5
112
100
AcDbEntity
  8
0
  6
ByLayer
 62
  256
370
   -1
100
AcDbLine
 10
142.4491472736422
 20
91.90828701916588
 11
142.4491472736422
 21
93.61213708281669
  0
LINE
  5
113
100
AcDbEntity
  8
0
  6
ByLayer
 62
  256
370
   -1
100
AcDbLine
 10
142.4491472736422
 20
89.98050632085973
 11
142.4491472736422
 21
75.90729692061053
  0
LWPOLYLINE
  5
114
100
AcDbEntity
  8
0
  6
ByLayer
 62
  256
370
   -1
100
AcDbPolyline
 90
    4
 70
    1
 43
0
 10
124.2596024728061
 20
99.55473476223639
 10
146.9057312074951
 20
99.55473476223639
 10
146.9057312074951
 20
85.87882585102814
 10
124.2596024728061
 20
85.87882585102814
  0
LINE
  5
115
100
AcDbEntity
  8
0
  6
ByLayer
 62
  256
370
   -1
100
AcDbLine
 10
192.9920761764606
 20
1.488719467218342
 11
180.5899309515025
 21
1.488719467218343
  0
LINE
  5
116
100
AcDbEntity
  8
0
  6
ByLayer
 62
  256
370
   -1
100
AcDbLine
 10
180.5899309515025
 20
1.488719467218343
 11
180.5899309515025
 21
5.539627830275433
  0
LINE
  5
117
100
AcDbEntity
  8
0
  6
ByLayer
 62
  256
370
   -1
100
AcDbLine
 10
184.2215617134594
 20
5.539627830275433
 11
182.5959799433739
 21
6.564994792944785
  0
LINE
  5
118
100
AcDbEntity
  8
0
  6
ByLayer
 62
  256
370
   -1
100
AcDbLine
 10
182.2937810151533
 20
5.539627830275433
 11
180.5899309515025
 21
5.539627830275433
  0
LINE
  5
119
100
AcDbEntity
  8
0
  6
ByLayer
 62
  256
370
   -1
100
AcDbLine
 10
184.2215617134594
 20
5.539627830275433
 11
192.9920761764606
 21
5.539627830275432
  0
CIRCLE
  5
11A
100
AcDbEntity
  8
0
  6
ByLayer
 62
  256
370
   -1
100
AcDbCircle
 10
193.953
 20
5.539627830275433
 40
0.9609238235394203
  0
LINE
  5
11B
100
AcDbEntity
  8
0
  6
ByLayer
 62
  256
370
   -1
100
AcDbLine
 10
192.4800371766523
 20
4.184056152856361
 11
195.4259628233477
 21
6.895199507694501
  0
CIRCLE
  5
11C
100
AcDbEntity
  8
0
  6
ByLayer
 62
  256
370
   -1
100
AcDbCircle
 10
193.953
 20
1.488719467218343
 40
0.9609238235394203
  0
LINE
  5
11D
100
AcDbEntity
  8
0
  6
ByLayer
 62
  256
370
   -1
100
AcDbLine
 10
192.4800371766523
 20
0.1331477897992714
 11
195.4259628233477
 21
2.844291144637411
  0
LINE
  5
11E
100
AcDbEntity
  8
0
  6
ByLayer
 62
  256
370
   -1
100
AcDbLine
 10
192.9920761764606
 20
-11.12544624197001
 11
180.5899309515025
 21
-11.12544624197001
  0
LINE
  5
11F
100
AcDbEntity
  8
0
  6
ByLayer
 62
  256
370
   -1
100
AcDbLine
 10
180.5899309515025
 20
-11.12544624197001
 11
180.5899309515025
 21
-7.07453787891292
  0
LINE
  5
120
100
AcDbEntity
  8
0
  6
ByLayer
 62
  256
370
   -1
100
AcDbLine
 10
184.2215617134594
 20
-7.07453787891292
 11
182.5959799433739
 21
-6.049170916243567
  0
LINE
  5
121
100
AcDbEntity
  8
0
  6
ByLayer
 62
  256
370
   -1
100
AcDbLine
 10
182.2937810151533
 20
-7.07453787891292
 11
180.5899309515025
 21
-7.07453787891292
  0
LINE
  5
122
100
AcDbEntity
  8
0
  6
ByLayer
 62
  256
370
   -1
100
AcDbLine
 10
184.2215617134594
 20
-7.07453787891292
 11
192.9920761764606
 21
-7.074537878912921
  0
CIRCLE
  5
123
100
AcDbEntity
  8
0
  6
ByLayer
 62
  256
370
   -1
100
AcDbCircle
 10
193.953
 20
-7.07453787891292
 40
0.9609238235394203
  0
LINE
  5
124
100
AcDbEntity
  8
0
  6
ByLayer
 62
  256
370
   -1
100
AcDbLine
 10
192.4800371766523
 20
-8.430109556331992
 11
195.4259628233477
 21
-5.718966201493852
  0
CIRCLE
  5
125
100
AcDbEntity
  8
0
  6
ByLayer
 62
  256
370
   -1
100
AcDbCircle
 10
193.953
 20
-11.12544624197001
 40
0.9609238235394203
  0
LINE
  5
126
100
AcDbEntity
  8
0
  6
ByLayer
 62
  256
370
   -1
100
AcDbLine
 10
192.4800371766523
 20
-12.48101791938908
 11
195.4259628233477
 21
-9.769874564550943
  0
LINE
  5
127
100
AcDbEntity
  8
0
  6
ByLayer
 62
  256
370
   -1
100
AcDbLine
 10
42.99901576774018
 20
36.80840179264229
 11
42.99901576774018
 21
31.70614828420804
  0
LINE
  5
128
100
AcDbEntity
  8
0
  6
ByLayer
 62
  256
370
   -1
100
AcDbLine
 10
42.99901576774018
 20
31.70614828420804
 11
45.13638391824863
 21
31.70614828420804
  0
LINE
  5
129
100
AcDbEntity
  8
0
  6
ByLayer
 62
  256
370
   -1
100
AcDbLine
 10
40.86164761723172
 20
36.80840179264229
 11
42.99901576774018
 21
36.80840179264229
  0
LINE
  5
12A
100
AcDbEntity
  8
0
  6
ByLayer
 62
  256
370
   -1
100
AcDbLine
 10
48.87211714797165
 20
32.03005207366556
 11
46.73021679784593
 21
37.21570555291732
  0
LINE
  5
12B
100
AcDbEntity
  8
0
  6
ByLayer
 62
  256
370
   -1
100
AcDbLine
 10
48.87211714797165
 20
32.03005207366556
 11
48.87211714797165
 21
37.21570555291732
  0
LINE
  5
12C
100
AcDbEntity
  8
0
  6
ByLayer
 62
  256
370
   -1
100
AcDbLine
 10
48.87211714797165
 20
32.03005207366556
 11
51.01401749809737
 21
37.21570555291732
  0
LINE
  5
12D
100
AcDbEntity
  8
0
  6
DASHEDTINY
 62
  256
370
   -1
100
AcDbLine
 10
72.25648511605075
 20
34.25727503842516
 11
42.99901576774018
 21
34.25727503842516
  0
MTEXT
  5
12E
100
AcDbEntity
  8
0
  6
ByLayer
 62
  256
370
   -1
100
AcDbMText
 10
45.11213638101099
 20
38.3047119865272
 30
0
 40
1
 41
3.444455555555556
 71
    1
 72
    1
  1
AUTO
  7
normallatin1
210
0
220
0
230
1
 50
90
 73
    2
 44
1
  0
MTEXT
  5
12F
100
AcDbEntity
  8
0
  6
ByLayer
 62
  256
370
   -1
100
AcDbMText
 10
47.94699566002178
 20
38.45948702590191
 30
0
 40
1
 41
5.22221111111111
 71
    1
 72
    1
  1
MANUAL
  7
normallatin1
210
0
220
0
230
1
 50
90
 73
    2
 44
1
  0
MTEXT
  5
130
100
AcDbEntity
  8
0
  6
ByLayer
 62
  256
370
   -1
100
AcDbMText
 10
51.01401749809737
 20
38.30471198652537
 30
0
 40
1
 41
2.555566771404464
 71
    1
 72
    1
  1
ISCS
  7
normallatin1
210
0
220
0
230
1
 50
90
 73
    2
 44
1
  0
MTEXT
  5
131
100
AcDbEntity
  8
0
  6
ByLayer
 62
  256
370
   -1
100
AcDbMText
 10
104.2357764134924
 20
65.46791196139431
 30
0
 40
1
 41
2
 71
    1
 72
    1
  1
PB1
  7
iso
210
0
220
0
230
1
 50
0
 73
    2
 44
1
  0
MTEXT
  5
132
100
AcDbEntity
  8
0
  6
ByLayer
 62
  256
370
   -1
100
AcDbMText
 10
112.6202146533083
 20
65.46791196139431
 30
0
 40
1
 41
2.222222222222222
 71
    1
 72
    1
  1
PB2
  7
iso
210
0
220
0
230
1
 50
0
 73
    2
 44
1
  0
MTEXT
  5
133
100
AcDbEntity
  8
0
  6
ByLayer
 62
  256
370
   -1
100
AcDbMText
 10
152.9951264237143
 20
-9.750827480722309
 30
0
 40
1
 41
1.111088888888889
 71
    1
 72
    1
  1
K1
  7
normallatin1
210
0
220
0
230
1
 50
0
 73
    2
 44
1
  0
MTEXT
  5
134
100
AcDbEntity
  8
0
  6
ByLayer
 62
  256
370
   -1
100
AcDbMText
 10
184.4144594171529
 20
8.822177244463042
 30
0
 40
1
 41
1.111088888888889
 71
    1
 72
    1
  1
K1
  7
normallatin1
210
0
220
0
230
1
 50
0
 73
    2
 44
1
  0
MTEXT
  5
135
100
AcDbEntity
  8
0
  6
ByLayer
 62
  256
370
   -1
100
AcDbMText
 10
168.4726303613688
 20
-9.673439961034036
 30
0
 40
1
 41
1.333311111111111
 71
    1
 72
    1
  1
K2
  7
normallatin1
210
0
220
0
230
1
 50
0
 73
    2
 44
1
  0
MTEXT
  5
136
100
AcDbEntity
  8
0
  6
ByLayer
 62
  256
370
   -1
100
AcDbMText
 10
185.1883346140356
 20
-4.411088622231521
 30
0
 40
1
 41
1.333311111111111
 71
    1
 72
    1
  1
K2
  7
normallatin1
210
0
220
0
230
1
 50
0
 73
    2
 44
1
  0
LINE
  5
137
100
AcDbEntity
  8
0
  6
DASHEDTINY
 62
  256
370
   -1
100
AcDbLine
 10
194.914
 20
5.53963
 11
206.547
 21
5.53963
  0
LINE
  5
138
100
AcDbEntity
  8
0
  6
DASHEDTINY
 62
  256
370
   -1
100
AcDbLine
 10
194.914
 20
1.48872163694291
 11
206.547
 21
1.48872163694291
  0
LINE
  5
139
100
AcDbEntity
  8
0
  6
DASHEDTINY
 62
  256
370
   -1
100
AcDbLine
 10
194.914
 20
-7.074535709188353
 11
206.547
 21
-7.074535709188353
  0
LINE
  5
13A
100
AcDbEntity
  8
0
  6
DASHEDTINY
 62
  256
370
   -1
100
AcDbLine
 10
194.914
 20
-11.12544407224544
 11
206.547
 21
-11.12544407224544
  0
MTEXT
  5
13B
100
AcDbEntity
  8
0
  6
ByLayer
 62
  256
370
   -1
100
AcDbMText
 10
124.2379636125637
 20
105.6348042054927
 30
0
 40
3
 41
7.666700314213393
 71
    1
 72
    1
  1
ISCS
  7
normallatin1
210
0
220
0
230
1
 50
0
 73
    2
 44
1
  0
CIRCLE
  5
13C
100
AcDbEntity
  8
0
  6
ByLayer
 62
  256
370
   -1
100
AcDbCircle
 10
163.0205561846101
 20
74.94637309707112
 40
0.9609238235394203
  0
LINE
  5
13D
100
AcDbEntity
  8
0
  6
ByLayer
 62
  256
370
   -1
100
AcDbLine
 10
161.5475933612625
 20
73.59080141965205
 11
164.4935190079578
 21
76.30194477449018
  0
CIRCLE
  5
13E
100
AcDbEntity
  8
0
  6
ByLayer
 62
  256
370
   -1
100
AcDbCircle
 10
167.0714645476673
 20
74.94637309707112
 40
0.9609238235394203
  0
LINE
  5
13F
100
AcDbEntity
  8
0
  6
ByLayer
 62
  256
370
   -1
100
AcDbLine
 10
165.5985017243196
 20
73.59080141965205
 11
168.5444273710149
 21
76.30194477449018
  0
CIRCLE
  5
140
100
AcDbEntity
  8
0
  6
ByLayer
 62
  256
370
   -1
100
AcDbCircle
 10
171.404994424426
 20
74.94637309707112
 40
0.9609238235394203
  0
LINE
  5
141
100
AcDbEntity
  8
0
  6
ByLayer
 62
  256
370
   -1
100
AcDbLine
 10
169.9320316010784
 20
73.59080141965205
 11
172.8779572477737
 21
76.30194477449018
  0
CIRCLE
  5
142
100
AcDbEntity
  8
0
  6
ByLayer
 62
  256
370
   -1
100
AcDbCircle
 10
175.4559027874831
 20
74.94637309707112
 40
0.9609238235394203
  0
LINE
  5
143
100
AcDbEntity
  8
0
  6
ByLayer
 62
  256
370
   -1
100
AcDbLine
 10
173.9829399641355
 20
73.59080141965205
 11
176.9288656108308
 21
76.30194477449018
  0
LINE
  5
144
100
AcDbEntity
  8
0
  6
ByLayer
 62
  256
370
   -1
100
AcDbLine
 10
163.0205561846101
 20
73.9854492735317
 11
163.6420388340868
 21
72.26741736588046
  0
LINE
  5
145
100
AcDbEntity
  8
0
  6
ByLayer
 62
  256
370
   -1
100
AcDbLine
 10
171.404994424426
 20
73.9854492735317
 11
170.7835117749494
 21
72.26741736588046
  0
LINE
  5
146
100
AcDbEntity
  8
0
  6
ByLayer
 62
  256
370
   -1
100
AcDbLine
 10
163.6420388340868
 20
72.26741736588046
 11
170.7835117749494
 21
72.26741736588046
  0
LINE
  5
147
100
AcDbEntity
  8
0
  6
ByLayer
 62
  256
370
   -1
100
AcDbLine
 10
163.0205561846101
 20
73.9854492735317
 11
163.0205561846101
 21
22.92928782408258
  0
LINE
  5
148
100
AcDbEntity
  8
0
  6
ByLayer
 62
  256
370
   -1
100
AcDbLine
 10
167.0714645476673
 20
73.985449273531
 11
167.0714645476673
 21
14.63750918979105
  0
LINE
  5
149
100
AcDbEntity
  8
0
  6
ByLayer
 62
  256
370
   -1
100
AcDbLine
 10
175.4559027874832
 20
73.98544927353571
 11
175.4559027874831
 21
9.705052964559234
  0
LINE
  5
14A
100
AcDbEntity
  8
0
  6
ByLayer
 62
  256
370
   -1
100
AcDbLine
 10
163.0205561846101
 20
75.90729692061053
 11
163.0205561846101
 21
93.61213708281669
  0
LINE
  5
14B
100
AcDbEntity
  8
0
  6
ByLayer
 62
  256
370
   -1
100
AcDbLine
 10
163.0205561846101
 20
93.61213708281669
 11
167.0714645476673
 21
93.61213708281669
  0
LINE
  5
14C
100
AcDbEntity
  8
0
  6
ByLayer
 62
  256
370
   -1
100
AcDbLine
 10
167.0714645476673
 20
89.98050632085973
 11
168.0968315103366
 21
91.60608809094528
  0
LINE
  5
14D
100
AcDbEntity
  8
0
  6
ByLayer
 62
  256
370
   -1
100
AcDbLine
 10
167.0714645476673
 20
91.90828701916588
 11
167.0714645476673
 21
93.61213708281669
  0
LINE
  5
14E
100
AcDbEntity
  8
0
  6
ByLayer
 62
  256
370
   -1
100
AcDbLine
 10
167.0714645476673
 20
89.98050632085973
 11
167.0714645476673
 21
75.90729692061053
  0
LINE
  5
14F
100
AcDbEntity
  8
0
  6
ByLayer
 62
  256
370
   -1
100
AcDbLine
 10
171.404994424426
 20
75.90729692061053
 11
171.404994424426
 21
93.61213708281669
  0
LINE
  5
150
100
AcDbEntity
  8
0
  6
ByLayer
 62
  256
370
   -1
100
AcDbLine
 10
171.404994424426
 20
93.61213708281669
 11
175.4559027874831
 21
93.61213708281669
  0
LINE
  5
151
100
AcDbEntity
  8
0
  6
ByLayer
 62
  256
370
   -1
100
AcDbLine
 10
175.4559027874831
 20
89.98050632085973
 11
176.4812697501525
 21
91.60608809094528
  0
LINE
  5
152
100
AcDbEntity
  8
0
  6
ByLayer
 62
  256
370
   -1
100
AcDbLine
 10
175.4559027874831
 20
91.90828701916588
 11
175.4559027874831
 21
93.61213708281669
  0
LINE
  5
153
100
AcDbEntity
  8
0
  6
ByLayer
 62
  256
370
   -1
100
AcDbLine
 10
175.4559027874831
 20
89.98050632085973
 11
175.4559027874831
 21
75.90729692061053
  0
LWPOLYLINE
  5
154
100
AcDbEntity
  8
0
  6
ByLayer
 62
  256
370
   -1
100
AcDbPolyline
 90
    4
 70
    1
 43
0
 10
157.2663579866471
 20
99.55473476223639
 10
179.912486721336
 20
99.55473476223639
 10
179.912486721336
 20
85.87882585102814
 10
157.2663579866471
 20
85.87882585102814
  0
MTEXT
  5
155
100
AcDbEntity
  8
0
  6
ByLayer
 62
  256
370
   -1
100
AcDbMText
 10
151.1173150561459
 20
105.6348042054927
 30
0
 40
3
 41
38.2500001571067
 71
    1
 72
    1
  1
TRANSFORMER "B"
  7
normallatin1
210
0
220
0
230
1
 50
0
 73
    2
 44
1
  0
LINE
  5
156
100
AcDbEntity
  8
0
  6
ByLayer
 62
  256
370
   -1
100
AcDbLine
 10
70.61629568961007
 20
22.92928782408258
 11
163.0205561846101
 21
22.92928782408258
  0
LINE
  5
157
100
AcDbEntity
  8
0
  6
ByLayer
 62
  256
370
   -1
100
AcDbLine
 10
81.53905483890016
 20
14.63750918979105
 11
167.0714645476673
 21
14.63750918979105
  0
LINE
  5
158
100
AcDbEntity
  8
0
  6
ByLayer
 62
  256
370
   -1
100
AcDbLine
 10
89.92349307871604
 20
9.705052964559234
 11
175.4559027874831
 21
9.705052964559234
  0
MTEXT
  5
159
100
AcDbEntity
  8
0
  6
ByLayer
 62
  256
370
   -1
100
AcDbMText
 10
37.12963292576195
 20
80.1291391408709
 30
0
 40
3
 41
62.99973333333332
 71
    1
 72
    1
  1
AVR PANEL @ CONTROL ROOM
  7
normallatin1
210
0
220
0
230
1
 50
0
 73
    2
 44
1
  0
LINE
  5
15A
100
AcDbEntity
  8
0
  6
ByLayer
 62
  256
370
   -1
100
AcDbLine
 10
67.00640822061669
 20
-38.90694670874517
 11
147.6302477892942
 21
-38.90694670874517
  0
LINE
  5
15B
100
AcDbEntity
  8
0
  6
ByLayer
 62
  256
370
   -1
100
AcDbLine
 10
147.6302477892942
 20
-38.90694670874517
 11
151.3047927562312
 21
-33.93550351818329
  0
LINE
  5
15C
100
AcDbEntity
  8
0
  6
ByLayer
 62
  256
370
   -1
100
AcDbLine
 10
67.00640822061669
 20
-38.90694670874517
 11
63.33186325367964
 21
-33.93550351818329
  0
MTEXT
  5
15D
100
AcDbEntity
  8
0
  6
ByLayer
 62
  256
370
   -1
100
AcDbMText
 10
96.93705884697906
 20
-41.03281196594759
 30
0
 40
3
 41
17.24996666666667
 71
    1
 72
    1
  1
TO OLTC
  7
normallatin1
210
0
220
0
230
1
 50
0
 73
    2
 44
1
  0
ENDSEC
  0
SECTION
  2
OBJECTS
  0
DICTIONARY
  5
C
330
0
100
AcDbDictionary
281
    1
  3
ACAD_GROUP
350
D
  0
DICTIONARY
  5
D
330
C
100
AcDbDictionary
281
    1
  0
ENDSEC
  0
EOF
