999
dxfrw 0.6.3
  0
SECTION
  2
HEADER
  9
$ACADVER
  1
AC1021
  9
$DWGCODEPAGE
  3
ANSI_1252
  9
$INSBASE
 10
0
 20
0
 30
0
  9
$EXTMIN
 10
23.08216990944844
 20
2.885271238681054
 30
0
  9
$EXTMAX
 10
600.3054907210255
 20
115.823031152768
 30
0
  9
$LIMMIN
 10
0
 20
0
  9
$LIMMAX
 10
420
 20
297
  9
$ORTHOMODE
 70
    0
  9
$REGENMODE
 70
    1
  9
$FILLMODE
 70
    1
  9
$QTEXTMODE
 70
    0
  9
$MIRRTEXT
 70
    0
  9
$LTSCALE
 40
1
  9
$ATTMODE
 70
    0
  9
$TEXTSIZE
 40
2.5
  9
$TRACEWID
 40
15.68
  9
$TEXTSTYLE
  7
STANDARD
  9
$CLAYER
  8
0
  9
$CELTYPE
  6
BYLAYER
  9
$CECOLOR
 62
  256
  9
$CELTSCALE
 40
1
  9
$DISPSILH
 70
    0
  9
$DIMSCALE
 40
2.5
  9
$DIMASZ
 40
2.5
  9
$DIMEXO
 40
0.625
  9
$DIMDLI
 40
3.75
  9
$DIMRND
 40
0
  9
$DIMDLE
 40
0
  9
$DIMEXE
 40
1.25
  9
$DIMTP
 40
0
  9
$DIMTM
 40
0
  9
$DIMTXT
 40
2.5
  9
$DIMCEN
 40
2.5
  9
$DIMTSZ
 40
0
  9
$DIMTOL
 70
    0
  9
$DIMLIM
 70
    0
  9
$DIMTIH
 70
    0
  9
$DIMTOH
 70
    0
  9
$DIMSE1
 70
    0
  9
$DIMSE2
 70
    0
  9
$DIMTAD
 70
    1
  9
$DIMZIN
 70
    8
  9
$DIMBLK
  1

  9
$DIMASO
 70
    1
  9
$DIMSHO
 70
    1
  9
$DIMPOST
  1

  9
$DIMAPOST
  1

  9
$DIMALT
 70
    0
  9
$DIMALTD
 70
    3
  9
$DIMALTF
 40
0.03937
  9
$DIMLFAC
 40
1
  9
$DIMTOFL
 70
    1
  9
$DIMTVP
 40
0
  9
$DIMTIX
 70
    0
  9
$DIMSOXD
 70
    0
  9
$DIMSAH
 70
    0
  9
$DIMBLK1
  1

  9
$DIMBLK2
  1

  9
$DIMSTYLE
  2
STANDARD
  9
$DIMCLRD
 70
    0
  9
$DIMCLRE
 70
    0
  9
$DIMCLRT
 70
    0
  9
$DIMTFAC
 40
1
  9
$DIMGAP
 40
0.625
  9
$DIMJUST
 70
    0
  9
$DIMSD1
 70
    0
  9
$DIMSD2
 70
    0
  9
$DIMTOLJ
 70
    0
  9
$DIMTZIN
 70
    8
  9
$DIMALTZ
 70
    0
  9
$DIMALTTZ
 70
    0
  9
$DIMUPT
 70
    0
  9
$DIMDEC
 70
    2
  9
$DIMTDEC
 70
    2
  9
$DIMALTU
 70
    2
  9
$DIMALTTD
 70
    3
  9
$DIMTXSTY
  7
STANDARD
  9
$DIMAUNIT
 70
    0
  9
$DIMADEC
 70
    0
  9
$DIMALTRND
 40
0
  9
$DIMAZIN
 70
    0
  9
$DIMDSEP
 70
   44
  9
$DIMATFIT
 70
    3
  9
$DIMFRAC
 70
    0
  9
$DIMLDRBLK
  1
STANDARD
  9
$DIMLUNIT
 70
    2
  9
$DIMLWD
 70
   -2
  9
$DIMLWE
 70
   -2
  9
$DIMTMOVE
 70
    0
  9
$DIMFXL
 40
1
  9
$DIMFXLON
 70
    0
  9
$DIMJOGANG
 40
0.7854
  9
$DIMTFILL
 70
    0
  9
$DIMTFILLCLR
 70
    0
  9
$DIMARCSYM
 70
    0
  9
$DIMLTYPE
  6

  9
$DIMLTEX1
  6

  9
$DIMLTEX2
  6

  9
$LUNITS
 70
    2
  9
$LUPREC
 70
    4
  9
$SKETCHINC
 40
1
  9
$FILLETRAD
 40
0
  9
$AUNITS
 70
    0
  9
$AUPREC
 70
    2
  9
$MENU
  1
.
  9
$ELEVATION
 40
0
  9
$PELEVATION
 40
0
  9
$THICKNESS
 40
0
  9
$LIMCHECK
 70
    0
  9
$CHAMFERA
 40
0
  9
$CHAMFERB
 40
0
  9
$CHAMFERC
 40
0
  9
$CHAMFERD
 40
0
  9
$SKPOLY
 70
    0
  9
$USRTIMER
 70
    1
  9
$ANGBASE
 50
0
  9
$ANGDIR
 70
    0
  9
$PDMODE
 70
   34
  9
$PDSIZE
 40
0
  9
$PLINEWID
 40
0
  9
$SPLFRAME
 70
    0
  9
$SPLINETYPE
 70
    2
  9
$SPLINESEGS
 70
    8
  9
$HANDSEED
  5
20000
  9
$SURFTAB1
 70
    6
  9
$SURFTAB2
 70
    6
  9
$SURFTYPE
 70
    6
  9
$SURFU
 70
    6
  9
$SURFV
 70
    6
  9
$UCSBASE
  2

  9
$UCSNAME
  2

  9
$UCSORG
 10
0
 20
0
 30
0
  9
$UCSXDIR
 10
1
 20
0
 30
0
  9
$UCSYDIR
 10
0
 20
1
 30
0
  9
$UCSORTHOREF
  2

  9
$UCSORTHOVIEW
 70
    0
  9
$UCSORGTOP
 10
0
 20
0
 30
0
  9
$UCSORGBOTTOM
 10
0
 20
0
 30
0
  9
$UCSORGLEFT
 10
0
 20
0
 30
0
  9
$UCSORGRIGHT
 10
0
 20
0
 30
0
  9
$UCSORGFRONT
 10
0
 20
0
 30
0
  9
$UCSORGBACK
 10
0
 20
0
 30
0
  9
$PUCSBASE
  2

  9
$PUCSNAME
  2

  9
$PUCSORG
 10
0
 20
0
 30
0
  9
$PUCSXDIR
 10
1
 20
0
 30
0
  9
$PUCSYDIR
 10
0
 20
1
 30
0
  9
$PUCSORTHOREF
  2

  9
$PUCSORTHOVIEW
 70
    0
  9
$PUCSORGTOP
 10
0
 20
0
 30
0
  9
$PUCSORGBOTTOM
 10
0
 20
0
 30
0
  9
$PUCSORGLEFT
 10
0
 20
0
 30
0
  9
$PUCSORGRIGHT
 10
0
 20
0
 30
0
  9
$PUCSORGFRONT
 10
0
 20
0
 30
0
  9
$PUCSORGBACK
 10
0
 20
0
 30
0
  9
$USERI1
 70
    0
  9
$USERI2
 70
    0
  9
$USERI3
 70
    0
  9
$USERI4
 70
    0
  9
$USERI5
 70
    0
  9
$USERR1
 40
0
  9
$USERR2
 40
0
  9
$USERR3
 40
0
  9
$USERR4
 40
0
  9
$USERR5
 40
0
  9
$WORLDVIEW
 70
    1
  9
$SHADEDGE
 70
    3
  9
$SHADEDIF
 70
   70
  9
$TILEMODE
 70
    1
  9
$MAXACTVP
 70
   64
  9
$PINSBASE
 10
0
 20
0
 30
0
  9
$PLIMCHECK
 70
    0
  9
$PEXTMIN
 10
0
 20
0
 30
0
  9
$PEXTMAX
 10
0
 20
0
 30
0
  9
$GRIDMODE
 70
    0
  9
$SNAPSTYLE
 70
    0
  9
$PLIMMIN
 10
0
 20
0
  9
$PLIMMAX
 10
297
 20
210
  9
$UNITMODE
 70
    0
  9
$VISRETAIN
 70
    1
  9
$PLINEGEN
 70
    0
  9
$PSLTSCALE
 70
    1
  9
$TREEDEPTH
 70
 3020
  9
$CMLSTYLE
  2
Standard
  9
$CMLJUST
 70
    0
  9
$CMLSCALE
 40
20
  9
$PROXYGRAPHICS
 70
    1
  9
$MEASUREMENT
 70
    1
  9
$CELWEIGHT
370
   -1
  9
$ENDCAPS
280
    0
  9
$JOINSTYLE
280
    0
  9
$LWDISPLAY
290
    0
  9
$INSUNITS
 70
    4
  9
$HYPERLINKBASE
  1

  9
$STYLESHEET
  1

  9
$XEDIT
290
    1
  9
$CEPSNTYPE
380
    0
  9
$PSTYLEMODE
290
    1
  9
$EXTNAMES
290
    1
  9
$PSVPSCALE
 40
1
  9
$OLESTARTUP
290
    0
  9
$SORTENTS
280
  127
  9
$INDEXCTL
280
    0
  9
$HIDETEXT
280
    1
  9
$XCLIPFRAME
290
    0
  9
$HALOGAP
280
    0
  9
$OBSCOLOR
 70
  257
  9
$OBSLTYPE
280
    0
  9
$INTERSECTIONDISPLAY
280
    0
  9
$INTERSECTIONCOLOR
 70
  257
  9
$DIMASSOC
280
    1
  9
$PROJECTNAME
  1

  9
$CAMERADISPLAY
290
    0
  9
$LENSLENGTH
 40
50
  9
$CAMERAHEIGHT
 40
0
  9
$STEPSPERSEC
 40
2
  9
$STEPSIZE
 40
50
  9
$3DDWFPREC
 40
2
  9
$PSOLWIDTH
 40
5
  9
$PSOLHEIGHT
 40
80
  9
$LOFTANG1
 40
1.570796326794897
  9
$LOFTANG2
 40
1.570796326794897
  9
$LOFTMAG1
 40
0
  9
$LOFTMAG2
 40
0
  9
$LOFTPARAM
 70
    7
  9
$LOFTNORMALS
280
    1
  9
$LATITUDE
 40
1
  9
$LONGITUDE
 40
1
  9
$NORTHDIRECTION
 40
0
  9
$TIMEZONE
 70
-8000
  9
$LIGHTGLYPHDISPLAY
280
    1
  9
$TILEMODELIGHTSYNCH
280
    1
  9
$SOLIDHIST
280
    1
  9
$SHOWHIST
280
    1
  9
$DWFFRAME
280
    2
  9
$DGNFRAME
280
    0
  9
$REALWORLDSCALE
290
    1
  9
$INTERFERECOLOR
 62
    1
  9
$CSHADOW
280
    0
  9
$SHADOWPLANELOCATION
 40
0
  0
ENDSEC
  0
SECTION
  2
CLASSES
  0
ENDSEC
  0
SECTION
  2
TABLES
  0
TABLE
  2
VPORT
  5
8
330
0
100
AcDbSymbolTable
 70
    1
  0
VPORT
  5
31
330
2
100
AcDbSymbolTableRecord
100
AcDbViewportTableRecord
  2
*ACTIVE
 70
    0
 10
0
 20
0
 11
1
 21
1
 12
302.9578540516903
 22
92.82831182642322
 13
0
 23
0
 14
10
 24
10
 15
10
 25
10
 16
0
 26
0
 36
1
 17
0
 27
0
 37
0
 40
251.4803356752193
 41
2.340044742729306
 42
50
 43
0
 44
0
 50
0
 51
0
 71
    0
 72
  100
 73
    1
 74
    3
 75
    0
 76
    0
 77
    0
 78
    0
281
    0
 65
    1
110
0
120
0
130
0
111
1
121
0
131
0
112
0
122
1
132
0
 79
    0
146
0
348
10020
 60
    7
 61
    5
292
1
282
    1
141
0
142
0
 63
  250
421
3358443
  0
ENDTAB
  0
TABLE
  2
LTYPE
  5
5
330
0
100
AcDbSymbolTable
 70
    4
  0
LTYPE
  5
14
330
5
100
AcDbSymbolTableRecord
100
AcDbLinetypeTableRecord
  2
ByBlock
 70
    0
  3

 72
   65
 73
    0
 40
0
  0
LTYPE
  5
15
330
5
100
AcDbSymbolTableRecord
100
AcDbLinetypeTableRecord
  2
ByLayer
 70
    0
  3

 72
   65
 73
    0
 40
0
  0
LTYPE
  5
16
330
5
100
AcDbSymbolTableRecord
100
AcDbLinetypeTableRecord
  2
Continuous
 70
    0
  3
Solid line
 72
   65
 73
    0
 40
0
  0
LTYPE
  5
32
330
5
100
AcDbSymbolTableRecord
100
AcDbLinetypeTableRecord
  2
DOT
 70
    0
  3
Dot . . . . . . . . . . . . . . . . . . . . . .
 72
   65
 73
    2
 40
6.35
 49
0
 74
    0
 49
-6.35
 74
    0
  0
LTYPE
  5
33
330
5
100
AcDbSymbolTableRecord
100
AcDbLinetypeTableRecord
  2
DOTTINY
 70
    0
  3
Dot (.15x) .....................................
 72
   65
 73
    2
 40
0.9525
 49
0
 74
    0
 49
-0.9525
 74
    0
  0
LTYPE
  5
34
330
5
100
AcDbSymbolTableRecord
100
AcDbLinetypeTableRecord
  2
DOT2
 70
    0
  3
Dot (.5x) .....................................
 72
   65
 73
    2
 40
3.175
 49
0
 74
    0
 49
-3.175
 74
    0
  0
LTYPE
  5
35
330
5
100
AcDbSymbolTableRecord
100
AcDbLinetypeTableRecord
  2
DOTX2
 70
    0
  3
Dot (2x) .  .  .  .  .  .  .  .  .  .  .  .  .
 72
   65
 73
    2
 40
12.7
 49
0
 74
    0
 49
-12.7
 74
    0
  0
LTYPE
  5
36
330
5
100
AcDbSymbolTableRecord
100
AcDbLinetypeTableRecord
  2
DASHED
 70
    0
  3
Dashed _ _ _ _ _ _ _ _ _ _ _ _ _ _ _ _ _
 72
   65
 73
    2
 40
19.05
 49
12.7
 74
    0
 49
-6.35
 74
    0
  0
LTYPE
  5
37
330
5
100
AcDbSymbolTableRecord
100
AcDbLinetypeTableRecord
  2
DASHEDTINY
 70
    0
  3
Dashed (.15x) _ _ _ _ _ _ _ _ _ _ _ _ _ _ _ _ _
 72
   65
 73
    2
 40
2.8575
 49
1.905
 74
    0
 49
-0.9525
 74
    0
  0
LTYPE
  5
38
330
5
100
AcDbSymbolTableRecord
100
AcDbLinetypeTableRecord
  2
DASHED2
 70
    0
  3
Dashed (.5x) _ _ _ _ _ _ _ _ _ _ _ _ _ _ _ _ _
 72
   65
 73
    2
 40
9.524999999999999
 49
6.35
 74
    0
 49
-3.175
 74
    0
  0
LTYPE
  5
39
330
5
100
AcDbSymbolTableRecord
100
AcDbLinetypeTableRecord
  2
DASHEDX2
 70
    0
  3
Dashed (2x) ____  ____  ____  ____  ____  ___
 72
   65
 73
    2
 40
38.09999999999999
 49
25.4
 74
    0
 49
-12.7
 74
    0
  0
LTYPE
  5
3A
330
5
100
AcDbSymbolTableRecord
100
AcDbLinetypeTableRecord
  2
DASHDOT
 70
    0
  3
Dash dot __ . __ . __ . __ . __ . __ . __ . __
 72
   65
 73
    4
 40
25.4
 49
12.7
 74
    0
 49
-6.35
 74
    0
 49
0
 74
    0
 49
-6.35
 74
    0
  0
LTYPE
  5
3B
330
5
100
AcDbSymbolTableRecord
100
AcDbLinetypeTableRecord
  2
DASHDOTTINY
 70
    0
  3
Dash dot (.15x) _._._._._._._._._._._._._._._.
 72
   65
 73
    4
 40
3.81
 49
1.905
 74
    0
 49
-0.9525
 74
    0
 49
0
 74
    0
 49
-0.9525
 74
    0
  0
LTYPE
  5
3C
330
5
100
AcDbSymbolTableRecord
100
AcDbLinetypeTableRecord
  2
DASHDOT2
 70
    0
  3
Dash dot (.5x) _._._._._._._._._._._._._._._.
 72
   65
 73
    4
 40
12.7
 49
6.35
 74
    0
 49
-3.175
 74
    0
 49
0
 74
    0
 49
-3.175
 74
    0
  0
LTYPE
  5
3D
330
5
100
AcDbSymbolTableRecord
100
AcDbLinetypeTableRecord
  2
DASHDOTX2
 70
    0
  3
Dash dot (2x) ____  .  ____  .  ____  .  ___
 72
   65
 73
    4
 40
50.8
 49
25.4
 74
    0
 49
-12.7
 74
    0
 49
0
 74
    0
 49
-12.7
 74
    0
  0
LTYPE
  5
3E
330
5
100
AcDbSymbolTableRecord
100
AcDbLinetypeTableRecord
  2
DIVIDE
 70
    0
  3
Divide ____ . . ____ . . ____ . . ____ . . ____
 72
   65
 73
    6
 40
31.75
 49
12.7
 74
    0
 49
-6.35
 74
    0
 49
0
 74
    0
 49
-6.35
 74
    0
 49
0
 74
    0
 49
-6.35
 74
    0
  0
LTYPE
  5
3F
330
5
100
AcDbSymbolTableRecord
100
AcDbLinetypeTableRecord
  2
DIVIDETINY
 70
    0
  3
Divide (.15x) __..__..__..__..__..__..__..__.._
 72
   65
 73
    6
 40
4.7625
 49
1.905
 74
    0
 49
-0.9525
 74
    0
 49
0
 74
    0
 49
-0.9525
 74
    0
 49
0
 74
    0
 49
-0.9525
 74
    0
  0
LTYPE
  5
40
330
5
100
AcDbSymbolTableRecord
100
AcDbLinetypeTableRecord
  2
DIVIDE2
 70
    0
  3
Divide (.5x) __..__..__..__..__..__..__..__.._
 72
   65
 73
    6
 40
15.875
 49
6.35
 74
    0
 49
-3.175
 74
    0
 49
0
 74
    0
 49
-3.175
 74
    0
 49
0
 74
    0
 49
-3.175
 74
    0
  0
LTYPE
  5
41
330
5
100
AcDbSymbolTableRecord
100
AcDbLinetypeTableRecord
  2
DIVIDEX2
 70
    0
  3
Divide (2x) ________  .  .  ________  .  .  _
 72
   65
 73
    6
 40
63.5
 49
25.4
 74
    0
 49
-12.7
 74
    0
 49
0
 74
    0
 49
-12.7
 74
    0
 49
0
 74
    0
 49
-12.7
 74
    0
  0
LTYPE
  5
42
330
5
100
AcDbSymbolTableRecord
100
AcDbLinetypeTableRecord
  2
BORDER
 70
    0
  3
Border __ __ . __ __ . __ __ . __ __ . __ __ .
 72
   65
 73
    6
 40
44.45
 49
12.7
 74
    0
 49
-6.35
 74
    0
 49
12.7
 74
    0
 49
-6.35
 74
    0
 49
0
 74
    0
 49
-6.35
 74
    0
  0
LTYPE
  5
43
330
5
100
AcDbSymbolTableRecord
100
AcDbLinetypeTableRecord
  2
BORDERTINY
 70
    0
  3
Border (.15x) __.__.__.__.__.__.__.__.__.__.__.
 72
   65
 73
    6
 40
6.6675
 49
1.905
 74
    0
 49
-0.9525
 74
    0
 49
1.905
 74
    0
 49
-0.9525
 74
    0
 49
0
 74
    0
 49
-0.9525
 74
    0
  0
LTYPE
  5
44
330
5
100
AcDbSymbolTableRecord
100
AcDbLinetypeTableRecord
  2
BORDER2
 70
    0
  3
Border (.5x) __.__.__.__.__.__.__.__.__.__.__.
 72
   65
 73
    6
 40
22.225
 49
6.35
 74
    0
 49
-3.175
 74
    0
 49
6.35
 74
    0
 49
-3.175
 74
    0
 49
0
 74
    0
 49
-3.175
 74
    0
  0
LTYPE
  5
45
330
5
100
AcDbSymbolTableRecord
100
AcDbLinetypeTableRecord
  2
BORDERX2
 70
    0
  3
Border (2x) ____  ____  .  ____  ____  .  ___
 72
   65
 73
    6
 40
88.89999999999999
 49
25.4
 74
    0
 49
-12.7
 74
    0
 49
25.4
 74
    0
 49
-12.7
 74
    0
 49
0
 74
    0
 49
-12.7
 74
    0
  0
LTYPE
  5
46
330
5
100
AcDbSymbolTableRecord
100
AcDbLinetypeTableRecord
  2
CENTER
 70
    0
  3
Center ____ _ ____ _ ____ _ ____ _ ____ _ ____
 72
   65
 73
    4
 40
50.8
 49
31.75
 74
    0
 49
-6.35
 74
    0
 49
6.35
 74
    0
 49
-6.35
 74
    0
  0
LTYPE
  5
47
330
5
100
AcDbSymbolTableRecord
100
AcDbLinetypeTableRecord
  2
CENTERTINY
 70
    0
  3
Center (.15x) ___ _ ___ _ ___ _ ___ _ ___ _ ___
 72
   65
 73
    4
 40
7.62
 49
4.7625
 74
    0
 49
-0.9525
 74
    0
 49
0.9525
 74
    0
 49
-0.9525
 74
    0
  0
LTYPE
  5
48
330
5
100
AcDbSymbolTableRecord
100
AcDbLinetypeTableRecord
  2
CENTER2
 70
    0
  3
Center (.5x) ___ _ ___ _ ___ _ ___ _ ___ _ ___
 72
   65
 73
    4
 40
28.575
 49
19.05
 74
    0
 49
-3.175
 74
    0
 49
3.175
 74
    0
 49
-3.175
 74
    0
  0
LTYPE
  5
49
330
5
100
AcDbSymbolTableRecord
100
AcDbLinetypeTableRecord
  2
CENTERX2
 70
    0
  3
Center (2x) ________  __  ________  __  _____
 72
   65
 73
    4
 40
101.6
 49
63.5
 74
    0
 49
-12.7
 74
    0
 49
12.7
 74
    0
 49
-12.7
 74
    0
  0
ENDTAB
  0
TABLE
  2
LAYER
  5
2
330
0
100
AcDbSymbolTable
 70
    1
  0
LAYER
  5
10
330
2
100
AcDbSymbolTableRecord
100
AcDbLayerTableRecord
  2
0
 70
    0
 62
    7
  6
CONTINUOUS
370
    0
390
F
  0
ENDTAB
  0
TABLE
  2
STYLE
  5
3
330
0
100
AcDbSymbolTable
 70
    3
  0
STYLE
  5
4A
330
2
100
AcDbSymbolTableRecord
100
AcDbTextStyleTableRecord
  2
courier
 70
    0
 40
0
 41
1
 50
0
 71
    0
 42
1
  3
courier
  4

  0
STYLE
  5
4B
330
2
100
AcDbSymbolTableRecord
100
AcDbTextStyleTableRecord
  2
Standard
 70
    0
 40
0
 41
1
 50
0
 71
    0
 42
1
  3
txt
  4

  0
ENDTAB
  0
TABLE
  2
VIEW
  5
6
330
0
100
AcDbSymbolTable
 70
    0
  0
ENDTAB
  0
TABLE
  2
UCS
  5
7
330
0
100
AcDbSymbolTable
 70
    0
  0
ENDTAB
  0
TABLE
  2
APPID
  5
9
330
0
100
AcDbSymbolTable
 70
    1
  0
APPID
  5
12
330
9
100
AcDbSymbolTableRecord
100
AcDbRegAppTableRecord
  2
ACAD
 70
    0
  0
APPID
  5
4C
330
9
100
AcDbSymbolTableRecord
100
AcDbRegAppTableRecord
  2
LibreCad
 70
    0
  0
ENDTAB
  0
TABLE
  2
DIMSTYLE
  5
A
330
0
100
AcDbSymbolTable
 70
    1
100
AcDbDimStyleTable
 71
    1
  0
DIMSTYLE
105
4D
330
A
100
AcDbSymbolTableRecord
100
AcDbDimStyleTableRecord
  2
Standard
 70
    0
 40
2.5
 41
2.5
 42
0.625
 43
0.38
 44
1.25
 45
0
 46
0
 47
0
 48
0
 49
1
140
2.5
141
0.09
142
0
143
25.4
144
1
145
0
146
1
147
0.625
148
0
 71
    0
 72
    0
 73
    0
 74
    1
 75
    0
 76
    0
 77
    0
 78
    8
 79
    0
170
    0
171
    2
172
    0
173
    0
174
    0
175
    0
176
    0
177
    0
178
    0
179
    0
271
    2
272
    4
273
    2
274
    2
275
    0
276
    0
277
    2
278
   44
279
    0
280
    0
281
    0
282
    0
283
    1
284
    0
285
    0
286
    0
288
    0
289
    3
340
STANDARD
341

371
   -2
372
   -2
  0
ENDTAB
  0
TABLE
  2
BLOCK_RECORD
  5
1
330
0
100
AcDbSymbolTable
 70
    2
  0
BLOCK_RECORD
  5
1F
330
1
100
AcDbSymbolTableRecord
100
AcDbBlockTableRecord
  2
*Model_Space
 70
    0
280
    1
281
    0
  0
BLOCK_RECORD
  5
1E
330
1
100
AcDbSymbolTableRecord
100
AcDbBlockTableRecord
  2
*Paper_Space
 70
    0
280
    1
281
    0
  0
ENDTAB
  0
ENDSEC
  0
SECTION
  2
BLOCKS
  0
BLOCK
  5
20
330
1F
100
AcDbEntity
  8
0
100
AcDbBlockBegin
  2
*Model_Space
 70
    0
 10
0
 20
0
 30
0
  3
*Model_Space
  1

  0
ENDBLK
  5
21
330
1F
100
AcDbEntity
  8
0
100
AcDbBlockEnd
  0
BLOCK
  5
1C
330
1B
100
AcDbEntity
  8
0
100
AcDbBlockBegin
  2
*Paper_Space
 70
    0
 10
0
 20
0
 30
0
  3
*Paper_Space
  1

  0
ENDBLK
  5
1D
330
1F
100
AcDbEntity
  8
0
100
AcDbBlockEnd
  0
ENDSEC
  0
SECTION
  2
ENTITIES
  0
HATCH
  5
4E
100
AcDbEntity
  8
0
  6
ByLayer
 62
  256
370
   -1
100
AcDbHatch
 10
0
 20
0
 30
0
210
0
220
0
230
1
  2
SOLID
 70
    1
 71
    0
 91
    1
 92
    0
 93
    1
 72
    2
 10
264.3438887956241
 20
83.42281955877645
 40
0.43789033277578
 50
0
 51
360
 73
    1
 97
    0
 75
    0
 76
    1
 98
    0
  0
HATCH
  5
4F
100
AcDbEntity
  8
0
  6
ByLayer
 62
  256
370
   -1
100
AcDbHatch
 10
0
 20
0
 30
0
210
0
220
0
230
1
  2
SOLID
 70
    1
 71
    0
 91
    1
 92
    0
 93
    1
 72
    2
 10
66.00000000000001
 20
83.42281955877645
 40
0.43789033277578
 50
0
 51
360
 73
    1
 97
    0
 75
    0
 76
    1
 98
    0
  0
ARC
  5
50
100
AcDbEntity
  8
0
  6
ByLayer
 62
  256
370
   -1
100
AcDbCircle
 10
65.76030230655871
 20
70.04271114210059
 40
1.381897115636824
100
AcDbArc
 50
88.50061140091496
 51
271.499388599085
  0
ARC
  5
51
100
AcDbEntity
  8
0
  6
ByLayer
 62
  256
370
   -1
100
AcDbCircle
 10
65.76030230655871
 20
67.27986322222068
 40
1.381897115636824
100
AcDbArc
 50
88.50061140091496
 51
271.499388599085
  0
LINE
  5
52
100
AcDbEntity
  8
0
  6
ByLayer
 62
  256
370
   -1
100
AcDbLine
 10
65.79646141480514
 20
71.42413510204054
 11
67.47577143663351
 21
71.42413510204054
  0
LINE
  5
53
100
AcDbEntity
  8
0
  6
ByLayer
 62
  256
370
   -1
100
AcDbLine
 10
65.79646141477492
 20
68.66128718216063
 11
67.4757714366033
 21
68.66128718216063
  0
LINE
  5
54
100
AcDbEntity
  8
0
  6
ByLayer
 62
  256
370
   -1
100
AcDbLine
 10
65.79646141474473
 20
65.89843926228073
 11
67.4757714365731
 21
65.89843926228073
  0
LINE
  5
55
100
AcDbEntity
  8
0
  6
ByLayer
 62
  256
370
   -1
100
AcDbLine
 10
67.47577143663351
 20
71.42413510204054
 11
79.76049505577556
 21
71.42413510204054
  0
MTEXT
  5
56
100
AcDbEntity
  8
0
  6
ByLayer
 62
  256
370
   -1
100
AcDbMText
 10
81.69244946335266
 20
74.22074289949732
 30
0
 40
2
 41
13.30094704240614
 71
    1
 72
    1
  1
tariff\Pmeter
  7
courier
210
0
220
0
230
1
 50
0
 73
    2
 44
1
  0
LWPOLYLINE
  5
57
100
AcDbEntity
  8
0
  6
ByLayer
 62
  256
370
   -1
100
AcDbPolyline
 90
    4
 70
    1
 43
0
 10
79.76049505577556
 20
75.47404410215769
 10
96.65440117054997
 20
75.47404410215769
 10
96.65440117054997
 20
67.3742261019234
 10
79.76049505577556
 20
67.3742261019234
  0
TEXT
  5
58
100
AcDbEntity
  8
0
  6
ByLayer
 62
  256
370
   -1
100
AcDbText
 10
66.00000000000001
 20
90.46310145582525
 30
0
 40
2
  1
sppg
 50
0
 41
1
 51
0
  7
courier
 71
    0
 72
    1
 11
66.00000000000001
 21
90.46310145582525
 31
0
210
0
220
0
230
1
100
AcDbText
  0
CIRCLE
  5
59
100
AcDbEntity
  8
0
  6
ByLayer
 62
  256
370
   -1
100
AcDbCircle
 10
74.28690223072034
 20
83.42281955877645
 40
1.504251914329231
  0
CIRCLE
  5
5A
100
AcDbEntity
  8
0
  6
ByLayer
 62
  256
370
   -1
100
AcDbCircle
 10
76.34555986522857
 20
83.42281955877645
 40
1.504251914329231
  0
LINE
  5
5B
100
AcDbEntity
  8
0
  6
ByLayer
 62
  256
370
   -1
100
AcDbLine
 10
72.78265031639111
 20
83.42281955877645
 11
66.00000000000001
 21
83.42281955877645
  0
CIRCLE
  5
5C
100
AcDbEntity
  8
0
  6
ByLayer
 62
  256
370
   -1
100
AcDbCircle
 10
66.00000000000001
 20
83.42281955877645
 40
0.43789033277578
  0
LINE
  5
5D
100
AcDbEntity
  8
0
  6
ByLayer
 62
  256
370
   -1
100
AcDbLine
 10
77.8498117795578
 20
83.42281955877645
 11
89.24590115181833
 21
83.42281955877645
  0
LINE
  5
5E
100
AcDbEntity
  8
0
  6
ByLayer
 62
  256
370
   -1
100
AcDbLine
 10
89.24590115181833
 20
83.42281955877645
 11
89.24590115181833
 21
75.47404410215769
  0
TEXT
  5
5F
100
AcDbEntity
  8
0
  6
ByLayer
 62
  256
370
   -1
100
AcDbText
 10
62.38657262732013
 20
73.04573856647529
 30
0
 40
2
  1
P1
 50
0
 41
1
 51
0
  7
courier
 71
    0
 72
    1
 11
62.38657262732013
 21
73.04573856647529
 31
0
210
0
220
0
230
1
100
AcDbText
  0
LINE
  5
60
100
AcDbEntity
  8
0
  6
ByLayer
 62
  256
370
   -1
100
AcDbLine
 10
121.1258945425799
 20
29.7755290273618
 11
135.250614319566
 21
29.7755290273618
  0
LINE
  5
61
100
AcDbEntity
  8
0
  6
ByLayer
 62
  256
370
   -1
100
AcDbLine
 10
135.250614319566
 20
29.7755290273618
 11
133.2346496189137
 21
30.72784501550544
  0
LINE
  5
62
100
AcDbEntity
  8
0
  6
ByLayer
 62
  256
370
   -1
100
AcDbLine
 10
135.250614319566
 20
29.7755290273618
 11
133.2346496189137
 21
28.82321303921816
  0
LINE
  5
63
100
AcDbEntity
  8
0
  6
ByLayer
 62
  256
370
   -1
100
AcDbLine
 10
121.1258945425799
 20
29.7755290273618
 11
112.9899940691556
 21
41.3217332635996
  0
LINE
  5
64
100
AcDbEntity
  8
0
  6
ByLayer
 62
  256
370
   -1
100
AcDbLine
 10
112.9899940691556
 20
41.3217332635996
 11
113.3727310969522
 21
39.12525158074772
  0
LINE
  5
65
100
AcDbEntity
  8
0
  6
ByLayer
 62
  256
370
   -1
100
AcDbLine
 10
112.9899940691556
 20
41.3217332635996
 11
114.9296660408166
 21
40.22232794348186
  0
LINE
  5
66
100
AcDbEntity
  8
0
  6
ByLayer
 62
  256
370
   -1
100
AcDbLine
 10
121.1258945425799
 20
29.7755290273618
 11
112.9899940691556
 21
18.229324791124
  0
LINE
  5
67
100
AcDbEntity
  8
0
  6
ByLayer
 62
  256
370
   -1
100
AcDbLine
 10
112.9899940691556
 20
18.229324791124
 11
113.3727310969522
 21
20.42580647397588
  0
LINE
  5
68
100
AcDbEntity
  8
0
  6
ByLayer
 62
  256
370
   -1
100
AcDbLine
 10
112.9899940691556
 20
18.229324791124
 11
114.9296660408166
 21
19.32873011124174
  0
TEXT
  5
69
100
AcDbEntity
  8
0
  6
ByLayer
 62
  256
370
   -1
100
AcDbText
 10
141.6617908137214
 20
29.26481335497236
 30
0
 40
2
  1
IA
 50
0
 41
1
 51
0
  7
courier
 71
    0
 72
    1
 11
141.6617908137214
 21
29.26481335497236
 31
0
210
0
220
0
230
1
100
AcDbText
  0
TEXT
  5
6A
100
AcDbEntity
  8
0
  6
ByLayer
 62
  256
370
   -1
100
AcDbText
 10
112.2452829148872
 20
43.22008502028962
 30
0
 40
2
  1
IB
 50
0
 41
1
 51
0
  7
courier
 71
    0
 72
    1
 11
112.2452829148872
 21
43.22008502028962
 31
0
210
0
220
0
230
1
100
AcDbText
  0
TEXT
  5
6B
100
AcDbEntity
  8
0
  6
ByLayer
 62
  256
370
   -1
100
AcDbText
 10
110.1369325194077
 20
15.30954168965511
 30
0
 40
2
  1
IC
 50
0
 41
1
 51
0
  7
courier
 71
    0
 72
    1
 11
110.1369325194077
 21
15.30954168965511
 31
0
210
0
220
0
230
1
100
AcDbText
  0
ARC
  5
6C
100
AcDbEntity
  8
0
  6
ByLayer
 62
  256
370
   -1
100
AcDbCircle
 10
123.7534997866742
 20
36.08649790348035
 40
15.96468176720511
100
AcDbArc
 50
21.03170345395644
 51
90.11534338316551
  0
LINE
  5
6D
100
AcDbEntity
  8
0
  6
ByLayer
 62
  256
370
   -1
100
AcDbLine
 10
123.7213609593807
 20
52.05114732098751
 11
127.0505717450908
 21
52.70700319048471
  0
LINE
  5
6E
100
AcDbEntity
  8
0
  6
ByLayer
 62
  256
370
   -1
100
AcDbLine
 10
123.7213609593807
 20
52.05114732098751
 11
126.5858845482444
 21
50.66237952436039
  0
LWPOLYLINE
  5
6F
100
AcDbEntity
  8
0
  6
ByLayer
 62
  256
370
   -1
100
AcDbPolyline
 90
    4
 70
    1
 43
0
 10
23.08216990944844
 20
115.823031152768
 10
203.6177131297773
 20
115.823031152768
 10
203.6177131297773
 20
2.885271238681054
 10
23.08216990944844
 20
2.885271238681054
  0
TEXT
  5
70
100
AcDbEntity
  8
0
  6
ByLayer
 62
  256
370
   -1
100
AcDbText
 10
62.38657262732013
 20
63.87765469410069
 30
0
 40
2
  1
P2
 50
0
 41
1
 51
0
  7
courier
 71
    0
 72
    1
 11
62.38657262732013
 21
63.87765469410069
 31
0
210
0
220
0
230
1
100
AcDbText
  0
LINE
  5
71
100
AcDbEntity
  8
0
  6
ByLayer
 62
  256
370
   -1
100
AcDbLine
 10
54.62603041782161
 20
69.38881388278338
 11
54.62603041782161
 21
59.52149988321225
  0
LINE
  5
72
100
AcDbEntity
  8
0
  6
ByLayer
 62
  256
370
   -1
100
AcDbLine
 10
54.62603041782161
 20
59.52149988321225
 11
53.2703832269557
 21
59.52149988321225
  0
LINE
  5
73
100
AcDbEntity
  8
0
  6
ByLayer
 62
  256
370
   -1
100
AcDbLine
 10
53.2703832269557
 20
59.52149988321225
 11
55.90137177914274
 21
55.94234135659658
  0
LINE
  5
74
100
AcDbEntity
  8
0
  6
ByLayer
 62
  256
370
   -1
100
AcDbLine
 10
57.17671314046386
 20
69.38881388278338
 11
57.17671314046386
 21
59.52149988321225
  0
LINE
  5
75
100
AcDbEntity
  8
0
  6
ByLayer
 62
  256
370
   -1
100
AcDbLine
 10
57.17671314046386
 20
59.52149988321225
 11
58.53236033132977
 21
59.52149988321225
  0
LINE
  5
76
100
AcDbEntity
  8
0
  6
ByLayer
 62
  256
370
   -1
100
AcDbLine
 10
58.53236033132977
 20
59.52149988321225
 11
55.90137177914274
 21
55.94234135659658
  0
LINE
  5
77
100
AcDbEntity
  8
0
  6
ByLayer
 62
  256
370
   -1
100
AcDbLine
 10
54.62603041782161
 20
69.38881388278338
 11
57.17671314046386
 21
69.38881388278338
  0
TEXT
  5
78
100
AcDbEntity
  8
0
  6
ByLayer
 62
  256
370
   -1
100
AcDbText
 10
38.79372256945408
 20
63.36431034891351
 30
0
 40
2
  1
current flow
 50
0
 41
1
 51
0
  7
courier
 71
    0
 72
    1
 11
38.79372256945408
 21
63.36431034891351
 31
0
210
0
220
0
230
1
100
AcDbText
  0
CIRCLE
  5
79
100
AcDbEntity
  8
0
  6
ByLayer
 62
  256
370
   -1
100
AcDbCircle
 10
66.00000000000001
 20
37.4293986497394
 40
3.288236609491476
  0
CIRCLE
  5
7A
100
AcDbEntity
  8
0
  6
ByLayer
 62
  256
370
   -1
100
AcDbCircle
 10
66.00000000000001
 20
32.37518805583698
 40
3.288236609491476
  0
TEXT
  5
7B
100
AcDbEntity
  8
0
  6
ByLayer
 62
  256
370
   -1
100
AcDbText
 10
66.00000000000001
 20
24.45674387473747
 30
0
 40
2
  1
consumer
 50
0
 41
1
 51
0
  7
courier
 71
    0
 72
    1
 11
66.00000000000001
 21
24.45674387473747
 31
0
210
0
220
0
230
1
100
AcDbText
  0
LINE
  5
7C
100
AcDbEntity
  8
0
  6
ByLayer
 62
  256
370
   -1
100
AcDbLine
 10
66.00000000000001
 20
40.71763525923087
 11
66.00000000000001
 21
88.51116102945447
  0
ARC
  5
7D
100
AcDbEntity
  8
0
  6
ByLayer
 62
  256
370
   -1
100
AcDbCircle
 10
65.76030230655871
 20
52.11548750996067
 40
1.381897115636824
100
AcDbArc
 50
88.50061140091496
 51
271.499388599085
  0
ARC
  5
7E
100
AcDbEntity
  8
0
  6
ByLayer
 62
  256
370
   -1
100
AcDbCircle
 10
65.76030230655871
 20
49.35263959008077
 40
1.381897115636824
100
AcDbArc
 50
88.50061140091496
 51
271.499388599085
  0
LINE
  5
7F
100
AcDbEntity
  8
0
  6
ByLayer
 62
  256
370
   -1
100
AcDbLine
 10
65.79646141480514
 20
53.49691146990062
 11
67.47577143663351
 21
53.49691146990062
  0
LINE
  5
80
100
AcDbEntity
  8
0
  6
ByLayer
 62
  256
370
   -1
100
AcDbLine
 10
65.79646141477492
 20
50.73406355002072
 11
67.4757714366033
 21
50.73406355002072
  0
LINE
  5
81
100
AcDbEntity
  8
0
  6
ByLayer
 62
  256
370
   -1
100
AcDbLine
 10
65.79646141474473
 20
47.97121563014082
 11
67.4757714365731
 21
47.97121563014082
  0
LINE
  5
82
100
AcDbEntity
  8
0
  6
ByLayer
 62
  256
370
   -1
100
AcDbLine
 10
67.47577143663351
 20
53.49691146990062
 11
75.36477079373618
 21
53.49691146990062
  0
TEXT
  5
83
100
AcDbEntity
  8
0
  6
ByLayer
 62
  256
370
   -1
100
AcDbText
 10
77.73183065153741
 20
52.59013185277549
 30
0
 40
2
  1
50
 50
0
 41
1
 51
0
  7
courier
 71
    0
 72
    1
 11
77.73183065153741
 21
52.59013185277549
 31
0
210
0
220
0
230
1
100
AcDbText
  0
CIRCLE
  5
84
100
AcDbEntity
  8
0
  6
ByLayer
 62
  256
370
   -1
100
AcDbCircle
 10
78.21105795677876
 20
53.49691146990062
 40
2.846287163042574
  0
CIRCLE
  5
85
100
AcDbEntity
  8
0
  6
ByLayer
 62
  256
370
   -1
100
AcDbCircle
 10
83.90363228286391
 20
53.49691146990062
 40
2.846287163042574
  0
TEXT
  5
86
100
AcDbEntity
  8
0
  6
ByLayer
 62
  256
370
   -1
100
AcDbText
 10
83.42440497762256
 20
52.59013185277549
 30
0
 40
2
  1
51
 50
0
 41
1
 51
0
  7
courier
 71
    0
 72
    1
 11
83.42440497762256
 21
52.59013185277549
 31
0
210
0
220
0
230
1
100
AcDbText
  0
TEXT
  5
87
100
AcDbEntity
  8
0
  6
ByLayer
 62
  256
370
   -1
100
AcDbText
 10
70.23365776063339
 20
73.04573856647529
 30
0
 40
2
  1
s1
 50
0
 41
1
 51
0
  7
courier
 71
    0
 72
    1
 11
70.23365776063339
 21
73.04573856647529
 31
0
210
0
220
0
230
1
100
AcDbText
  0
TEXT
  5
88
100
AcDbEntity
  8
0
  6
ByLayer
 62
  256
370
   -1
100
AcDbText
 10
70.23365776063339
 20
63.87765469410069
 30
0
 40
2
  1
s2
 50
0
 41
1
 51
0
  7
courier
 71
    0
 72
    1
 11
70.23365776063339
 21
63.87765469410069
 31
0
210
0
220
0
230
1
100
AcDbText
  0
TEXT
  5
89
100
AcDbEntity
  8
0
  6
ByLayer
 62
  256
370
   -1
100
AcDbText
 10
62.38657262732013
 20
55.11851493433538
 30
0
 40
2
  1
P1
 50
0
 41
1
 51
0
  7
courier
 71
    0
 72
    1
 11
62.38657262732013
 21
55.11851493433538
 31
0
210
0
220
0
230
1
100
AcDbText
  0
TEXT
  5
8A
100
AcDbEntity
  8
0
  6
ByLayer
 62
  256
370
   -1
100
AcDbText
 10
62.38657262732013
 20
45.95043106196078
 30
0
 40
2
  1
P2
 50
0
 41
1
 51
0
  7
courier
 71
    0
 72
    1
 11
62.38657262732013
 21
45.95043106196078
 31
0
210
0
220
0
230
1
100
AcDbText
  0
TEXT
  5
8B
100
AcDbEntity
  8
0
  6
ByLayer
 62
  256
370
   -1
100
AcDbText
 10
70.23365776063339
 20
55.11851493433538
 30
0
 40
2
  1
s1
 50
0
 41
1
 51
0
  7
courier
 71
    0
 72
    1
 11
70.23365776063339
 21
55.11851493433538
 31
0
210
0
220
0
230
1
100
AcDbText
  0
TEXT
  5
8C
100
AcDbEntity
  8
0
  6
ByLayer
 62
  256
370
   -1
100
AcDbText
 10
70.23365776063339
 20
45.95043106196078
 30
0
 40
2
  1
s2
 50
0
 41
1
 51
0
  7
courier
 71
    0
 72
    1
 11
70.23365776063339
 21
45.95043106196078
 31
0
210
0
220
0
230
1
100
AcDbText
  0
ARC
  5
8D
100
AcDbEntity
  8
0
  6
ByLayer
 62
  256
370
   -1
100
AcDbCircle
 10
264.1041911021829
 20
70.04271114210059
 40
1.381897115636824
100
AcDbArc
 50
88.50061140091496
 51
271.499388599085
  0
ARC
  5
8E
100
AcDbEntity
  8
0
  6
ByLayer
 62
  256
370
   -1
100
AcDbCircle
 10
264.1041911021829
 20
67.27986322222068
 40
1.381897115636824
100
AcDbArc
 50
88.50061140091496
 51
271.499388599085
  0
LINE
  5
8F
100
AcDbEntity
  8
0
  6
ByLayer
 62
  256
370
   -1
100
AcDbLine
 10
264.1403502104293
 20
71.42413510204054
 11
265.8196602322577
 21
71.42413510204054
  0
LINE
  5
90
100
AcDbEntity
  8
0
  6
ByLayer
 62
  256
370
   -1
100
AcDbLine
 10
264.140350210399
 20
68.66128718216063
 11
265.8196602322274
 21
68.66128718216063
  0
LINE
  5
91
100
AcDbEntity
  8
0
  6
ByLayer
 62
  256
370
   -1
100
AcDbLine
 10
264.1403502103689
 20
65.89843926228073
 11
265.8196602321972
 21
65.89843926228073
  0
MTEXT
  5
92
100
AcDbEntity
  8
0
  6
ByLayer
 62
  256
370
   -1
100
AcDbMText
 10
280.0363382589768
 20
74.22074289949732
 30
0
 40
2
 41
13.30094704240614
 71
    1
 72
    1
  1
tariff\Pmeter
  7
courier
210
0
220
0
230
1
 50
0
 73
    2
 44
1
  0
LWPOLYLINE
  5
93
100
AcDbEntity
  8
0
  6
ByLayer
 62
  256
370
   -1
100
AcDbPolyline
 90
    4
 70
    1
 43
0
 10
278.1043838513997
 20
75.47404410215769
 10
294.9982899661741
 20
75.47404410215769
 10
294.9982899661741
 20
67.3742261019234
 10
278.1043838513997
 20
67.3742261019234
  0
TEXT
  5
94
100
AcDbEntity
  8
0
  6
ByLayer
 62
  256
370
   -1
100
AcDbText
 10
264.3438887956241
 20
90.46310145582525
 30
0
 40
2
  1
sppg
 50
0
 41
1
 51
0
  7
courier
 71
    0
 72
    1
 11
264.3438887956241
 21
90.46310145582525
 31
0
210
0
220
0
230
1
100
AcDbText
  0
CIRCLE
  5
95
100
AcDbEntity
  8
0
  6
ByLayer
 62
  256
370
   -1
100
AcDbCircle
 10
272.6307910263445
 20
83.42281955877645
 40
1.504251914329231
  0
CIRCLE
  5
96
100
AcDbEntity
  8
0
  6
ByLayer
 62
  256
370
   -1
100
AcDbCircle
 10
274.6894486608527
 20
83.42281955877645
 40
1.504251914329231
  0
LINE
  5
97
100
AcDbEntity
  8
0
  6
ByLayer
 62
  256
370
   -1
100
AcDbLine
 10
271.1265391120153
 20
83.42281955877645
 11
264.3438887956241
 21
83.42281955877645
  0
CIRCLE
  5
98
100
AcDbEntity
  8
0
  6
ByLayer
 62
  256
370
   -1
100
AcDbCircle
 10
264.3438887956241
 20
83.42281955877645
 40
0.43789033277578
  0
LINE
  5
99
100
AcDbEntity
  8
0
  6
ByLayer
 62
  256
370
   -1
100
AcDbLine
 10
276.1937005751819
 20
83.42281955877645
 11
287.5897899474425
 21
83.42281955877645
  0
LINE
  5
9A
100
AcDbEntity
  8
0
  6
ByLayer
 62
  256
370
   -1
100
AcDbLine
 10
287.5897899474425
 20
83.42281955877645
 11
287.5897899474425
 21
75.47404410215769
  0
TEXT
  5
9B
100
AcDbEntity
  8
0
  6
ByLayer
 62
  256
370
   -1
100
AcDbText
 10
260.7304614229442
 20
73.04573856647529
 30
0
 40
2
  1
P1
 50
0
 41
1
 51
0
  7
courier
 71
    0
 72
    1
 11
260.7304614229442
 21
73.04573856647529
 31
0
210
0
220
0
230
1
100
AcDbText
  0
LWPOLYLINE
  5
9C
100
AcDbEntity
  8
0
  6
ByLayer
 62
  256
370
   -1
100
AcDbPolyline
 90
    4
 70
    1
 43
0
 10
221.4260587050726
 20
115.823031152768
 10
401.9616019254014
 20
115.823031152768
 10
401.9616019254014
 20
2.885271238681054
 10
221.4260587050726
 20
2.885271238681054
  0
TEXT
  5
9D
100
AcDbEntity
  8
0
  6
ByLayer
 62
  256
370
   -1
100
AcDbText
 10
260.7304614229442
 20
63.87765469410069
 30
0
 40
2
  1
P2
 50
0
 41
1
 51
0
  7
courier
 71
    0
 72
    1
 11
260.7304614229442
 21
63.87765469410069
 31
0
210
0
220
0
230
1
100
AcDbText
  0
LINE
  5
9E
100
AcDbEntity
  8
0
  6
ByLayer
 62
  256
370
   -1
100
AcDbLine
 10
252.9699192134457
 20
69.38881388278338
 11
252.9699192134457
 21
59.52149988321225
  0
LINE
  5
9F
100
AcDbEntity
  8
0
  6
ByLayer
 62
  256
370
   -1
100
AcDbLine
 10
252.9699192134457
 20
59.52149988321225
 11
251.6142720225798
 21
59.52149988321225
  0
LINE
  5
A0
100
AcDbEntity
  8
0
  6
ByLayer
 62
  256
370
   -1
100
AcDbLine
 10
251.6142720225798
 20
59.52149988321225
 11
254.2452605747669
 21
55.94234135659658
  0
LINE
  5
A1
100
AcDbEntity
  8
0
  6
ByLayer
 62
  256
370
   -1
100
AcDbLine
 10
255.520601936088
 20
69.38881388278338
 11
255.520601936088
 21
59.52149988321225
  0
LINE
  5
A2
100
AcDbEntity
  8
0
  6
ByLayer
 62
  256
370
   -1
100
AcDbLine
 10
255.520601936088
 20
59.52149988321225
 11
256.8762491269539
 21
59.52149988321225
  0
LINE
  5
A3
100
AcDbEntity
  8
0
  6
ByLayer
 62
  256
370
   -1
100
AcDbLine
 10
256.8762491269539
 20
59.52149988321225
 11
254.2452605747669
 21
55.94234135659658
  0
LINE
  5
A4
100
AcDbEntity
  8
0
  6
ByLayer
 62
  256
370
   -1
100
AcDbLine
 10
252.9699192134457
 20
69.38881388278338
 11
255.520601936088
 21
69.38881388278338
  0
TEXT
  5
A5
100
AcDbEntity
  8
0
  6
ByLayer
 62
  256
370
   -1
100
AcDbText
 10
237.1376113650782
 20
63.36431034891351
 30
0
 40
2
  1
current flow
 50
0
 41
1
 51
0
  7
courier
 71
    0
 72
    1
 11
237.1376113650782
 21
63.36431034891351
 31
0
210
0
220
0
230
1
100
AcDbText
  0
CIRCLE
  5
A6
100
AcDbEntity
  8
0
  6
ByLayer
 62
  256
370
   -1
100
AcDbCircle
 10
264.3438887956241
 20
37.4293986497394
 40
3.288236609491476
  0
CIRCLE
  5
A7
100
AcDbEntity
  8
0
  6
ByLayer
 62
  256
370
   -1
100
AcDbCircle
 10
264.3438887956241
 20
32.37518805583698
 40
3.288236609491476
  0
TEXT
  5
A8
100
AcDbEntity
  8
0
  6
ByLayer
 62
  256
370
   -1
100
AcDbText
 10
264.3438887956241
 20
24.45674387473747
 30
0
 40
2
  1
consumer
 50
0
 41
1
 51
0
  7
courier
 71
    0
 72
    1
 11
264.3438887956241
 21
24.45674387473747
 31
0
210
0
220
0
230
1
100
AcDbText
  0
LINE
  5
A9
100
AcDbEntity
  8
0
  6
ByLayer
 62
  256
370
   -1
100
AcDbLine
 10
264.3438887956241
 20
40.71763525923087
 11
264.3438887956241
 21
88.51116102945447
  0
ARC
  5
AA
100
AcDbEntity
  8
0
  6
ByLayer
 62
  256
370
   -1
100
AcDbCircle
 10
264.1041911021829
 20
52.11548750996067
 40
1.381897115636824
100
AcDbArc
 50
88.50061140091496
 51
271.499388599085
  0
ARC
  5
AB
100
AcDbEntity
  8
0
  6
ByLayer
 62
  256
370
   -1
100
AcDbCircle
 10
264.1041911021829
 20
49.35263959008077
 40
1.381897115636824
100
AcDbArc
 50
88.50061140091496
 51
271.499388599085
  0
LINE
  5
AC
100
AcDbEntity
  8
0
  6
ByLayer
 62
  256
370
   -1
100
AcDbLine
 10
264.1403502104293
 20
53.49691146990062
 11
265.8196602322577
 21
53.49691146990062
  0
LINE
  5
AD
100
AcDbEntity
  8
0
  6
ByLayer
 62
  256
370
   -1
100
AcDbLine
 10
264.140350210399
 20
50.73406355002072
 11
265.8196602322274
 21
50.73406355002072
  0
LINE
  5
AE
100
AcDbEntity
  8
0
  6
ByLayer
 62
  256
370
   -1
100
AcDbLine
 10
264.1403502103689
 20
47.97121563014082
 11
265.8196602321972
 21
47.97121563014082
  0
TEXT
  5
AF
100
AcDbEntity
  8
0
  6
ByLayer
 62
  256
370
   -1
100
AcDbText
 10
276.0757194471615
 20
52.59013185277549
 30
0
 40
2
  1
50
 50
0
 41
1
 51
0
  7
courier
 71
    0
 72
    1
 11
276.0757194471615
 21
52.59013185277549
 31
0
210
0
220
0
230
1
100
AcDbText
  0
CIRCLE
  5
B0
100
AcDbEntity
  8
0
  6
ByLayer
 62
  256
370
   -1
100
AcDbCircle
 10
276.5549467524029
 20
53.49691146990062
 40
2.846287163042574
  0
CIRCLE
  5
B1
100
AcDbEntity
  8
0
  6
ByLayer
 62
  256
370
   -1
100
AcDbCircle
 10
282.247521078488
 20
53.49691146990062
 40
2.846287163042574
  0
TEXT
  5
B2
100
AcDbEntity
  8
0
  6
ByLayer
 62
  256
370
   -1
100
AcDbText
 10
281.7682937732467
 20
52.59013185277549
 30
0
 40
2
  1
51
 50
0
 41
1
 51
0
  7
courier
 71
    0
 72
    1
 11
281.7682937732467
 21
52.59013185277549
 31
0
210
0
220
0
230
1
100
AcDbText
  0
TEXT
  5
B3
100
AcDbEntity
  8
0
  6
ByLayer
 62
  256
370
   -1
100
AcDbText
 10
268.5775465562575
 20
73.04573856647529
 30
0
 40
2
  1
s1
 50
0
 41
1
 51
0
  7
courier
 71
    0
 72
    1
 11
268.5775465562575
 21
73.04573856647529
 31
0
210
0
220
0
230
1
100
AcDbText
  0
TEXT
  5
B4
100
AcDbEntity
  8
0
  6
ByLayer
 62
  256
370
   -1
100
AcDbText
 10
268.5775465562575
 20
63.87765469410069
 30
0
 40
2
  1
s2
 50
0
 41
1
 51
0
  7
courier
 71
    0
 72
    1
 11
268.5775465562575
 21
63.87765469410069
 31
0
210
0
220
0
230
1
100
AcDbText
  0
TEXT
  5
B5
100
AcDbEntity
  8
0
  6
ByLayer
 62
  256
370
   -1
100
AcDbText
 10
260.7304614229442
 20
55.11851493433538
 30
0
 40
2
  1
P1
 50
0
 41
1
 51
0
  7
courier
 71
    0
 72
    1
 11
260.7304614229442
 21
55.11851493433538
 31
0
210
0
220
0
230
1
100
AcDbText
  0
TEXT
  5
B6
100
AcDbEntity
  8
0
  6
ByLayer
 62
  256
370
   -1
100
AcDbText
 10
260.7304614229442
 20
45.95043106196078
 30
0
 40
2
  1
P2
 50
0
 41
1
 51
0
  7
courier
 71
    0
 72
    1
 11
260.7304614229442
 21
45.95043106196078
 31
0
210
0
220
0
230
1
100
AcDbText
  0
TEXT
  5
B7
100
AcDbEntity
  8
0
  6
ByLayer
 62
  256
370
   -1
100
AcDbText
 10
268.5775465562575
 20
55.11851493433538
 30
0
 40
2
  1
s1
 50
0
 41
1
 51
0
  7
courier
 71
    0
 72
    1
 11
268.5775465562575
 21
55.11851493433538
 31
0
210
0
220
0
230
1
100
AcDbText
  0
TEXT
  5
B8
100
AcDbEntity
  8
0
  6
ByLayer
 62
  256
370
   -1
100
AcDbText
 10
268.5775465562575
 20
45.95043106196078
 30
0
 40
2
  1
s2
 50
0
 41
1
 51
0
  7
courier
 71
    0
 72
    1
 11
268.5775465562575
 21
45.95043106196078
 31
0
210
0
220
0
230
1
100
AcDbText
  0
LINE
  5
B9
100
AcDbEntity
  8
0
  6
ByLayer
 62
  256
370
   -1
100
AcDbLine
 10
265.8196602321972
 20
65.89843926228073
 11
278.1043838513997
 21
71.42413510204054
  0
LINE
  5
BA
100
AcDbEntity
  8
0
  6
ByLayer
 62
  256
370
   -1
100
AcDbLine
 10
265.8196602321972
 20
47.97121563014082
 11
273.7086595893603
 21
53.49691146990062
  0
LINE
  5
BB
100
AcDbEntity
  8
0
  6
ByLayer
 62
  256
370
   -1
100
AcDbLine
 10
170.4519905032335
 20
29.7755290273618
 11
178.9268223694251
 21
29.7755290273618
  0
LINE
  5
BC
100
AcDbEntity
  8
0
  6
ByLayer
 62
  256
370
   -1
100
AcDbLine
 10
178.9268223694251
 20
29.7755290273618
 11
177.7172435490337
 21
30.34691862024798
  0
LINE
  5
BD
100
AcDbEntity
  8
0
  6
ByLayer
 62
  256
370
   -1
100
AcDbLine
 10
178.9268223694251
 20
29.7755290273618
 11
177.7172435490337
 21
29.20413943447561
  0
LINE
  5
BE
100
AcDbEntity
  8
0
  6
ByLayer
 62
  256
370
   -1
100
AcDbLine
 10
170.4519905032335
 20
29.7755290273618
 11
165.5704502191789
 21
36.70325156910448
  0
LINE
  5
BF
100
AcDbEntity
  8
0
  6
ByLayer
 62
  256
370
   -1
100
AcDbLine
 10
165.5704502191789
 20
36.70325156910448
 11
165.8000924358568
 21
35.38536255939335
  0
LINE
  5
C0
100
AcDbEntity
  8
0
  6
ByLayer
 62
  256
370
   -1
100
AcDbLine
 10
165.5704502191789
 20
36.70325156910448
 11
166.7342534021755
 21
36.04360837703383
  0
LINE
  5
C1
100
AcDbEntity
  8
0
  6
ByLayer
 62
  256
370
   -1
100
AcDbLine
 10
170.4519905032335
 20
29.7755290273618
 11
165.5704502191789
 21
22.84780648561912
  0
LINE
  5
C2
100
AcDbEntity
  8
0
  6
ByLayer
 62
  256
370
   -1
100
AcDbLine
 10
165.5704502191789
 20
22.84780648561912
 11
165.8000924358568
 21
24.16569549533025
  0
LINE
  5
C3
100
AcDbEntity
  8
0
  6
ByLayer
 62
  256
370
   -1
100
AcDbLine
 10
165.5704502191789
 20
22.84780648561912
 11
166.7342534021755
 21
23.50744967768976
  0
TEXT
  5
C4
100
AcDbEntity
  8
0
  6
ByLayer
 62
  256
370
   -1
100
AcDbText
 10
182.4743793476853
 20
28.99310567114184
 30
0
 40
2
  1
Ia
 50
0
 41
1
 51
0
  7
courier
 71
    0
 72
    1
 11
182.4743793476853
 21
28.99310567114184
 31
0
210
0
220
0
230
1
100
AcDbText
  0
TEXT
  5
C5
100
AcDbEntity
  8
0
  6
ByLayer
 62
  256
370
   -1
100
AcDbText
 10
164.9224403094504
 20
38.05763902750977
 30
0
 40
2
  1
Ib
 50
0
 41
1
 51
0
  7
courier
 71
    0
 72
    1
 11
164.9224403094504
 21
38.05763902750977
 31
0
210
0
220
0
230
1
100
AcDbText
  0
TEXT
  5
C6
100
AcDbEntity
  8
0
  6
ByLayer
 62
  256
370
   -1
100
AcDbText
 10
164.1726283331236
 20
19.83800308683042
 30
0
 40
2
  1
Ic
 50
0
 41
1
 51
0
  7
courier
 71
    0
 72
    1
 11
164.1726283331236
 21
19.83800308683042
 31
0
210
0
220
0
230
1
100
AcDbText
  0
ARC
  5
C7
100
AcDbEntity
  8
0
  6
ByLayer
 62
  256
370
   -1
100
AcDbCircle
 10
169.7495882968092
 20
30.48603082760835
 40
15.96468176720511
100
AcDbArc
 50
21.03170345395644
 51
90.11534338316551
  0
LINE
  5
C8
100
AcDbEntity
  8
0
  6
ByLayer
 62
  256
370
   -1
100
AcDbLine
 10
169.7174494695158
 20
46.45068024511551
 11
173.0466602552258
 21
47.10653611461271
  0
LINE
  5
C9
100
AcDbEntity
  8
0
  6
ByLayer
 62
  256
370
   -1
100
AcDbLine
 10
169.7174494695158
 20
46.45068024511551
 11
172.5819730583794
 21
45.06191244848839
  0
LINE
  5
CA
100
AcDbEntity
  8
0
  6
ByLayer
 62
  256
370
   -1
100
AcDbLine
 10
314.5325288347885
 20
19.69530108288842
 11
328.6572486117747
 21
19.69530108288842
  0
LINE
  5
CB
100
AcDbEntity
  8
0
  6
ByLayer
 62
  256
370
   -1
100
AcDbLine
 10
328.6572486117747
 20
19.69530108288842
 11
326.6412839111222
 21
20.64761707103206
  0
LINE
  5
CC
100
AcDbEntity
  8
0
  6
ByLayer
 62
  256
370
   -1
100
AcDbLine
 10
328.6572486117747
 20
19.69530108288842
 11
326.6412839111222
 21
18.74298509474478
  0
LINE
  5
CD
100
AcDbEntity
  8
0
  6
ByLayer
 62
  256
370
   -1
100
AcDbLine
 10
314.5325288347885
 20
19.69530108288842
 11
306.3966283613643
 21
31.24150531912622
  0
LINE
  5
CE
100
AcDbEntity
  8
0
  6
ByLayer
 62
  256
370
   -1
100
AcDbLine
 10
306.3966283613643
 20
31.24150531912622
 11
306.7793653891608
 21
29.04502363627434
  0
LINE
  5
CF
100
AcDbEntity
  8
0
  6
ByLayer
 62
  256
370
   -1
100
AcDbLine
 10
306.3966283613643
 20
31.24150531912622
 11
308.3363003330252
 21
30.14209999900848
  0
LINE
  5
D0
100
AcDbEntity
  8
0
  6
ByLayer
 62
  256
370
   -1
100
AcDbLine
 10
314.5325288347885
 20
19.69530108288842
 11
306.3966283613643
 21
8.149096846650622
  0
LINE
  5
D1
100
AcDbEntity
  8
0
  6
ByLayer
 62
  256
370
   -1
100
AcDbLine
 10
306.3966283613643
 20
8.149096846650622
 11
306.7793653891608
 21
10.3455785295025
  0
LINE
  5
D2
100
AcDbEntity
  8
0
  6
ByLayer
 62
  256
370
   -1
100
AcDbLine
 10
306.3966283613643
 20
8.149096846650622
 11
308.3363003330252
 21
9.248502166768361
  0
TEXT
  5
D3
100
AcDbEntity
  8
0
  6
ByLayer
 62
  256
370
   -1
100
AcDbText
 10
335.06842510593
 20
19.18458541049898
 30
0
 40
2
  1
IA
 50
0
 41
1
 51
0
  7
courier
 71
    0
 72
    1
 11
335.06842510593
 21
19.18458541049898
 31
0
210
0
220
0
230
1
100
AcDbText
  0
TEXT
  5
D4
100
AcDbEntity
  8
0
  6
ByLayer
 62
  256
370
   -1
100
AcDbText
 10
305.6519172070958
 20
33.13985707581624
 30
0
 40
2
  1
IB
 50
0
 41
1
 51
0
  7
courier
 71
    0
 72
    1
 11
305.6519172070958
 21
33.13985707581624
 31
0
210
0
220
0
230
1
100
AcDbText
  0
TEXT
  5
D5
100
AcDbEntity
  8
0
  6
ByLayer
 62
  256
370
   -1
100
AcDbText
 10
303.5435668116162
 20
5.229313745181731
 30
0
 40
2
  1
IC
 50
0
 41
1
 51
0
  7
courier
 71
    0
 72
    1
 11
303.5435668116162
 21
5.229313745181731
 31
0
210
0
220
0
230
1
100
AcDbText
  0
ARC
  5
D6
100
AcDbEntity
  8
0
  6
ByLayer
 62
  256
370
   -1
100
AcDbCircle
 10
317.1601340788828
 20
26.00626995900697
 40
15.96468176720511
100
AcDbArc
 50
21.03170345395644
 51
90.11534338316551
  0
LINE
  5
D7
100
AcDbEntity
  8
0
  6
ByLayer
 62
  256
370
   -1
100
AcDbLine
 10
317.1279952515894
 20
41.97091937651413
 11
320.4572060372993
 21
42.62677524601133
  0
LINE
  5
D8
100
AcDbEntity
  8
0
  6
ByLayer
 62
  256
370
   -1
100
AcDbLine
 10
317.1279952515894
 20
41.97091937651413
 11
319.9925188404529
 21
40.58215157988701
  0
ARC
  5
D9
100
AcDbEntity
  8
0
  6
ByLayer
 62
  256
370
   -1
100
AcDbCircle
 10
363.1562225890179
 20
20.40580288313497
 40
15.96468176720511
100
AcDbArc
 50
21.03170345395644
 51
90.11534338316551
  0
LINE
  5
DA
100
AcDbEntity
  8
0
  6
ByLayer
 62
  256
370
   -1
100
AcDbLine
 10
363.1240837617245
 20
36.37045230064213
 11
366.4532945474345
 21
37.02630817013933
  0
LINE
  5
DB
100
AcDbEntity
  8
0
  6
ByLayer
 62
  256
370
   -1
100
AcDbLine
 10
363.1240837617245
 20
36.37045230064213
 11
365.9886073505881
 21
34.98168450401501
  0
LINE
  5
DC
100
AcDbEntity
  8
0
  6
ByLayer
 62
  256
370
   -1
100
AcDbLine
 10
363.8586247954422
 20
19.69530108288842
 11
368.7580195477766
 21
26.61040818408465
  0
LINE
  5
DD
100
AcDbEntity
  8
0
  6
ByLayer
 62
  256
370
   -1
100
AcDbLine
 10
368.7580195477766
 20
26.61040818408465
 11
367.5925186254656
 21
25.95376932619537
  0
LINE
  5
DE
100
AcDbEntity
  8
0
  6
ByLayer
 62
  256
370
   -1
100
AcDbLine
 10
368.7580195477766
 20
26.61040818408465
 11
368.5249784768708
 21
25.29311594283023
  0
LINE
  5
DF
100
AcDbEntity
  8
0
  6
ByLayer
 62
  256
370
   -1
100
AcDbLine
 10
363.8586247954422
 20
19.69530108288842
 11
355.3838211263513
 21
19.71716270640224
  0
LINE
  5
E0
100
AcDbEntity
  8
0
  6
ByLayer
 62
  256
370
   -1
100
AcDbLine
 10
355.3838211263513
 20
19.71716270640224
 11
356.5919219692474
 21
19.14265479262554
  0
LINE
  5
E1
100
AcDbEntity
  8
0
  6
ByLayer
 62
  256
370
   -1
100
AcDbLine
 10
355.3838211263513
 20
19.71716270640224
 11
356.5948698753195
 21
20.28543017619151
  0
LINE
  5
E2
100
AcDbEntity
  8
0
  6
ByLayer
 62
  256
370
   -1
100
AcDbLine
 10
363.8586247954422
 20
19.69530108288842
 11
366.689282780318
 21
11.70717548717599
  0
LINE
  5
E3
100
AcDbEntity
  8
0
  6
ByLayer
 62
  256
370
   -1
100
AcDbLine
 10
366.689282780318
 20
11.70717548717599
 11
365.7466993869881
 21
12.65644022170305
  0
LINE
  5
E4
100
AcDbEntity
  8
0
  6
ByLayer
 62
  256
370
   -1
100
AcDbLine
 10
366.689282780318
 20
11.70717548717599
 11
366.8238492122881
 21
13.03813711884871
  0
TEXT
  5
E5
100
AcDbEntity
  8
0
  6
ByLayer
 62
  256
370
   -1
100
AcDbText
 10
352.5607964161557
 20
19.17199125137667
 30
0
 40
2
  1
Ia
 50
0
 41
1
 51
0
  7
courier
 71
    0
 72
    1
 11
352.5607964161557
 21
19.17199125137667
 31
0
210
0
220
0
230
1
100
AcDbText
  0
TEXT
  5
E6
100
AcDbEntity
  8
0
  6
ByLayer
 62
  256
370
   -1
100
AcDbText
 10
368.5668442980237
 20
8.164748864891848
 30
0
 40
2
  1
Ib
 50
0
 41
1
 51
0
  7
courier
 71
    0
 72
    1
 11
368.5668442980237
 21
8.164748864891848
 31
0
210
0
220
0
230
1
100
AcDbText
  0
TEXT
  5
E7
100
AcDbEntity
  8
0
  6
ByLayer
 62
  256
370
   -1
100
AcDbText
 10
369.8793168648495
 20
27.65545885614561
 30
0
 40
2
  1
Ic
 50
0
 41
1
 51
0
  7
courier
 71
    0
 72
    1
 11
369.8793168648495
 21
27.65545885614561
 31
0
210
0
220
0
230
1
100
AcDbText
  0
LWPOLYLINE
  5
E8
100
AcDbEntity
  8
0
  6
ByLayer
 62
  256
370
   -1
100
AcDbPolyline
 90
    4
 70
    1
 43
0
 10
419.7699475006967
 20
115.823031152768
 10
600.3054907210255
 20
115.823031152768
 10
600.3054907210255
 20
2.885271238681054
 10
419.7699475006967
 20
2.885271238681054
  0
MTEXT
  5
E9
100
AcDbEntity
  8
0
  6
ByLayer
 62
  256
370
   -1
100
AcDbMText
 10
105.5305892452322
 20
85.34520813104112
 30
0
 40
2
 41
86.66218487478339
 71
    1
 72
    1
  1
note:\P\P1) tariff meter read as import*\P\P2) CT for 50/51. \Pprimary current and secondary current\Pwill be inphase**
  7
courier
210
0
220
0
230
1
 50
0
 73
    2
 44
1
  0
MTEXT
  5
EA
100
AcDbEntity
  8
0
  6
ByLayer
 62
  256
370
   -1
100
AcDbMText
 10
123.6096409611142
 20
110.510321736336
 30
0
 40
2
 41
74.03662746291532
 71
    1
 72
    1
  1
* This is consumer side.\PIt should always read as\Pimport\P\P** it is proper to make it inphase
  7
courier
210
0
220
0
230
1
 50
0
 73
    2
 44
1
  0
MTEXT
  5
EB
100
AcDbEntity
  8
0
  6
ByLayer
 62
  256
370
   -1
100
AcDbMText
 10
303.8744780408564
 20
85.34520813104112
 30
0
 40
2
 41
86.66218487478339
 71
    1
 72
    1
  1
note:\P\P1) tariff meter read as export*\P\P2) CT for 50/51. \Pprimary current and secondary current\Pwill be outphase**
  7
courier
210
0
220
0
230
1
 50
0
 73
    2
 44
1
  0
MTEXT
  5
EC
100
AcDbEntity
  8
0
  6
ByLayer
 62
  256
370
   -1
100
AcDbMText
 10
321.9535297567383
 20
110.510321736336
 30
0
 40
2
 41
64.12506339421034
 71
    1
 72
    1
  1
*This is consumer side.\PIt is wrong to read as export\P\P**We know that 50/51 read \Ponly amplitude. \PBut it not proper design.
  7
courier
210
0
220
0
230
1
 50
0
 73
    2
 44
1
  0
LINE
  5
ED
100
AcDbEntity
  8
0
  6
ByLayer
 62
  256
370
   -1
100
AcDbLine
 10
449.5246984776383
 20
95.94442896934322
 11
449.5246984776383
 21
86.07711496977208
  0
LINE
  5
EE
100
AcDbEntity
  8
0
  6
ByLayer
 62
  256
370
   -1
100
AcDbLine
 10
449.5246984776383
 20
86.07711496977208
 11
448.1690512867724
 21
86.07711496977208
  0
LINE
  5
EF
100
AcDbEntity
  8
0
  6
ByLayer
 62
  256
370
   -1
100
AcDbLine
 10
448.1690512867724
 20
86.07711496977208
 11
450.8000398389595
 21
82.49795644315643
  0
LINE
  5
F0
100
AcDbEntity
  8
0
  6
ByLayer
 62
  256
370
   -1
100
AcDbLine
 10
452.0753812002806
 20
95.94442896934322
 11
452.0753812002806
 21
86.07711496977208
  0
LINE
  5
F1
100
AcDbEntity
  8
0
  6
ByLayer
 62
  256
370
   -1
100
AcDbLine
 10
452.0753812002806
 20
86.07711496977208
 11
453.4310283911465
 21
86.07711496977208
  0
LINE
  5
F2
100
AcDbEntity
  8
0
  6
ByLayer
 62
  256
370
   -1
100
AcDbLine
 10
453.4310283911465
 20
86.07711496977208
 11
450.8000398389595
 21
82.49795644315643
  0
LINE
  5
F3
100
AcDbEntity
  8
0
  6
ByLayer
 62
  256
370
   -1
100
AcDbLine
 10
449.5246984776383
 20
95.94442896934322
 11
452.0753812002806
 21
95.94442896934322
  0
MTEXT
  5
F4
100
AcDbEntity
  8
0
  6
ByLayer
 62
  256
370
   -1
100
AcDbMText
 10
429.7080179517005
 20
93.99725757549012
 30
0
 40
2
 41
16.8241163070345
 71
    1
 72
    1
  1
primary \Pcurrent
  7
courier
210
0
220
0
230
1
 50
0
 73
    2
 44
1
  0
TEXT
  5
F5
100
AcDbEntity
  8
0
  6
ByLayer
 62
  256
370
   -1
100
AcDbText
 10
462.6877775912482
 20
59.51820832278523
 30
0
 40
2
  1
load
 50
0
 41
1
 51
0
  7
courier
 71
    0
 72
    1
 11
462.6877775912482
 21
59.51820832278523
 31
0
210
0
220
0
230
1
100
AcDbText
  0
MTEXT
  5
F6
100
AcDbEntity
  8
0
  6
ByLayer
 62
  256
370
   -1
100
AcDbMText
 10
454.8481810055108
 20
51.53040377289636
 30
0
 40
2
 41
13.16666668905152
 71
    1
 72
    1
  1
Case A
  7
courier
210
0
220
0
230
1
 50
0
 73
    2
 44
1
  0
LWPOLYLINE
  5
F7
100
AcDbEntity
  8
0
  6
ByLayer
 62
  256
370
   -1
100
AcDbPolyline
 90
    4
 70
    1
 43
0
 10
451.841765952121
 20
53.65133745454751
 10
470.8844437383133
 20
53.65133745454751
 10
470.8844437383133
 20
46.54046410400733
 10
451.841765952121
 20
46.54046410400733
  0
TEXT
  5
F8
100
AcDbEntity
  8
0
  6
ByLayer
 62
  256
370
   -1
100
AcDbText
 10
462.6877775912482
 20
105.2394638954779
 30
0
 40
2
  1
supply
 50
0
 41
1
 51
0
  7
courier
 71
    0
 72
    1
 11
462.6877775912482
 21
105.2394638954779
 31
0
210
0
220
0
230
1
100
AcDbText
  0
LINE
  5
F9
100
AcDbEntity
  8
0
  6
ByLayer
 62
  256
370
   -1
100
AcDbLine
 10
462.6877775912482
 20
63.51501376906166
 11
462.6877775912482
 21
103.2875234691071
  0
ARC
  5
FA
100
AcDbEntity
  8
0
  6
ByLayer
 62
  256
370
   -1
100
AcDbCircle
 10
462.448079897807
 20
83.88513423572894
 40
1.381897115636824
100
AcDbArc
 50
88.50061140091496
 51
271.499388599085
  0
ARC
  5
FB
100
AcDbEntity
  8
0
  6
ByLayer
 62
  256
370
   -1
100
AcDbCircle
 10
462.448079897807
 20
81.12228631584904
 40
1.381897115636824
100
AcDbArc
 50
88.50061140091496
 51
271.499388599085
  0
LINE
  5
FC
100
AcDbEntity
  8
0
  6
ByLayer
 62
  256
370
   -1
100
AcDbLine
 10
462.4842390060534
 20
85.26655819566889
 11
464.1635490278818
 21
85.26655819566889
  0
LINE
  5
FD
100
AcDbEntity
  8
0
  6
ByLayer
 62
  256
370
   -1
100
AcDbLine
 10
462.4842390060231
 20
82.50371027578899
 11
464.1635490278516
 21
82.50371027578899
  0
LINE
  5
FE
100
AcDbEntity
  8
0
  6
ByLayer
 62
  256
370
   -1
100
AcDbLine
 10
462.484239005993
 20
79.74086235590909
 11
464.1635490278213
 21
79.74086235590909
  0
TEXT
  5
FF
100
AcDbEntity
  8
0
  6
ByLayer
 62
  256
370
   -1
100
AcDbText
 10
459.0743502185683
 20
86.88816166010363
 30
0
 40
2
  1
P1
 50
0
 41
1
 51
0
  7
courier
 71
    0
 72
    1
 11
459.0743502185683
 21
86.88816166010363
 31
0
210
0
220
0
230
1
100
AcDbText
  0
TEXT
  5
100
100
AcDbEntity
  8
0
  6
ByLayer
 62
  256
370
   -1
100
AcDbText
 10
459.0743502185683
 20
77.72007778772905
 30
0
 40
2
  1
P2
 50
0
 41
1
 51
0
  7
courier
 71
    0
 72
    1
 11
459.0743502185683
 21
77.72007778772905
 31
0
210
0
220
0
230
1
100
AcDbText
  0
TEXT
  5
101
100
AcDbEntity
  8
0
  6
ByLayer
 62
  256
370
   -1
100
AcDbText
 10
466.9214353518817
 20
86.88816166010363
 30
0
 40
2
  1
s1
 50
0
 41
1
 51
0
  7
courier
 71
    0
 72
    1
 11
466.9214353518817
 21
86.88816166010363
 31
0
210
0
220
0
230
1
100
AcDbText
  0
TEXT
  5
102
100
AcDbEntity
  8
0
  6
ByLayer
 62
  256
370
   -1
100
AcDbText
 10
466.9214353518817
 20
77.72007778772905
 30
0
 40
2
  1
s2
 50
0
 41
1
 51
0
  7
courier
 71
    0
 72
    1
 11
466.9214353518817
 21
77.72007778772905
 31
0
210
0
220
0
230
1
100
AcDbText
  0
LINE
  5
103
100
AcDbEntity
  8
0
  6
ByLayer
 62
  256
370
   -1
100
AcDbLine
 10
464.1635490278818
 20
85.26655819566889
 11
485.5744882667943
 21
85.26655819566889
  0
LINE
  5
104
100
AcDbEntity
  8
0
  6
ByLayer
 62
  256
370
   -1
100
AcDbLine
 10
473.9290549613289
 20
87.65231575521204
 11
479.8943054160807
 21
87.65231575521204
  0
LINE
  5
105
100
AcDbEntity
  8
0
  6
ByLayer
 62
  256
370
   -1
100
AcDbLine
 10
479.8943054160807
 20
87.65231575521204
 11
479.8943054160807
 21
88.35759546865793
  0
LINE
  5
106
100
AcDbEntity
  8
0
  6
ByLayer
 62
  256
370
   -1
100
AcDbLine
 10
479.8943054160807
 20
88.35759546865793
 11
481.3866407591829
 21
87.36981718072033
  0
LINE
  5
107
100
AcDbEntity
  8
0
  6
ByLayer
 62
  256
370
   -1
100
AcDbLine
 10
473.9290549613289
 20
87.08731860622859
 11
479.8943054160807
 21
87.08731860622859
  0
LINE
  5
108
100
AcDbEntity
  8
0
  6
ByLayer
 62
  256
370
   -1
100
AcDbLine
 10
479.8943054160807
 20
87.08731860622859
 11
479.8943054160807
 21
86.38203889278273
  0
LINE
  5
109
100
AcDbEntity
  8
0
  6
ByLayer
 62
  256
370
   -1
100
AcDbLine
 10
479.8943054160807
 20
86.38203889278273
 11
481.3866407591829
 21
87.36981718072033
  0
LINE
  5
10A
100
AcDbEntity
  8
0
  6
ByLayer
 62
  256
370
   -1
100
AcDbLine
 10
473.9290549613289
 20
87.65231575521204
 11
473.9290549613289
 21
87.08731860622859
  0
MTEXT
  5
10B
100
AcDbEntity
  8
0
  6
ByLayer
 62
  256
370
   -1
100
AcDbMText
 10
472.1667609422571
 20
96.9642169302887
 30
0
 40
2
 41
21.07872484256877
 71
    1
 72
    1
  1
secondary\Pcurrent
  7
courier
210
0
220
0
230
1
 50
0
 73
    2
 44
1
  0
LINE
  5
10C
100
AcDbEntity
  8
0
  6
ByLayer
 62
  256
370
   -1
100
AcDbLine
 10
534.792815501421
 20
95.94442896934322
 11
534.792815501421
 21
86.07711496977208
  0
LINE
  5
10D
100
AcDbEntity
  8
0
  6
ByLayer
 62
  256
370
   -1
100
AcDbLine
 10
534.792815501421
 20
86.07711496977208
 11
533.4371683105551
 21
86.07711496977208
  0
LINE
  5
10E
100
AcDbEntity
  8
0
  6
ByLayer
 62
  256
370
   -1
100
AcDbLine
 10
533.4371683105551
 20
86.07711496977208
 11
536.0681568627422
 21
82.49795644315643
  0
LINE
  5
10F
100
AcDbEntity
  8
0
  6
ByLayer
 62
  256
370
   -1
100
AcDbLine
 10
537.3434982240633
 20
95.94442896934322
 11
537.3434982240633
 21
86.07711496977208
  0
LINE
  5
110
100
AcDbEntity
  8
0
  6
ByLayer
 62
  256
370
   -1
100
AcDbLine
 10
537.3434982240633
 20
86.07711496977208
 11
538.6991454149293
 21
86.07711496977208
  0
LINE
  5
111
100
AcDbEntity
  8
0
  6
ByLayer
 62
  256
370
   -1
100
AcDbLine
 10
538.6991454149293
 20
86.07711496977208
 11
536.0681568627422
 21
82.49795644315643
  0
LINE
  5
112
100
AcDbEntity
  8
0
  6
ByLayer
 62
  256
370
   -1
100
AcDbLine
 10
534.792815501421
 20
95.94442896934322
 11
537.3434982240633
 21
95.94442896934322
  0
MTEXT
  5
113
100
AcDbEntity
  8
0
  6
ByLayer
 62
  256
370
   -1
100
AcDbMText
 10
514.9761349754832
 20
93.99725757549012
 30
0
 40
2
 41
16.8241163070345
 71
    1
 72
    1
  1
primary \Pcurrent
  7
courier
210
0
220
0
230
1
 50
0
 73
    2
 44
1
  0
TEXT
  5
114
100
AcDbEntity
  8
0
  6
ByLayer
 62
  256
370
   -1
100
AcDbText
 10
547.9558946150308
 20
59.51820832278523
 30
0
 40
2
  1
load
 50
0
 41
1
 51
0
  7
courier
 71
    0
 72
    1
 11
547.9558946150308
 21
59.51820832278523
 31
0
210
0
220
0
230
1
100
AcDbText
  0
LWPOLYLINE
  5
115
100
AcDbEntity
  8
0
  6
ByLayer
 62
  256
370
   -1
100
AcDbPolyline
 90
    4
 70
    1
 43
0
 10
537.1098829759037
 20
53.65133745454751
 10
556.152560762096
 20
53.65133745454751
 10
556.152560762096
 20
46.54046410400733
 10
537.1098829759037
 20
46.54046410400733
  0
TEXT
  5
116
100
AcDbEntity
  8
0
  6
ByLayer
 62
  256
370
   -1
100
AcDbText
 10
547.9558946150308
 20
105.2394638954779
 30
0
 40
2
  1
supply
 50
0
 41
1
 51
0
  7
courier
 71
    0
 72
    1
 11
547.9558946150308
 21
105.2394638954779
 31
0
210
0
220
0
230
1
100
AcDbText
  0
LINE
  5
117
100
AcDbEntity
  8
0
  6
ByLayer
 62
  256
370
   -1
100
AcDbLine
 10
547.9558946150308
 20
63.51501376906166
 11
547.9558946150308
 21
103.2875234691071
  0
ARC
  5
118
100
AcDbEntity
  8
0
  6
ByLayer
 62
  256
370
   -1
100
AcDbCircle
 10
547.7161969215897
 20
83.88513423572894
 40
1.381897115636824
100
AcDbArc
 50
88.50061140091496
 51
271.499388599085
  0
ARC
  5
119
100
AcDbEntity
  8
0
  6
ByLayer
 62
  256
370
   -1
100
AcDbCircle
 10
547.7161969215897
 20
81.12228631584904
 40
1.381897115636824
100
AcDbArc
 50
88.50061140091496
 51
271.499388599085
  0
LINE
  5
11A
100
AcDbEntity
  8
0
  6
ByLayer
 62
  256
370
   -1
100
AcDbLine
 10
547.7523560298361
 20
85.26655819566889
 11
549.4316660516645
 21
85.26655819566889
  0
LINE
  5
11B
100
AcDbEntity
  8
0
  6
ByLayer
 62
  256
370
   -1
100
AcDbLine
 10
547.7523560298058
 20
82.50371027578899
 11
549.4316660516342
 21
82.50371027578899
  0
LINE
  5
11C
100
AcDbEntity
  8
0
  6
ByLayer
 62
  256
370
   -1
100
AcDbLine
 10
547.7523560297757
 20
79.74086235590909
 11
549.431666051604
 21
79.74086235590909
  0
LINE
  5
11D
100
AcDbEntity
  8
0
  6
ByLayer
 62
  256
370
   -1
100
AcDbLine
 10
549.4316660516645
 20
85.26655819566889
 11
570.842605290577
 21
85.26655819566889
  0
LINE
  5
11E
100
AcDbEntity
  8
0
  6
ByLayer
 62
  256
370
   -1
100
AcDbLine
 10
559.1971719851115
 20
87.65231575521204
 11
565.1624224398633
 21
87.65231575521204
  0
LINE
  5
11F
100
AcDbEntity
  8
0
  6
ByLayer
 62
  256
370
   -1
100
AcDbLine
 10
565.1624224398633
 20
87.65231575521204
 11
565.1624224398633
 21
88.35759546865793
  0
LINE
  5
120
100
AcDbEntity
  8
0
  6
ByLayer
 62
  256
370
   -1
100
AcDbLine
 10
565.1624224398633
 20
88.35759546865793
 11
566.6547577829656
 21
87.36981718072033
  0
LINE
  5
121
100
AcDbEntity
  8
0
  6
ByLayer
 62
  256
370
   -1
100
AcDbLine
 10
559.1971719851115
 20
87.08731860622859
 11
565.1624224398633
 21
87.08731860622859
  0
LINE
  5
122
100
AcDbEntity
  8
0
  6
ByLayer
 62
  256
370
   -1
100
AcDbLine
 10
565.1624224398633
 20
87.08731860622859
 11
565.1624224398633
 21
86.38203889278273
  0
LINE
  5
123
100
AcDbEntity
  8
0
  6
ByLayer
 62
  256
370
   -1
100
AcDbLine
 10
565.1624224398633
 20
86.38203889278273
 11
566.6547577829656
 21
87.36981718072033
  0
LINE
  5
124
100
AcDbEntity
  8
0
  6
ByLayer
 62
  256
370
   -1
100
AcDbLine
 10
559.1971719851115
 20
87.65231575521204
 11
559.1971719851115
 21
87.08731860622859
  0
MTEXT
  5
125
100
AcDbEntity
  8
0
  6
ByLayer
 62
  256
370
   -1
100
AcDbMText
 10
557.4348779660397
 20
96.9642169302887
 30
0
 40
2
 41
21.07872484256877
 71
    1
 72
    1
  1
secondary\Pcurrent
  7
courier
210
0
220
0
230
1
 50
0
 73
    2
 44
1
  0
TEXT
  5
126
100
AcDbEntity
  8
0
  6
ByLayer
 62
  256
370
   -1
100
AcDbText
 10
544.3424672423509
 20
86.88816166010363
 30
0
 40
2
  1
P2
 50
0
 41
1
 51
0
  7
courier
 71
    0
 72
    1
 11
544.3424672423509
 21
86.88816166010363
 31
0
210
0
220
0
230
1
100
AcDbText
  0
TEXT
  5
127
100
AcDbEntity
  8
0
  6
ByLayer
 62
  256
370
   -1
100
AcDbText
 10
552.1895523756643
 20
86.88816166010363
 30
0
 40
2
  1
s2
 50
0
 41
1
 51
0
  7
courier
 71
    0
 72
    1
 11
552.1895523756643
 21
86.88816166010363
 31
0
210
0
220
0
230
1
100
AcDbText
  0
TEXT
  5
128
100
AcDbEntity
  8
0
  6
ByLayer
 62
  256
370
   -1
100
AcDbText
 10
544.3424672423509
 20
77.72007778772905
 30
0
 40
2
  1
P1
 50
0
 41
1
 51
0
  7
courier
 71
    0
 72
    1
 11
544.3424672423509
 21
77.72007778772905
 31
0
210
0
220
0
230
1
100
AcDbText
  0
TEXT
  5
129
100
AcDbEntity
  8
0
  6
ByLayer
 62
  256
370
   -1
100
AcDbText
 10
552.1895523756643
 20
77.72007778772905
 30
0
 40
2
  1
s1
 50
0
 41
1
 51
0
  7
courier
 71
    0
 72
    1
 11
552.1895523756643
 21
77.72007778772905
 31
0
210
0
220
0
230
1
100
AcDbText
  0
MTEXT
  5
12A
100
AcDbEntity
  8
0
  6
ByLayer
 62
  256
370
   -1
100
AcDbMText
 10
540.1162980292935
 20
51.53040377289636
 30
0
 40
2
 41
13.05555557794041
 71
    1
 72
    1
  1
Case B
  7
courier
210
0
220
0
230
1
 50
0
 73
    2
 44
1
  0
MTEXT
  5
12B
100
AcDbEntity
  8
0
  6
ByLayer
 62
  256
370
   -1
100
AcDbMText
 10
444.6961630255639
 20
43.7552449563306
 30
0
 40
2
 41
113.7394396164326
 71
    1
 72
    1
  3
1) It doesn't matter P1 and P2 at which side.\P\P2) In case A. You shall connect meter or relay at S1.\P\PStarpoint at S2.\P\P3) In case B. You shall connect meter or relay at S2.\P\PStarpoint at S1.\P\P4) You can say it is not the must. \PBut it is 
  1
the proper and professional design.\P\P
  7
courier
210
0
220
0
230
1
 50
0
 73
    2
 44
1
  0
ENDSEC
  0
SECTION
  2
OBJECTS
  0
DICTIONARY
  5
C
330
0
100
AcDbDictionary
281
    1
  3
ACAD_GROUP
350
D
  0
DICTIONARY
  5
D
330
C
100
AcDbDictionary
281
    1
  0
ENDSEC
  0
EOF
