999
dxfrw 0.6.3
  0
SECTION
  2
HEADER
  9
$ACADVER
  1
AC1021
  9
$DWGCODEPAGE
  3
ANSI_1252
  9
$INSBASE
 10
0
 20
0
 30
0
  9
$EXTMIN
 10
-6.711743751129765
 20
-108.9313262770491
 30
0
  9
$EXTMAX
 10
306.2681112432354
 20
114.6892341556075
 30
0
  9
$LIMMIN
 10
0
 20
0
  9
$LIMMAX
 10
420
 20
297
  9
$ORTHOMODE
 70
    0
  9
$REGENMODE
 70
    1
  9
$FILLMODE
 70
    1
  9
$QTEXTMODE
 70
    0
  9
$MIRRTEXT
 70
    0
  9
$LTSCALE
 40
1
  9
$ATTMODE
 70
    0
  9
$TEXTSIZE
 40
2.5
  9
$TRACEWID
 40
15.68
  9
$TEXTSTYLE
  7
STANDARD
  9
$CLAYER
  8
0
  9
$CELTYPE
  6
BYLAYER
  9
$CECOLOR
 62
  256
  9
$CELTSCALE
 40
1
  9
$DISPSILH
 70
    0
  9
$DIMSCALE
 40
2.5
  9
$DIMASZ
 40
2.5
  9
$DIMEXO
 40
0.625
  9
$DIMDLI
 40
3.75
  9
$DIMRND
 40
0
  9
$DIMDLE
 40
0
  9
$DIMEXE
 40
1.25
  9
$DIMTP
 40
0
  9
$DIMTM
 40
0
  9
$DIMTXT
 40
2.5
  9
$DIMCEN
 40
2.5
  9
$DIMTSZ
 40
0
  9
$DIMTOL
 70
    0
  9
$DIMLIM
 70
    0
  9
$DIMTIH
 70
    0
  9
$DIMTOH
 70
    0
  9
$DIMSE1
 70
    0
  9
$DIMSE2
 70
    0
  9
$DIMTAD
 70
    1
  9
$DIMZIN
 70
    8
  9
$DIMBLK
  1

  9
$DIMASO
 70
    1
  9
$DIMSHO
 70
    1
  9
$DIMPOST
  1

  9
$DIMAPOST
  1

  9
$DIMALT
 70
    0
  9
$DIMALTD
 70
    3
  9
$DIMALTF
 40
0.03937
  9
$DIMLFAC
 40
1
  9
$DIMTOFL
 70
    1
  9
$DIMTVP
 40
0
  9
$DIMTIX
 70
    0
  9
$DIMSOXD
 70
    0
  9
$DIMSAH
 70
    0
  9
$DIMBLK1
  1

  9
$DIMBLK2
  1

  9
$DIMSTYLE
  2
STANDARD
  9
$DIMCLRD
 70
    0
  9
$DIMCLRE
 70
    0
  9
$DIMCLRT
 70
    0
  9
$DIMTFAC
 40
1
  9
$DIMGAP
 40
0.625
  9
$DIMJUST
 70
    0
  9
$DIMSD1
 70
    0
  9
$DIMSD2
 70
    0
  9
$DIMTOLJ
 70
    0
  9
$DIMTZIN
 70
    8
  9
$DIMALTZ
 70
    0
  9
$DIMALTTZ
 70
    0
  9
$DIMUPT
 70
    0
  9
$DIMDEC
 70
    2
  9
$DIMTDEC
 70
    2
  9
$DIMALTU
 70
    2
  9
$DIMALTTD
 70
    3
  9
$DIMTXSTY
  7
STANDARD
  9
$DIMAUNIT
 70
    0
  9
$DIMADEC
 70
    0
  9
$DIMALTRND
 40
0
  9
$DIMAZIN
 70
    0
  9
$DIMDSEP
 70
   44
  9
$DIMATFIT
 70
    3
  9
$DIMFRAC
 70
    0
  9
$DIMLDRBLK
  1
STANDARD
  9
$DIMLUNIT
 70
    2
  9
$DIMLWD
 70
   -2
  9
$DIMLWE
 70
   -2
  9
$DIMTMOVE
 70
    0
  9
$DIMFXL
 40
1
  9
$DIMFXLON
 70
    0
  9
$DIMJOGANG
 40
0.7854
  9
$DIMTFILL
 70
    0
  9
$DIMTFILLCLR
 70
    0
  9
$DIMARCSYM
 70
    0
  9
$DIMLTYPE
  6

  9
$DIMLTEX1
  6

  9
$DIMLTEX2
  6

  9
$LUNITS
 70
    2
  9
$LUPREC
 70
    4
  9
$SKETCHINC
 40
1
  9
$FILLETRAD
 40
0
  9
$AUNITS
 70
    0
  9
$AUPREC
 70
    2
  9
$MENU
  1
.
  9
$ELEVATION
 40
0
  9
$PELEVATION
 40
0
  9
$THICKNESS
 40
0
  9
$LIMCHECK
 70
    0
  9
$CHAMFERA
 40
0
  9
$CHAMFERB
 40
0
  9
$CHAMFERC
 40
0
  9
$CHAMFERD
 40
0
  9
$SKPOLY
 70
    0
  9
$USRTIMER
 70
    1
  9
$ANGBASE
 50
0
  9
$ANGDIR
 70
    0
  9
$PDMODE
 70
   34
  9
$PDSIZE
 40
0
  9
$PLINEWID
 40
0
  9
$SPLFRAME
 70
    0
  9
$SPLINETYPE
 70
    2
  9
$SPLINESEGS
 70
    8
  9
$HANDSEED
  5
20000
  9
$SURFTAB1
 70
    6
  9
$SURFTAB2
 70
    6
  9
$SURFTYPE
 70
    6
  9
$SURFU
 70
    6
  9
$SURFV
 70
    6
  9
$UCSBASE
  2

  9
$UCSNAME
  2

  9
$UCSORG
 10
0
 20
0
 30
0
  9
$UCSXDIR
 10
1
 20
0
 30
0
  9
$UCSYDIR
 10
0
 20
1
 30
0
  9
$UCSORTHOREF
  2

  9
$UCSORTHOVIEW
 70
    0
  9
$UCSORGTOP
 10
0
 20
0
 30
0
  9
$UCSORGBOTTOM
 10
0
 20
0
 30
0
  9
$UCSORGLEFT
 10
0
 20
0
 30
0
  9
$UCSORGRIGHT
 10
0
 20
0
 30
0
  9
$UCSORGFRONT
 10
0
 20
0
 30
0
  9
$UCSORGBACK
 10
0
 20
0
 30
0
  9
$PUCSBASE
  2

  9
$PUCSNAME
  2

  9
$PUCSORG
 10
0
 20
0
 30
0
  9
$PUCSXDIR
 10
1
 20
0
 30
0
  9
$PUCSYDIR
 10
0
 20
1
 30
0
  9
$PUCSORTHOREF
  2

  9
$PUCSORTHOVIEW
 70
    0
  9
$PUCSORGTOP
 10
0
 20
0
 30
0
  9
$PUCSORGBOTTOM
 10
0
 20
0
 30
0
  9
$PUCSORGLEFT
 10
0
 20
0
 30
0
  9
$PUCSORGRIGHT
 10
0
 20
0
 30
0
  9
$PUCSORGFRONT
 10
0
 20
0
 30
0
  9
$PUCSORGBACK
 10
0
 20
0
 30
0
  9
$USERI1
 70
    0
  9
$USERI2
 70
    0
  9
$USERI3
 70
    0
  9
$USERI4
 70
    0
  9
$USERI5
 70
    0
  9
$USERR1
 40
0
  9
$USERR2
 40
0
  9
$USERR3
 40
0
  9
$USERR4
 40
0
  9
$USERR5
 40
0
  9
$WORLDVIEW
 70
    1
  9
$SHADEDGE
 70
    3
  9
$SHADEDIF
 70
   70
  9
$TILEMODE
 70
    1
  9
$MAXACTVP
 70
   64
  9
$PINSBASE
 10
0
 20
0
 30
0
  9
$PLIMCHECK
 70
    0
  9
$PEXTMIN
 10
0
 20
0
 30
0
  9
$PEXTMAX
 10
0
 20
0
 30
0
  9
$GRIDMODE
 70
    0
  9
$SNAPSTYLE
 70
    0
  9
$PLIMMIN
 10
0
 20
0
  9
$PLIMMAX
 10
297
 20
210
  9
$UNITMODE
 70
    0
  9
$VISRETAIN
 70
    1
  9
$PLINEGEN
 70
    0
  9
$PSLTSCALE
 70
    1
  9
$TREEDEPTH
 70
 3020
  9
$CMLSTYLE
  2
Standard
  9
$CMLJUST
 70
    0
  9
$CMLSCALE
 40
20
  9
$PROXYGRAPHICS
 70
    1
  9
$MEASUREMENT
 70
    1
  9
$CELWEIGHT
370
   -1
  9
$ENDCAPS
280
    0
  9
$JOINSTYLE
280
    0
  9
$LWDISPLAY
290
    0
  9
$INSUNITS
 70
    4
  9
$HYPERLINKBASE
  1

  9
$STYLESHEET
  1

  9
$XEDIT
290
    1
  9
$CEPSNTYPE
380
    0
  9
$PSTYLEMODE
290
    1
  9
$EXTNAMES
290
    1
  9
$PSVPSCALE
 40
1
  9
$OLESTARTUP
290
    0
  9
$SORTENTS
280
  127
  9
$INDEXCTL
280
    0
  9
$HIDETEXT
280
    1
  9
$XCLIPFRAME
290
    0
  9
$HALOGAP
280
    0
  9
$OBSCOLOR
 70
  257
  9
$OBSLTYPE
280
    0
  9
$INTERSECTIONDISPLAY
280
    0
  9
$INTERSECTIONCOLOR
 70
  257
  9
$DIMASSOC
280
    1
  9
$PROJECTNAME
  1

  9
$CAMERADISPLAY
290
    0
  9
$LENSLENGTH
 40
50
  9
$CAMERAHEIGHT
 40
0
  9
$STEPSPERSEC
 40
2
  9
$STEPSIZE
 40
50
  9
$3DDWFPREC
 40
2
  9
$PSOLWIDTH
 40
5
  9
$PSOLHEIGHT
 40
80
  9
$LOFTANG1
 40
1.570796326794897
  9
$LOFTANG2
 40
1.570796326794897
  9
$LOFTMAG1
 40
0
  9
$LOFTMAG2
 40
0
  9
$LOFTPARAM
 70
    7
  9
$LOFTNORMALS
280
    1
  9
$LATITUDE
 40
1
  9
$LONGITUDE
 40
1
  9
$NORTHDIRECTION
 40
0
  9
$TIMEZONE
 70
-8000
  9
$LIGHTGLYPHDISPLAY
280
    1
  9
$TILEMODELIGHTSYNCH
280
    1
  9
$SOLIDHIST
280
    1
  9
$SHOWHIST
280
    1
  9
$DWFFRAME
280
    2
  9
$DGNFRAME
280
    0
  9
$REALWORLDSCALE
290
    1
  9
$INTERFERECOLOR
 62
    1
  9
$CSHADOW
280
    0
  9
$SHADOWPLANELOCATION
 40
0
  0
ENDSEC
  0
SECTION
  2
CLASSES
  0
ENDSEC
  0
SECTION
  2
TABLES
  0
TABLE
  2
VPORT
  5
8
330
0
100
AcDbSymbolTable
 70
    1
  0
VPORT
  5
31
330
2
100
AcDbSymbolTableRecord
100
AcDbViewportTableRecord
  2
*ACTIVE
 70
    0
 10
0
 20
0
 11
1
 21
1
 12
243.3668713882925
 22
60.0082696573872
 13
0
 23
0
 14
10
 24
10
 15
10
 25
10
 16
0
 26
0
 36
1
 17
0
 27
0
 37
0
 40
233.8783843057142
 41
2.87719298245614
 42
50
 43
0
 44
0
 50
0
 51
0
 71
    0
 72
  100
 73
    1
 74
    3
 75
    0
 76
    0
 77
    0
 78
    0
281
    0
 65
    1
110
0
120
0
130
0
111
1
121
0
131
0
112
0
122
1
132
0
 79
    0
146
0
348
10020
 60
    7
 61
    5
292
1
282
    1
141
0
142
0
 63
  250
421
3358443
  0
ENDTAB
  0
TABLE
  2
LTYPE
  5
5
330
0
100
AcDbSymbolTable
 70
    4
  0
LTYPE
  5
14
330
5
100
AcDbSymbolTableRecord
100
AcDbLinetypeTableRecord
  2
ByBlock
 70
    0
  3

 72
   65
 73
    0
 40
0
  0
LTYPE
  5
15
330
5
100
AcDbSymbolTableRecord
100
AcDbLinetypeTableRecord
  2
ByLayer
 70
    0
  3

 72
   65
 73
    0
 40
0
  0
LTYPE
  5
16
330
5
100
AcDbSymbolTableRecord
100
AcDbLinetypeTableRecord
  2
Continuous
 70
    0
  3
Solid line
 72
   65
 73
    0
 40
0
  0
LTYPE
  5
32
330
5
100
AcDbSymbolTableRecord
100
AcDbLinetypeTableRecord
  2
DOT
 70
    0
  3
Dot . . . . . . . . . . . . . . . . . . . . . .
 72
   65
 73
    2
 40
6.35
 49
0
 74
    0
 49
-6.35
 74
    0
  0
LTYPE
  5
33
330
5
100
AcDbSymbolTableRecord
100
AcDbLinetypeTableRecord
  2
DOTTINY
 70
    0
  3
Dot (.15x) .....................................
 72
   65
 73
    2
 40
0.9525
 49
0
 74
    0
 49
-0.9525
 74
    0
  0
LTYPE
  5
34
330
5
100
AcDbSymbolTableRecord
100
AcDbLinetypeTableRecord
  2
DOT2
 70
    0
  3
Dot (.5x) .....................................
 72
   65
 73
    2
 40
3.175
 49
0
 74
    0
 49
-3.175
 74
    0
  0
LTYPE
  5
35
330
5
100
AcDbSymbolTableRecord
100
AcDbLinetypeTableRecord
  2
DOTX2
 70
    0
  3
Dot (2x) .  .  .  .  .  .  .  .  .  .  .  .  .
 72
   65
 73
    2
 40
12.7
 49
0
 74
    0
 49
-12.7
 74
    0
  0
LTYPE
  5
36
330
5
100
AcDbSymbolTableRecord
100
AcDbLinetypeTableRecord
  2
DASHED
 70
    0
  3
Dashed _ _ _ _ _ _ _ _ _ _ _ _ _ _ _ _ _
 72
   65
 73
    2
 40
19.05
 49
12.7
 74
    0
 49
-6.35
 74
    0
  0
LTYPE
  5
37
330
5
100
AcDbSymbolTableRecord
100
AcDbLinetypeTableRecord
  2
DASHEDTINY
 70
    0
  3
Dashed (.15x) _ _ _ _ _ _ _ _ _ _ _ _ _ _ _ _ _
 72
   65
 73
    2
 40
2.8575
 49
1.905
 74
    0
 49
-0.9525
 74
    0
  0
LTYPE
  5
38
330
5
100
AcDbSymbolTableRecord
100
AcDbLinetypeTableRecord
  2
DASHED2
 70
    0
  3
Dashed (.5x) _ _ _ _ _ _ _ _ _ _ _ _ _ _ _ _ _
 72
   65
 73
    2
 40
9.524999999999999
 49
6.35
 74
    0
 49
-3.175
 74
    0
  0
LTYPE
  5
39
330
5
100
AcDbSymbolTableRecord
100
AcDbLinetypeTableRecord
  2
DASHEDX2
 70
    0
  3
Dashed (2x) ____  ____  ____  ____  ____  ___
 72
   65
 73
    2
 40
38.09999999999999
 49
25.4
 74
    0
 49
-12.7
 74
    0
  0
LTYPE
  5
3A
330
5
100
AcDbSymbolTableRecord
100
AcDbLinetypeTableRecord
  2
DASHDOT
 70
    0
  3
Dash dot __ . __ . __ . __ . __ . __ . __ . __
 72
   65
 73
    4
 40
25.4
 49
12.7
 74
    0
 49
-6.35
 74
    0
 49
0
 74
    0
 49
-6.35
 74
    0
  0
LTYPE
  5
3B
330
5
100
AcDbSymbolTableRecord
100
AcDbLinetypeTableRecord
  2
DASHDOTTINY
 70
    0
  3
Dash dot (.15x) _._._._._._._._._._._._._._._.
 72
   65
 73
    4
 40
3.81
 49
1.905
 74
    0
 49
-0.9525
 74
    0
 49
0
 74
    0
 49
-0.9525
 74
    0
  0
LTYPE
  5
3C
330
5
100
AcDbSymbolTableRecord
100
AcDbLinetypeTableRecord
  2
DASHDOT2
 70
    0
  3
Dash dot (.5x) _._._._._._._._._._._._._._._.
 72
   65
 73
    4
 40
12.7
 49
6.35
 74
    0
 49
-3.175
 74
    0
 49
0
 74
    0
 49
-3.175
 74
    0
  0
LTYPE
  5
3D
330
5
100
AcDbSymbolTableRecord
100
AcDbLinetypeTableRecord
  2
DASHDOTX2
 70
    0
  3
Dash dot (2x) ____  .  ____  .  ____  .  ___
 72
   65
 73
    4
 40
50.8
 49
25.4
 74
    0
 49
-12.7
 74
    0
 49
0
 74
    0
 49
-12.7
 74
    0
  0
LTYPE
  5
3E
330
5
100
AcDbSymbolTableRecord
100
AcDbLinetypeTableRecord
  2
DIVIDE
 70
    0
  3
Divide ____ . . ____ . . ____ . . ____ . . ____
 72
   65
 73
    6
 40
31.75
 49
12.7
 74
    0
 49
-6.35
 74
    0
 49
0
 74
    0
 49
-6.35
 74
    0
 49
0
 74
    0
 49
-6.35
 74
    0
  0
LTYPE
  5
3F
330
5
100
AcDbSymbolTableRecord
100
AcDbLinetypeTableRecord
  2
DIVIDETINY
 70
    0
  3
Divide (.15x) __..__..__..__..__..__..__..__.._
 72
   65
 73
    6
 40
4.7625
 49
1.905
 74
    0
 49
-0.9525
 74
    0
 49
0
 74
    0
 49
-0.9525
 74
    0
 49
0
 74
    0
 49
-0.9525
 74
    0
  0
LTYPE
  5
40
330
5
100
AcDbSymbolTableRecord
100
AcDbLinetypeTableRecord
  2
DIVIDE2
 70
    0
  3
Divide (.5x) __..__..__..__..__..__..__..__.._
 72
   65
 73
    6
 40
15.875
 49
6.35
 74
    0
 49
-3.175
 74
    0
 49
0
 74
    0
 49
-3.175
 74
    0
 49
0
 74
    0
 49
-3.175
 74
    0
  0
LTYPE
  5
41
330
5
100
AcDbSymbolTableRecord
100
AcDbLinetypeTableRecord
  2
DIVIDEX2
 70
    0
  3
Divide (2x) ________  .  .  ________  .  .  _
 72
   65
 73
    6
 40
63.5
 49
25.4
 74
    0
 49
-12.7
 74
    0
 49
0
 74
    0
 49
-12.7
 74
    0
 49
0
 74
    0
 49
-12.7
 74
    0
  0
LTYPE
  5
42
330
5
100
AcDbSymbolTableRecord
100
AcDbLinetypeTableRecord
  2
BORDER
 70
    0
  3
Border __ __ . __ __ . __ __ . __ __ . __ __ .
 72
   65
 73
    6
 40
44.45
 49
12.7
 74
    0
 49
-6.35
 74
    0
 49
12.7
 74
    0
 49
-6.35
 74
    0
 49
0
 74
    0
 49
-6.35
 74
    0
  0
LTYPE
  5
43
330
5
100
AcDbSymbolTableRecord
100
AcDbLinetypeTableRecord
  2
BORDERTINY
 70
    0
  3
Border (.15x) __.__.__.__.__.__.__.__.__.__.__.
 72
   65
 73
    6
 40
6.6675
 49
1.905
 74
    0
 49
-0.9525
 74
    0
 49
1.905
 74
    0
 49
-0.9525
 74
    0
 49
0
 74
    0
 49
-0.9525
 74
    0
  0
LTYPE
  5
44
330
5
100
AcDbSymbolTableRecord
100
AcDbLinetypeTableRecord
  2
BORDER2
 70
    0
  3
Border (.5x) __.__.__.__.__.__.__.__.__.__.__.
 72
   65
 73
    6
 40
22.225
 49
6.35
 74
    0
 49
-3.175
 74
    0
 49
6.35
 74
    0
 49
-3.175
 74
    0
 49
0
 74
    0
 49
-3.175
 74
    0
  0
LTYPE
  5
45
330
5
100
AcDbSymbolTableRecord
100
AcDbLinetypeTableRecord
  2
BORDERX2
 70
    0
  3
Border (2x) ____  ____  .  ____  ____  .  ___
 72
   65
 73
    6
 40
88.89999999999999
 49
25.4
 74
    0
 49
-12.7
 74
    0
 49
25.4
 74
    0
 49
-12.7
 74
    0
 49
0
 74
    0
 49
-12.7
 74
    0
  0
LTYPE
  5
46
330
5
100
AcDbSymbolTableRecord
100
AcDbLinetypeTableRecord
  2
CENTER
 70
    0
  3
Center ____ _ ____ _ ____ _ ____ _ ____ _ ____
 72
   65
 73
    4
 40
50.8
 49
31.75
 74
    0
 49
-6.35
 74
    0
 49
6.35
 74
    0
 49
-6.35
 74
    0
  0
LTYPE
  5
47
330
5
100
AcDbSymbolTableRecord
100
AcDbLinetypeTableRecord
  2
CENTERTINY
 70
    0
  3
Center (.15x) ___ _ ___ _ ___ _ ___ _ ___ _ ___
 72
   65
 73
    4
 40
7.62
 49
4.7625
 74
    0
 49
-0.9525
 74
    0
 49
0.9525
 74
    0
 49
-0.9525
 74
    0
  0
LTYPE
  5
48
330
5
100
AcDbSymbolTableRecord
100
AcDbLinetypeTableRecord
  2
CENTER2
 70
    0
  3
Center (.5x) ___ _ ___ _ ___ _ ___ _ ___ _ ___
 72
   65
 73
    4
 40
28.575
 49
19.05
 74
    0
 49
-3.175
 74
    0
 49
3.175
 74
    0
 49
-3.175
 74
    0
  0
LTYPE
  5
49
330
5
100
AcDbSymbolTableRecord
100
AcDbLinetypeTableRecord
  2
CENTERX2
 70
    0
  3
Center (2x) ________  __  ________  __  _____
 72
   65
 73
    4
 40
101.6
 49
63.5
 74
    0
 49
-12.7
 74
    0
 49
12.7
 74
    0
 49
-12.7
 74
    0
  0
ENDTAB
  0
TABLE
  2
LAYER
  5
2
330
0
100
AcDbSymbolTable
 70
    1
  0
LAYER
  5
10
330
2
100
AcDbSymbolTableRecord
100
AcDbLayerTableRecord
  2
0
 70
    0
 62
    7
  6
CONTINUOUS
370
    0
390
F
  0
ENDTAB
  0
TABLE
  2
STYLE
  5
3
330
0
100
AcDbSymbolTable
 70
    3
  0
STYLE
  5
4A
330
2
100
AcDbSymbolTableRecord
100
AcDbTextStyleTableRecord
  2
courier
 70
    0
 40
0
 41
1
 50
0
 71
    0
 42
1
  3
courier
  4

  0
STYLE
  5
4B
330
2
100
AcDbSymbolTableRecord
100
AcDbTextStyleTableRecord
  2
Standard
 70
    0
 40
0
 41
1
 50
0
 71
    0
 42
1
  3
txt
  4

  0
ENDTAB
  0
TABLE
  2
VIEW
  5
6
330
0
100
AcDbSymbolTable
 70
    0
  0
ENDTAB
  0
TABLE
  2
UCS
  5
7
330
0
100
AcDbSymbolTable
 70
    0
  0
ENDTAB
  0
TABLE
  2
APPID
  5
9
330
0
100
AcDbSymbolTable
 70
    1
  0
APPID
  5
12
330
9
100
AcDbSymbolTableRecord
100
AcDbRegAppTableRecord
  2
ACAD
 70
    0
  0
APPID
  5
4C
330
9
100
AcDbSymbolTableRecord
100
AcDbRegAppTableRecord
  2
LibreCad
 70
    0
  0
ENDTAB
  0
TABLE
  2
DIMSTYLE
  5
A
330
0
100
AcDbSymbolTable
 70
    1
100
AcDbDimStyleTable
 71
    1
  0
DIMSTYLE
105
4D
330
A
100
AcDbSymbolTableRecord
100
AcDbDimStyleTableRecord
  2
Standard
 70
    0
 40
2.5
 41
2.5
 42
0.625
 43
0.38
 44
1.25
 45
0
 46
0
 47
0
 48
0
 49
1
140
2.5
141
0.09
142
0
143
25.4
144
1
145
0
146
1
147
0.625
148
0
 71
    0
 72
    0
 73
    0
 74
    1
 75
    0
 76
    0
 77
    0
 78
    8
 79
    0
170
    0
171
    2
172
    0
173
    0
174
    0
175
    0
176
    0
177
    0
178
    0
179
    0
271
    2
272
    4
273
    2
274
    2
275
    0
276
    0
277
    2
278
   44
279
    0
280
    0
281
    0
282
    0
283
    1
284
    0
285
    0
286
    0
288
    0
289
    3
340
STANDARD
341

371
   -2
372
   -2
  0
ENDTAB
  0
TABLE
  2
BLOCK_RECORD
  5
1
330
0
100
AcDbSymbolTable
 70
    2
  0
BLOCK_RECORD
  5
1F
330
1
100
AcDbSymbolTableRecord
100
AcDbBlockTableRecord
  2
*Model_Space
 70
    0
280
    1
281
    0
  0
BLOCK_RECORD
  5
1E
330
1
100
AcDbSymbolTableRecord
100
AcDbBlockTableRecord
  2
*Paper_Space
 70
    0
280
    1
281
    0
  0
ENDTAB
  0
ENDSEC
  0
SECTION
  2
BLOCKS
  0
BLOCK
  5
20
330
1F
100
AcDbEntity
  8
0
100
AcDbBlockBegin
  2
*Model_Space
 70
    0
 10
0
 20
0
 30
0
  3
*Model_Space
  1

  0
ENDBLK
  5
21
330
1F
100
AcDbEntity
  8
0
100
AcDbBlockEnd
  0
BLOCK
  5
1C
330
1B
100
AcDbEntity
  8
0
100
AcDbBlockBegin
  2
*Paper_Space
 70
    0
 10
0
 20
0
 30
0
  3
*Paper_Space
  1

  0
ENDBLK
  5
1D
330
1F
100
AcDbEntity
  8
0
100
AcDbBlockEnd
  0
ENDSEC
  0
SECTION
  2
ENTITIES
  0
HATCH
  5
4E
100
AcDbEntity
  8
0
  6
ByLayer
 62
  256
370
   -1
100
AcDbHatch
 10
0
 20
0
 30
0
210
0
220
0
230
1
  2
SOLID
 70
    1
 71
    0
 91
    1
 92
    0
 93
    1
 72
    2
 10
116.7669551088717
 20
38.68206284541769
 40
0.4284542147717119
 50
0
 51
360
 73
    1
 97
    0
 75
    0
 76
    1
 98
    0
  0
HATCH
  5
4F
100
AcDbEntity
  8
0
  6
ByLayer
 62
  256
370
   -1
100
AcDbHatch
 10
0
 20
0
 30
0
210
0
220
0
230
1
  2
SOLID
 70
    1
 71
    0
 91
    1
 92
    0
 93
    1
 72
    2
 10
89.21365458074226
 20
38.68206284541769
 40
0.4284542147717119
 50
0
 51
360
 73
    1
 97
    0
 75
    0
 76
    1
 98
    0
  0
HATCH
  5
50
100
AcDbEntity
  8
0
  6
ByLayer
 62
  256
370
   -1
100
AcDbHatch
 10
0
 20
0
 30
0
210
0
220
0
230
1
  2
SOLID
 70
    1
 71
    0
 91
    1
 92
    0
 93
    1
 72
    2
 10
116.7669551088717
 20
97.12449090303939
 40
0.4284542147717119
 50
0
 51
360
 73
    1
 97
    0
 75
    0
 76
    1
 98
    0
  0
HATCH
  5
51
100
AcDbEntity
  8
0
  6
ByLayer
 62
  256
370
   -1
100
AcDbHatch
 10
0
 20
0
 30
0
210
0
220
0
230
1
  2
SOLID
 70
    1
 71
    0
 91
    1
 92
    0
 93
    1
 72
    2
 10
89.21365458074226
 20
97.12449090303939
 40
0.4284542147717119
 50
0
 51
360
 73
    1
 97
    0
 75
    0
 76
    1
 98
    0
  0
HATCH
  5
52
100
AcDbEntity
  8
0
  6
ByLayer
 62
  256
370
   -1
100
AcDbHatch
 10
0
 20
0
 30
0
210
0
220
0
230
1
  2
SOLID
 70
    1
 71
    0
 91
    1
 92
    0
 93
    1
 72
    2
 10
198.3317523099076
 20
97.12449090303939
 40
0.4284542147717119
 50
0
 51
360
 73
    1
 97
    0
 75
    0
 76
    1
 98
    0
  0
HATCH
  5
53
100
AcDbEntity
  8
0
  6
ByLayer
 62
  256
370
   -1
100
AcDbHatch
 10
0
 20
0
 30
0
210
0
220
0
230
1
  2
SOLID
 70
    1
 71
    0
 91
    1
 92
    0
 93
    1
 72
    2
 10
198.3317523099076
 20
38.68206284541769
 40
0.4284542147717119
 50
0
 51
360
 73
    1
 97
    0
 75
    0
 76
    1
 98
    0
  0
HATCH
  5
54
100
AcDbEntity
  8
0
  6
ByLayer
 62
  256
370
   -1
100
AcDbHatch
 10
0
 20
0
 30
0
210
0
220
0
230
1
  2
SOLID
 70
    1
 71
    0
 91
    1
 92
    0
 93
    1
 72
    2
 10
94.02744010249103
 20
-11.60926616707683
 40
0.4284542147717119
 50
0
 51
360
 73
    1
 97
    0
 75
    0
 76
    1
 98
    0
  0
HATCH
  5
55
100
AcDbEntity
  8
0
  6
ByLayer
 62
  256
370
   -1
100
AcDbHatch
 10
0
 20
0
 30
0
210
0
220
0
230
1
  2
SOLID
 70
    1
 71
    0
 91
    1
 92
    0
 93
    1
 72
    2
 10
94.02744010249103
 20
-70.05169422469854
 40
0.4284542147717119
 50
0
 51
360
 73
    1
 97
    0
 75
    0
 76
    1
 98
    0
  0
HATCH
  5
56
100
AcDbEntity
  8
0
  6
ByLayer
 62
  256
370
   -1
100
AcDbHatch
 10
0
 20
0
 30
0
210
0
220
0
230
1
  2
SOLID
 70
    1
 71
    0
 91
    1
 92
    0
 93
    1
 72
    2
 10
138.2282481107712
 20
-70.05169422469854
 40
0.4284542147717119
 50
0
 51
360
 73
    1
 97
    0
 75
    0
 76
    1
 98
    0
  0
HATCH
  5
57
100
AcDbEntity
  8
0
  6
ByLayer
 62
  256
370
   -1
100
AcDbHatch
 10
0
 20
0
 30
0
210
0
220
0
230
1
  2
SOLID
 70
    1
 71
    0
 91
    1
 92
    0
 93
    1
 72
    2
 10
138.2282481107712
 20
-11.60926616707683
 40
0.4284542147717119
 50
0
 51
360
 73
    1
 97
    0
 75
    0
 76
    1
 98
    0
  0
HATCH
  5
58
100
AcDbEntity
  8
0
  6
ByLayer
 62
  256
370
   -1
100
AcDbHatch
 10
0
 20
0
 30
0
210
0
220
0
230
1
  2
SOLID
 70
    1
 71
    0
 91
    1
 92
    0
 93
    1
 72
    2
 10
219.7930453118072
 20
-11.60926616707683
 40
0.4284542147717119
 50
0
 51
360
 73
    1
 97
    0
 75
    0
 76
    1
 98
    0
  0
HATCH
  5
59
100
AcDbEntity
  8
0
  6
ByLayer
 62
  256
370
   -1
100
AcDbHatch
 10
0
 20
0
 30
0
210
0
220
0
230
1
  2
SOLID
 70
    1
 71
    0
 91
    1
 92
    0
 93
    1
 72
    2
 10
219.7930453118072
 20
-70.05169422469854
 40
0.4284542147717119
 50
0
 51
360
 73
    1
 97
    0
 75
    0
 76
    1
 98
    0
  0
LINE
  5
5A
100
AcDbEntity
  8
0
  6
ByLayer
 62
  256
370
   -1
100
AcDbLine
 10
144.2558517004498
 20
-48.92021462667596
 11
145.3587059823956
 21
-48.92021462667596
  0
LINE
  5
5B
100
AcDbEntity
  8
0
  6
ByLayer
 62
  256
370
   -1
100
AcDbLine
 10
145.3587059823956
 20
-47.7227287779985
 11
145.3587059823956
 21
-48.92021462667596
  0
LINE
  5
5C
100
AcDbEntity
  8
0
  6
ByLayer
 62
  256
370
   -1
100
AcDbLine
 10
144.2558517004498
 20
-47.72272877799924
 11
144.2558517004498
 21
-48.92021462667596
  0
ARC
  5
5D
100
AcDbEntity
  8
0
  6
ByLayer
 62
  256
370
   -1
100
AcDbCircle
 10
144.8072788414227
 20
-49.80084096297283
 40
2.15002840565954
100
AcDbArc
 50
104.8609649757732
 51
435.1390350242319
  0
LWPOLYLINE
  5
5E
100
AcDbEntity
  8
0
  6
ByLayer
 62
  256
370
   -1
100
AcDbPolyline
 90
    4
 70
    1
 43
0
 10
136.4246563723874
 20
-48.09577280315252
 10
140.031839849155
 20
-48.09577280315252
 10
140.031839849155
 20
-51.26572191909979
 10
136.4246563723874
 20
-51.26572191909979
  0
LINE
  5
5F
100
AcDbEntity
  8
0
  6
ByLayer
 62
  256
370
   -1
100
AcDbLine
 10
140.8351477010986
 20
-49.25513262853536
 11
140.8351477010986
 21
-50.10636209371694
  0
LINE
  5
60
100
AcDbEntity
  8
0
  6
ByLayer
 62
  256
370
   -1
100
AcDbLine
 10
140.031839849155
 20
-49.25513262853536
 11
140.8351477010986
 21
-49.25513262853536
  0
LINE
  5
61
100
AcDbEntity
  8
0
  6
ByLayer
 62
  256
370
   -1
100
AcDbLine
 10
140.031839849155
 20
-50.10636209371694
 11
140.8351477010986
 21
-50.10636209371694
  0
LINE
  5
62
100
AcDbEntity
  8
0
  6
ByLayer
 62
  256
370
   -1
100
AcDbLine
 10
138.2282481107712
 20
-48.09577280315252
 11
138.2282481107712
 21
-45.15370300664949
  0
CIRCLE
  5
63
100
AcDbEntity
  8
0
  6
ByLayer
 62
  256
370
   -1
100
AcDbCircle
 10
138.2282481107712
 20
-44.72524879187777
 40
0.4284542147717119
  0
LINE
  5
64
100
AcDbEntity
  8
0
  6
ByLayer
 62
  256
370
   -1
100
AcDbLine
 10
138.2282481107712
 20
-51.26572191909978
 11
138.2282481107712
 21
-54.20779171560282
  0
CIRCLE
  5
65
100
AcDbEntity
  8
0
  6
ByLayer
 62
  256
370
   -1
100
AcDbCircle
 10
138.2282481107712
 20
-54.63624593037453
 40
0.4284542147717119
  0
MTEXT
  5
66
100
AcDbEntity
  8
0
  6
ByLayer
 62
  256
370
   -1
100
AcDbMText
 10
144.7972272152135
 20
-50.15040736926223
 30
0
 40
1
 41
0.8888888888888888
 71
    5
 72
    1
  1
B
  7
courier
210
0
220
0
230
1
 50
0
 73
    2
 44
1
  0
LINE
  5
67
100
AcDbEntity
  8
0
  6
ByLayer
 62
  256
370
   -1
100
AcDbLine
 10
138.2282481107712
 20
-55.06470014514624
 11
138.2282481107712
 21
-70.05169422469854
  0
LINE
  5
68
100
AcDbEntity
  8
0
  6
ByLayer
 62
  256
370
   -1
100
AcDbLine
 10
133.7081520002205
 20
-70.05169422469854
 11
142.7483442213219
 21
-70.05169422469854
  0
CIRCLE
  5
69
100
AcDbEntity
  8
0
  6
ByLayer
 62
  256
370
   -1
100
AcDbCircle
 10
138.2282481107712
 20
-70.05169422469854
 40
0.4284542147717119
  0
MTEXT
  5
6A
100
AcDbEntity
  8
0
  6
ByLayer
 62
  256
370
   -1
100
AcDbMText
 10
137.9742144510307
 20
-74.8320044768075
 30
0
 40
1
 41
14.83333333333333
 71
    5
 72
    1
  1
EWL DEPOT LC2\PHL303
  7
courier
210
0
220
0
230
1
 50
0
 73
    2
 44
1
  0
LINE
  5
6B
100
AcDbEntity
  8
0
  6
ByLayer
 62
  256
370
   -1
100
AcDbLine
 10
133.7081520002205
 20
-11.60926616707683
 11
142.7483442213219
 21
-11.60926616707683
  0
CIRCLE
  5
6C
100
AcDbEntity
  8
0
  6
ByLayer
 62
  256
370
   -1
100
AcDbCircle
 10
138.2282481107712
 20
-11.60926616707683
 40
0.4284542147717119
  0
CIRCLE
  5
6D
100
AcDbEntity
  8
0
  6
ByLayer
 62
  256
370
   -1
100
AcDbCircle
 10
138.2282481107712
 20
-37.38256514318989
 40
0.4284542147717119
  0
CIRCLE
  5
6E
100
AcDbEntity
  8
0
  6
ByLayer
 62
  256
370
   -1
100
AcDbCircle
 10
138.2282481107712
 20
-39.86302764390252
 40
0.4284542147717119
  0
LINE
  5
6F
100
AcDbEntity
  8
0
  6
ByLayer
 62
  256
370
   -1
100
AcDbLine
 10
138.2282481107712
 20
-44.29679457710606
 11
138.2282481107712
 21
-40.29148185868228
  0
LINE
  5
70
100
AcDbEntity
  8
0
  6
ByLayer
 62
  256
370
   -1
100
AcDbLine
 10
136.8996432997874
 20
-40.29148185868228
 11
136.8996432997874
 21
-36.95411092841535
  0
LINE
  5
71
100
AcDbEntity
  8
0
  6
ByLayer
 62
  256
370
   -1
100
AcDbLine
 10
136.8996432997874
 20
-38.62279639354882
 11
135.0803143423161
 21
-38.62279639354882
  0
LINE
  5
72
100
AcDbEntity
  8
0
  6
ByLayer
 62
  256
370
   -1
100
AcDbLine
 10
135.0803143423161
 20
-37.7768471382992
 11
135.0803143423161
 21
-39.46874564879843
  0
LINE
  5
73
100
AcDbEntity
  8
0
  6
ByLayer
 62
  256
370
   -1
100
AcDbLine
 10
135.0803143423161
 20
-39.46874564879843
 11
135.8356261773604
 21
-39.46874564879843
  0
LINE
  5
74
100
AcDbEntity
  8
0
  6
ByLayer
 62
  256
370
   -1
100
AcDbLine
 10
135.0803143423161
 20
-37.7768471382992
 11
135.8356261773604
 21
-37.7768471382992
  0
LINE
  5
75
100
AcDbEntity
  8
0
  6
ByLayer
 62
  256
370
   -1
100
AcDbLine
 10
225.8206489014858
 20
-48.92021462667596
 11
226.9235031834315
 21
-48.92021462667596
  0
LINE
  5
76
100
AcDbEntity
  8
0
  6
ByLayer
 62
  256
370
   -1
100
AcDbLine
 10
226.9235031834315
 20
-47.7227287779985
 11
226.9235031834315
 21
-48.92021462667596
  0
LINE
  5
77
100
AcDbEntity
  8
0
  6
ByLayer
 62
  256
370
   -1
100
AcDbLine
 10
225.8206489014858
 20
-47.72272877799924
 11
225.8206489014858
 21
-48.92021462667596
  0
ARC
  5
78
100
AcDbEntity
  8
0
  6
ByLayer
 62
  256
370
   -1
100
AcDbCircle
 10
226.3720760424587
 20
-49.80084096297283
 40
2.15002840565954
100
AcDbArc
 50
104.8609649757732
 51
435.1390350242319
  0
LWPOLYLINE
  5
79
100
AcDbEntity
  8
0
  6
ByLayer
 62
  256
370
   -1
100
AcDbPolyline
 90
    4
 70
    1
 43
0
 10
217.9894535734234
 20
-48.09577280315252
 10
221.596637050191
 20
-48.09577280315252
 10
221.596637050191
 20
-51.26572191909979
 10
217.9894535734234
 20
-51.26572191909979
  0
LINE
  5
7A
100
AcDbEntity
  8
0
  6
ByLayer
 62
  256
370
   -1
100
AcDbLine
 10
222.3999449021346
 20
-49.25513262853536
 11
222.3999449021346
 21
-50.10636209371694
  0
LINE
  5
7B
100
AcDbEntity
  8
0
  6
ByLayer
 62
  256
370
   -1
100
AcDbLine
 10
221.5966370501909
 20
-49.25513262853536
 11
222.3999449021346
 21
-49.25513262853536
  0
LINE
  5
7C
100
AcDbEntity
  8
0
  6
ByLayer
 62
  256
370
   -1
100
AcDbLine
 10
221.5966370501909
 20
-50.10636209371694
 11
222.3999449021346
 21
-50.10636209371694
  0
LINE
  5
7D
100
AcDbEntity
  8
0
  6
ByLayer
 62
  256
370
   -1
100
AcDbLine
 10
219.7930453118072
 20
-48.09577280315252
 11
219.7930453118072
 21
-45.15370300664949
  0
CIRCLE
  5
7E
100
AcDbEntity
  8
0
  6
ByLayer
 62
  256
370
   -1
100
AcDbCircle
 10
219.7930453118072
 20
-44.72524879187777
 40
0.4284542147717119
  0
LINE
  5
7F
100
AcDbEntity
  8
0
  6
ByLayer
 62
  256
370
   -1
100
AcDbLine
 10
219.7930453118072
 20
-51.26572191909978
 11
219.7930453118072
 21
-54.20779171560282
  0
CIRCLE
  5
80
100
AcDbEntity
  8
0
  6
ByLayer
 62
  256
370
   -1
100
AcDbCircle
 10
219.7930453118072
 20
-54.63624593037453
 40
0.4284542147717119
  0
LINE
  5
81
100
AcDbEntity
  8
0
  6
ByLayer
 62
  256
370
   -1
100
AcDbLine
 10
219.7930453118072
 20
-55.06470014514624
 11
219.7930453118072
 21
-70.05169422469854
  0
LINE
  5
82
100
AcDbEntity
  8
0
  6
ByLayer
 62
  256
370
   -1
100
AcDbLine
 10
215.2729492012565
 20
-70.05169422469854
 11
224.3131414223578
 21
-70.05169422469854
  0
CIRCLE
  5
83
100
AcDbEntity
  8
0
  6
ByLayer
 62
  256
370
   -1
100
AcDbCircle
 10
219.7930453118072
 20
-70.05169422469854
 40
0.4284542147717119
  0
LINE
  5
84
100
AcDbEntity
  8
0
  6
DASHEDTINY
 62
  256
370
   -1
100
AcDbLine
 10
228.5230977291654
 20
-49.77047216688958
 11
232.7120977291654
 21
-49.77047216688958
  0
LINE
  5
85
100
AcDbEntity
  8
0
  6
ByLayer
 62
  256
370
   -1
100
AcDbLine
 10
215.2729492012565
 20
-11.60926616707683
 11
224.3131414223578
 21
-11.60926616707683
  0
CIRCLE
  5
86
100
AcDbEntity
  8
0
  6
ByLayer
 62
  256
370
   -1
100
AcDbCircle
 10
219.7930453118072
 20
-11.60926616707683
 40
0.4284542147717119
  0
CIRCLE
  5
87
100
AcDbEntity
  8
0
  6
ByLayer
 62
  256
370
   -1
100
AcDbCircle
 10
219.7930453118072
 20
-37.38256514318989
 40
0.4284542147717119
  0
CIRCLE
  5
88
100
AcDbEntity
  8
0
  6
ByLayer
 62
  256
370
   -1
100
AcDbCircle
 10
219.7930453118072
 20
-39.86302764390252
 40
0.4284542147717119
  0
LINE
  5
89
100
AcDbEntity
  8
0
  6
ByLayer
 62
  256
370
   -1
100
AcDbLine
 10
219.7930453118072
 20
-44.29679457710606
 11
219.7930453118072
 21
-40.29148185868228
  0
LINE
  5
8A
100
AcDbEntity
  8
0
  6
ByLayer
 62
  256
370
   -1
100
AcDbLine
 10
218.4644405008233
 20
-40.29148185868228
 11
218.4644405008233
 21
-36.95411092841535
  0
LINE
  5
8B
100
AcDbEntity
  8
0
  6
ByLayer
 62
  256
370
   -1
100
AcDbLine
 10
218.4644405008233
 20
-38.62279639354882
 11
216.6451115433521
 21
-38.62279639354882
  0
LINE
  5
8C
100
AcDbEntity
  8
0
  6
ByLayer
 62
  256
370
   -1
100
AcDbLine
 10
216.6451115433521
 20
-37.7768471382992
 11
216.6451115433521
 21
-39.46874564879843
  0
LINE
  5
8D
100
AcDbEntity
  8
0
  6
ByLayer
 62
  256
370
   -1
100
AcDbLine
 10
216.6451115433521
 20
-39.46874564879843
 11
217.4004233783964
 21
-39.46874564879843
  0
LINE
  5
8E
100
AcDbEntity
  8
0
  6
ByLayer
 62
  256
370
   -1
100
AcDbLine
 10
216.6451115433521
 20
-37.7768471382992
 11
217.4004233783964
 21
-37.7768471382992
  0
MTEXT
  5
8F
100
AcDbEntity
  8
0
  6
ByLayer
 62
  256
370
   -1
100
AcDbMText
 10
219.5390116520666
 20
-74.8320044768075
 30
0
 40
1
 41
14.83333333333333
 71
    5
 72
    1
  1
EWL DEPOT LC1\PHL304
  7
courier
210
0
220
0
230
1
 50
0
 73
    2
 44
1
  0
LINE
  5
90
100
AcDbEntity
  8
0
  6
ByLayer
 62
  256
370
   -1
100
AcDbLine
 10
138.2282481107712
 20
-21.6756950074216
 11
138.2282481107712
 21
-11.60926616707683
  0
LINE
  5
91
100
AcDbEntity
  8
0
  6
ByLayer
 62
  256
370
   -1
100
AcDbLine
 10
138.2282481107712
 20
-24.27065996704918
 11
139.8549697820071
 21
-21.15501562893297
  0
LINE
  5
92
100
AcDbEntity
  8
0
  6
ByLayer
 62
  256
370
   -1
100
AcDbLine
 10
138.2282481107712
 20
-21.6756950074216
 11
140.2504570295675
 21
-21.6756950074216
  0
LINE
  5
93
100
AcDbEntity
  8
0
  6
ByLayer
 62
  256
370
   -1
100
AcDbLine
 10
138.2282481107712
 20
-36.95411092841535
 11
138.2282481107712
 21
-24.27065996704918
  0
LINE
  5
94
100
AcDbEntity
  8
0
  6
ByLayer
 62
  256
370
   -1
100
AcDbLine
 10
219.7930453118072
 20
-21.6756950074216
 11
219.7930453118072
 21
-11.60926616707683
  0
LINE
  5
95
100
AcDbEntity
  8
0
  6
ByLayer
 62
  256
370
   -1
100
AcDbLine
 10
219.7930453118072
 20
-24.27065996704918
 11
221.419766983043
 21
-21.15501562893297
  0
LINE
  5
96
100
AcDbEntity
  8
0
  6
ByLayer
 62
  256
370
   -1
100
AcDbLine
 10
219.7930453118072
 20
-21.6756950074216
 11
221.8152542306035
 21
-21.6756950074216
  0
LINE
  5
97
100
AcDbEntity
  8
0
  6
ByLayer
 62
  256
370
   -1
100
AcDbLine
 10
219.7930453118072
 20
-36.95411092841535
 11
219.7930453118072
 21
-24.27065996704918
  0
MTEXT
  5
98
100
AcDbEntity
  8
0
  6
ByLayer
 62
  256
370
   -1
100
AcDbMText
 10
129.5133795795346
 20
-22.36014578523199
 30
0
 40
1
 41
14.47222222222222
 71
    5
 72
    1
  1
N.C. CONTACT \PFROM BREAKER
  7
courier
210
0
220
0
230
1
 50
0
 73
    2
 44
1
  0
MTEXT
  5
99
100
AcDbEntity
  8
0
  6
ByLayer
 62
  256
370
   -1
100
AcDbMText
 10
211.0781767805705
 20
-22.36014578523199
 30
0
 40
1
 41
14.47222222222222
 71
    5
 72
    1
  1
N.C. CONTACT \PFROM BREAKER
  7
courier
210
0
220
0
230
1
 50
0
 73
    2
 44
1
  0
MTEXT
  5
9A
100
AcDbEntity
  8
0
  6
ByLayer
 62
  256
370
   -1
100
AcDbMText
 10
226.3620244162494
 20
-50.15040736926223
 30
0
 40
1
 41
0.8888888888888888
 71
    5
 72
    1
  1
C
  7
courier
210
0
220
0
230
1
 50
0
 73
    2
 44
1
  0
CIRCLE
  5
9B
100
AcDbEntity
  8
0
  6
ByLayer
 62
  256
370
   -1
100
AcDbCircle
 10
172.7455301720653
 20
-14.99532735837748
 40
2.295880358044161
  0
CIRCLE
  5
9C
100
AcDbEntity
  8
0
  6
ByLayer
 62
  256
370
   -1
100
AcDbCircle
 10
166.413421179838
 20
-14.99532735837748
 40
2.295880358044161
  0
CIRCLE
  5
9D
100
AcDbEntity
  8
0
  6
ByLayer
 62
  256
370
   -1
100
AcDbCircle
 10
160.0813121876107
 20
-14.99532735837748
 40
2.295880358044161
  0
MTEXT
  5
9E
100
AcDbEntity
  8
0
  6
ByLayer
 62
  256
370
   -1
100
AcDbMText
 10
160.0304379377518
 20
-14.83522289186442
 30
0
 40
1
 41
1
 71
    5
 72
    1
  1
A
  7
courier
210
0
220
0
230
1
 50
0
 73
    2
 44
1
  0
MTEXT
  5
9F
100
AcDbEntity
  8
0
  6
ByLayer
 62
  256
370
   -1
100
AcDbMText
 10
166.3625469299791
 20
-14.83522289186442
 30
0
 40
1
 41
0.8888888888888888
 71
    5
 72
    1
  1
B
  7
courier
210
0
220
0
230
1
 50
0
 73
    2
 44
1
  0
MTEXT
  5
A0
100
AcDbEntity
  8
0
  6
ByLayer
 62
  256
370
   -1
100
AcDbMText
 10
172.6946559222064
 20
-14.83522289186442
 30
0
 40
1
 41
0.8888888888888888
 71
    5
 72
    1
  1
C
  7
courier
210
0
220
0
230
1
 50
0
 73
    2
 44
1
  0
LWPOLYLINE
  5
A1
100
AcDbEntity
  8
0
  6
ByLayer
 62
  256
370
   -1
100
AcDbPolyline
 90
    4
 70
    1
 43
0
 10
154.9690909400379
 20
-10.58254783781362
 10
177.0039850680882
 20
-10.58254783781362
 10
177.0039850680882
 20
-19.13556595330683
 10
154.9690909400379
 20
-19.13556595330683
  0
MTEXT
  5
A2
100
AcDbEntity
  8
0
  6
ByLayer
 62
  256
370
   -1
100
AcDbMText
 10
166.0146341983377
 20
-8.608387023126657
 30
0
 40
1
 41
19.27777777777778
 71
    5
 72
    1
  1
KEY EXCHANGE BOX
  7
courier
210
0
220
0
230
1
 50
0
 73
    2
 44
1
  0
LINE
  5
A3
100
AcDbEntity
  8
0
  6
ByLayer
 62
  256
370
   -1
100
AcDbLine
 10
100.0550436921696
 20
-48.92021462667596
 11
101.1578979741154
 21
-48.92021462667596
  0
LINE
  5
A4
100
AcDbEntity
  8
0
  6
ByLayer
 62
  256
370
   -1
100
AcDbLine
 10
101.1578979741154
 20
-47.7227287779985
 11
101.1578979741154
 21
-48.92021462667596
  0
LINE
  5
A5
100
AcDbEntity
  8
0
  6
ByLayer
 62
  256
370
   -1
100
AcDbLine
 10
100.0550436921696
 20
-47.72272877799924
 11
100.0550436921696
 21
-48.92021462667596
  0
ARC
  5
A6
100
AcDbEntity
  8
0
  6
ByLayer
 62
  256
370
   -1
100
AcDbCircle
 10
100.6064708331425
 20
-49.80084096297283
 40
2.15002840565954
100
AcDbArc
 50
104.8609649757732
 51
435.1390350242319
  0
LWPOLYLINE
  5
A7
100
AcDbEntity
  8
0
  6
ByLayer
 62
  256
370
   -1
100
AcDbPolyline
 90
    4
 70
    1
 43
0
 10
92.22384836410723
 20
-48.09577280315252
 10
95.83103184087481
 20
-48.09577280315252
 10
95.83103184087481
 20
-51.26572191909979
 10
92.22384836410723
 20
-51.26572191909979
  0
LINE
  5
A8
100
AcDbEntity
  8
0
  6
ByLayer
 62
  256
370
   -1
100
AcDbLine
 10
96.63433969281843
 20
-49.25513262853536
 11
96.63433969281843
 21
-50.10636209371694
  0
LINE
  5
A9
100
AcDbEntity
  8
0
  6
ByLayer
 62
  256
370
   -1
100
AcDbLine
 10
95.8310318408748
 20
-49.25513262853536
 11
96.63433969281843
 21
-49.25513262853536
  0
LINE
  5
AA
100
AcDbEntity
  8
0
  6
ByLayer
 62
  256
370
   -1
100
AcDbLine
 10
95.8310318408748
 20
-50.10636209371694
 11
96.63433969281843
 21
-50.10636209371694
  0
LINE
  5
AB
100
AcDbEntity
  8
0
  6
ByLayer
 62
  256
370
   -1
100
AcDbLine
 10
94.02744010249103
 20
-48.09577280315252
 11
94.02744010249103
 21
-45.15370300664949
  0
CIRCLE
  5
AC
100
AcDbEntity
  8
0
  6
ByLayer
 62
  256
370
   -1
100
AcDbCircle
 10
94.02744010249103
 20
-44.72524879187777
 40
0.4284542147717119
  0
LINE
  5
AD
100
AcDbEntity
  8
0
  6
ByLayer
 62
  256
370
   -1
100
AcDbLine
 10
94.02744010249103
 20
-51.26572191909978
 11
94.02744010249103
 21
-54.20779171560282
  0
CIRCLE
  5
AE
100
AcDbEntity
  8
0
  6
ByLayer
 62
  256
370
   -1
100
AcDbCircle
 10
94.02744010249103
 20
-54.63624593037453
 40
0.4284542147717119
  0
LINE
  5
AF
100
AcDbEntity
  8
0
  6
ByLayer
 62
  256
370
   -1
100
AcDbLine
 10
106.1108653485176
 20
-51.08019265695948
 11
107.7375870197535
 21
-47.96454831884327
  0
MTEXT
  5
B0
100
AcDbEntity
  8
0
  6
ByLayer
 62
  256
370
   -1
100
AcDbMText
 10
100.5964192069333
 20
-50.15040736926223
 30
0
 40
1
 41
1
 71
    5
 72
    1
  1
A
  7
courier
210
0
220
0
230
1
 50
0
 73
    2
 44
1
  0
LINE
  5
B1
100
AcDbEntity
  8
0
  6
ByLayer
 62
  256
370
   -1
100
AcDbLine
 10
94.02744010249103
 20
-55.06470014514624
 11
94.02744010249103
 21
-70.05169422469854
  0
LINE
  5
B2
100
AcDbEntity
  8
0
  6
ByLayer
 62
  256
370
   -1
100
AcDbLine
 10
89.50734399194037
 20
-70.05169422469854
 11
98.5475362130417
 21
-70.05169422469854
  0
CIRCLE
  5
B3
100
AcDbEntity
  8
0
  6
ByLayer
 62
  256
370
   -1
100
AcDbCircle
 10
94.02744010249103
 20
-70.05169422469854
 40
0.4284542147717119
  0
MTEXT
  5
B4
100
AcDbEntity
  8
0
  6
ByLayer
 62
  256
370
   -1
100
AcDbMText
 10
93.7734064427505
 20
-74.8320044768075
 30
0
 40
1
 41
14.83333333333333
 71
    5
 72
    1
  1
EWL DEPOT LC2\PHL301
  7
courier
210
0
220
0
230
1
 50
0
 73
    2
 44
1
  0
LINE
  5
B5
100
AcDbEntity
  8
0
  6
DASHEDTINY
 62
  256
370
   -1
100
AcDbLine
 10
102.7574925198493
 20
-49.77047216688958
 11
106.9464925198492
 21
-49.77047216688958
  0
LINE
  5
B6
100
AcDbEntity
  8
0
  6
ByLayer
 62
  256
370
   -1
100
AcDbLine
 10
89.50734399194037
 20
-11.60926616707683
 11
98.5475362130417
 21
-11.60926616707683
  0
CIRCLE
  5
B7
100
AcDbEntity
  8
0
  6
ByLayer
 62
  256
370
   -1
100
AcDbCircle
 10
94.02744010249103
 20
-11.60926616707683
 40
0.4284542147717119
  0
CIRCLE
  5
B8
100
AcDbEntity
  8
0
  6
ByLayer
 62
  256
370
   -1
100
AcDbCircle
 10
94.02744010249103
 20
-37.38256514318989
 40
0.4284542147717119
  0
CIRCLE
  5
B9
100
AcDbEntity
  8
0
  6
ByLayer
 62
  256
370
   -1
100
AcDbCircle
 10
94.02744010249103
 20
-39.86302764390252
 40
0.4284542147717119
  0
LINE
  5
BA
100
AcDbEntity
  8
0
  6
ByLayer
 62
  256
370
   -1
100
AcDbLine
 10
94.02744010249103
 20
-44.29679457710606
 11
94.02744010249103
 21
-40.29148185868228
  0
LINE
  5
BB
100
AcDbEntity
  8
0
  6
ByLayer
 62
  256
370
   -1
100
AcDbLine
 10
92.69883529150722
 20
-40.29148185868228
 11
92.69883529150722
 21
-36.95411092841535
  0
LINE
  5
BC
100
AcDbEntity
  8
0
  6
ByLayer
 62
  256
370
   -1
100
AcDbLine
 10
92.69883529150722
 20
-38.62279639354882
 11
90.87950633403597
 21
-38.62279639354882
  0
LINE
  5
BD
100
AcDbEntity
  8
0
  6
ByLayer
 62
  256
370
   -1
100
AcDbLine
 10
90.87950633403597
 20
-37.7768471382992
 11
90.87950633403597
 21
-39.46874564879843
  0
LINE
  5
BE
100
AcDbEntity
  8
0
  6
ByLayer
 62
  256
370
   -1
100
AcDbLine
 10
90.87950633403597
 20
-39.46874564879843
 11
91.63481816908026
 21
-39.46874564879843
  0
LINE
  5
BF
100
AcDbEntity
  8
0
  6
ByLayer
 62
  256
370
   -1
100
AcDbLine
 10
90.87950633403597
 20
-37.7768471382992
 11
91.63481816908026
 21
-37.7768471382992
  0
LINE
  5
C0
100
AcDbEntity
  8
0
  6
ByLayer
 62
  256
370
   -1
100
AcDbLine
 10
94.02744010249103
 20
-21.6756950074216
 11
94.02744010249103
 21
-11.60926616707683
  0
LINE
  5
C1
100
AcDbEntity
  8
0
  6
ByLayer
 62
  256
370
   -1
100
AcDbLine
 10
94.02744010249103
 20
-24.27065996704918
 11
95.65416177372691
 21
-21.15501562893297
  0
LINE
  5
C2
100
AcDbEntity
  8
0
  6
ByLayer
 62
  256
370
   -1
100
AcDbLine
 10
94.02744010249103
 20
-21.6756950074216
 11
96.04964902128734
 21
-21.6756950074216
  0
LINE
  5
C3
100
AcDbEntity
  8
0
  6
ByLayer
 62
  256
370
   -1
100
AcDbLine
 10
94.02744010249103
 20
-36.95411092841535
 11
94.02744010249103
 21
-24.27065996704918
  0
MTEXT
  5
C4
100
AcDbEntity
  8
0
  6
ByLayer
 62
  256
370
   -1
100
AcDbMText
 10
85.31257157125437
 20
-22.36014578523199
 30
0
 40
1
 41
14.47222222222222
 71
    5
 72
    1
  1
N.C. CONTACT \PFROM BREAKER
  7
courier
210
0
220
0
230
1
 50
0
 73
    2
 44
1
  0
MTEXT
  5
C5
100
AcDbEntity
  8
0
  6
ByLayer
 62
  256
370
   -1
100
AcDbMText
 10
71.30229299885028
 20
-48.56760805596436
 30
0
 40
1
 41
16.91666666666667
 71
    4
 72
    1
  1
MOUNT AT\PLV COMPARTMENT\POF SWGR
  7
courier
210
0
220
0
230
1
 50
0
 73
    2
 44
1
  0
LINE
  5
C6
100
AcDbEntity
  8
0
  6
ByLayer
 62
  256
370
   -1
100
AcDbLine
 10
106.1108653485176
 20
-48.48522769733189
 11
106.1108653485176
 21
-46.05495680105668
  0
LINE
  5
C7
100
AcDbEntity
  8
0
  6
ByLayer
 62
  256
370
   -1
100
AcDbLine
 10
106.1108653485176
 20
-51.08019265695948
 11
106.1108653485176
 21
-59.44298335909495
  0
MTEXT
  5
C8
100
AcDbEntity
  8
0
  6
ByLayer
 62
  256
370
   -1
100
AcDbMText
 10
108.6037827602547
 20
-62.24411538496782
 30
0
 40
1
 41
14.88888888888889
 71
    5
 72
    1
  1
TO CB CLOSING \PCIRCUIT
  7
courier
210
0
220
0
230
1
 50
0
 73
    2
 44
1
  0
LWPOLYLINE
  5
C9
100
AcDbEntity
  8
0
  6
CENTERTINY
 62
  256
370
   -1
100
AcDbPolyline
 90
    5
 70
    1
 43
0
 10
89.77641565519804
 20
-43.86649161492871
 10
111.7988597244143
 20
-43.86649161492871
 10
111.7988597244143
 20
-55.46250331139682
 10
89.77641565519804
 20
-55.46250331139682
 10
89.77641565519804
 20
-55.46250331139682
  0
LINE
  5
CA
100
AcDbEntity
  8
0
  6
ByLayer
 62
  256
370
   -1
100
AcDbLine
 10
106.1108653485176
 20
-46.05495680105668
 11
109.6648293288663
 21
-46.05495680105668
  0
LINE
  5
CB
100
AcDbEntity
  8
0
  6
ByLayer
 62
  256
370
   -1
100
AcDbLine
 10
109.6648293288663
 20
-46.05495680105668
 11
109.6648293288663
 21
-59.44298335909495
  0
LINE
  5
CC
100
AcDbEntity
  8
0
  6
ByLayer
 62
  256
370
   -1
100
AcDbLine
 10
150.3116733567978
 20
-51.08019265695948
 11
151.9383950280337
 21
-47.96454831884327
  0
LINE
  5
CD
100
AcDbEntity
  8
0
  6
DASHEDTINY
 62
  256
370
   -1
100
AcDbLine
 10
146.9583005281295
 20
-49.77047216688958
 11
151.1473005281294
 21
-49.77047216688958
  0
LINE
  5
CE
100
AcDbEntity
  8
0
  6
ByLayer
 62
  256
370
   -1
100
AcDbLine
 10
150.3116733567978
 20
-48.48522769733189
 11
150.3116733567978
 21
-46.05495680105668
  0
LINE
  5
CF
100
AcDbEntity
  8
0
  6
ByLayer
 62
  256
370
   -1
100
AcDbLine
 10
150.3116733567978
 20
-51.08019265695948
 11
150.3116733567978
 21
-59.44298335909495
  0
LWPOLYLINE
  5
D0
100
AcDbEntity
  8
0
  6
CENTERTINY
 62
  256
370
   -1
100
AcDbPolyline
 90
    5
 70
    1
 43
0
 10
133.9772236634782
 20
-43.86649161492871
 10
155.9996677326945
 20
-43.86649161492871
 10
155.9996677326945
 20
-55.46250331139682
 10
133.9772236634782
 20
-55.46250331139682
 10
133.9772236634782
 20
-55.46250331139682
  0
LINE
  5
D1
100
AcDbEntity
  8
0
  6
ByLayer
 62
  256
370
   -1
100
AcDbLine
 10
150.3116733567978
 20
-46.05495680105668
 11
153.8656373371465
 21
-46.05495680105668
  0
LINE
  5
D2
100
AcDbEntity
  8
0
  6
ByLayer
 62
  256
370
   -1
100
AcDbLine
 10
153.8656373371465
 20
-46.05495680105668
 11
153.8656373371465
 21
-59.44298335909495
  0
MTEXT
  5
D3
100
AcDbEntity
  8
0
  6
ByLayer
 62
  256
370
   -1
100
AcDbMText
 10
152.8045907685349
 20
-62.24411538496782
 30
0
 40
1
 41
14.88888888888889
 71
    5
 72
    1
  1
TO CB CLOSING \PCIRCUIT
  7
courier
210
0
220
0
230
1
 50
0
 73
    2
 44
1
  0
LINE
  5
D4
100
AcDbEntity
  8
0
  6
ByLayer
 62
  256
370
   -1
100
AcDbLine
 10
231.8764705578338
 20
-51.08019265695948
 11
233.5031922290697
 21
-47.96454831884327
  0
LINE
  5
D5
100
AcDbEntity
  8
0
  6
ByLayer
 62
  256
370
   -1
100
AcDbLine
 10
231.8764705578338
 20
-48.48522769733189
 11
231.8764705578338
 21
-46.05495680105668
  0
LINE
  5
D6
100
AcDbEntity
  8
0
  6
ByLayer
 62
  256
370
   -1
100
AcDbLine
 10
231.8764705578338
 20
-51.08019265695948
 11
231.8764705578338
 21
-59.44298335909495
  0
LWPOLYLINE
  5
D7
100
AcDbEntity
  8
0
  6
CENTERTINY
 62
  256
370
   -1
100
AcDbPolyline
 90
    5
 70
    1
 43
0
 10
215.5420208645142
 20
-43.86649161492871
 10
237.5644649337304
 20
-43.86649161492871
 10
237.5644649337304
 20
-55.46250331139682
 10
215.5420208645142
 20
-55.46250331139682
 10
215.5420208645142
 20
-55.46250331139682
  0
LINE
  5
D8
100
AcDbEntity
  8
0
  6
ByLayer
 62
  256
370
   -1
100
AcDbLine
 10
231.8764705578338
 20
-46.05495680105668
 11
235.4304345381825
 21
-46.05495680105668
  0
LINE
  5
D9
100
AcDbEntity
  8
0
  6
ByLayer
 62
  256
370
   -1
100
AcDbLine
 10
235.4304345381825
 20
-46.05495680105668
 11
235.4304345381825
 21
-59.44298335909495
  0
MTEXT
  5
DA
100
AcDbEntity
  8
0
  6
ByLayer
 62
  256
370
   -1
100
AcDbMText
 10
234.3693879695709
 20
-62.24411538496782
 30
0
 40
1
 41
14.88888888888889
 71
    5
 72
    1
  1
TO CB CLOSING \PCIRCUIT
  7
courier
210
0
220
0
230
1
 50
0
 73
    2
 44
1
  0
MTEXT
  5
DB
100
AcDbEntity
  8
0
  6
ByLayer
 62
  256
370
   -1
100
AcDbMText
 10
115.5031010071305
 20
-48.56760805596436
 30
0
 40
1
 41
16.91666666666667
 71
    4
 72
    1
  1
MOUNT AT\PLV COMPARTMENT\POF SWGR
  7
courier
210
0
220
0
230
1
 50
0
 73
    2
 44
1
  0
MTEXT
  5
DC
100
AcDbEntity
  8
0
  6
ByLayer
 62
  256
370
   -1
100
AcDbMText
 10
197.0678982081665
 20
-48.56760805596436
 30
0
 40
1
 41
16.91666666666667
 71
    4
 72
    1
  1
MOUNT AT\PLV COMPARTMENT\POF SWGR
  7
courier
210
0
220
0
230
1
 50
0
 73
    2
 44
1
  0
LINE
  5
DD
100
AcDbEntity
  8
0
  6
ByLayer
 62
  256
370
   -1
100
AcDbLine
 10
95.24125817042085
 20
59.81354244344026
 11
96.34411245236664
 21
59.81354244344026
  0
LINE
  5
DE
100
AcDbEntity
  8
0
  6
ByLayer
 62
  256
370
   -1
100
AcDbLine
 10
96.34411245236664
 20
61.01102829211771
 11
96.34411245236664
 21
59.81354244344026
  0
LINE
  5
DF
100
AcDbEntity
  8
0
  6
ByLayer
 62
  256
370
   -1
100
AcDbLine
 10
95.24125817042085
 20
61.01102829211697
 11
95.24125817042085
 21
59.81354244344026
  0
ARC
  5
E0
100
AcDbEntity
  8
0
  6
ByLayer
 62
  256
370
   -1
100
AcDbCircle
 10
95.79268531139375
 20
58.93291610714339
 40
2.15002840565954
100
AcDbArc
 50
104.8609649757732
 51
435.1390350242319
  0
LWPOLYLINE
  5
E1
100
AcDbEntity
  8
0
  6
ByLayer
 62
  256
370
   -1
100
AcDbPolyline
 90
    4
 70
    1
 43
0
 10
87.41006284235846
 20
60.6379842669637
 10
91.01724631912604
 20
60.6379842669637
 10
91.01724631912604
 20
57.46803515101643
 10
87.41006284235846
 20
57.46803515101643
  0
LINE
  5
E2
100
AcDbEntity
  8
0
  6
ByLayer
 62
  256
370
   -1
100
AcDbLine
 10
91.82055417106965
 20
59.47862444158085
 11
91.82055417106965
 21
58.62739497639928
  0
LINE
  5
E3
100
AcDbEntity
  8
0
  6
ByLayer
 62
  256
370
   -1
100
AcDbLine
 10
91.01724631912604
 20
59.47862444158085
 11
91.82055417106965
 21
59.47862444158085
  0
LINE
  5
E4
100
AcDbEntity
  8
0
  6
ByLayer
 62
  256
370
   -1
100
AcDbLine
 10
91.01724631912604
 20
58.62739497639928
 11
91.82055417106965
 21
58.62739497639928
  0
LINE
  5
E5
100
AcDbEntity
  8
0
  6
ByLayer
 62
  256
370
   -1
100
AcDbLine
 10
89.21365458074226
 20
60.6379842669637
 11
89.21365458074226
 21
63.58005406346673
  0
CIRCLE
  5
E6
100
AcDbEntity
  8
0
  6
ByLayer
 62
  256
370
   -1
100
AcDbCircle
 10
89.21365458074226
 20
64.00850827823844
 40
0.4284542147717119
  0
LINE
  5
E7
100
AcDbEntity
  8
0
  6
ByLayer
 62
  256
370
   -1
100
AcDbLine
 10
89.21365458074226
 20
57.46803515101644
 11
89.21365458074226
 21
54.5259653545134
  0
CIRCLE
  5
E8
100
AcDbEntity
  8
0
  6
ByLayer
 62
  256
370
   -1
100
AcDbCircle
 10
89.21365458074226
 20
54.09751113974169
 40
0.4284542147717119
  0
LINE
  5
E9
100
AcDbEntity
  8
0
  6
ByLayer
 62
  256
370
   -1
100
AcDbLine
 10
101.2970798267689
 20
57.65356441315674
 11
102.9238014980047
 21
60.76920875127295
  0
LINE
  5
EA
100
AcDbEntity
  8
0
  6
ByLayer
 62
  256
370
   -1
100
AcDbLine
 10
101.2970798267689
 20
60.24852937278432
 11
101.2970798267689
 21
65.64593013271465
  0
LINE
  5
EB
100
AcDbEntity
  8
0
  6
ByLayer
 62
  256
370
   -1
100
AcDbLine
 10
122.7945586985502
 20
59.81354244344026
 11
123.8974129804961
 21
59.81354244344026
  0
LINE
  5
EC
100
AcDbEntity
  8
0
  6
ByLayer
 62
  256
370
   -1
100
AcDbLine
 10
123.8974129804961
 20
61.01102829211771
 11
123.8974129804961
 21
59.81354244344026
  0
LINE
  5
ED
100
AcDbEntity
  8
0
  6
ByLayer
 62
  256
370
   -1
100
AcDbLine
 10
122.7945586985502
 20
61.01102829211697
 11
122.7945586985502
 21
59.81354244344026
  0
ARC
  5
EE
100
AcDbEntity
  8
0
  6
ByLayer
 62
  256
370
   -1
100
AcDbCircle
 10
123.3459858395231
 20
58.93291610714339
 40
2.15002840565954
100
AcDbArc
 50
104.8609649757732
 51
435.1390350242319
  0
LWPOLYLINE
  5
EF
100
AcDbEntity
  8
0
  6
ByLayer
 62
  256
370
   -1
100
AcDbPolyline
 90
    4
 70
    1
 43
0
 10
114.9633633704879
 20
60.6379842669637
 10
118.5705468472555
 20
60.6379842669637
 10
118.5705468472555
 20
57.46803515101643
 10
114.9633633704879
 20
57.46803515101643
  0
LINE
  5
F0
100
AcDbEntity
  8
0
  6
ByLayer
 62
  256
370
   -1
100
AcDbLine
 10
119.3738546991991
 20
59.47862444158085
 11
119.3738546991991
 21
58.62739497639928
  0
LINE
  5
F1
100
AcDbEntity
  8
0
  6
ByLayer
 62
  256
370
   -1
100
AcDbLine
 10
118.5705468472555
 20
59.47862444158085
 11
119.3738546991991
 21
59.47862444158085
  0
LINE
  5
F2
100
AcDbEntity
  8
0
  6
ByLayer
 62
  256
370
   -1
100
AcDbLine
 10
118.5705468472555
 20
58.62739497639928
 11
119.3738546991991
 21
58.62739497639928
  0
LINE
  5
F3
100
AcDbEntity
  8
0
  6
ByLayer
 62
  256
370
   -1
100
AcDbLine
 10
116.7669551088717
 20
60.6379842669637
 11
116.7669551088717
 21
63.58005406346673
  0
CIRCLE
  5
F4
100
AcDbEntity
  8
0
  6
ByLayer
 62
  256
370
   -1
100
AcDbCircle
 10
116.7669551088717
 20
64.00850827823844
 40
0.4284542147717119
  0
LINE
  5
F5
100
AcDbEntity
  8
0
  6
ByLayer
 62
  256
370
   -1
100
AcDbLine
 10
116.7669551088717
 20
57.46803515101644
 11
116.7669551088717
 21
54.5259653545134
  0
CIRCLE
  5
F6
100
AcDbEntity
  8
0
  6
ByLayer
 62
  256
370
   -1
100
AcDbCircle
 10
116.7669551088717
 20
54.09751113974169
 40
0.4284542147717119
  0
CIRCLE
  5
F7
100
AcDbEntity
  8
0
  6
ByLayer
 62
  256
370
   -1
100
AcDbCircle
 10
147.0678599774891
 20
58.92817170586154
 40
2.295880358044161
  0
MTEXT
  5
F8
100
AcDbEntity
  8
0
  6
ByLayer
 62
  256
370
   -1
100
AcDbMText
 10
95.78263368518455
 20
58.58334970085399
 30
0
 40
1
 41
1
 71
    5
 72
    1
  1
A
  7
courier
210
0
220
0
230
1
 50
0
 73
    2
 44
1
  0
MTEXT
  5
F9
100
AcDbEntity
  8
0
  6
ByLayer
 62
  256
370
   -1
100
AcDbMText
 10
123.3359342133139
 20
58.58334970085399
 30
0
 40
1
 41
0.8888888888888888
 71
    5
 72
    1
  1
B
  7
courier
210
0
220
0
230
1
 50
0
 73
    2
 44
1
  0
MTEXT
  5
FA
100
AcDbEntity
  8
0
  6
ByLayer
 62
  256
370
   -1
100
AcDbMText
 10
147.0169857276302
 20
59.0882761723746
 30
0
 40
1
 41
0.8888888888888888
 71
    5
 72
    1
  1
C
  7
courier
210
0
220
0
230
1
 50
0
 73
    2
 44
1
  0
LINE
  5
FB
100
AcDbEntity
  8
0
  6
DASHEDTINY
 62
  256
370
   -1
100
AcDbLine
 10
96.98670699810044
 20
59.21538490322664
 11
99.16670699810045
 21
62.38978490322664
  0
LINE
  5
FC
100
AcDbEntity
  8
0
  6
DASHEDTINY
 62
  256
370
   -1
100
AcDbLine
 10
99.16670699810045
 20
62.38978490322664
 11
143.7977069981004
 21
62.38978490322664
  0
LINE
  5
FD
100
AcDbEntity
  8
0
  6
DASHEDTINY
 62
  256
370
   -1
100
AcDbLine
 10
143.7977069981004
 20
62.38978490322664
 11
146.1197069981004
 21
59.83128490322664
  0
LINE
  5
FE
100
AcDbEntity
  8
0
  6
DASHEDTINY
 62
  256
370
   -1
100
AcDbLine
 10
124.5267069981005
 20
59.75208490322664
 11
126.3047069981004
 21
61.47598490322664
  0
LINE
  5
FF
100
AcDbEntity
  8
0
  6
DASHEDTINY
 62
  256
370
   -1
100
AcDbLine
 10
126.3047069981004
 20
61.47598490322664
 11
142.7887069981005
 21
61.47598490322664
  0
LINE
  5
100
100
AcDbEntity
  8
0
  6
DASHEDTINY
 62
  256
370
   -1
100
AcDbLine
 10
142.7887069981005
 20
61.47598490322664
 11
145.7517069981004
 21
58.83628490322664
  0
LINE
  5
101
100
AcDbEntity
  8
0
  6
ByLayer
 62
  256
370
   -1
100
AcDbLine
 10
89.21365458074226
 20
53.66905692496998
 11
89.21365458074226
 21
38.68206284541769
  0
LINE
  5
102
100
AcDbEntity
  8
0
  6
ByLayer
 62
  256
370
   -1
100
AcDbLine
 10
84.69355847019155
 20
38.68206284541769
 11
93.73375069129285
 21
38.68206284541769
  0
CIRCLE
  5
103
100
AcDbEntity
  8
0
  6
ByLayer
 62
  256
370
   -1
100
AcDbCircle
 10
89.21365458074226
 20
38.68206284541769
 40
0.4284542147717119
  0
LINE
  5
104
100
AcDbEntity
  8
0
  6
ByLayer
 62
  256
370
   -1
100
AcDbLine
 10
116.7669551088717
 20
53.66905692496998
 11
116.7669551088717
 21
38.68206284541769
  0
LINE
  5
105
100
AcDbEntity
  8
0
  6
ByLayer
 62
  256
370
   -1
100
AcDbLine
 10
112.246858998321
 20
38.68206284541769
 11
121.2870512194224
 21
38.68206284541769
  0
CIRCLE
  5
106
100
AcDbEntity
  8
0
  6
ByLayer
 62
  256
370
   -1
100
AcDbCircle
 10
116.7669551088717
 20
38.68206284541769
 40
0.4284542147717119
  0
MTEXT
  5
107
100
AcDbEntity
  8
0
  6
ByLayer
 62
  256
370
   -1
100
AcDbMText
 10
88.95962092100166
 20
33.90175259330872
 30
0
 40
1
 41
14.83333333333333
 71
    5
 72
    1
  1
EWL DEPOT LC2\PHL301
  7
courier
210
0
220
0
230
1
 50
0
 73
    2
 44
1
  0
MTEXT
  5
108
100
AcDbEntity
  8
0
  6
ByLayer
 62
  256
370
   -1
100
AcDbMText
 10
116.5129214491311
 20
33.90175259330872
 30
0
 40
1
 41
14.83333333333333
 71
    5
 72
    1
  1
EWL DEPOT LC2\PHL303
  7
courier
210
0
220
0
230
1
 50
0
 73
    2
 44
1
  0
LINE
  5
109
100
AcDbEntity
  8
0
  6
ByLayer
 62
  256
370
   -1
100
AcDbLine
 10
101.2970798267689
 20
57.65356441315674
 11
101.2970798267689
 21
44.91745570853995
  0
CIRCLE
  5
10A
100
AcDbEntity
  8
0
  6
ByLayer
 62
  256
370
   -1
100
AcDbCircle
 10
105.9786796550484
 20
49.28556208700632
 40
0.5716333637013417
  0
LINE
  5
10B
100
AcDbEntity
  8
0
  6
ByLayer
 62
  256
370
   -1
100
AcDbLine
 10
105.0090149426848
 20
48.34283250554169
 11
106.9483443674119
 21
50.22829166847096
  0
LINE
  5
10C
100
AcDbEntity
  8
0
  6
ByLayer
 62
  256
370
   -1
100
AcDbLine
 10
105.9786796550484
 20
65.64593013271465
 11
105.9786796550484
 21
44.91745570853995
  0
LINE
  5
10D
100
AcDbEntity
  8
0
  6
ByLayer
 62
  256
370
   -1
100
AcDbLine
 10
101.2970798267689
 20
65.64593013271465
 11
105.9786796550484
 21
65.64593013271465
  0
LINE
  5
10E
100
AcDbEntity
  8
0
  6
DASHEDTINY
 62
  256
370
   -1
100
AcDbLine
 10
97.94370699810045
 20
58.96328490322664
 11
102.1327069981004
 21
58.96328490322664
  0
MTEXT
  5
10F
100
AcDbEntity
  8
0
  6
ByLayer
 62
  256
370
   -1
100
AcDbMText
 10
103.7899972385059
 20
42.11632368266708
 30
0
 40
1
 41
14.88888888888889
 71
    5
 72
    1
  1
TO CB CLOSING \PCIRCUIT
  7
courier
210
0
220
0
230
1
 50
0
 73
    2
 44
1
  0
LINE
  5
110
100
AcDbEntity
  8
0
  6
ByLayer
 62
  256
370
   -1
100
AcDbLine
 10
84.69355847019155
 20
97.12449090303939
 11
93.73375069129285
 21
97.12449090303939
  0
CIRCLE
  5
111
100
AcDbEntity
  8
0
  6
ByLayer
 62
  256
370
   -1
100
AcDbCircle
 10
89.21365458074226
 20
97.12449090303939
 40
0.4284542147717119
  0
LINE
  5
112
100
AcDbEntity
  8
0
  6
ByLayer
 62
  256
370
   -1
100
AcDbLine
 10
112.246858998321
 20
97.12449090303939
 11
121.2870512194224
 21
97.12449090303939
  0
CIRCLE
  5
113
100
AcDbEntity
  8
0
  6
ByLayer
 62
  256
370
   -1
100
AcDbCircle
 10
116.7669551088717
 20
97.12449090303939
 40
0.4284542147717119
  0
LWPOLYLINE
  5
114
100
AcDbEntity
  8
0
  6
CENTERTINY
 62
  256
370
   -1
100
AcDbPolyline
 90
    5
 70
    1
 43
0
 10
81.42656818098585
 20
76.45756331738029
 10
155.5663505039475
 20
76.45756331738029
 10
155.5663505039475
 20
49.28556208700632
 10
81.42656818098585
 20
49.28556208700632
 10
81.42656818098585
 20
49.28556208700632
  0
CIRCLE
  5
115
100
AcDbEntity
  8
0
  6
ByLayer
 62
  256
370
   -1
100
AcDbCircle
 10
89.21365458074226
 20
49.28556208700632
 40
0.5716333637013417
  0
LINE
  5
116
100
AcDbEntity
  8
0
  6
ByLayer
 62
  256
370
   -1
100
AcDbLine
 10
88.24398986837865
 20
48.34283250554169
 11
90.18331929310585
 21
50.22829166847096
  0
CIRCLE
  5
117
100
AcDbEntity
  8
0
  6
ByLayer
 62
  256
370
   -1
100
AcDbCircle
 10
89.21365458074226
 20
76.45756331738029
 40
0.5716333637013417
  0
LINE
  5
118
100
AcDbEntity
  8
0
  6
ByLayer
 62
  256
370
   -1
100
AcDbLine
 10
88.24398986837865
 20
75.51483373591566
 11
90.18331929310585
 21
77.40029289884492
  0
CIRCLE
  5
119
100
AcDbEntity
  8
0
  6
ByLayer
 62
  256
370
   -1
100
AcDbCircle
 10
116.7669551088717
 20
49.28556208700632
 40
0.5716333637013417
  0
LINE
  5
11A
100
AcDbEntity
  8
0
  6
ByLayer
 62
  256
370
   -1
100
AcDbLine
 10
115.7972903965081
 20
48.34283250554169
 11
117.7366198212353
 21
50.22829166847096
  0
CIRCLE
  5
11B
100
AcDbEntity
  8
0
  6
ByLayer
 62
  256
370
   -1
100
AcDbCircle
 10
116.7669551088717
 20
76.45756331738029
 40
0.5716333637013417
  0
LINE
  5
11C
100
AcDbEntity
  8
0
  6
ByLayer
 62
  256
370
   -1
100
AcDbLine
 10
115.7972903965081
 20
75.51483373591566
 11
117.7366198212353
 21
77.40029289884492
  0
CIRCLE
  5
11D
100
AcDbEntity
  8
0
  6
ByLayer
 62
  256
370
   -1
100
AcDbCircle
 10
101.2970798267689
 20
49.28556208700632
 40
0.5716333637013417
  0
LINE
  5
11E
100
AcDbEntity
  8
0
  6
ByLayer
 62
  256
370
   -1
100
AcDbLine
 10
100.3274151144053
 20
48.34283250554169
 11
102.2667445391324
 21
50.22829166847096
  0
LINE
  5
11F
100
AcDbEntity
  8
0
  6
ByLayer
 62
  256
370
   -1
100
AcDbLine
 10
128.8503803548982
 20
57.65356441315674
 11
130.4771020261342
 21
60.76920875127295
  0
LINE
  5
120
100
AcDbEntity
  8
0
  6
ByLayer
 62
  256
370
   -1
100
AcDbLine
 10
128.8503803548982
 20
60.24852937278432
 11
128.8503803548982
 21
65.64593013271465
  0
LINE
  5
121
100
AcDbEntity
  8
0
  6
ByLayer
 62
  256
370
   -1
100
AcDbLine
 10
128.8503803548982
 20
57.65356441315674
 11
128.8503803548982
 21
44.91745570853995
  0
CIRCLE
  5
122
100
AcDbEntity
  8
0
  6
ByLayer
 62
  256
370
   -1
100
AcDbCircle
 10
133.5319801831778
 20
49.28556208700632
 40
0.5716333637013417
  0
LINE
  5
123
100
AcDbEntity
  8
0
  6
ByLayer
 62
  256
370
   -1
100
AcDbLine
 10
132.5623154708142
 20
48.34283250554169
 11
134.5016448955415
 21
50.22829166847096
  0
LINE
  5
124
100
AcDbEntity
  8
0
  6
ByLayer
 62
  256
370
   -1
100
AcDbLine
 10
133.5319801831779
 20
65.64593013271465
 11
133.5319801831778
 21
44.91745570853995
  0
LINE
  5
125
100
AcDbEntity
  8
0
  6
ByLayer
 62
  256
370
   -1
100
AcDbLine
 10
128.8503803548982
 20
65.64593013271465
 11
133.5319801831779
 21
65.64593013271465
  0
LINE
  5
126
100
AcDbEntity
  8
0
  6
DASHEDTINY
 62
  256
370
   -1
100
AcDbLine
 10
125.4970075262299
 20
58.96328490322664
 11
129.6860075262298
 21
58.96328490322664
  0
MTEXT
  5
127
100
AcDbEntity
  8
0
  6
ByLayer
 62
  256
370
   -1
100
AcDbMText
 10
131.3432977666353
 20
42.11632368266708
 30
0
 40
1
 41
14.88888888888889
 71
    5
 72
    1
  1
TO CB CLOSING \PCIRCUIT
  7
courier
210
0
220
0
230
1
 50
0
 73
    2
 44
1
  0
CIRCLE
  5
128
100
AcDbEntity
  8
0
  6
ByLayer
 62
  256
370
   -1
100
AcDbCircle
 10
128.8503803548982
 20
49.28556208700632
 40
0.5716333637013417
  0
LINE
  5
129
100
AcDbEntity
  8
0
  6
ByLayer
 62
  256
370
   -1
100
AcDbLine
 10
127.8807156425347
 20
48.34283250554169
 11
129.8200450672618
 21
50.22829166847096
  0
ELLIPSE
  5
12A
100
AcDbEntity
  8
0
  6
ByLayer
 62
  256
370
   -1
100
AcDbEllipse
 10
138.816486910633
 20
61.85066740204561
 30
0
 11
0
 21
1.243840864066222
 31
0
 40
0.380952380952376
 41
0
 42
6.283185307179586
  0
LINE
  5
12B
100
AcDbEntity
  8
0
  6
ByLayer
 62
  256
370
   -1
100
AcDbLine
 10
138.8200407416734
 20
63.07771641444703
 11
141.4801721210312
 21
68.2296164276333
  0
MTEXT
  5
12C
100
AcDbEntity
  8
0
  6
ByLayer
 62
  256
370
   -1
100
AcDbMText
 10
145.7130724663355
 20
71.85692034324084
 30
0
 40
1
 41
12.55555555555556
 71
    5
 72
    1
  1
MECHANICAL \PINTERLOCK
  7
courier
210
0
220
0
230
1
 50
0
 73
    2
 44
1
  0
CIRCLE
  5
12D
100
AcDbEntity
  8
0
  6
ByLayer
 62
  256
370
   -1
100
AcDbCircle
 10
89.21365458074226
 20
71.35119192692633
 40
0.4284542147717119
  0
CIRCLE
  5
12E
100
AcDbEntity
  8
0
  6
ByLayer
 62
  256
370
   -1
100
AcDbCircle
 10
89.21365458074226
 20
68.8707294262137
 40
0.4284542147717119
  0
LINE
  5
12F
100
AcDbEntity
  8
0
  6
ByLayer
 62
  256
370
   -1
100
AcDbLine
 10
89.21365458074226
 20
64.43696249301016
 11
89.21365458074226
 21
68.44227521143394
  0
LINE
  5
130
100
AcDbEntity
  8
0
  6
ByLayer
 62
  256
370
   -1
100
AcDbLine
 10
87.88504976975845
 20
68.44227521143394
 11
87.88504976975845
 21
71.77964614170085
  0
LINE
  5
131
100
AcDbEntity
  8
0
  6
ByLayer
 62
  256
370
   -1
100
AcDbLine
 10
87.88504976975845
 20
70.1109606765674
 11
86.06572081228715
 21
70.1109606765674
  0
LINE
  5
132
100
AcDbEntity
  8
0
  6
ByLayer
 62
  256
370
   -1
100
AcDbLine
 10
86.06572081228715
 20
70.95690993181701
 11
86.06572081228715
 21
69.26501142131779
  0
LINE
  5
133
100
AcDbEntity
  8
0
  6
ByLayer
 62
  256
370
   -1
100
AcDbLine
 10
86.06572081228715
 20
69.26501142131779
 11
86.82103264733145
 21
69.26501142131779
  0
LINE
  5
134
100
AcDbEntity
  8
0
  6
ByLayer
 62
  256
370
   -1
100
AcDbLine
 10
86.06572081228715
 20
70.95690993181701
 11
86.82103264733145
 21
70.95690993181701
  0
CIRCLE
  5
135
100
AcDbEntity
  8
0
  6
ByLayer
 62
  256
370
   -1
100
AcDbCircle
 10
116.7669551088717
 20
71.35119192692633
 40
0.4284542147717119
  0
CIRCLE
  5
136
100
AcDbEntity
  8
0
  6
ByLayer
 62
  256
370
   -1
100
AcDbCircle
 10
116.7669551088717
 20
68.8707294262137
 40
0.4284542147717119
  0
LINE
  5
137
100
AcDbEntity
  8
0
  6
ByLayer
 62
  256
370
   -1
100
AcDbLine
 10
116.7669551088717
 20
64.43696249301016
 11
116.7669551088717
 21
68.44227521143394
  0
LINE
  5
138
100
AcDbEntity
  8
0
  6
ByLayer
 62
  256
370
   -1
100
AcDbLine
 10
115.4383502978879
 20
68.44227521143394
 11
115.4383502978879
 21
71.77964614170085
  0
LINE
  5
139
100
AcDbEntity
  8
0
  6
ByLayer
 62
  256
370
   -1
100
AcDbLine
 10
115.4383502978879
 20
70.1109606765674
 11
113.6190213404165
 21
70.1109606765674
  0
LINE
  5
13A
100
AcDbEntity
  8
0
  6
ByLayer
 62
  256
370
   -1
100
AcDbLine
 10
113.6190213404165
 20
70.95690993181701
 11
113.6190213404165
 21
69.26501142131779
  0
LINE
  5
13B
100
AcDbEntity
  8
0
  6
ByLayer
 62
  256
370
   -1
100
AcDbLine
 10
113.6190213404165
 20
69.26501142131779
 11
114.3743331754609
 21
69.26501142131779
  0
LINE
  5
13C
100
AcDbEntity
  8
0
  6
ByLayer
 62
  256
370
   -1
100
AcDbLine
 10
113.6190213404165
 20
70.95690993181701
 11
114.3743331754609
 21
70.95690993181701
  0
LINE
  5
13D
100
AcDbEntity
  8
0
  6
ByLayer
 62
  256
370
   -1
100
AcDbLine
 10
204.3593558995863
 20
59.81354244344026
 11
205.462210181532
 21
59.81354244344026
  0
LINE
  5
13E
100
AcDbEntity
  8
0
  6
ByLayer
 62
  256
370
   -1
100
AcDbLine
 10
205.462210181532
 20
61.01102829211771
 11
205.462210181532
 21
59.81354244344026
  0
LINE
  5
13F
100
AcDbEntity
  8
0
  6
ByLayer
 62
  256
370
   -1
100
AcDbLine
 10
204.3593558995863
 20
61.01102829211697
 11
204.3593558995863
 21
59.81354244344026
  0
ARC
  5
140
100
AcDbEntity
  8
0
  6
ByLayer
 62
  256
370
   -1
100
AcDbCircle
 10
204.9107830405592
 20
58.93291610714339
 40
2.15002840565954
100
AcDbArc
 50
104.8609649757732
 51
435.1390350242319
  0
LWPOLYLINE
  5
141
100
AcDbEntity
  8
0
  6
ByLayer
 62
  256
370
   -1
100
AcDbPolyline
 90
    4
 70
    1
 43
0
 10
196.5281605715238
 20
60.6379842669637
 10
200.1353440482914
 20
60.6379842669637
 10
200.1353440482914
 20
57.46803515101643
 10
196.5281605715238
 20
57.46803515101643
  0
LINE
  5
142
100
AcDbEntity
  8
0
  6
ByLayer
 62
  256
370
   -1
100
AcDbLine
 10
200.938651900235
 20
59.47862444158085
 11
200.938651900235
 21
58.62739497639928
  0
LINE
  5
143
100
AcDbEntity
  8
0
  6
ByLayer
 62
  256
370
   -1
100
AcDbLine
 10
200.1353440482914
 20
59.47862444158085
 11
200.938651900235
 21
59.47862444158085
  0
LINE
  5
144
100
AcDbEntity
  8
0
  6
ByLayer
 62
  256
370
   -1
100
AcDbLine
 10
200.1353440482914
 20
58.62739497639928
 11
200.938651900235
 21
58.62739497639928
  0
LINE
  5
145
100
AcDbEntity
  8
0
  6
ByLayer
 62
  256
370
   -1
100
AcDbLine
 10
198.3317523099076
 20
60.6379842669637
 11
198.3317523099076
 21
63.58005406346673
  0
CIRCLE
  5
146
100
AcDbEntity
  8
0
  6
ByLayer
 62
  256
370
   -1
100
AcDbCircle
 10
198.3317523099076
 20
64.00850827823844
 40
0.4284542147717119
  0
LINE
  5
147
100
AcDbEntity
  8
0
  6
ByLayer
 62
  256
370
   -1
100
AcDbLine
 10
198.3317523099076
 20
57.46803515101644
 11
198.3317523099076
 21
54.5259653545134
  0
CIRCLE
  5
148
100
AcDbEntity
  8
0
  6
ByLayer
 62
  256
370
   -1
100
AcDbCircle
 10
198.3317523099076
 20
54.09751113974169
 40
0.4284542147717119
  0
LINE
  5
149
100
AcDbEntity
  8
0
  6
ByLayer
 62
  256
370
   -1
100
AcDbLine
 10
210.4151775559343
 20
57.65356441315674
 11
212.0418992271701
 21
60.76920875127295
  0
LINE
  5
14A
100
AcDbEntity
  8
0
  6
ByLayer
 62
  256
370
   -1
100
AcDbLine
 10
210.4151775559343
 20
60.24852937278432
 11
210.4151775559343
 21
65.64593013271465
  0
LINE
  5
14B
100
AcDbEntity
  8
0
  6
ByLayer
 62
  256
370
   -1
100
AcDbLine
 10
198.3317523099076
 20
53.66905692496998
 11
198.3317523099076
 21
38.68206284541769
  0
LINE
  5
14C
100
AcDbEntity
  8
0
  6
ByLayer
 62
  256
370
   -1
100
AcDbLine
 10
193.8116561993569
 20
38.68206284541769
 11
202.8518484204583
 21
38.68206284541769
  0
CIRCLE
  5
14D
100
AcDbEntity
  8
0
  6
ByLayer
 62
  256
370
   -1
100
AcDbCircle
 10
198.3317523099076
 20
38.68206284541769
 40
0.4284542147717119
  0
LINE
  5
14E
100
AcDbEntity
  8
0
  6
ByLayer
 62
  256
370
   -1
100
AcDbLine
 10
210.4151775559343
 20
57.65356441315674
 11
210.4151775559343
 21
44.91745570853995
  0
CIRCLE
  5
14F
100
AcDbEntity
  8
0
  6
ByLayer
 62
  256
370
   -1
100
AcDbCircle
 10
215.0967773842137
 20
49.28556208700632
 40
0.5716333637013417
  0
LINE
  5
150
100
AcDbEntity
  8
0
  6
ByLayer
 62
  256
370
   -1
100
AcDbLine
 10
214.1271126718501
 20
48.34283250554169
 11
216.0664420965774
 21
50.22829166847096
  0
LINE
  5
151
100
AcDbEntity
  8
0
  6
ByLayer
 62
  256
370
   -1
100
AcDbLine
 10
215.0967773842137
 20
65.64593013271465
 11
215.0967773842137
 21
44.91745570853995
  0
LINE
  5
152
100
AcDbEntity
  8
0
  6
ByLayer
 62
  256
370
   -1
100
AcDbLine
 10
210.4151775559343
 20
65.64593013271465
 11
215.0967773842137
 21
65.64593013271465
  0
LINE
  5
153
100
AcDbEntity
  8
0
  6
DASHEDTINY
 62
  256
370
   -1
100
AcDbLine
 10
207.0618047272659
 20
58.96328490322664
 11
211.2508047272659
 21
58.96328490322664
  0
MTEXT
  5
154
100
AcDbEntity
  8
0
  6
ByLayer
 62
  256
370
   -1
100
AcDbMText
 10
212.9080949676714
 20
42.11632368266708
 30
0
 40
1
 41
14.88888888888889
 71
    5
 72
    1
  1
TO CB CLOSING \PCIRCUIT
  7
courier
210
0
220
0
230
1
 50
0
 73
    2
 44
1
  0
LINE
  5
155
100
AcDbEntity
  8
0
  6
ByLayer
 62
  256
370
   -1
100
AcDbLine
 10
193.8116561993569
 20
97.12449090303939
 11
202.8518484204583
 21
97.12449090303939
  0
CIRCLE
  5
156
100
AcDbEntity
  8
0
  6
ByLayer
 62
  256
370
   -1
100
AcDbCircle
 10
198.3317523099076
 20
97.12449090303939
 40
0.4284542147717119
  0
CIRCLE
  5
157
100
AcDbEntity
  8
0
  6
ByLayer
 62
  256
370
   -1
100
AcDbCircle
 10
198.3317523099076
 20
49.28556208700632
 40
0.5716333637013417
  0
LINE
  5
158
100
AcDbEntity
  8
0
  6
ByLayer
 62
  256
370
   -1
100
AcDbLine
 10
197.362087597544
 20
48.34283250554169
 11
199.3014170222712
 21
50.22829166847096
  0
CIRCLE
  5
159
100
AcDbEntity
  8
0
  6
ByLayer
 62
  256
370
   -1
100
AcDbCircle
 10
198.3317523099076
 20
76.45756331738029
 40
0.5716333637013417
  0
LINE
  5
15A
100
AcDbEntity
  8
0
  6
ByLayer
 62
  256
370
   -1
100
AcDbLine
 10
197.362087597544
 20
75.51483373591566
 11
199.3014170222712
 21
77.40029289884492
  0
CIRCLE
  5
15B
100
AcDbEntity
  8
0
  6
ByLayer
 62
  256
370
   -1
100
AcDbCircle
 10
210.4151775559343
 20
49.28556208700632
 40
0.5716333637013417
  0
LINE
  5
15C
100
AcDbEntity
  8
0
  6
ByLayer
 62
  256
370
   -1
100
AcDbLine
 10
209.4455128435706
 20
48.34283250554169
 11
211.3848422682979
 21
50.22829166847096
  0
CIRCLE
  5
15D
100
AcDbEntity
  8
0
  6
ByLayer
 62
  256
370
   -1
100
AcDbCircle
 10
198.3317523099076
 20
71.35119192692633
 40
0.4284542147717119
  0
CIRCLE
  5
15E
100
AcDbEntity
  8
0
  6
ByLayer
 62
  256
370
   -1
100
AcDbCircle
 10
198.3317523099076
 20
68.8707294262137
 40
0.4284542147717119
  0
LINE
  5
15F
100
AcDbEntity
  8
0
  6
ByLayer
 62
  256
370
   -1
100
AcDbLine
 10
198.3317523099076
 20
64.43696249301016
 11
198.3317523099076
 21
68.44227521143394
  0
LINE
  5
160
100
AcDbEntity
  8
0
  6
ByLayer
 62
  256
370
   -1
100
AcDbLine
 10
197.0031474989237
 20
68.44227521143394
 11
197.0031474989237
 21
71.77964614170085
  0
LINE
  5
161
100
AcDbEntity
  8
0
  6
ByLayer
 62
  256
370
   -1
100
AcDbLine
 10
197.0031474989237
 20
70.1109606765674
 11
195.1838185414526
 21
70.1109606765674
  0
LINE
  5
162
100
AcDbEntity
  8
0
  6
ByLayer
 62
  256
370
   -1
100
AcDbLine
 10
195.1838185414526
 20
70.95690993181701
 11
195.1838185414526
 21
69.26501142131779
  0
LINE
  5
163
100
AcDbEntity
  8
0
  6
ByLayer
 62
  256
370
   -1
100
AcDbLine
 10
195.1838185414526
 20
69.26501142131779
 11
195.9391303764968
 21
69.26501142131779
  0
LINE
  5
164
100
AcDbEntity
  8
0
  6
ByLayer
 62
  256
370
   -1
100
AcDbLine
 10
195.1838185414526
 20
70.95690993181701
 11
195.9391303764968
 21
70.95690993181701
  0
MTEXT
  5
165
100
AcDbEntity
  8
0
  6
ByLayer
 62
  256
370
   -1
100
AcDbMText
 10
198.077718650167
 20
33.90175259330872
 30
0
 40
1
 41
14.83333333333333
 71
    5
 72
    1
  1
EWL DEPOT LC1\PHL304
  7
courier
210
0
220
0
230
1
 50
0
 73
    2
 44
1
  0
LWPOLYLINE
  5
166
100
AcDbEntity
  8
0
  6
CENTERTINY
 62
  256
370
   -1
100
AcDbPolyline
 90
    5
 70
    1
 43
0
 10
190.5446659101513
 20
76.45756331738029
 10
224.1160469803133
 20
76.45756331738029
 10
224.1160469803133
 20
49.28556208700632
 10
190.5446659101513
 20
49.28556208700632
 10
190.5446659101513
 20
49.28556208700632
  0
LINE
  5
167
100
AcDbEntity
  8
0
  6
ByLayer
 62
  256
370
   -1
100
AcDbLine
 10
89.21365458074226
 20
87.05806206269462
 11
89.21365458074226
 21
97.12449090303939
  0
LINE
  5
168
100
AcDbEntity
  8
0
  6
ByLayer
 62
  256
370
   -1
100
AcDbLine
 10
89.21365458074226
 20
84.46309710306703
 11
90.84037625197816
 21
87.57874144118324
  0
LINE
  5
169
100
AcDbEntity
  8
0
  6
ByLayer
 62
  256
370
   -1
100
AcDbLine
 10
89.21365458074226
 20
87.05806206269462
 11
91.23586349953855
 21
87.05806206269462
  0
LINE
  5
16A
100
AcDbEntity
  8
0
  6
ByLayer
 62
  256
370
   -1
100
AcDbLine
 10
116.7669551088717
 20
87.05806206269462
 11
116.7669551088717
 21
97.12449090303939
  0
LINE
  5
16B
100
AcDbEntity
  8
0
  6
ByLayer
 62
  256
370
   -1
100
AcDbLine
 10
116.7669551088717
 20
84.46309710306703
 11
118.3936767801075
 21
87.57874144118324
  0
LINE
  5
16C
100
AcDbEntity
  8
0
  6
ByLayer
 62
  256
370
   -1
100
AcDbLine
 10
116.7669551088717
 20
87.05806206269462
 11
118.789164027668
 21
87.05806206269462
  0
LINE
  5
16D
100
AcDbEntity
  8
0
  6
ByLayer
 62
  256
370
   -1
100
AcDbLine
 10
89.21365458074226
 20
71.77964614170085
 11
89.21365458074226
 21
84.46309710306703
  0
LINE
  5
16E
100
AcDbEntity
  8
0
  6
ByLayer
 62
  256
370
   -1
100
AcDbLine
 10
116.7669551088717
 20
71.77964614170085
 11
116.7669551088717
 21
84.46309710306703
  0
LINE
  5
16F
100
AcDbEntity
  8
0
  6
ByLayer
 62
  256
370
   -1
100
AcDbLine
 10
198.3317523099076
 20
87.05806206269462
 11
198.3317523099076
 21
97.12449090303939
  0
LINE
  5
170
100
AcDbEntity
  8
0
  6
ByLayer
 62
  256
370
   -1
100
AcDbLine
 10
198.3317523099076
 20
84.46309710306703
 11
199.9584739811434
 21
87.57874144118324
  0
LINE
  5
171
100
AcDbEntity
  8
0
  6
ByLayer
 62
  256
370
   -1
100
AcDbLine
 10
198.3317523099076
 20
87.05806206269462
 11
200.353961228704
 21
87.05806206269462
  0
LINE
  5
172
100
AcDbEntity
  8
0
  6
ByLayer
 62
  256
370
   -1
100
AcDbLine
 10
198.3317523099076
 20
71.77964614170085
 11
198.3317523099076
 21
84.46309710306703
  0
MTEXT
  5
173
100
AcDbEntity
  8
0
  6
ByLayer
 62
  256
370
   -1
100
AcDbMText
 10
80.49878604950555
 20
86.37361128488422
 30
0
 40
1
 41
14.47222222222222
 71
    5
 72
    1
  1
N.C. CONTACT \PFROM BREAKER
  7
courier
210
0
220
0
230
1
 50
0
 73
    2
 44
1
  0
MTEXT
  5
174
100
AcDbEntity
  8
0
  6
ByLayer
 62
  256
370
   -1
100
AcDbMText
 10
108.052086577635
 20
86.37361128488422
 30
0
 40
1
 41
14.47222222222222
 71
    5
 72
    1
  1
N.C. CONTACT \PFROM BREAKER
  7
courier
210
0
220
0
230
1
 50
0
 73
    2
 44
1
  0
MTEXT
  5
175
100
AcDbEntity
  8
0
  6
ByLayer
 62
  256
370
   -1
100
AcDbMText
 10
189.6168837786709
 20
86.37361128488422
 30
0
 40
1
 41
14.47222222222222
 71
    5
 72
    1
  1
N.C. CONTACT \PFROM BREAKER
  7
courier
210
0
220
0
230
1
 50
0
 73
    2
 44
1
  0
MTEXT
  5
176
100
AcDbEntity
  8
0
  6
ByLayer
 62
  256
370
   -1
100
AcDbMText
 10
204.9007314143498
 20
58.58334970085399
 30
0
 40
1
 41
0.8888888888888888
 71
    5
 72
    1
  1
C
  7
courier
210
0
220
0
230
1
 50
0
 73
    2
 44
1
  0
LINE
  5
177
100
AcDbEntity
  8
0
  6
ByLayer
 62
  256
370
   -1
100
AcDbLine
 10
147.0678599774891
 20
56.63229134781738
 11
145.9982874105214
 21
55.7251554908784
  0
LINE
  5
178
100
AcDbEntity
  8
0
  6
ByLayer
 62
  256
370
   -1
100
AcDbLine
 10
147.0678599774891
 20
56.63229134781738
 11
148.1374325444569
 21
55.7251554908784
  0
LINE
  5
179
100
AcDbEntity
  8
0
  6
ByLayer
 62
  256
370
   -1
100
AcDbLine
 10
204.923234590659
 20
56.78292375737956
 11
203.8536620236912
 21
55.87578790044057
  0
LINE
  5
17A
100
AcDbEntity
  8
0
  6
ByLayer
 62
  256
370
   -1
100
AcDbLine
 10
204.923234590659
 20
56.78292375737956
 11
205.9928071576267
 21
55.87578790044057
  0
LINE
  5
17B
100
AcDbEntity
  8
0
  6
DASHEDTINY
 62
  256
370
   -1
100
AcDbLine
 10
147.0677069981004
 20
56.63228490322664
 11
147.0677069981004
 21
45.32068490322664
  0
LINE
  5
17C
100
AcDbEntity
  8
0
  6
DASHEDTINY
 62
  256
370
   -1
100
AcDbLine
 10
147.0677069981004
 20
45.32068490322664
 11
204.9237069981004
 21
45.32068490322664
  0
LINE
  5
17D
100
AcDbEntity
  8
0
  6
DASHEDTINY
 62
  256
370
   -1
100
AcDbLine
 10
204.9237069981004
 20
56.78288490322664
 11
204.9237069981004
 21
45.32068490322664
  0
MTEXT
  5
17E
100
AcDbEntity
  8
0
  6
ByLayer
 62
  256
370
   -1
100
AcDbMText
 10
150.4896745824863
 20
23.70872665330214
 30
0
 40
3
 41
26.75
 71
    5
 72
    1
  1
OPTION 1
  7
courier
210
0
220
0
230
1
 50
0
 73
    2
 44
1
  0
LINE
  5
17F
100
AcDbEntity
  8
0
  6
ByLayer
 62
  256
370
   -1
100
AcDbLine
 10
137.3716051611044
 20
20.85036733925466
 11
165.2590975118364
 21
20.85036733925466
  0
LINE
  5
180
100
AcDbEntity
  8
0
  6
ByLayer
 62
  256
370
   -1
100
AcDbLine
 10
141.5591745273287
 20
-89.45372824319568
 11
169.4466668780607
 21
-89.45372824319568
  0
MTEXT
  5
181
100
AcDbEntity
  8
0
  6
ByLayer
 62
  256
370
   -1
100
AcDbMText
 10
154.6772439487107
 20
-86.59536892914818
 30
0
 40
3
 41
26.75
 71
    5
 72
    1
  1
OPTION 2
  7
courier
210
0
220
0
230
1
 50
0
 73
    2
 44
1
  0
LINE
  5
182
100
AcDbEntity
  8
0
  6
ByLayer
 62
  256
370
   -1
100
AcDbLine
 10
-6.711743751129765
 20
-108.9313262770491
 11
-6.711743751129765
 21
114.6892341556075
  0
LWPOLYLINE
  5
183
100
AcDbEntity
  8
0
  6
ByLayer
 62
  256
370
   -1
100
AcDbPolyline
 90
    4
 70
    1
 43
0
 10
3.288256248870237
 20
104.6892341556075
 10
296.2681112432354
 20
104.6892341556075
 10
296.2681112432354
 20
-98.93132627704911
 10
3.288256248870237
 20
-98.93132627704911
  0
LINE
  5
184
100
AcDbEntity
  8
0
  6
ByLayer
 62
  256
370
   -1
100
AcDbLine
 10
306.2681112432354
 20
114.6892341556075
 11
306.2681112432354
 21
-108.9313262770491
  0
LINE
  5
185
100
AcDbEntity
  8
0
  6
ByLayer
 62
  256
370
   -1
100
AcDbLine
 10
306.2681112432354
 20
-108.9313262770491
 11
-6.711743751129765
 21
-108.9313262770491
  0
LINE
  5
186
100
AcDbEntity
  8
0
  6
ByLayer
 62
  256
370
   -1
100
AcDbLine
 10
-6.711743751129765
 20
114.6892341556075
 11
306.2681112432354
 21
114.6892341556075
  0
ENDSEC
  0
SECTION
  2
OBJECTS
  0
DICTIONARY
  5
C
330
0
100
AcDbDictionary
281
    1
  3
ACAD_GROUP
350
D
  0
DICTIONARY
  5
D
330
C
100
AcDbDictionary
281
    1
  0
ENDSEC
  0
EOF
