999
dxfrw 0.6.3
  0
SECTION
  2
HEADER
  9
$ACADVER
  1
AC1021
  9
$DWGCODEPAGE
  3
ANSI_1252
  9
$INSBASE
 10
0
 20
0
 30
0
  9
$EXTMIN
 10
49.50130268419484
 20
-72.76553370532281
 30
0
  9
$EXTMAX
 10
374.404054239597
 20
95.18747141684671
 30
0
  9
$LIMMIN
 10
0
 20
0
  9
$LIMMAX
 10
420
 20
297
  9
$ORTHOMODE
 70
    0
  9
$REGENMODE
 70
    1
  9
$FILLMODE
 70
    1
  9
$QTEXTMODE
 70
    0
  9
$MIRRTEXT
 70
    0
  9
$LTSCALE
 40
1
  9
$ATTMODE
 70
    0
  9
$TEXTSIZE
 40
2.5
  9
$TRACEWID
 40
15.68
  9
$TEXTSTYLE
  7
STANDARD
  9
$CLAYER
  8
0
  9
$CELTYPE
  6
BYLAYER
  9
$CECOLOR
 62
  256
  9
$CELTSCALE
 40
1
  9
$DISPSILH
 70
    0
  9
$DIMSCALE
 40
2.5
  9
$DIMASZ
 40
2.5
  9
$DIMEXO
 40
0.625
  9
$DIMDLI
 40
3.75
  9
$DIMRND
 40
0
  9
$DIMDLE
 40
0
  9
$DIMEXE
 40
1.25
  9
$DIMTP
 40
0
  9
$DIMTM
 40
0
  9
$DIMTXT
 40
2.5
  9
$DIMCEN
 40
2.5
  9
$DIMTSZ
 40
0
  9
$DIMTOL
 70
    0
  9
$DIMLIM
 70
    0
  9
$DIMTIH
 70
    0
  9
$DIMTOH
 70
    0
  9
$DIMSE1
 70
    0
  9
$DIMSE2
 70
    0
  9
$DIMTAD
 70
    1
  9
$DIMZIN
 70
    8
  9
$DIMBLK
  1

  9
$DIMASO
 70
    1
  9
$DIMSHO
 70
    1
  9
$DIMPOST
  1

  9
$DIMAPOST
  1

  9
$DIMALT
 70
    0
  9
$DIMALTD
 70
    3
  9
$DIMALTF
 40
0.03937
  9
$DIMLFAC
 40
1
  9
$DIMTOFL
 70
    1
  9
$DIMTVP
 40
0
  9
$DIMTIX
 70
    0
  9
$DIMSOXD
 70
    0
  9
$DIMSAH
 70
    0
  9
$DIMBLK1
  1

  9
$DIMBLK2
  1

  9
$DIMSTYLE
  2
STANDARD
  9
$DIMCLRD
 70
    0
  9
$DIMCLRE
 70
    0
  9
$DIMCLRT
 70
    0
  9
$DIMTFAC
 40
1
  9
$DIMGAP
 40
0.625
  9
$DIMJUST
 70
    0
  9
$DIMSD1
 70
    0
  9
$DIMSD2
 70
    0
  9
$DIMTOLJ
 70
    0
  9
$DIMTZIN
 70
    8
  9
$DIMALTZ
 70
    0
  9
$DIMALTTZ
 70
    0
  9
$DIMUPT
 70
    0
  9
$DIMDEC
 70
    2
  9
$DIMTDEC
 70
    2
  9
$DIMALTU
 70
    2
  9
$DIMALTTD
 70
    3
  9
$DIMTXSTY
  7
STANDARD
  9
$DIMAUNIT
 70
    0
  9
$DIMADEC
 70
    0
  9
$DIMALTRND
 40
0
  9
$DIMAZIN
 70
    0
  9
$DIMDSEP
 70
   44
  9
$DIMATFIT
 70
    3
  9
$DIMFRAC
 70
    0
  9
$DIMLDRBLK
  1
STANDARD
  9
$DIMLUNIT
 70
    2
  9
$DIMLWD
 70
   -2
  9
$DIMLWE
 70
   -2
  9
$DIMTMOVE
 70
    0
  9
$DIMFXL
 40
1
  9
$DIMFXLON
 70
    0
  9
$DIMJOGANG
 40
0.7854
  9
$DIMTFILL
 70
    0
  9
$DIMTFILLCLR
 70
    0
  9
$DIMARCSYM
 70
    0
  9
$DIMLTYPE
  6

  9
$DIMLTEX1
  6

  9
$DIMLTEX2
  6

  9
$LUNITS
 70
    2
  9
$LUPREC
 70
    4
  9
$SKETCHINC
 40
1
  9
$FILLETRAD
 40
0
  9
$AUNITS
 70
    0
  9
$AUPREC
 70
    2
  9
$MENU
  1
.
  9
$ELEVATION
 40
0
  9
$PELEVATION
 40
0
  9
$THICKNESS
 40
0
  9
$LIMCHECK
 70
    0
  9
$CHAMFERA
 40
0
  9
$CHAMFERB
 40
0
  9
$CHAMFERC
 40
0
  9
$CHAMFERD
 40
0
  9
$SKPOLY
 70
    0
  9
$USRTIMER
 70
    1
  9
$ANGBASE
 50
0
  9
$ANGDIR
 70
    0
  9
$PDMODE
 70
   34
  9
$PDSIZE
 40
0
  9
$PLINEWID
 40
0
  9
$SPLFRAME
 70
    0
  9
$SPLINETYPE
 70
    2
  9
$SPLINESEGS
 70
    8
  9
$HANDSEED
  5
20000
  9
$SURFTAB1
 70
    6
  9
$SURFTAB2
 70
    6
  9
$SURFTYPE
 70
    6
  9
$SURFU
 70
    6
  9
$SURFV
 70
    6
  9
$UCSBASE
  2

  9
$UCSNAME
  2

  9
$UCSORG
 10
0
 20
0
 30
0
  9
$UCSXDIR
 10
1
 20
0
 30
0
  9
$UCSYDIR
 10
0
 20
1
 30
0
  9
$UCSORTHOREF
  2

  9
$UCSORTHOVIEW
 70
    0
  9
$UCSORGTOP
 10
0
 20
0
 30
0
  9
$UCSORGBOTTOM
 10
0
 20
0
 30
0
  9
$UCSORGLEFT
 10
0
 20
0
 30
0
  9
$UCSORGRIGHT
 10
0
 20
0
 30
0
  9
$UCSORGFRONT
 10
0
 20
0
 30
0
  9
$UCSORGBACK
 10
0
 20
0
 30
0
  9
$PUCSBASE
  2

  9
$PUCSNAME
  2

  9
$PUCSORG
 10
0
 20
0
 30
0
  9
$PUCSXDIR
 10
1
 20
0
 30
0
  9
$PUCSYDIR
 10
0
 20
1
 30
0
  9
$PUCSORTHOREF
  2

  9
$PUCSORTHOVIEW
 70
    0
  9
$PUCSORGTOP
 10
0
 20
0
 30
0
  9
$PUCSORGBOTTOM
 10
0
 20
0
 30
0
  9
$PUCSORGLEFT
 10
0
 20
0
 30
0
  9
$PUCSORGRIGHT
 10
0
 20
0
 30
0
  9
$PUCSORGFRONT
 10
0
 20
0
 30
0
  9
$PUCSORGBACK
 10
0
 20
0
 30
0
  9
$USERI1
 70
    0
  9
$USERI2
 70
    0
  9
$USERI3
 70
    0
  9
$USERI4
 70
    0
  9
$USERI5
 70
    0
  9
$USERR1
 40
0
  9
$USERR2
 40
0
  9
$USERR3
 40
0
  9
$USERR4
 40
0
  9
$USERR5
 40
0
  9
$WORLDVIEW
 70
    1
  9
$SHADEDGE
 70
    3
  9
$SHADEDIF
 70
   70
  9
$TILEMODE
 70
    1
  9
$MAXACTVP
 70
   64
  9
$PINSBASE
 10
0
 20
0
 30
0
  9
$PLIMCHECK
 70
    0
  9
$PEXTMIN
 10
0
 20
0
 30
0
  9
$PEXTMAX
 10
0
 20
0
 30
0
  9
$GRIDMODE
 70
    0
  9
$SNAPSTYLE
 70
    0
  9
$PLIMMIN
 10
0
 20
0
  9
$PLIMMAX
 10
297
 20
210
  9
$UNITMODE
 70
    0
  9
$VISRETAIN
 70
    1
  9
$PLINEGEN
 70
    0
  9
$PSLTSCALE
 70
    1
  9
$TREEDEPTH
 70
 3020
  9
$CMLSTYLE
  2
Standard
  9
$CMLJUST
 70
    0
  9
$CMLSCALE
 40
20
  9
$PROXYGRAPHICS
 70
    1
  9
$MEASUREMENT
 70
    1
  9
$CELWEIGHT
370
   -1
  9
$ENDCAPS
280
    0
  9
$JOINSTYLE
280
    0
  9
$LWDISPLAY
290
    0
  9
$INSUNITS
 70
    4
  9
$HYPERLINKBASE
  1

  9
$STYLESHEET
  1

  9
$XEDIT
290
    1
  9
$CEPSNTYPE
380
    0
  9
$PSTYLEMODE
290
    1
  9
$EXTNAMES
290
    1
  9
$PSVPSCALE
 40
1
  9
$OLESTARTUP
290
    0
  9
$SORTENTS
280
  127
  9
$INDEXCTL
280
    0
  9
$HIDETEXT
280
    1
  9
$XCLIPFRAME
290
    0
  9
$HALOGAP
280
    0
  9
$OBSCOLOR
 70
  257
  9
$OBSLTYPE
280
    0
  9
$INTERSECTIONDISPLAY
280
    0
  9
$INTERSECTIONCOLOR
 70
  257
  9
$DIMASSOC
280
    1
  9
$PROJECTNAME
  1

  9
$CAMERADISPLAY
290
    0
  9
$LENSLENGTH
 40
50
  9
$CAMERAHEIGHT
 40
0
  9
$STEPSPERSEC
 40
2
  9
$STEPSIZE
 40
50
  9
$3DDWFPREC
 40
2
  9
$PSOLWIDTH
 40
5
  9
$PSOLHEIGHT
 40
80
  9
$LOFTANG1
 40
1.570796326794897
  9
$LOFTANG2
 40
1.570796326794897
  9
$LOFTMAG1
 40
0
  9
$LOFTMAG2
 40
0
  9
$LOFTPARAM
 70
    7
  9
$LOFTNORMALS
280
    1
  9
$LATITUDE
 40
1
  9
$LONGITUDE
 40
1
  9
$NORTHDIRECTION
 40
0
  9
$TIMEZONE
 70
-8000
  9
$LIGHTGLYPHDISPLAY
280
    1
  9
$TILEMODELIGHTSYNCH
280
    1
  9
$SOLIDHIST
280
    1
  9
$SHOWHIST
280
    1
  9
$DWFFRAME
280
    2
  9
$DGNFRAME
280
    0
  9
$REALWORLDSCALE
290
    1
  9
$INTERFERECOLOR
 62
    1
  9
$CSHADOW
280
    0
  9
$SHADOWPLANELOCATION
 40
0
  0
ENDSEC
  0
SECTION
  2
CLASSES
  0
ENDSEC
  0
SECTION
  2
TABLES
  0
TABLE
  2
VPORT
  5
8
330
0
100
AcDbSymbolTable
 70
    1
  0
VPORT
  5
31
330
2
100
AcDbSymbolTableRecord
100
AcDbViewportTableRecord
  2
*ACTIVE
 70
    0
 10
0
 20
0
 11
1
 21
1
 12
207.4622452569972
 22
49.27034652107925
 13
0
 23
0
 14
10
 24
10
 15
10
 25
10
 16
0
 26
0
 36
1
 17
0
 27
0
 37
0
 40
174.1505329864562
 41
2.334519572953737
 42
50
 43
0
 44
0
 50
0
 51
0
 71
    0
 72
  100
 73
    1
 74
    3
 75
    0
 76
    0
 77
    0
 78
    0
281
    0
 65
    1
110
0
120
0
130
0
111
1
121
0
131
0
112
0
122
1
132
0
 79
    0
146
0
348
10020
 60
    7
 61
    5
292
1
282
    1
141
0
142
0
 63
  250
421
3358443
  0
ENDTAB
  0
TABLE
  2
LTYPE
  5
5
330
0
100
AcDbSymbolTable
 70
    4
  0
LTYPE
  5
14
330
5
100
AcDbSymbolTableRecord
100
AcDbLinetypeTableRecord
  2
ByBlock
 70
    0
  3

 72
   65
 73
    0
 40
0
  0
LTYPE
  5
15
330
5
100
AcDbSymbolTableRecord
100
AcDbLinetypeTableRecord
  2
ByLayer
 70
    0
  3

 72
   65
 73
    0
 40
0
  0
LTYPE
  5
16
330
5
100
AcDbSymbolTableRecord
100
AcDbLinetypeTableRecord
  2
Continuous
 70
    0
  3
Solid line
 72
   65
 73
    0
 40
0
  0
LTYPE
  5
32
330
5
100
AcDbSymbolTableRecord
100
AcDbLinetypeTableRecord
  2
DOT
 70
    0
  3
Dot . . . . . . . . . . . . . . . . . . . . . .
 72
   65
 73
    2
 40
6.35
 49
0
 74
    0
 49
-6.35
 74
    0
  0
LTYPE
  5
33
330
5
100
AcDbSymbolTableRecord
100
AcDbLinetypeTableRecord
  2
DOTTINY
 70
    0
  3
Dot (.15x) .....................................
 72
   65
 73
    2
 40
0.9525
 49
0
 74
    0
 49
-0.9525
 74
    0
  0
LTYPE
  5
34
330
5
100
AcDbSymbolTableRecord
100
AcDbLinetypeTableRecord
  2
DOT2
 70
    0
  3
Dot (.5x) .....................................
 72
   65
 73
    2
 40
3.175
 49
0
 74
    0
 49
-3.175
 74
    0
  0
LTYPE
  5
35
330
5
100
AcDbSymbolTableRecord
100
AcDbLinetypeTableRecord
  2
DOTX2
 70
    0
  3
Dot (2x) .  .  .  .  .  .  .  .  .  .  .  .  .
 72
   65
 73
    2
 40
12.7
 49
0
 74
    0
 49
-12.7
 74
    0
  0
LTYPE
  5
36
330
5
100
AcDbSymbolTableRecord
100
AcDbLinetypeTableRecord
  2
DASHED
 70
    0
  3
Dashed _ _ _ _ _ _ _ _ _ _ _ _ _ _ _ _ _
 72
   65
 73
    2
 40
19.05
 49
12.7
 74
    0
 49
-6.35
 74
    0
  0
LTYPE
  5
37
330
5
100
AcDbSymbolTableRecord
100
AcDbLinetypeTableRecord
  2
DASHEDTINY
 70
    0
  3
Dashed (.15x) _ _ _ _ _ _ _ _ _ _ _ _ _ _ _ _ _
 72
   65
 73
    2
 40
2.8575
 49
1.905
 74
    0
 49
-0.9525
 74
    0
  0
LTYPE
  5
38
330
5
100
AcDbSymbolTableRecord
100
AcDbLinetypeTableRecord
  2
DASHED2
 70
    0
  3
Dashed (.5x) _ _ _ _ _ _ _ _ _ _ _ _ _ _ _ _ _
 72
   65
 73
    2
 40
9.524999999999999
 49
6.35
 74
    0
 49
-3.175
 74
    0
  0
LTYPE
  5
39
330
5
100
AcDbSymbolTableRecord
100
AcDbLinetypeTableRecord
  2
DASHEDX2
 70
    0
  3
Dashed (2x) ____  ____  ____  ____  ____  ___
 72
   65
 73
    2
 40
38.09999999999999
 49
25.4
 74
    0
 49
-12.7
 74
    0
  0
LTYPE
  5
3A
330
5
100
AcDbSymbolTableRecord
100
AcDbLinetypeTableRecord
  2
DASHDOT
 70
    0
  3
Dash dot __ . __ . __ . __ . __ . __ . __ . __
 72
   65
 73
    4
 40
25.4
 49
12.7
 74
    0
 49
-6.35
 74
    0
 49
0
 74
    0
 49
-6.35
 74
    0
  0
LTYPE
  5
3B
330
5
100
AcDbSymbolTableRecord
100
AcDbLinetypeTableRecord
  2
DASHDOTTINY
 70
    0
  3
Dash dot (.15x) _._._._._._._._._._._._._._._.
 72
   65
 73
    4
 40
3.81
 49
1.905
 74
    0
 49
-0.9525
 74
    0
 49
0
 74
    0
 49
-0.9525
 74
    0
  0
LTYPE
  5
3C
330
5
100
AcDbSymbolTableRecord
100
AcDbLinetypeTableRecord
  2
DASHDOT2
 70
    0
  3
Dash dot (.5x) _._._._._._._._._._._._._._._.
 72
   65
 73
    4
 40
12.7
 49
6.35
 74
    0
 49
-3.175
 74
    0
 49
0
 74
    0
 49
-3.175
 74
    0
  0
LTYPE
  5
3D
330
5
100
AcDbSymbolTableRecord
100
AcDbLinetypeTableRecord
  2
DASHDOTX2
 70
    0
  3
Dash dot (2x) ____  .  ____  .  ____  .  ___
 72
   65
 73
    4
 40
50.8
 49
25.4
 74
    0
 49
-12.7
 74
    0
 49
0
 74
    0
 49
-12.7
 74
    0
  0
LTYPE
  5
3E
330
5
100
AcDbSymbolTableRecord
100
AcDbLinetypeTableRecord
  2
DIVIDE
 70
    0
  3
Divide ____ . . ____ . . ____ . . ____ . . ____
 72
   65
 73
    6
 40
31.75
 49
12.7
 74
    0
 49
-6.35
 74
    0
 49
0
 74
    0
 49
-6.35
 74
    0
 49
0
 74
    0
 49
-6.35
 74
    0
  0
LTYPE
  5
3F
330
5
100
AcDbSymbolTableRecord
100
AcDbLinetypeTableRecord
  2
DIVIDETINY
 70
    0
  3
Divide (.15x) __..__..__..__..__..__..__..__.._
 72
   65
 73
    6
 40
4.7625
 49
1.905
 74
    0
 49
-0.9525
 74
    0
 49
0
 74
    0
 49
-0.9525
 74
    0
 49
0
 74
    0
 49
-0.9525
 74
    0
  0
LTYPE
  5
40
330
5
100
AcDbSymbolTableRecord
100
AcDbLinetypeTableRecord
  2
DIVIDE2
 70
    0
  3
Divide (.5x) __..__..__..__..__..__..__..__.._
 72
   65
 73
    6
 40
15.875
 49
6.35
 74
    0
 49
-3.175
 74
    0
 49
0
 74
    0
 49
-3.175
 74
    0
 49
0
 74
    0
 49
-3.175
 74
    0
  0
LTYPE
  5
41
330
5
100
AcDbSymbolTableRecord
100
AcDbLinetypeTableRecord
  2
DIVIDEX2
 70
    0
  3
Divide (2x) ________  .  .  ________  .  .  _
 72
   65
 73
    6
 40
63.5
 49
25.4
 74
    0
 49
-12.7
 74
    0
 49
0
 74
    0
 49
-12.7
 74
    0
 49
0
 74
    0
 49
-12.7
 74
    0
  0
LTYPE
  5
42
330
5
100
AcDbSymbolTableRecord
100
AcDbLinetypeTableRecord
  2
BORDER
 70
    0
  3
Border __ __ . __ __ . __ __ . __ __ . __ __ .
 72
   65
 73
    6
 40
44.45
 49
12.7
 74
    0
 49
-6.35
 74
    0
 49
12.7
 74
    0
 49
-6.35
 74
    0
 49
0
 74
    0
 49
-6.35
 74
    0
  0
LTYPE
  5
43
330
5
100
AcDbSymbolTableRecord
100
AcDbLinetypeTableRecord
  2
BORDERTINY
 70
    0
  3
Border (.15x) __.__.__.__.__.__.__.__.__.__.__.
 72
   65
 73
    6
 40
6.6675
 49
1.905
 74
    0
 49
-0.9525
 74
    0
 49
1.905
 74
    0
 49
-0.9525
 74
    0
 49
0
 74
    0
 49
-0.9525
 74
    0
  0
LTYPE
  5
44
330
5
100
AcDbSymbolTableRecord
100
AcDbLinetypeTableRecord
  2
BORDER2
 70
    0
  3
Border (.5x) __.__.__.__.__.__.__.__.__.__.__.
 72
   65
 73
    6
 40
22.225
 49
6.35
 74
    0
 49
-3.175
 74
    0
 49
6.35
 74
    0
 49
-3.175
 74
    0
 49
0
 74
    0
 49
-3.175
 74
    0
  0
LTYPE
  5
45
330
5
100
AcDbSymbolTableRecord
100
AcDbLinetypeTableRecord
  2
BORDERX2
 70
    0
  3
Border (2x) ____  ____  .  ____  ____  .  ___
 72
   65
 73
    6
 40
88.89999999999999
 49
25.4
 74
    0
 49
-12.7
 74
    0
 49
25.4
 74
    0
 49
-12.7
 74
    0
 49
0
 74
    0
 49
-12.7
 74
    0
  0
LTYPE
  5
46
330
5
100
AcDbSymbolTableRecord
100
AcDbLinetypeTableRecord
  2
CENTER
 70
    0
  3
Center ____ _ ____ _ ____ _ ____ _ ____ _ ____
 72
   65
 73
    4
 40
50.8
 49
31.75
 74
    0
 49
-6.35
 74
    0
 49
6.35
 74
    0
 49
-6.35
 74
    0
  0
LTYPE
  5
47
330
5
100
AcDbSymbolTableRecord
100
AcDbLinetypeTableRecord
  2
CENTERTINY
 70
    0
  3
Center (.15x) ___ _ ___ _ ___ _ ___ _ ___ _ ___
 72
   65
 73
    4
 40
7.62
 49
4.7625
 74
    0
 49
-0.9525
 74
    0
 49
0.9525
 74
    0
 49
-0.9525
 74
    0
  0
LTYPE
  5
48
330
5
100
AcDbSymbolTableRecord
100
AcDbLinetypeTableRecord
  2
CENTER2
 70
    0
  3
Center (.5x) ___ _ ___ _ ___ _ ___ _ ___ _ ___
 72
   65
 73
    4
 40
28.575
 49
19.05
 74
    0
 49
-3.175
 74
    0
 49
3.175
 74
    0
 49
-3.175
 74
    0
  0
LTYPE
  5
49
330
5
100
AcDbSymbolTableRecord
100
AcDbLinetypeTableRecord
  2
CENTERX2
 70
    0
  3
Center (2x) ________  __  ________  __  _____
 72
   65
 73
    4
 40
101.6
 49
63.5
 74
    0
 49
-12.7
 74
    0
 49
12.7
 74
    0
 49
-12.7
 74
    0
  0
ENDTAB
  0
TABLE
  2
LAYER
  5
2
330
0
100
AcDbSymbolTable
 70
    1
  0
LAYER
  5
10
330
2
100
AcDbSymbolTableRecord
100
AcDbLayerTableRecord
  2
0
 70
    0
 62
    7
  6
CONTINUOUS
370
    0
390
F
  0
ENDTAB
  0
TABLE
  2
STYLE
  5
3
330
0
100
AcDbSymbolTable
 70
    3
  0
STYLE
  5
4A
330
2
100
AcDbSymbolTableRecord
100
AcDbTextStyleTableRecord
  2
standard
 70
    0
 40
0
 41
1
 50
0
 71
    0
 42
1
  3
standard
  4

  0
STYLE
  5
4B
330
2
100
AcDbSymbolTableRecord
100
AcDbTextStyleTableRecord
  2
STANDARD
 70
    0
 40
0
 41
1
 50
0
 71
    0
 42
1
  3
STANDARD
  4

  0
ENDTAB
  0
TABLE
  2
VIEW
  5
6
330
0
100
AcDbSymbolTable
 70
    0
  0
ENDTAB
  0
TABLE
  2
UCS
  5
7
330
0
100
AcDbSymbolTable
 70
    0
  0
ENDTAB
  0
TABLE
  2
APPID
  5
9
330
0
100
AcDbSymbolTable
 70
    1
  0
APPID
  5
12
330
9
100
AcDbSymbolTableRecord
100
AcDbRegAppTableRecord
  2
ACAD
 70
    0
  0
APPID
  5
4C
330
9
100
AcDbSymbolTableRecord
100
AcDbRegAppTableRecord
  2
LibreCad
 70
    0
  0
ENDTAB
  0
TABLE
  2
DIMSTYLE
  5
A
330
0
100
AcDbSymbolTable
 70
    1
100
AcDbDimStyleTable
 71
    1
  0
DIMSTYLE
105
4D
330
A
100
AcDbSymbolTableRecord
100
AcDbDimStyleTableRecord
  2
Standard
 70
    0
 40
2.5
 41
2.5
 42
0.625
 43
0.38
 44
1.25
 45
0
 46
0
 47
0
 48
0
 49
1
140
2.5
141
0.09
142
0
143
25.4
144
1
145
0
146
1
147
0.625
148
0
 71
    0
 72
    0
 73
    0
 74
    1
 75
    0
 76
    0
 77
    0
 78
    8
 79
    0
170
    0
171
    2
172
    0
173
    0
174
    0
175
    0
176
    0
177
    0
178
    0
179
    0
271
    2
272
    4
273
    2
274
    2
275
    0
276
    0
277
    2
278
   44
279
    0
280
    0
281
    0
282
    0
283
    1
284
    0
285
    0
286
    0
288
    0
289
    3
340
STANDARD
341

371
   -2
372
   -2
  0
ENDTAB
  0
TABLE
  2
BLOCK_RECORD
  5
1
330
0
100
AcDbSymbolTable
 70
    2
  0
BLOCK_RECORD
  5
1F
330
1
100
AcDbSymbolTableRecord
100
AcDbBlockTableRecord
  2
*Model_Space
 70
    0
280
    1
281
    0
  0
BLOCK_RECORD
  5
1E
330
1
100
AcDbSymbolTableRecord
100
AcDbBlockTableRecord
  2
*Paper_Space
 70
    0
280
    1
281
    0
  0
ENDTAB
  0
ENDSEC
  0
SECTION
  2
BLOCKS
  0
BLOCK
  5
20
330
1F
100
AcDbEntity
  8
0
100
AcDbBlockBegin
  2
*Model_Space
 70
    0
 10
0
 20
0
 30
0
  3
*Model_Space
  1

  0
ENDBLK
  5
21
330
1F
100
AcDbEntity
  8
0
100
AcDbBlockEnd
  0
BLOCK
  5
1C
330
1B
100
AcDbEntity
  8
0
100
AcDbBlockBegin
  2
*Paper_Space
 70
    0
 10
0
 20
0
 30
0
  3
*Paper_Space
  1

  0
ENDBLK
  5
1D
330
1F
100
AcDbEntity
  8
0
100
AcDbBlockEnd
  0
ENDSEC
  0
SECTION
  2
ENTITIES
  0
ARC
  5
4E
100
AcDbEntity
  8
0
  6
ByLayer
 62
  256
370
   -1
100
AcDbCircle
 10
139.1125182038531
 20
57.79314533590547
 40
2.652162806007302
100
AcDbArc
 50
189.4890754130021
 51
530.5109245869928
  0
LINE
  5
4F
100
AcDbEntity
  8
0
  6
CONTINUOUS
 62
    7
370
    0
100
AcDbLine
 10
137.949882283171
 20
58.23037969672578
 11
137.949882283171
 21
57.35591097508516
  0
LINE
  5
50
100
AcDbEntity
  8
0
  6
CONTINUOUS
 62
    7
370
    0
100
AcDbLine
 10
136.4966448003272
 20
58.23037969672577
 11
137.949882283171
 21
58.23037969672578
  0
LINE
  5
51
100
AcDbEntity
  8
0
  6
CONTINUOUS
 62
    7
370
    0
100
AcDbLine
 10
137.949882283171
 20
57.35591097508516
 11
136.4966448003257
 21
57.35591097508515
  0
MTEXT
  5
52
100
AcDbEntity
  8
0
  6
ByLayer
 62
  256
370
   -1
100
AcDbMText
 10
132.986813159713
 20
54.17531117991972
 30
0
 40
1
 41
14.36111047510479
 71
    1
 72
    1
  1
DS SHARF IS LOCKED \PAT CLOSED POSITION
  7
standard
210
0
220
0
230
1
 50
0
 73
    2
 44
1
  0
LINE
  5
53
100
AcDbEntity
  8
0
  6
ByLayer
 62
  256
370
   -1
100
AcDbLine
 10
155.6224369864397
 20
59.10666432682082
 11
157.3295479371048
 21
59.10666432682082
  0
LINE
  5
54
100
AcDbEntity
  8
0
  6
ByLayer
 62
  256
370
   -1
100
AcDbLine
 10
156.6946254159121
 20
60.2155663922059
 11
155.6223670211666
 21
55.69469316030609
  0
LINE
  5
55
100
AcDbEntity
  8
0
  6
ByLayer
 62
  256
370
   -1
100
AcDbLine
 10
155.6223670211666
 20
55.69469316030609
 11
155.6223670211666
 21
49.62841429394686
  0
LINE
  5
56
100
AcDbEntity
  8
0
  6
DASHEDTINY
 62
  256
370
   -1
100
AcDbLine
 10
141.765
 20
57.7931
 11
156.486
 21
57.7931
  0
LWPOLYLINE
  5
57
100
AcDbEntity
  8
0
  6
ByLayer
 62
  256
370
   -1
100
AcDbPolyline
 90
    4
 70
    1
 43
0
 10
133.9079554784578
 20
59.4127624998727
 10
136.3056218582746
 20
59.4127624998727
 10
136.3056218582746
 20
55.99256192866341
 10
133.9079554784578
 20
55.99256192866341
  0
LWPOLYLINE
  5
58
100
AcDbEntity
  8
0
  6
ByLayer
 62
  256
370
   -1
100
AcDbPolyline
 90
    4
 70
    1
 43
0
 10
136.3130131351475
 20
58.09328395621446
 10
137.7719506598537
 20
58.09328395621446
 10
137.7719506598537
 20
57.47294831578821
 10
136.3130131351475
 20
57.47294831578821
  0
LINE
  5
59
100
AcDbEntity
  8
0
  6
ByLayer
 62
  256
370
   -1
100
AcDbLine
 10
134.6779946092234
 20
56.90669553163542
 11
135.3622256454407
 21
56.90669553163542
  0
LINE
  5
5A
100
AcDbEntity
  8
0
  6
ByLayer
 62
  256
370
   -1
100
AcDbLine
 10
135.3622256454407
 20
56.90669553163542
 11
135.2065237107414
 21
58.0355345582054
  0
LINE
  5
5B
100
AcDbEntity
  8
0
  6
ByLayer
 62
  256
370
   -1
100
AcDbLine
 10
134.9397302468279
 20
58.0517889461554
 11
134.6779946092234
 21
56.90669553163542
  0
ARC
  5
5C
100
AcDbEntity
  8
0
  6
ByLayer
 62
  256
370
   -1
100
AcDbCircle
 10
135.0989886359468
 20
58.4681453511842
 40
0.4457756055598659
100
AcDbArc
 50
283.9592301610055
 51
249.0678996559682
  0
LWPOLYLINE
  5
5D
100
AcDbEntity
  8
0
  6
ByLayer
 62
  256
370
   -1
100
AcDbPolyline
 90
    4
 70
    1
 43
0
 10
131.3581101311187
 20
70.12743728115498
 10
161.1884379298189
 20
70.12743728115498
 10
161.1884379298189
 20
44.55858488226905
 10
131.3581101311187
 20
44.55858488226905
  0
LWPOLYLINE
  5
5E
100
AcDbEntity
  8
0
  6
ByLayer
 62
  256
370
   -1
100
AcDbPolyline
 90
    4
 70
    1
 43
0
 10
82.02605954409631
 20
64.41056536977091
 10
86.31597306068593
 20
64.41056536977091
 10
86.31597306068593
 20
49.71761157545145
 10
82.02605954409631
 20
49.71761157545145
  0
CIRCLE
  5
5F
100
AcDbEntity
  8
0
  6
ByLayer
 62
  256
370
   -1
100
AcDbCircle
 10
84.18523179019151
 20
61.75025958669406
 40
1.020105157106088
  0
CIRCLE
  5
60
100
AcDbEntity
  8
0
  6
ByLayer
 62
  256
370
   -1
100
AcDbCircle
 10
84.22996636062032
 20
57.27680254381229
 40
1.132588861114221
  0
CIRCLE
  5
61
100
AcDbEntity
  8
0
  6
ByLayer
 62
  256
370
   -1
100
AcDbCircle
 10
84.14049721976269
 20
52.35599979664235
 40
1.163098831149256
  0
CIRCLE
  5
62
100
AcDbEntity
  8
0
  6
ByLayer
 62
  256
370
   -1
100
AcDbCircle
 10
85.82796215580875
 20
57.41000608570754
 40
0.3378621639394268
  0
LINE
  5
63
100
AcDbEntity
  8
0
  6
ByLayer
 62
  256
370
   -1
100
AcDbLine
 10
84.21032569338912
 20
57.52211950389504
 11
85.65178392722839
 21
57.41000608570754
  0
LINE
  5
64
100
AcDbEntity
  8
0
  6
ByLayer
 62
  256
370
   -1
100
AcDbLine
 10
84.33845531417484
 20
56.83342279217184
 11
84.24235809858556
 21
57.45805469350218
  0
LINE
  5
65
100
AcDbEntity
  8
0
  6
ByLayer
 62
  256
370
   -1
100
AcDbLine
 10
85.04316822849626
 20
56.83342279217184
 11
85.01113582329982
 21
57.4740708961004
  0
CIRCLE
  5
66
100
AcDbEntity
  8
0
  6
ByLayer
 62
  256
370
   -1
100
AcDbCircle
 10
87.03616799563017
 20
57.86334843802336
 40
1.174381567414331
  0
CIRCLE
  5
67
100
AcDbEntity
  8
0
  6
ByLayer
 62
  256
370
   -1
100
AcDbCircle
 10
88.07900632801878
 20
58.17055737038914
 40
0.2890281459799363
  0
LINE
  5
68
100
AcDbEntity
  8
0
  6
ByLayer
 62
  256
370
   -1
100
AcDbLine
 10
88.34351011438815
 20
58.26516696462184
 11
89.3018458766996
 21
58.56225105093839
  0
LINE
  5
69
100
AcDbEntity
  8
0
  6
ByLayer
 62
  256
370
   -1
100
AcDbLine
 10
89.3018458766996
 20
58.56225105093839
 11
89.38809609530763
 21
58.18850010363692
  0
LINE
  5
6A
100
AcDbEntity
  8
0
  6
ByLayer
 62
  256
370
   -1
100
AcDbLine
 10
89.01434514800617
 20
58.00641630879775
 11
88.8993448565288
 21
58.40891732896856
  0
LINE
  5
6B
100
AcDbEntity
  8
0
  6
ByLayer
 62
  256
370
   -1
100
AcDbLine
 10
155.6223670211666
 20
49.62841429394686
 11
156.5157713928763
 21
49.10853618978999
  0
LINE
  5
6C
100
AcDbEntity
  8
0
  6
ByLayer
 62
  256
370
   -1
100
AcDbLine
 10
156.5157713928763
 20
49.10853618978999
 11
154.922015441312
 21
48.81063788108639
  0
LINE
  5
6D
100
AcDbEntity
  8
0
  6
ByLayer
 62
  256
370
   -1
100
AcDbLine
 10
154.922015441312
 20
48.81063788108639
 11
156.5306663083115
 21
48.09568194019772
  0
LINE
  5
6E
100
AcDbEntity
  8
0
  6
ByLayer
 62
  256
370
   -1
100
AcDbLine
 10
156.5306663083115
 20
48.09568194019772
 11
154.9701439566884
 21
47.63511807527739
  0
LINE
  5
6F
100
AcDbEntity
  8
0
  6
ByLayer
 62
  256
370
   -1
100
AcDbLine
 10
154.9701439566884
 20
47.63511807527739
 11
156.5926501618726
 21
47.0526799503395
  0
LINE
  5
70
100
AcDbEntity
  8
0
  6
ByLayer
 62
  256
370
   -1
100
AcDbLine
 10
156.5926501618726
 20
47.0526799503395
 11
155.5525820816263
 21
46.71985816466071
  0
LINE
  5
71
100
AcDbEntity
  8
0
  6
ByLayer
 62
  256
370
   -1
100
AcDbLine
 10
155.5525820816263
 20
46.71985816466071
 11
155.5941848048362
 21
43.68285937034171
  0
LINE
  5
72
100
AcDbEntity
  8
0
  6
ByLayer
 62
  256
370
   -1
100
AcDbLine
 10
154.3673678324578
 20
43.72892983152683
 11
156.8014700755072
 21
43.70062631707277
  0
LINE
  5
73
100
AcDbEntity
  8
0
  6
ByLayer
 62
  256
370
   -1
100
AcDbLine
 10
154.9617416359931
 20
43.21946657135371
 11
156.3486138442422
 21
43.24777008580777
  0
LINE
  5
74
100
AcDbEntity
  8
0
  6
ByLayer
 62
  256
370
   -1
100
AcDbLine
 10
155.4995084106203
 20
42.7666103400887
 11
155.9523646418853
 21
42.73830682563464
  0
LINE
  5
75
100
AcDbEntity
  8
0
  6
ByLayer
 62
  256
370
   -1
100
AcDbLine
 10
155.6224369864397
 20
59.1066643268208
 11
155.6224369864397
 21
72.6391343146569
  0
ARC
  5
76
100
AcDbEntity
  8
0
  6
ByLayer
 62
  256
370
   -1
100
AcDbCircle
 10
139.1125182038531
 20
21.74045752028974
 40
2.652162806007302
100
AcDbArc
 50
189.4890754130021
 51
530.5109245869928
  0
LINE
  5
77
100
AcDbEntity
  8
0
  6
CONTINUOUS
 62
    7
370
    0
100
AcDbLine
 10
137.949882283171
 20
22.17769188111006
 11
137.949882283171
 21
21.30322315946943
  0
LINE
  5
78
100
AcDbEntity
  8
0
  6
CONTINUOUS
 62
    7
370
    0
100
AcDbLine
 10
136.4966448003272
 20
22.17769188111004
 11
137.949882283171
 21
22.17769188111006
  0
LINE
  5
79
100
AcDbEntity
  8
0
  6
CONTINUOUS
 62
    7
370
    0
100
AcDbLine
 10
137.949882283171
 20
21.30322315946943
 11
136.4966448003257
 21
21.30322315946943
  0
LINE
  5
7A
100
AcDbEntity
  8
0
  6
ByLayer
 62
  256
370
   -1
100
AcDbLine
 10
155.6224369864397
 20
23.05397651120509
 11
157.3295479371048
 21
23.05397651120509
  0
LINE
  5
7B
100
AcDbEntity
  8
0
  6
ByLayer
 62
  256
370
   -1
100
AcDbLine
 10
156.6946254159121
 20
24.16287857659017
 11
155.6223670211666
 21
19.64200534469036
  0
LINE
  5
7C
100
AcDbEntity
  8
0
  6
ByLayer
 62
  256
370
   -1
100
AcDbLine
 10
155.6223670211666
 20
19.64200534469036
 11
155.6223670211666
 21
13.57572647833113
  0
LINE
  5
7D
100
AcDbEntity
  8
0
  6
DASHEDTINY
 62
  256
370
   -1
100
AcDbLine
 10
141.765
 20
21.74041218438428
 11
156.486
 21
21.74041218438428
  0
LWPOLYLINE
  5
7E
100
AcDbEntity
  8
0
  6
ByLayer
 62
  256
370
   -1
100
AcDbPolyline
 90
    4
 70
    1
 43
0
 10
133.9079554784578
 20
23.36007468425697
 10
136.3056218582746
 20
23.36007468425697
 10
136.3056218582746
 20
19.93987411304768
 10
133.9079554784578
 20
19.93987411304768
  0
LINE
  5
7F
100
AcDbEntity
  8
0
  6
ByLayer
 62
  256
370
   -1
100
AcDbLine
 10
134.6779946092234
 20
20.85400771601969
 11
135.3622256454407
 21
20.85400771601969
  0
LINE
  5
80
100
AcDbEntity
  8
0
  6
ByLayer
 62
  256
370
   -1
100
AcDbLine
 10
135.3622256454407
 20
20.85400771601969
 11
135.2065237107414
 21
21.98284674258967
  0
LINE
  5
81
100
AcDbEntity
  8
0
  6
ByLayer
 62
  256
370
   -1
100
AcDbLine
 10
134.9397302468279
 20
21.99910113053967
 11
134.6779946092234
 21
20.85400771601969
  0
ARC
  5
82
100
AcDbEntity
  8
0
  6
ByLayer
 62
  256
370
   -1
100
AcDbCircle
 10
135.0989886359468
 20
22.41545753556847
 40
0.4457756055598659
100
AcDbArc
 50
283.9592301610055
 51
249.0678996559682
  0
LWPOLYLINE
  5
83
100
AcDbEntity
  8
0
  6
ByLayer
 62
  256
370
   -1
100
AcDbPolyline
 90
    4
 70
    1
 43
0
 10
131.3581101311187
 20
34.07474946553926
 10
161.1884379298189
 20
34.07474946553926
 10
161.1884379298189
 20
8.505897066653326
 10
131.3581101311187
 20
8.505897066653326
  0
LWPOLYLINE
  5
84
100
AcDbEntity
  8
0
  6
ByLayer
 62
  256
370
   -1
100
AcDbPolyline
 90
    4
 70
    1
 43
0
 10
82.02605954409631
 20
28.35787755415518
 10
86.31597306068593
 20
28.35787755415518
 10
86.31597306068593
 20
13.66492375983572
 10
82.02605954409631
 20
13.66492375983572
  0
CIRCLE
  5
85
100
AcDbEntity
  8
0
  6
ByLayer
 62
  256
370
   -1
100
AcDbCircle
 10
84.18523179019151
 20
25.69757177107834
 40
1.020105157106088
  0
CIRCLE
  5
86
100
AcDbEntity
  8
0
  6
ByLayer
 62
  256
370
   -1
100
AcDbCircle
 10
84.22996636062032
 20
21.22411472819657
 40
1.132588861114221
  0
CIRCLE
  5
87
100
AcDbEntity
  8
0
  6
ByLayer
 62
  256
370
   -1
100
AcDbCircle
 10
84.14049721976269
 20
16.30331198102662
 40
1.163098831149256
  0
LINE
  5
88
100
AcDbEntity
  8
0
  6
ByLayer
 62
  256
370
   -1
100
AcDbLine
 10
155.6223670211666
 20
13.57572647833113
 11
156.5157713928763
 21
13.05584837417427
  0
LINE
  5
89
100
AcDbEntity
  8
0
  6
ByLayer
 62
  256
370
   -1
100
AcDbLine
 10
156.5157713928763
 20
13.05584837417427
 11
154.922015441312
 21
12.75795006547066
  0
LINE
  5
8A
100
AcDbEntity
  8
0
  6
ByLayer
 62
  256
370
   -1
100
AcDbLine
 10
154.922015441312
 20
12.75795006547066
 11
156.5306663083115
 21
12.04299412458199
  0
LINE
  5
8B
100
AcDbEntity
  8
0
  6
ByLayer
 62
  256
370
   -1
100
AcDbLine
 10
156.5306663083115
 20
12.04299412458199
 11
154.9701439566884
 21
11.58243025966166
  0
LINE
  5
8C
100
AcDbEntity
  8
0
  6
ByLayer
 62
  256
370
   -1
100
AcDbLine
 10
154.9701439566884
 20
11.58243025966166
 11
156.5926501618726
 21
10.99999213472378
  0
LINE
  5
8D
100
AcDbEntity
  8
0
  6
ByLayer
 62
  256
370
   -1
100
AcDbLine
 10
156.5926501618726
 20
10.99999213472378
 11
155.5525820816263
 21
10.66717034904498
  0
LINE
  5
8E
100
AcDbEntity
  8
0
  6
ByLayer
 62
  256
370
   -1
100
AcDbLine
 10
155.5525820816263
 20
10.66717034904498
 11
155.5941848048362
 21
7.630171554725983
  0
LINE
  5
8F
100
AcDbEntity
  8
0
  6
ByLayer
 62
  256
370
   -1
100
AcDbLine
 10
154.3673678324578
 20
7.676242015911107
 11
156.8014700755072
 21
7.647938501457041
  0
LINE
  5
90
100
AcDbEntity
  8
0
  6
ByLayer
 62
  256
370
   -1
100
AcDbLine
 10
154.9617416359931
 20
7.16677875573798
 11
156.3486138442422
 21
7.195082270192039
  0
LINE
  5
91
100
AcDbEntity
  8
0
  6
ByLayer
 62
  256
370
   -1
100
AcDbLine
 10
155.4995084106203
 20
6.713922524472977
 11
155.9523646418853
 21
6.685619010018911
  0
LINE
  5
92
100
AcDbEntity
  8
0
  6
ByLayer
 62
  256
370
   -1
100
AcDbLine
 10
155.6224369864397
 20
23.05397651120507
 11
155.6224369864397
 21
36.58644649904117
  0
CIRCLE
  5
93
100
AcDbEntity
  8
0
  6
ByLayer
 62
  256
370
   -1
100
AcDbCircle
 10
129.7927288464349
 20
21.35731827009182
 40
0.3378621639394268
  0
LINE
  5
94
100
AcDbEntity
  8
0
  6
ByLayer
 62
  256
370
   -1
100
AcDbLine
 10
128.1750923840153
 20
21.46943168827931
 11
129.6165506178546
 21
21.35731827009182
  0
LINE
  5
95
100
AcDbEntity
  8
0
  6
ByLayer
 62
  256
370
   -1
100
AcDbLine
 10
128.303222004801
 20
20.78073497655611
 11
128.2071247892117
 21
21.40536687788646
  0
LINE
  5
96
100
AcDbEntity
  8
0
  6
ByLayer
 62
  256
370
   -1
100
AcDbLine
 10
129.0079349191224
 20
20.78073497655611
 11
128.975902513926
 21
21.42138308048467
  0
CIRCLE
  5
97
100
AcDbEntity
  8
0
  6
ByLayer
 62
  256
370
   -1
100
AcDbCircle
 10
131.0009346862564
 20
21.81066062240763
 40
1.174381567414331
  0
CIRCLE
  5
98
100
AcDbEntity
  8
0
  6
ByLayer
 62
  256
370
   -1
100
AcDbCircle
 10
132.043773018645
 20
22.11786955477341
 40
0.2890281459799363
  0
LINE
  5
99
100
AcDbEntity
  8
0
  6
ByLayer
 62
  256
370
   -1
100
AcDbLine
 10
132.3082768050143
 20
22.21247914900611
 11
133.2666125673258
 21
22.50956323532267
  0
LINE
  5
9A
100
AcDbEntity
  8
0
  6
ByLayer
 62
  256
370
   -1
100
AcDbLine
 10
133.2666125673258
 20
22.50956323532267
 11
133.3528627859338
 21
22.13581228802119
  0
LINE
  5
9B
100
AcDbEntity
  8
0
  6
ByLayer
 62
  256
370
   -1
100
AcDbLine
 10
132.9791118386323
 20
21.95372849318202
 11
132.864111547155
 21
22.35622951335283
  0
LWPOLYLINE
  5
9C
100
AcDbEntity
  8
0
  6
ByLayer
 62
  256
370
   -1
100
AcDbPolyline
 90
    4
 70
    1
 43
0
 10
136.3066045631456
 20
22.12038060528883
 10
136.4285202410848
 20
22.12038060528883
 10
136.4285202410848
 20
21.37425665630091
 10
136.3066045631456
 20
21.37425665630091
  0
MTEXT
  5
9D
100
AcDbEntity
  8
0
  6
ByLayer
 62
  256
370
   -1
100
AcDbMText
 10
139.9442386901635
 20
69.13902466982525
 30
0
 40
1
 41
7.416666666666666
 71
    1
 72
    1
  1
NGR PANEL
  7
standard
210
0
220
0
230
1
 50
0
 73
    2
 44
1
  0
MTEXT
  5
9E
100
AcDbEntity
  8
0
  6
ByLayer
 62
  256
370
   -1
100
AcDbMText
 10
139.9442386901635
 20
33.08633685420952
 30
0
 40
1
 41
7.416666666666666
 71
    1
 72
    1
  1
NGR PANEL
  7
standard
210
0
220
0
230
1
 50
0
 73
    2
 44
1
  0
MTEXT
  5
9F
100
AcDbEntity
  8
0
  6
ByLayer
 62
  256
370
   -1
100
AcDbMText
 10
132.986813159713
 20
18.12262336430399
 30
0
 40
1
 41
18.8888886768868
 71
    1
 72
    1
  1
INSERT THE KEY AND TURN \PCOUTER-CLOCKWISE \PTO PULL OUT THE PIN \PTO UNLOCK DS SHARF.
  7
standard
210
0
220
0
230
1
 50
0
 73
    2
 44
1
  0
ARC
  5
A0
100
AcDbEntity
  8
0
  6
ByLayer
 62
  256
370
   -1
100
AcDbCircle
 10
134.8160073174312
 20
22.75768030326094
 40
1.796541368592285
100
AcDbArc
 50
45.39006918504742
 51
129.4048064099528
  0
LINE
  5
A1
100
AcDbEntity
  8
0
  6
ByLayer
 62
  256
370
   -1
100
AcDbLine
 10
133.6755712396797
 20
24.14583247129803
 11
134.0272736068832
 21
24.8104327547817
  0
LINE
  5
A2
100
AcDbEntity
  8
0
  6
ByLayer
 62
  256
370
   -1
100
AcDbLine
 10
133.6755712396797
 20
24.14583247129817
 11
134.2607336242507
 21
24.08882906473672
  0
LINE
  5
A3
100
AcDbEntity
  8
0
  6
ByLayer
 62
  256
370
   -1
100
AcDbLine
 10
136.8267591833367
 20
20.95195857712209
 11
135.8504718379817
 21
20.92012312020834
  0
LINE
  5
A4
100
AcDbEntity
  8
0
  6
ByLayer
 62
  256
370
   -1
100
AcDbLine
 10
135.8504718379817
 20
20.92012312020834
 11
136.1114487943181
 21
21.04121009590276
  0
LINE
  5
A5
100
AcDbEntity
  8
0
  6
ByLayer
 62
  256
370
   -1
100
AcDbLine
 10
135.8504718379817
 20
20.92012312020834
 11
136.1771175655913
 21
20.77853501081023
  0
CIRCLE
  5
A6
100
AcDbEntity
  8
0
  6
ByLayer
 62
  256
370
   -1
100
AcDbCircle
 10
134.5380641955933
 20
64.74272824139929
 40
0.7363962118788124
  0
LINE
  5
A7
100
AcDbEntity
  8
0
  6
ByLayer
 62
  256
370
   -1
100
AcDbLine
 10
134.7895057985305
 20
64.05883299899546
 11
137.3802889513174
 21
59.88606721309095
  0
LINE
  5
A8
100
AcDbEntity
  8
0
  6
ByLayer
 62
  256
370
   -1
100
AcDbLine
 10
135.0417059284478
 20
64.19639670622307
 11
137.7012709348485
 21
60.09241277393239
  0
CIRCLE
  5
A9
100
AcDbEntity
  8
0
  6
ByLayer
 62
  256
370
   -1
100
AcDbCircle
 10
134.5380641955933
 20
28.69004042578356
 40
0.7363962118788124
  0
LINE
  5
AA
100
AcDbEntity
  8
0
  6
ByLayer
 62
  256
370
   -1
100
AcDbLine
 10
134.7895057985305
 20
28.00614518337973
 11
137.3802889513174
 21
23.83337939747523
  0
LINE
  5
AB
100
AcDbEntity
  8
0
  6
ByLayer
 62
  256
370
   -1
100
AcDbLine
 10
135.0417059284478
 20
28.14370889060734
 11
137.7012709348485
 21
24.03972495831666
  0
LINE
  5
AC
100
AcDbEntity
  8
0
  6
ByLayer
 62
  256
370
   -1
100
AcDbLine
 10
59.20359098363477
 20
39.88640721858173
 11
176.537596075068
 21
39.88640721858173
  0
LINE
  5
AD
100
AcDbEntity
  8
0
  6
ByLayer
 62
  256
370
   -1
100
AcDbLine
 10
59.20359098363477
 20
3.833719402966004
 11
176.537596075068
 21
3.833719402966004
  0
LINE
  5
AE
100
AcDbEntity
  8
0
  6
ByLayer
 62
  256
370
   -1
100
AcDbLine
 10
155.6224369864397
 20
-12.99871130441063
 11
157.3295479371048
 21
-12.99871130441063
  0
LINE
  5
AF
100
AcDbEntity
  8
0
  6
ByLayer
 62
  256
370
   -1
100
AcDbLine
 10
155.6223670211666
 20
-16.41068247092537
 11
155.6223670211666
 21
-22.47696133728459
  0
LWPOLYLINE
  5
B0
100
AcDbEntity
  8
0
  6
ByLayer
 62
  256
370
   -1
100
AcDbPolyline
 90
    4
 70
    1
 43
0
 10
133.9079554784578
 20
-12.69261313135875
 10
136.3056218582746
 20
-12.69261313135875
 10
136.3056218582746
 20
-16.11281370256805
 10
133.9079554784578
 20
-16.11281370256805
  0
LINE
  5
B1
100
AcDbEntity
  8
0
  6
ByLayer
 62
  256
370
   -1
100
AcDbLine
 10
134.6779946092234
 20
-15.19868009959603
 11
135.3622256454407
 21
-15.19868009959603
  0
LINE
  5
B2
100
AcDbEntity
  8
0
  6
ByLayer
 62
  256
370
   -1
100
AcDbLine
 10
135.3622256454407
 20
-15.19868009959603
 11
135.2065237107414
 21
-14.06984107302605
  0
LINE
  5
B3
100
AcDbEntity
  8
0
  6
ByLayer
 62
  256
370
   -1
100
AcDbLine
 10
134.9397302468279
 20
-14.05358668507606
 11
134.6779946092234
 21
-15.19868009959603
  0
ARC
  5
B4
100
AcDbEntity
  8
0
  6
ByLayer
 62
  256
370
   -1
100
AcDbCircle
 10
135.0989886359468
 20
-13.63723028004726
 40
0.4457756055598659
100
AcDbArc
 50
283.9592301610055
 51
249.0678996559682
  0
LWPOLYLINE
  5
B5
100
AcDbEntity
  8
0
  6
ByLayer
 62
  256
370
   -1
100
AcDbPolyline
 90
    4
 70
    1
 43
0
 10
131.3581101311187
 20
-1.977938350076471
 10
161.1884379298189
 20
-1.977938350076471
 10
161.1884379298189
 20
-27.5467907489624
 10
131.3581101311187
 20
-27.5467907489624
  0
LWPOLYLINE
  5
B6
100
AcDbEntity
  8
0
  6
ByLayer
 62
  256
370
   -1
100
AcDbPolyline
 90
    4
 70
    1
 43
0
 10
82.02605954409631
 20
-7.694810261460546
 10
86.31597306068593
 20
-7.694810261460546
 10
86.31597306068593
 20
-22.38776405578
 10
82.02605954409631
 20
-22.38776405578
  0
CIRCLE
  5
B7
100
AcDbEntity
  8
0
  6
ByLayer
 62
  256
370
   -1
100
AcDbCircle
 10
84.18523179019151
 20
-10.35511604453739
 40
1.020105157106088
  0
CIRCLE
  5
B8
100
AcDbEntity
  8
0
  6
ByLayer
 62
  256
370
   -1
100
AcDbCircle
 10
84.22996636062032
 20
-14.82857308741916
 40
1.132588861114221
  0
CIRCLE
  5
B9
100
AcDbEntity
  8
0
  6
ByLayer
 62
  256
370
   -1
100
AcDbCircle
 10
84.14049721976269
 20
-19.7493758345891
 40
1.163098831149256
  0
LINE
  5
BA
100
AcDbEntity
  8
0
  6
ByLayer
 62
  256
370
   -1
100
AcDbLine
 10
155.6223670211666
 20
-22.47696133728459
 11
156.5157713928763
 21
-22.99683944144146
  0
LINE
  5
BB
100
AcDbEntity
  8
0
  6
ByLayer
 62
  256
370
   -1
100
AcDbLine
 10
156.5157713928763
 20
-22.99683944144146
 11
154.922015441312
 21
-23.29473775014507
  0
LINE
  5
BC
100
AcDbEntity
  8
0
  6
ByLayer
 62
  256
370
   -1
100
AcDbLine
 10
154.922015441312
 20
-23.29473775014507
 11
156.5306663083115
 21
-24.00969369103373
  0
LINE
  5
BD
100
AcDbEntity
  8
0
  6
ByLayer
 62
  256
370
   -1
100
AcDbLine
 10
156.5306663083115
 20
-24.00969369103373
 11
154.9701439566884
 21
-24.47025755595406
  0
LINE
  5
BE
100
AcDbEntity
  8
0
  6
ByLayer
 62
  256
370
   -1
100
AcDbLine
 10
154.9701439566884
 20
-24.47025755595406
 11
156.5926501618726
 21
-25.05269568089195
  0
LINE
  5
BF
100
AcDbEntity
  8
0
  6
ByLayer
 62
  256
370
   -1
100
AcDbLine
 10
156.5926501618726
 20
-25.05269568089195
 11
155.5525820816263
 21
-25.38551746657075
  0
LINE
  5
C0
100
AcDbEntity
  8
0
  6
ByLayer
 62
  256
370
   -1
100
AcDbLine
 10
155.5525820816263
 20
-25.38551746657075
 11
155.5941848048362
 21
-28.42251626088974
  0
LINE
  5
C1
100
AcDbEntity
  8
0
  6
ByLayer
 62
  256
370
   -1
100
AcDbLine
 10
154.3673678324578
 20
-28.37644579970462
 11
156.8014700755072
 21
-28.40474931415869
  0
LINE
  5
C2
100
AcDbEntity
  8
0
  6
ByLayer
 62
  256
370
   -1
100
AcDbLine
 10
154.9617416359931
 20
-28.88590905987775
 11
156.3486138442422
 21
-28.85760554542369
  0
LINE
  5
C3
100
AcDbEntity
  8
0
  6
ByLayer
 62
  256
370
   -1
100
AcDbLine
 10
155.4995084106203
 20
-29.33876529114275
 11
155.9523646418853
 21
-29.36706880559682
  0
LINE
  5
C4
100
AcDbEntity
  8
0
  6
ByLayer
 62
  256
370
   -1
100
AcDbLine
 10
155.6224369864397
 20
-12.99871130441066
 11
155.6224369864397
 21
0.5337586834254466
  0
CIRCLE
  5
C5
100
AcDbEntity
  8
0
  6
ByLayer
 62
  256
370
   -1
100
AcDbCircle
 10
129.7927288464349
 20
-14.69536954552391
 40
0.3378621639394268
  0
LINE
  5
C6
100
AcDbEntity
  8
0
  6
ByLayer
 62
  256
370
   -1
100
AcDbLine
 10
128.1750923840153
 20
-14.58325612733641
 11
129.6165506178546
 21
-14.69536954552391
  0
LINE
  5
C7
100
AcDbEntity
  8
0
  6
ByLayer
 62
  256
370
   -1
100
AcDbLine
 10
128.303222004801
 20
-15.27195283905962
 11
128.2071247892117
 21
-14.64732093772927
  0
LINE
  5
C8
100
AcDbEntity
  8
0
  6
ByLayer
 62
  256
370
   -1
100
AcDbLine
 10
129.0079349191224
 20
-15.27195283905962
 11
128.975902513926
 21
-14.63130473513105
  0
CIRCLE
  5
C9
100
AcDbEntity
  8
0
  6
ByLayer
 62
  256
370
   -1
100
AcDbCircle
 10
131.0009346862564
 20
-14.2420271932081
 40
1.174381567414331
  0
CIRCLE
  5
CA
100
AcDbEntity
  8
0
  6
ByLayer
 62
  256
370
   -1
100
AcDbCircle
 10
132.043773018645
 20
-13.93481826084231
 40
0.2890281459799363
  0
LINE
  5
CB
100
AcDbEntity
  8
0
  6
ByLayer
 62
  256
370
   -1
100
AcDbLine
 10
132.3082768050143
 20
-13.84020866660961
 11
133.2666125673258
 21
-13.54312458029306
  0
LINE
  5
CC
100
AcDbEntity
  8
0
  6
ByLayer
 62
  256
370
   -1
100
AcDbLine
 10
133.2666125673258
 20
-13.54312458029306
 11
133.3528627859338
 21
-13.91687552759453
  0
LINE
  5
CD
100
AcDbEntity
  8
0
  6
ByLayer
 62
  256
370
   -1
100
AcDbLine
 10
132.9791118386323
 20
-14.09895932243371
 11
132.864111547155
 21
-13.6964583022629
  0
LWPOLYLINE
  5
CE
100
AcDbEntity
  8
0
  6
ByLayer
 62
  256
370
   -1
100
AcDbPolyline
 90
    4
 70
    1
 43
0
 10
136.3066045631456
 20
-13.93230721032689
 10
136.4285202410848
 20
-13.93230721032689
 10
136.4285202410848
 20
-14.67843115931481
 10
136.3066045631456
 20
-14.67843115931481
  0
MTEXT
  5
CF
100
AcDbEntity
  8
0
  6
ByLayer
 62
  256
370
   -1
100
AcDbMText
 10
139.9442386901635
 20
-2.966350961406206
 30
0
 40
1
 41
7.416666666666666
 71
    1
 72
    1
  1
NGR PANEL
  7
standard
210
0
220
0
230
1
 50
0
 73
    2
 44
1
  0
LINE
  5
D0
100
AcDbEntity
  8
0
  6
ByLayer
 62
  256
370
   -1
100
AcDbLine
 10
155.6223670211666
 20
-16.41068247092537
 11
159.7155040247536
 21
-12.71796355272585
  0
LINE
  5
D1
100
AcDbEntity
  8
0
  6
DASHEDTINY
 62
  256
370
   -1
100
AcDbLine
 10
141.765
 20
-14.31227563123145
 11
157.948313532232
 21
-14.31227563123145
  0
CIRCLE
  5
D2
100
AcDbEntity
  8
0
  6
ByLayer
 62
  256
370
   -1
100
AcDbCircle
 10
143.2259436898891
 20
-6.891086530098479
 40
0.6796649664331881
  0
LINE
  5
D3
100
AcDbEntity
  8
0
  6
ByLayer
 62
  256
370
   -1
100
AcDbLine
 10
142.7112567291349
 20
-7.405773490852723
 11
140.0234470451961
 21
-11.80920637730569
  0
LINE
  5
D4
100
AcDbEntity
  8
0
  6
ByLayer
 62
  256
370
   -1
100
AcDbLine
 10
143.0257876495958
 20
-7.548742091062235
 11
140.4237591257827
 21
-12.00936241759901
  0
ARC
  5
D5
100
AcDbEntity
  8
0
  6
ByLayer
 62
  256
370
   -1
100
AcDbCircle
 10
139.2473700636744
 20
-10.89024323782347
 40
5.241597738802819
100
AcDbArc
 50
62.67708613023631
 51
121.1625341296749
  0
LINE
  5
D6
100
AcDbEntity
  8
0
  6
ByLayer
 62
  256
370
   -1
100
AcDbLine
 10
141.6532890875845
 20
-6.233430969134719
 11
141.146051154447
 21
-5.505556238185648
  0
LINE
  5
D7
100
AcDbEntity
  8
0
  6
ByLayer
 62
  256
370
   -1
100
AcDbLine
 10
141.6532890875845
 20
-6.233430969134641
 11
141.0004715423796
 21
-6.392268420778048
  0
MTEXT
  5
D8
100
AcDbEntity
  8
0
  6
ByLayer
 62
  256
370
   -1
100
AcDbMText
 10
132.986813159713
 20
-17.93006445131174
 30
0
 40
1
 41
18.33333333333339
 71
    1
 72
    1
  1
OPEN THE DS. AND \PTHE KEY WILL BE TRAPED.
  7
standard
210
0
220
0
230
1
 50
0
 73
    2
 44
1
  0
ARC
  5
D9
100
AcDbEntity
  8
0
  6
ByLayer
 62
  256
370
   -1
100
AcDbCircle
 10
139.1125182038531
 20
-14.31223029532598
 40
2.652162806007302
100
AcDbArc
 50
98.88207541300214
 51
79.90392458699276
  0
LINE
  5
DA
100
AcDbEntity
  8
0
  6
CONTINUOUS
 62
    7
370
    0
100
AcDbLine
 10
139.56204493545
 20
-13.15429165795264
 11
138.6876252867789
 21
-13.14502757970095
  0
LINE
  5
DB
100
AcDbEntity
  8
0
  6
CONTINUOUS
 62
    7
370
    0
100
AcDbLine
 10
139.5774404612431
 20
-11.70113572711536
 11
139.56204493545
 21
-13.15429165795264
  0
LINE
  5
DC
100
AcDbEntity
  8
0
  6
CONTINUOUS
 62
    7
370
    0
100
AcDbLine
 10
138.6876252867789
 20
-13.14502757970095
 11
138.7030208125722
 21
-11.69187164886213
  0
LWPOLYLINE
  5
DD
100
AcDbEntity
  8
0
  6
ByLayer
 62
  256
370
   -1
100
AcDbPolyline
 90
    4
 70
    1
 43
0
 10
49.50130268419484
 20
92.99377671886313
 10
185.1291493449368
 20
92.99377671886313
 10
185.1291493449368
 20
-36.62524129235225
 10
49.50130268419484
 20
-36.62524129235225
  0
LINE
  5
DE
100
AcDbEntity
  8
0
  6
ByLayer
 62
  256
370
   -1
100
AcDbLine
 10
341.8084786560737
 20
60.8757033171488
 11
343.5155896067388
 21
60.8757033171488
  0
LINE
  5
DF
100
AcDbEntity
  8
0
  6
ByLayer
 62
  256
370
   -1
100
AcDbLine
 10
341.8084086908005
 20
57.46373215063407
 11
341.8084086908005
 21
51.39745328427485
  0
LWPOLYLINE
  5
E0
100
AcDbEntity
  8
0
  6
ByLayer
 62
  256
370
   -1
100
AcDbPolyline
 90
    4
 70
    1
 43
0
 10
320.0939971480917
 20
61.18180149020068
 10
322.4916635279085
 20
61.18180149020068
 10
322.4916635279085
 20
57.76160091899139
 10
320.0939971480917
 20
57.76160091899139
  0
LINE
  5
E1
100
AcDbEntity
  8
0
  6
ByLayer
 62
  256
370
   -1
100
AcDbLine
 10
320.8640362788573
 20
58.67573452196341
 11
321.5482673150747
 21
58.67573452196341
  0
LINE
  5
E2
100
AcDbEntity
  8
0
  6
ByLayer
 62
  256
370
   -1
100
AcDbLine
 10
321.5482673150747
 20
58.67573452196341
 11
321.3925653803753
 21
59.80457354853338
  0
LINE
  5
E3
100
AcDbEntity
  8
0
  6
ByLayer
 62
  256
370
   -1
100
AcDbLine
 10
321.1257719164619
 20
59.82082793648338
 11
320.8640362788573
 21
58.67573452196341
  0
ARC
  5
E4
100
AcDbEntity
  8
0
  6
ByLayer
 62
  256
370
   -1
100
AcDbCircle
 10
321.2850303055808
 20
60.23718434151218
 40
0.4457756055598659
100
AcDbArc
 50
283.9592301610055
 51
249.0678996559682
  0
LWPOLYLINE
  5
E5
100
AcDbEntity
  8
0
  6
ByLayer
 62
  256
370
   -1
100
AcDbPolyline
 90
    4
 70
    1
 43
0
 10
317.5441518007526
 20
71.89647627148297
 10
347.3744795994529
 20
71.89647627148297
 10
347.3744795994529
 20
46.32762387259704
 10
317.5441518007526
 20
46.32762387259704
  0
LWPOLYLINE
  5
E6
100
AcDbEntity
  8
0
  6
ByLayer
 62
  256
370
   -1
100
AcDbPolyline
 90
    4
 70
    1
 43
0
 10
268.2121012137303
 20
66.17960436009889
 10
272.5020147303198
 20
66.17960436009889
 10
272.5020147303198
 20
51.48665056577943
 10
268.2121012137303
 20
51.48665056577943
  0
CIRCLE
  5
E7
100
AcDbEntity
  8
0
  6
ByLayer
 62
  256
370
   -1
100
AcDbCircle
 10
270.3712734598254
 20
63.51929857702205
 40
1.020105157106088
  0
CIRCLE
  5
E8
100
AcDbEntity
  8
0
  6
ByLayer
 62
  256
370
   -1
100
AcDbCircle
 10
270.4160080302543
 20
59.04584153414028
 40
1.132588861114221
  0
CIRCLE
  5
E9
100
AcDbEntity
  8
0
  6
ByLayer
 62
  256
370
   -1
100
AcDbCircle
 10
270.3265388893966
 20
54.12503878697034
 40
1.163098831149256
  0
LINE
  5
EA
100
AcDbEntity
  8
0
  6
ByLayer
 62
  256
370
   -1
100
AcDbLine
 10
341.8084086908005
 20
51.39745328427485
 11
342.7018130625103
 21
50.87757518011798
  0
LINE
  5
EB
100
AcDbEntity
  8
0
  6
ByLayer
 62
  256
370
   -1
100
AcDbLine
 10
342.7018130625103
 20
50.87757518011798
 11
341.108057110946
 21
50.57967687141437
  0
LINE
  5
EC
100
AcDbEntity
  8
0
  6
ByLayer
 62
  256
370
   -1
100
AcDbLine
 10
341.108057110946
 20
50.57967687141437
 11
342.7167079779455
 21
49.86472093052571
  0
LINE
  5
ED
100
AcDbEntity
  8
0
  6
ByLayer
 62
  256
370
   -1
100
AcDbLine
 10
342.7167079779455
 20
49.86472093052571
 11
341.1561856263224
 21
49.40415706560538
  0
LINE
  5
EE
100
AcDbEntity
  8
0
  6
ByLayer
 62
  256
370
   -1
100
AcDbLine
 10
341.1561856263224
 20
49.40415706560538
 11
342.7786918315065
 21
48.82171894066749
  0
LINE
  5
EF
100
AcDbEntity
  8
0
  6
ByLayer
 62
  256
370
   -1
100
AcDbLine
 10
342.7786918315065
 20
48.82171894066749
 11
341.7386237512603
 21
48.48889715498869
  0
LINE
  5
F0
100
AcDbEntity
  8
0
  6
ByLayer
 62
  256
370
   -1
100
AcDbLine
 10
341.7386237512603
 20
48.48889715498869
 11
341.7802264744701
 21
45.45189836066969
  0
LINE
  5
F1
100
AcDbEntity
  8
0
  6
ByLayer
 62
  256
370
   -1
100
AcDbLine
 10
340.5534095020918
 20
45.49796882185482
 11
342.9875117451411
 21
45.46966530740075
  0
LINE
  5
F2
100
AcDbEntity
  8
0
  6
ByLayer
 62
  256
370
   -1
100
AcDbLine
 10
341.1477833056271
 20
44.98850556168169
 11
342.5346555138761
 21
45.01680907613575
  0
LINE
  5
F3
100
AcDbEntity
  8
0
  6
ByLayer
 62
  256
370
   -1
100
AcDbLine
 10
341.6855500802543
 20
44.53564933041669
 11
342.1384063115192
 21
44.50734581596262
  0
LINE
  5
F4
100
AcDbEntity
  8
0
  6
ByLayer
 62
  256
370
   -1
100
AcDbLine
 10
341.8084786560737
 20
60.87570331714878
 11
341.8084786560737
 21
74.40817330498489
  0
CIRCLE
  5
F5
100
AcDbEntity
  8
0
  6
ByLayer
 62
  256
370
   -1
100
AcDbCircle
 10
315.9787705160688
 20
59.17904507603553
 40
0.3378621639394268
  0
LINE
  5
F6
100
AcDbEntity
  8
0
  6
ByLayer
 62
  256
370
   -1
100
AcDbLine
 10
314.3611340536493
 20
59.29115849422303
 11
315.8025922874885
 21
59.17904507603553
  0
LINE
  5
F7
100
AcDbEntity
  8
0
  6
ByLayer
 62
  256
370
   -1
100
AcDbLine
 10
314.4892636744349
 20
58.60246178249982
 11
314.3931664588457
 21
59.22709368383017
  0
LINE
  5
F8
100
AcDbEntity
  8
0
  6
ByLayer
 62
  256
370
   -1
100
AcDbLine
 10
315.1939765887564
 20
58.60246178249982
 11
315.16194418356
 21
59.24310988642839
  0
CIRCLE
  5
F9
100
AcDbEntity
  8
0
  6
ByLayer
 62
  256
370
   -1
100
AcDbCircle
 10
317.1869763558903
 20
59.63238742835134
 40
1.174381567414331
  0
CIRCLE
  5
FA
100
AcDbEntity
  8
0
  6
ByLayer
 62
  256
370
   -1
100
AcDbCircle
 10
318.2298146882789
 20
59.93959636071713
 40
0.2890281459799363
  0
LINE
  5
FB
100
AcDbEntity
  8
0
  6
ByLayer
 62
  256
370
   -1
100
AcDbLine
 10
318.4943184746483
 20
60.03420595494983
 11
319.4526542369597
 21
60.33129004126638
  0
LINE
  5
FC
100
AcDbEntity
  8
0
  6
ByLayer
 62
  256
370
   -1
100
AcDbLine
 10
319.4526542369597
 20
60.33129004126638
 11
319.5389044555677
 21
59.9575390939649
  0
LINE
  5
FD
100
AcDbEntity
  8
0
  6
ByLayer
 62
  256
370
   -1
100
AcDbLine
 10
319.1651535082663
 20
59.77545529912573
 11
319.0501532167889
 21
60.17795631929654
  0
LWPOLYLINE
  5
FE
100
AcDbEntity
  8
0
  6
ByLayer
 62
  256
370
   -1
100
AcDbPolyline
 90
    4
 70
    1
 43
0
 10
322.4926462327795
 20
59.94210741123254
 10
322.6145619107187
 20
59.94210741123254
 10
322.6145619107187
 20
59.19598346224463
 10
322.4926462327795
 20
59.19598346224463
  0
MTEXT
  5
FF
100
AcDbEntity
  8
0
  6
ByLayer
 62
  256
370
   -1
100
AcDbMText
 10
326.1302803597974
 20
70.90806366015323
 30
0
 40
1
 41
7.416666666666666
 71
    1
 72
    1
  1
NGR PANEL
  7
standard
210
0
220
0
230
1
 50
0
 73
    2
 44
1
  0
LINE
  5
100
100
AcDbEntity
  8
0
  6
ByLayer
 62
  256
370
   -1
100
AcDbLine
 10
341.8084086908005
 20
57.46373215063407
 11
345.9015456943876
 21
61.15645106883359
  0
LINE
  5
101
100
AcDbEntity
  8
0
  6
DASHEDTINY
 62
  256
370
   -1
100
AcDbLine
 10
327.9510416696339
 20
59.56213899032799
 11
344.134355201866
 21
59.56213899032799
  0
CIRCLE
  5
102
100
AcDbEntity
  8
0
  6
ByLayer
 62
  256
370
   -1
100
AcDbCircle
 10
329.4119853595231
 20
66.98332809146096
 40
0.6796649664331881
  0
LINE
  5
103
100
AcDbEntity
  8
0
  6
ByLayer
 62
  256
370
   -1
100
AcDbLine
 10
328.8972983987688
 20
66.46864113070671
 11
326.20948871483
 21
62.06520824425375
  0
LINE
  5
104
100
AcDbEntity
  8
0
  6
ByLayer
 62
  256
370
   -1
100
AcDbLine
 10
329.2118293192298
 20
66.3256725304972
 11
326.6098007954166
 21
61.86505220396043
  0
ARC
  5
105
100
AcDbEntity
  8
0
  6
ByLayer
 62
  256
370
   -1
100
AcDbCircle
 10
325.298559873487
 20
59.56218432623346
 40
2.652162806007302
100
AcDbArc
 50
98.88207541300214
 51
79.90392458699276
  0
LINE
  5
106
100
AcDbEntity
  8
0
  6
CONTINUOUS
 62
    7
370
    0
100
AcDbLine
 10
325.7480866050839
 20
60.7201229636068
 11
324.8736669564129
 21
60.72938704185849
  0
LINE
  5
107
100
AcDbEntity
  8
0
  6
CONTINUOUS
 62
    7
370
    0
100
AcDbLine
 10
325.763482130877
 20
62.17327889444408
 11
325.7480866050839
 21
60.7201229636068
  0
LINE
  5
108
100
AcDbEntity
  8
0
  6
CONTINUOUS
 62
    7
370
    0
100
AcDbLine
 10
324.8736669564129
 20
60.72938704185849
 11
324.8890624822061
 21
62.18254297269731
  0
MTEXT
  5
109
100
AcDbEntity
  8
0
  6
ByLayer
 62
  256
370
   -1
100
AcDbMText
 10
319.1728548293469
 20
55.9443501702477
 30
0
 40
1
 41
17.55555534355353
 71
    1
 72
    1
  1
DS IS IN OPEN STATUS. \PAND THE KEY IS TRAPED.
  7
standard
210
0
220
0
230
1
 50
0
 73
    2
 44
1
  0
LINE
  5
10A
100
AcDbEntity
  8
0
  6
ByLayer
 62
  256
370
   -1
100
AcDbLine
 10
245.3896326532687
 20
41.65544620890972
 11
362.7236377447019
 21
41.65544620890972
  0
ARC
  5
10B
100
AcDbEntity
  8
0
  6
ByLayer
 62
  256
370
   -1
100
AcDbCircle
 10
325.298559873487
 20
23.50949651061773
 40
2.652162806007302
100
AcDbArc
 50
189.4890754130021
 51
530.5109245869928
  0
LINE
  5
10C
100
AcDbEntity
  8
0
  6
CONTINUOUS
 62
    7
370
    0
100
AcDbLine
 10
324.1359239528049
 20
23.94673087143804
 11
324.1359239528049
 21
23.07226214979742
  0
LINE
  5
10D
100
AcDbEntity
  8
0
  6
CONTINUOUS
 62
    7
370
    0
100
AcDbLine
 10
322.6826864699611
 20
23.94673087143803
 11
324.1359239528049
 21
23.94673087143804
  0
LINE
  5
10E
100
AcDbEntity
  8
0
  6
CONTINUOUS
 62
    7
370
    0
100
AcDbLine
 10
324.1359239528049
 20
23.07226214979742
 11
322.6826864699596
 21
23.07226214979741
  0
LINE
  5
10F
100
AcDbEntity
  8
0
  6
ByLayer
 62
  256
370
   -1
100
AcDbLine
 10
341.8084786560736
 20
24.82301550153308
 11
343.5155896067388
 21
24.82301550153308
  0
LINE
  5
110
100
AcDbEntity
  8
0
  6
ByLayer
 62
  256
370
   -1
100
AcDbLine
 10
342.880667085546
 20
25.93191756691816
 11
341.8084086908005
 21
21.41104433501835
  0
LINE
  5
111
100
AcDbEntity
  8
0
  6
ByLayer
 62
  256
370
   -1
100
AcDbLine
 10
341.8084086908005
 20
21.41104433501835
 11
341.8084086908005
 21
15.34476546865912
  0
LINE
  5
112
100
AcDbEntity
  8
0
  6
DASHEDTINY
 62
  256
370
   -1
100
AcDbLine
 10
327.9510416696339
 20
23.50945117471226
 11
342.6720416696339
 21
23.50945117471226
  0
LWPOLYLINE
  5
113
100
AcDbEntity
  8
0
  6
ByLayer
 62
  256
370
   -1
100
AcDbPolyline
 90
    4
 70
    1
 43
0
 10
320.0939971480917
 20
25.12911367458496
 10
322.4916635279085
 20
25.12911367458496
 10
322.4916635279085
 20
21.70891310337566
 10
320.0939971480917
 20
21.70891310337566
  0
LINE
  5
114
100
AcDbEntity
  8
0
  6
ByLayer
 62
  256
370
   -1
100
AcDbLine
 10
320.8640362788573
 20
22.62304670634768
 11
321.5482673150747
 21
22.62304670634768
  0
LINE
  5
115
100
AcDbEntity
  8
0
  6
ByLayer
 62
  256
370
   -1
100
AcDbLine
 10
321.5482673150747
 20
22.62304670634768
 11
321.3925653803753
 21
23.75188573291766
  0
LINE
  5
116
100
AcDbEntity
  8
0
  6
ByLayer
 62
  256
370
   -1
100
AcDbLine
 10
321.1257719164619
 20
23.76814012086766
 11
320.8640362788573
 21
22.62304670634768
  0
ARC
  5
117
100
AcDbEntity
  8
0
  6
ByLayer
 62
  256
370
   -1
100
AcDbCircle
 10
321.2850303055807
 20
24.18449652589646
 40
0.4457756055598659
100
AcDbArc
 50
283.9592301610055
 51
249.0678996559682
  0
LWPOLYLINE
  5
118
100
AcDbEntity
  8
0
  6
ByLayer
 62
  256
370
   -1
100
AcDbPolyline
 90
    4
 70
    1
 43
0
 10
317.5441518007526
 20
35.84378845586724
 10
347.3744795994528
 20
35.84378845586724
 10
347.3744795994528
 20
10.27493605698131
 10
317.5441518007526
 20
10.27493605698131
  0
LWPOLYLINE
  5
119
100
AcDbEntity
  8
0
  6
ByLayer
 62
  256
370
   -1
100
AcDbPolyline
 90
    4
 70
    1
 43
0
 10
268.2121012137302
 20
30.12691654448317
 10
272.5020147303198
 20
30.12691654448317
 10
272.5020147303198
 20
15.43396275016371
 10
268.2121012137302
 20
15.43396275016371
  0
CIRCLE
  5
11A
100
AcDbEntity
  8
0
  6
ByLayer
 62
  256
370
   -1
100
AcDbCircle
 10
270.3712734598254
 20
27.46661076140632
 40
1.020105157106088
  0
CIRCLE
  5
11B
100
AcDbEntity
  8
0
  6
ByLayer
 62
  256
370
   -1
100
AcDbCircle
 10
270.4160080302543
 20
22.99315371852455
 40
1.132588861114221
  0
CIRCLE
  5
11C
100
AcDbEntity
  8
0
  6
ByLayer
 62
  256
370
   -1
100
AcDbCircle
 10
270.3265388893966
 20
18.07235097135461
 40
1.163098831149256
  0
LINE
  5
11D
100
AcDbEntity
  8
0
  6
ByLayer
 62
  256
370
   -1
100
AcDbLine
 10
341.8084086908005
 20
15.34476546865912
 11
342.7018130625103
 21
14.82488736450225
  0
LINE
  5
11E
100
AcDbEntity
  8
0
  6
ByLayer
 62
  256
370
   -1
100
AcDbLine
 10
342.7018130625103
 20
14.82488736450225
 11
341.1080571109459
 21
14.52698905579864
  0
LINE
  5
11F
100
AcDbEntity
  8
0
  6
ByLayer
 62
  256
370
   -1
100
AcDbLine
 10
341.1080571109459
 20
14.52698905579864
 11
342.7167079779454
 21
13.81203311490998
  0
LINE
  5
120
100
AcDbEntity
  8
0
  6
ByLayer
 62
  256
370
   -1
100
AcDbLine
 10
342.7167079779454
 20
13.81203311490998
 11
341.1561856263223
 21
13.35146924998965
  0
LINE
  5
121
100
AcDbEntity
  8
0
  6
ByLayer
 62
  256
370
   -1
100
AcDbLine
 10
341.1561856263223
 20
13.35146924998965
 11
342.7786918315065
 21
12.76903112505176
  0
LINE
  5
122
100
AcDbEntity
  8
0
  6
ByLayer
 62
  256
370
   -1
100
AcDbLine
 10
342.7786918315065
 20
12.76903112505176
 11
341.7386237512602
 21
12.43620933937297
  0
LINE
  5
123
100
AcDbEntity
  8
0
  6
ByLayer
 62
  256
370
   -1
100
AcDbLine
 10
341.7386237512602
 20
12.43620933937297
 11
341.7802264744701
 21
9.399210545053968
  0
LINE
  5
124
100
AcDbEntity
  8
0
  6
ByLayer
 62
  256
370
   -1
100
AcDbLine
 10
340.5534095020918
 20
9.445281006239092
 11
342.9875117451411
 21
9.416977491785026
  0
LINE
  5
125
100
AcDbEntity
  8
0
  6
ByLayer
 62
  256
370
   -1
100
AcDbLine
 10
341.1477833056271
 20
8.935817746065965
 11
342.5346555138761
 21
8.964121260520024
  0
LINE
  5
126
100
AcDbEntity
  8
0
  6
ByLayer
 62
  256
370
   -1
100
AcDbLine
 10
341.6855500802542
 20
8.482961514800962
 11
342.1384063115192
 21
8.454658000346896
  0
LINE
  5
127
100
AcDbEntity
  8
0
  6
ByLayer
 62
  256
370
   -1
100
AcDbLine
 10
341.8084786560736
 20
24.82301550153306
 11
341.8084786560736
 21
38.35548548936916
  0
CIRCLE
  5
128
100
AcDbEntity
  8
0
  6
ByLayer
 62
  256
370
   -1
100
AcDbCircle
 10
315.9787705160688
 20
23.1263572604198
 40
0.3378621639394268
  0
LINE
  5
129
100
AcDbEntity
  8
0
  6
ByLayer
 62
  256
370
   -1
100
AcDbLine
 10
314.3611340536492
 20
23.2384706786073
 11
315.8025922874884
 21
23.1263572604198
  0
LINE
  5
12A
100
AcDbEntity
  8
0
  6
ByLayer
 62
  256
370
   -1
100
AcDbLine
 10
314.4892636744349
 20
22.5497739668841
 11
314.3931664588456
 21
23.17440586821444
  0
LINE
  5
12B
100
AcDbEntity
  8
0
  6
ByLayer
 62
  256
370
   -1
100
AcDbLine
 10
315.1939765887563
 20
22.5497739668841
 11
315.1619441835599
 21
23.19042207081266
  0
CIRCLE
  5
12C
100
AcDbEntity
  8
0
  6
ByLayer
 62
  256
370
   -1
100
AcDbCircle
 10
317.1869763558902
 20
23.57969961273562
 40
1.174381567414331
  0
CIRCLE
  5
12D
100
AcDbEntity
  8
0
  6
ByLayer
 62
  256
370
   -1
100
AcDbCircle
 10
318.2298146882789
 20
23.8869085451014
 40
0.2890281459799363
  0
LINE
  5
12E
100
AcDbEntity
  8
0
  6
ByLayer
 62
  256
370
   -1
100
AcDbLine
 10
318.4943184746483
 20
23.9815181393341
 11
319.4526542369597
 21
24.27860222565065
  0
LINE
  5
12F
100
AcDbEntity
  8
0
  6
ByLayer
 62
  256
370
   -1
100
AcDbLine
 10
319.4526542369597
 20
24.27860222565065
 11
319.5389044555677
 21
23.90485127834918
  0
LINE
  5
130
100
AcDbEntity
  8
0
  6
ByLayer
 62
  256
370
   -1
100
AcDbLine
 10
319.1651535082663
 20
23.72276748351
 11
319.0501532167889
 21
24.12526850368081
  0
LWPOLYLINE
  5
131
100
AcDbEntity
  8
0
  6
ByLayer
 62
  256
370
   -1
100
AcDbPolyline
 90
    4
 70
    1
 43
0
 10
322.4926462327795
 20
23.88941959561682
 10
322.6145619107186
 20
23.88941959561682
 10
322.6145619107186
 20
23.1432956466289
 10
322.4926462327795
 20
23.1432956466289
  0
MTEXT
  5
132
100
AcDbEntity
  8
0
  6
ByLayer
 62
  256
370
   -1
100
AcDbMText
 10
326.1302803597974
 20
34.85537584453751
 30
0
 40
1
 41
7.416666666666666
 71
    1
 72
    1
  1
NGR PANEL
  7
standard
210
0
220
0
230
1
 50
0
 73
    2
 44
1
  0
CIRCLE
  5
133
100
AcDbEntity
  8
0
  6
ByLayer
 62
  256
370
   -1
100
AcDbCircle
 10
320.7241058652272
 20
30.45907941611155
 40
0.7363962118788124
  0
LINE
  5
134
100
AcDbEntity
  8
0
  6
ByLayer
 62
  256
370
   -1
100
AcDbLine
 10
320.9755474681645
 20
29.77518417370771
 11
323.5663306209512
 21
25.60241838780321
  0
LINE
  5
135
100
AcDbEntity
  8
0
  6
ByLayer
 62
  256
370
   -1
100
AcDbLine
 10
321.2277475980817
 20
29.91274788093533
 11
323.8873126044824
 21
25.80876394864465
  0
ARC
  5
136
100
AcDbEntity
  8
0
  6
ByLayer
 62
  256
370
   -1
100
AcDbCircle
 10
325.0320240125371
 20
26.80785231481132
 40
5.469516626520876
100
AcDbArc
 50
48.00281976802221
 51
121.6970155559382
  0
LINE
  5
137
100
AcDbEntity
  8
0
  6
ByLayer
 62
  256
370
   -1
100
AcDbLine
 10
322.1581904787136
 20
31.46152752346738
 11
322.8459177841274
 21
32.49935260096949
  0
LINE
  5
138
100
AcDbEntity
  8
0
  6
ByLayer
 62
  256
370
   -1
100
AcDbLine
 10
322.1581904787136
 20
31.46152752346738
 11
323.2989288942081
 21
31.45910486671027
  0
ARC
  5
139
100
AcDbEntity
  8
0
  6
ByLayer
 62
  256
370
   -1
100
AcDbCircle
 10
157.7997100889516
 20
-13.72196362995659
 40
3.669049834761984
100
AcDbArc
 50
33.60859443550302
 51
99.91289626198001
  0
LINE
  5
13A
100
AcDbEntity
  8
0
  6
ByLayer
 62
  256
370
   -1
100
AcDbLine
 10
160.855435029563
 20
-11.69108407240216
 11
160.5337148611658
 21
-10.53670285669023
  0
LINE
  5
13B
100
AcDbEntity
  8
0
  6
ByLayer
 62
  256
370
   -1
100
AcDbLine
 10
160.855435029563
 20
-11.69108407240216
 11
160.0303691832984
 21
-11.44272507685149
  0
ARC
  5
13C
100
AcDbEntity
  8
0
  6
ByLayer
 62
  256
370
   -1
100
AcDbCircle
 10
343.0189394119639
 20
24.94963164997371
 40
2.954003518720485
100
AcDbArc
 50
29.09811297971752
 51
92.6924237654449
  0
LINE
  5
13D
100
AcDbEntity
  8
0
  6
ByLayer
 62
  256
370
   -1
100
AcDbLine
 10
342.8801769669922
 20
27.90037422981332
 11
343.8896377431462
 21
28.236861155198
  0
LINE
  5
13E
100
AcDbEntity
  8
0
  6
ByLayer
 62
  256
370
   -1
100
AcDbLine
 10
342.8801769669922
 20
27.90037422981332
 11
343.6946403755186
 21
27.40290014071264
  0
MTEXT
  5
13F
100
AcDbEntity
  8
0
  6
ByLayer
 62
  256
370
   -1
100
AcDbMText
 10
319.1728548293469
 20
19.89166235463198
 30
0
 40
1
 41
16.69444402044014
 71
    1
 72
    1
  1
CLOSE BACK THE DS \PTO IN SERVICE POSITION.
  7
standard
210
0
220
0
230
1
 50
0
 73
    2
 44
1
  0
ARC
  5
140
100
AcDbEntity
  8
0
  6
ByLayer
 62
  256
370
   -1
100
AcDbCircle
 10
108.4963180667161
 20
-12.17194613383075
 40
40.81944307983643
100
AcDbArc
 50
63.34851546195657
 51
121.7752063879126
  0
LINE
  5
141
100
AcDbEntity
  8
0
  6
ByLayer
 62
  256
370
   -1
100
AcDbLine
 10
126.8063842513735
 20
24.31049360998945
 11
124.9832524704006
 21
26.89928268391824
  0
LINE
  5
142
100
AcDbEntity
  8
0
  6
ByLayer
 62
  256
370
   -1
100
AcDbLine
 10
126.8063842513735
 20
24.31049360998945
 11
123.9522695103898
 21
24.32182528389123
  0
LINE
  5
143
100
AcDbEntity
  8
0
  6
ByLayer
 62
  256
370
   -1
100
AcDbLine
 10
245.3896326532686
 20
5.602758393293989
 11
362.7236377447019
 21
5.602758393293989
  0
ARC
  5
144
100
AcDbEntity
  8
0
  6
ByLayer
 62
  256
370
   -1
100
AcDbCircle
 10
325.2985598734869
 20
-12.543191304998
 40
2.652162806007302
100
AcDbArc
 50
189.4890754130021
 51
530.5109245869928
  0
LINE
  5
145
100
AcDbEntity
  8
0
  6
CONTINUOUS
 62
    7
370
    0
100
AcDbLine
 10
324.1359239528048
 20
-12.10595694417768
 11
324.1359239528048
 21
-12.98042566581831
  0
LINE
  5
146
100
AcDbEntity
  8
0
  6
CONTINUOUS
 62
    7
370
    0
100
AcDbLine
 10
322.6826864699611
 20
-12.1059569441777
 11
324.1359239528048
 21
-12.10595694417768
  0
LINE
  5
147
100
AcDbEntity
  8
0
  6
CONTINUOUS
 62
    7
370
    0
100
AcDbLine
 10
324.1359239528048
 20
-12.98042566581831
 11
322.6826864699595
 21
-12.98042566581832
  0
LINE
  5
148
100
AcDbEntity
  8
0
  6
ByLayer
 62
  256
370
   -1
100
AcDbLine
 10
341.8084786560736
 20
-11.22967231408265
 11
343.5155896067387
 21
-11.22967231408265
  0
LINE
  5
149
100
AcDbEntity
  8
0
  6
ByLayer
 62
  256
370
   -1
100
AcDbLine
 10
342.8806670855459
 20
-10.12077024869757
 11
341.8084086908005
 21
-14.64164348059738
  0
LINE
  5
14A
100
AcDbEntity
  8
0
  6
ByLayer
 62
  256
370
   -1
100
AcDbLine
 10
341.8084086908005
 20
-14.64164348059738
 11
341.8084086908005
 21
-20.70792234695661
  0
LINE
  5
14B
100
AcDbEntity
  8
0
  6
DASHEDTINY
 62
  256
370
   -1
100
AcDbLine
 10
327.9510416696339
 20
-12.54323664090347
 11
342.6720416696339
 21
-12.54323664090347
  0
LWPOLYLINE
  5
14C
100
AcDbEntity
  8
0
  6
ByLayer
 62
  256
370
   -1
100
AcDbPolyline
 90
    4
 70
    1
 43
0
 10
320.0939971480916
 20
-10.92357414103077
 10
322.4916635279084
 20
-10.92357414103077
 10
322.4916635279084
 20
-14.34377471224006
 10
320.0939971480916
 20
-14.34377471224006
  0
LINE
  5
14D
100
AcDbEntity
  8
0
  6
ByLayer
 62
  256
370
   -1
100
AcDbLine
 10
320.8640362788572
 20
-13.42964110926805
 11
321.5482673150746
 21
-13.42964110926805
  0
LINE
  5
14E
100
AcDbEntity
  8
0
  6
ByLayer
 62
  256
370
   -1
100
AcDbLine
 10
321.5482673150746
 20
-13.42964110926805
 11
321.3925653803753
 21
-12.30080208269807
  0
LINE
  5
14F
100
AcDbEntity
  8
0
  6
ByLayer
 62
  256
370
   -1
100
AcDbLine
 10
321.1257719164618
 20
-12.28454769474807
 11
320.8640362788572
 21
-13.42964110926805
  0
ARC
  5
150
100
AcDbEntity
  8
0
  6
ByLayer
 62
  256
370
   -1
100
AcDbCircle
 10
321.2850303055807
 20
-11.86819128971927
 40
0.4457756055598659
100
AcDbArc
 50
283.9592301610055
 51
249.0678996559682
  0
LWPOLYLINE
  5
151
100
AcDbEntity
  8
0
  6
ByLayer
 62
  256
370
   -1
100
AcDbPolyline
 90
    4
 70
    1
 43
0
 10
317.5441518007526
 20
-0.2088993597484858
 10
347.3744795994527
 20
-0.2088993597484858
 10
347.3744795994527
 20
-25.77775175863442
 10
317.5441518007526
 20
-25.77775175863442
  0
LWPOLYLINE
  5
152
100
AcDbEntity
  8
0
  6
ByLayer
 62
  256
370
   -1
100
AcDbPolyline
 90
    4
 70
    1
 43
0
 10
268.2121012137301
 20
-5.925771271132561
 10
272.5020147303198
 20
-5.925771271132561
 10
272.5020147303198
 20
-20.61872506545202
 10
268.2121012137301
 20
-20.61872506545202
  0
CIRCLE
  5
153
100
AcDbEntity
  8
0
  6
ByLayer
 62
  256
370
   -1
100
AcDbCircle
 10
270.3712734598254
 20
-8.586077054209404
 40
1.020105157106088
  0
CIRCLE
  5
154
100
AcDbEntity
  8
0
  6
ByLayer
 62
  256
370
   -1
100
AcDbCircle
 10
270.4160080302542
 20
-13.05953409709117
 40
1.132588861114221
  0
CIRCLE
  5
155
100
AcDbEntity
  8
0
  6
ByLayer
 62
  256
370
   -1
100
AcDbCircle
 10
270.3265388893965
 20
-17.98033684426112
 40
1.163098831149256
  0
LINE
  5
156
100
AcDbEntity
  8
0
  6
ByLayer
 62
  256
370
   -1
100
AcDbLine
 10
341.8084086908005
 20
-20.70792234695661
 11
342.7018130625102
 21
-21.22780045111347
  0
LINE
  5
157
100
AcDbEntity
  8
0
  6
ByLayer
 62
  256
370
   -1
100
AcDbLine
 10
342.7018130625102
 20
-21.22780045111347
 11
341.1080571109459
 21
-21.52569875981708
  0
LINE
  5
158
100
AcDbEntity
  8
0
  6
ByLayer
 62
  256
370
   -1
100
AcDbLine
 10
341.1080571109459
 20
-21.52569875981708
 11
342.7167079779454
 21
-22.24065470070575
  0
LINE
  5
159
100
AcDbEntity
  8
0
  6
ByLayer
 62
  256
370
   -1
100
AcDbLine
 10
342.7167079779454
 20
-22.24065470070575
 11
341.1561856263223
 21
-22.70121856562608
  0
LINE
  5
15A
100
AcDbEntity
  8
0
  6
ByLayer
 62
  256
370
   -1
100
AcDbLine
 10
341.1561856263223
 20
-22.70121856562608
 11
342.7786918315064
 21
-23.28365669056397
  0
LINE
  5
15B
100
AcDbEntity
  8
0
  6
ByLayer
 62
  256
370
   -1
100
AcDbLine
 10
342.7786918315064
 20
-23.28365669056397
 11
341.7386237512601
 21
-23.61647847624276
  0
LINE
  5
15C
100
AcDbEntity
  8
0
  6
ByLayer
 62
  256
370
   -1
100
AcDbLine
 10
341.7386237512601
 20
-23.61647847624276
 11
341.78022647447
 21
-26.65347727056176
  0
LINE
  5
15D
100
AcDbEntity
  8
0
  6
ByLayer
 62
  256
370
   -1
100
AcDbLine
 10
340.5534095020917
 20
-26.60740680937663
 11
342.987511745141
 21
-26.6357103238307
  0
LINE
  5
15E
100
AcDbEntity
  8
0
  6
ByLayer
 62
  256
370
   -1
100
AcDbLine
 10
341.147783305627
 20
-27.11687006954976
 11
342.5346555138761
 21
-27.0885665550957
  0
LINE
  5
15F
100
AcDbEntity
  8
0
  6
ByLayer
 62
  256
370
   -1
100
AcDbLine
 10
341.6855500802542
 20
-27.56972630081476
 11
342.1384063115192
 21
-27.59802981526883
  0
LINE
  5
160
100
AcDbEntity
  8
0
  6
ByLayer
 62
  256
370
   -1
100
AcDbLine
 10
341.8084786560736
 20
-11.22967231408267
 11
341.8084786560736
 21
2.302797673753432
  0
CIRCLE
  5
161
100
AcDbEntity
  8
0
  6
ByLayer
 62
  256
370
   -1
100
AcDbCircle
 10
315.9787705160688
 20
-12.92633055519592
 40
0.3378621639394268
  0
LINE
  5
162
100
AcDbEntity
  8
0
  6
ByLayer
 62
  256
370
   -1
100
AcDbLine
 10
314.3611340536492
 20
-12.81421713700843
 11
315.8025922874884
 21
-12.92633055519592
  0
LINE
  5
163
100
AcDbEntity
  8
0
  6
ByLayer
 62
  256
370
   -1
100
AcDbLine
 10
314.4892636744349
 20
-13.50291384873163
 11
314.3931664588455
 21
-12.87828194740128
  0
LINE
  5
164
100
AcDbEntity
  8
0
  6
ByLayer
 62
  256
370
   -1
100
AcDbLine
 10
315.1939765887562
 20
-13.50291384873163
 11
315.1619441835599
 21
-12.86226574480307
  0
CIRCLE
  5
165
100
AcDbEntity
  8
0
  6
ByLayer
 62
  256
370
   -1
100
AcDbCircle
 10
317.1869763558902
 20
-12.47298820288011
 40
1.174381567414331
  0
CIRCLE
  5
166
100
AcDbEntity
  8
0
  6
ByLayer
 62
  256
370
   -1
100
AcDbCircle
 10
318.2298146882789
 20
-12.16577927051433
 40
0.2890281459799363
  0
LINE
  5
167
100
AcDbEntity
  8
0
  6
ByLayer
 62
  256
370
   -1
100
AcDbLine
 10
318.4943184746482
 20
-12.07116967628163
 11
319.4526542369596
 21
-11.77408558996508
  0
LINE
  5
168
100
AcDbEntity
  8
0
  6
ByLayer
 62
  256
370
   -1
100
AcDbLine
 10
319.4526542369596
 20
-11.77408558996508
 11
319.5389044555677
 21
-12.14783653726655
  0
LINE
  5
169
100
AcDbEntity
  8
0
  6
ByLayer
 62
  256
370
   -1
100
AcDbLine
 10
319.1651535082662
 20
-12.32992033210572
 11
319.0501532167888
 21
-11.92741931193491
  0
MTEXT
  5
16A
100
AcDbEntity
  8
0
  6
ByLayer
 62
  256
370
   -1
100
AcDbMText
 10
326.1302803597973
 20
-1.197311971078221
 30
0
 40
1
 41
7.416666666666666
 71
    1
 72
    1
  1
NGR PANEL
  7
standard
210
0
220
0
230
1
 50
0
 73
    2
 44
1
  0
CIRCLE
  5
16B
100
AcDbEntity
  8
0
  6
ByLayer
 62
  256
370
   -1
100
AcDbCircle
 10
320.7241058652272
 20
-5.593608399504177
 40
0.7363962118788124
  0
LINE
  5
16C
100
AcDbEntity
  8
0
  6
ByLayer
 62
  256
370
   -1
100
AcDbLine
 10
320.9755474681644
 20
-6.277503641908012
 11
323.5663306209512
 21
-10.45026942781251
  0
LINE
  5
16D
100
AcDbEntity
  8
0
  6
ByLayer
 62
  256
370
   -1
100
AcDbLine
 10
321.2277475980816
 20
-6.139939934680399
 11
323.8873126044824
 21
-10.24392386697108
  0
ARC
  5
16E
100
AcDbEntity
  8
0
  6
ByLayer
 62
  256
370
   -1
100
AcDbCircle
 10
320.9266763709603
 20
-11.13769882398289
 40
1.948772367321435
100
AcDbArc
 50
42.5306236820221
 51
146.8667373525774
  0
LINE
  5
16F
100
AcDbEntity
  8
0
  6
ByLayer
 62
  256
370
   -1
100
AcDbLine
 10
322.3627581802735
 20
-9.820359544755622
 11
322.1239410663035
 21
-9.183621949620106
  0
LINE
  5
170
100
AcDbEntity
  8
0
  6
ByLayer
 62
  256
370
   -1
100
AcDbLine
 10
322.3627581802735
 20
-9.820359544755622
 11
321.8029406267755
 21
-9.70023203198541
  0
MTEXT
  5
171
100
AcDbEntity
  8
0
  6
ByLayer
 62
  256
370
   -1
100
AcDbMText
 10
319.1728548293468
 20
-16.16102546098375
 30
0
 40
1
 41
18.36111089910896
 71
    1
 72
    1
  1
TURN THE KEY CLOCKWISE.\PAND THE PIN WILL GO\PINSIDE THE SLOT HOLE \POF DS SHART.
  7
standard
210
0
220
0
230
1
 50
0
 73
    2
 44
1
  0
LWPOLYLINE
  5
172
100
AcDbEntity
  8
0
  6
ByLayer
 62
  256
370
   -1
100
AcDbPolyline
 90
    4
 70
    1
 43
0
 10
322.4990548047813
 20
-12.243052684689
 10
323.9579923294875
 20
-12.243052684689
 10
323.9579923294875
 20
-12.86338832511526
 10
322.4990548047813
 20
-12.86338832511526
  0
LINE
  5
173
100
AcDbEntity
  8
0
  6
ByLayer
 62
  256
370
   -1
100
AcDbLine
 10
322.2898739426614
 20
-13.46089484568886
 11
324.1378291599163
 21
-13.49979916605213
  0
LINE
  5
174
100
AcDbEntity
  8
0
  6
ByLayer
 62
  256
370
   -1
100
AcDbLine
 10
324.1378291599163
 20
-13.49979916605213
 11
323.7682381164653
 21
-13.29879351084194
  0
LINE
  5
175
100
AcDbEntity
  8
0
  6
ByLayer
 62
  256
370
   -1
100
AcDbLine
 10
324.1378291599163
 20
-13.49979916605213
 11
323.7812062232531
 21
-13.68135266108068
  0
LINE
  5
176
100
AcDbEntity
  8
0
  6
ByLayer
 62
  256
370
   -1
100
AcDbLine
 10
245.3896326532686
 20
-30.44992942232174
 11
362.7236377447019
 21
-30.44992942232174
  0
ARC
  5
177
100
AcDbEntity
  8
0
  6
ByLayer
 62
  256
370
   -1
100
AcDbCircle
 10
325.2985598734869
 20
-48.59587912061372
 40
2.652162806007302
100
AcDbArc
 50
189.4890754130021
 51
530.5109245869928
  0
LINE
  5
178
100
AcDbEntity
  8
0
  6
CONTINUOUS
 62
    7
370
    0
100
AcDbLine
 10
324.1359239528048
 20
-48.15864475979341
 11
324.1359239528048
 21
-49.03311348143404
  0
LINE
  5
179
100
AcDbEntity
  8
0
  6
CONTINUOUS
 62
    7
370
    0
100
AcDbLine
 10
322.6826864699611
 20
-48.15864475979343
 11
324.1359239528048
 21
-48.15864475979341
  0
LINE
  5
17A
100
AcDbEntity
  8
0
  6
CONTINUOUS
 62
    7
370
    0
100
AcDbLine
 10
324.1359239528048
 20
-49.03311348143404
 11
322.6826864699595
 21
-49.03311348143404
  0
LINE
  5
17B
100
AcDbEntity
  8
0
  6
ByLayer
 62
  256
370
   -1
100
AcDbLine
 10
341.8084786560736
 20
-47.28236012969838
 11
343.5155896067387
 21
-47.28236012969838
  0
LINE
  5
17C
100
AcDbEntity
  8
0
  6
ByLayer
 62
  256
370
   -1
100
AcDbLine
 10
342.8806670855459
 20
-46.17345806431329
 11
341.8084086908005
 21
-50.69433129621311
  0
LINE
  5
17D
100
AcDbEntity
  8
0
  6
ByLayer
 62
  256
370
   -1
100
AcDbLine
 10
341.8084086908005
 20
-50.69433129621311
 11
341.8084086908005
 21
-56.76061016257233
  0
LINE
  5
17E
100
AcDbEntity
  8
0
  6
DASHEDTINY
 62
  256
370
   -1
100
AcDbLine
 10
327.9510416696339
 20
-48.59592445651919
 11
342.6720416696339
 21
-48.59592445651919
  0
LWPOLYLINE
  5
17F
100
AcDbEntity
  8
0
  6
ByLayer
 62
  256
370
   -1
100
AcDbPolyline
 90
    4
 70
    1
 43
0
 10
320.0939971480916
 20
-46.9762619566465
 10
322.4916635279084
 20
-46.9762619566465
 10
322.4916635279084
 20
-50.39646252785579
 10
320.0939971480916
 20
-50.39646252785579
  0
LINE
  5
180
100
AcDbEntity
  8
0
  6
ByLayer
 62
  256
370
   -1
100
AcDbLine
 10
320.8640362788572
 20
-49.48232892488377
 11
321.5482673150746
 21
-49.48232892488377
  0
LINE
  5
181
100
AcDbEntity
  8
0
  6
ByLayer
 62
  256
370
   -1
100
AcDbLine
 10
321.5482673150746
 20
-49.48232892488377
 11
321.3925653803753
 21
-48.3534898983138
  0
LINE
  5
182
100
AcDbEntity
  8
0
  6
ByLayer
 62
  256
370
   -1
100
AcDbLine
 10
321.1257719164618
 20
-48.3372355103638
 11
320.8640362788572
 21
-49.48232892488377
  0
ARC
  5
183
100
AcDbEntity
  8
0
  6
ByLayer
 62
  256
370
   -1
100
AcDbCircle
 10
321.2850303055807
 20
-47.920879105335
 40
0.4457756055598659
100
AcDbArc
 50
283.9592301610055
 51
249.0678996559682
  0
LWPOLYLINE
  5
184
100
AcDbEntity
  8
0
  6
ByLayer
 62
  256
370
   -1
100
AcDbPolyline
 90
    4
 70
    1
 43
0
 10
317.5441518007526
 20
-36.26158717536421
 10
347.3744795994527
 20
-36.26158717536421
 10
347.3744795994527
 20
-61.83043957425014
 10
317.5441518007526
 20
-61.83043957425014
  0
LWPOLYLINE
  5
185
100
AcDbEntity
  8
0
  6
ByLayer
 62
  256
370
   -1
100
AcDbPolyline
 90
    4
 70
    1
 43
0
 10
268.2121012137301
 20
-41.97845908674829
 10
272.5020147303198
 20
-41.97845908674829
 10
272.5020147303198
 20
-56.67141288106775
 10
268.2121012137301
 20
-56.67141288106775
  0
CIRCLE
  5
186
100
AcDbEntity
  8
0
  6
ByLayer
 62
  256
370
   -1
100
AcDbCircle
 10
270.3712734598254
 20
-44.63876486982513
 40
1.020105157106088
  0
CIRCLE
  5
187
100
AcDbEntity
  8
0
  6
ByLayer
 62
  256
370
   -1
100
AcDbCircle
 10
270.4160080302542
 20
-49.1122219127069
 40
1.132588861114221
  0
CIRCLE
  5
188
100
AcDbEntity
  8
0
  6
ByLayer
 62
  256
370
   -1
100
AcDbCircle
 10
270.3265388893965
 20
-54.03302465987684
 40
1.163098831149256
  0
LINE
  5
189
100
AcDbEntity
  8
0
  6
ByLayer
 62
  256
370
   -1
100
AcDbLine
 10
341.8084086908005
 20
-56.76061016257233
 11
342.7018130625102
 21
-57.2804882667292
  0
LINE
  5
18A
100
AcDbEntity
  8
0
  6
ByLayer
 62
  256
370
   -1
100
AcDbLine
 10
342.7018130625102
 20
-57.2804882667292
 11
341.1080571109459
 21
-57.57838657543281
  0
LINE
  5
18B
100
AcDbEntity
  8
0
  6
ByLayer
 62
  256
370
   -1
100
AcDbLine
 10
341.1080571109459
 20
-57.57838657543281
 11
342.7167079779454
 21
-58.29334251632147
  0
LINE
  5
18C
100
AcDbEntity
  8
0
  6
ByLayer
 62
  256
370
   -1
100
AcDbLine
 10
342.7167079779454
 20
-58.29334251632147
 11
341.1561856263223
 21
-58.7539063812418
  0
LINE
  5
18D
100
AcDbEntity
  8
0
  6
ByLayer
 62
  256
370
   -1
100
AcDbLine
 10
341.1561856263223
 20
-58.7539063812418
 11
342.7786918315064
 21
-59.33634450617969
  0
LINE
  5
18E
100
AcDbEntity
  8
0
  6
ByLayer
 62
  256
370
   -1
100
AcDbLine
 10
342.7786918315064
 20
-59.33634450617969
 11
341.7386237512601
 21
-59.66916629185849
  0
LINE
  5
18F
100
AcDbEntity
  8
0
  6
ByLayer
 62
  256
370
   -1
100
AcDbLine
 10
341.7386237512601
 20
-59.66916629185849
 11
341.78022647447
 21
-62.70616508617749
  0
LINE
  5
190
100
AcDbEntity
  8
0
  6
ByLayer
 62
  256
370
   -1
100
AcDbLine
 10
340.5534095020917
 20
-62.66009462499236
 11
342.987511745141
 21
-62.68839813944643
  0
LINE
  5
191
100
AcDbEntity
  8
0
  6
ByLayer
 62
  256
370
   -1
100
AcDbLine
 10
341.147783305627
 20
-63.16955788516549
 11
342.5346555138761
 21
-63.14125437071143
  0
LINE
  5
192
100
AcDbEntity
  8
0
  6
ByLayer
 62
  256
370
   -1
100
AcDbLine
 10
341.6855500802542
 20
-63.62241411643049
 11
342.1384063115192
 21
-63.65071763088456
  0
LINE
  5
193
100
AcDbEntity
  8
0
  6
ByLayer
 62
  256
370
   -1
100
AcDbLine
 10
341.8084786560736
 20
-47.2823601296984
 11
341.8084786560736
 21
-33.74989014186229
  0
MTEXT
  5
194
100
AcDbEntity
  8
0
  6
ByLayer
 62
  256
370
   -1
100
AcDbMText
 10
326.1302803597973
 20
-37.24999978669395
 30
0
 40
1
 41
7.416666666666666
 71
    1
 72
    1
  1
NGR PANEL
  7
standard
210
0
220
0
230
1
 50
0
 73
    2
 44
1
  0
CIRCLE
  5
195
100
AcDbEntity
  8
0
  6
ByLayer
 62
  256
370
   -1
100
AcDbCircle
 10
320.7241058652272
 20
-41.6462962151199
 40
0.7363962118788124
  0
LINE
  5
196
100
AcDbEntity
  8
0
  6
ByLayer
 62
  256
370
   -1
100
AcDbLine
 10
320.9755474681644
 20
-42.33019145752374
 11
323.5663306209512
 21
-46.50295724342824
  0
LINE
  5
197
100
AcDbEntity
  8
0
  6
ByLayer
 62
  256
370
   -1
100
AcDbLine
 10
321.2277475980816
 20
-42.19262775029613
 11
323.8873126044824
 21
-46.29661168258681
  0
LWPOLYLINE
  5
198
100
AcDbEntity
  8
0
  6
ByLayer
 62
  256
370
   -1
100
AcDbPolyline
 90
    4
 70
    1
 43
0
 10
322.4990548047813
 20
-48.29574050030473
 10
323.9579923294875
 20
-48.29574050030473
 10
323.9579923294875
 20
-48.91607614073099
 10
322.4990548047813
 20
-48.91607614073099
  0
MTEXT
  5
199
100
AcDbEntity
  8
0
  6
ByLayer
 62
  256
370
   -1
100
AcDbMText
 10
318.1689082662433
 20
-52.57878475409166
 30
0
 40
1
 41
23.08333312133124
 71
    1
 72
    1
  1
NOW THE KEY CAN BE RELEASED.\PAND PUT BACK TO KEY \PEXCHANGE BOX \PAT 66KV SWITCHROOM.
  7
standard
210
0
220
0
230
1
 50
0
 73
    2
 44
1
  0
CIRCLE
  5
19A
100
AcDbEntity
  8
0
  6
ByLayer
 62
  256
370
   -1
100
AcDbCircle
 10
272.0140038254426
 20
-48.97901837081165
 40
0.3378621639394268
  0
LINE
  5
19B
100
AcDbEntity
  8
0
  6
ByLayer
 62
  256
370
   -1
100
AcDbLine
 10
270.396367363023
 20
-48.86690495262415
 11
271.8378255968623
 21
-48.97901837081165
  0
LINE
  5
19C
100
AcDbEntity
  8
0
  6
ByLayer
 62
  256
370
   -1
100
AcDbLine
 10
270.5244969838087
 20
-49.55560166434736
 11
270.4283997682194
 21
-48.93096976301701
  0
LINE
  5
19D
100
AcDbEntity
  8
0
  6
ByLayer
 62
  256
370
   -1
100
AcDbLine
 10
271.2292098981301
 20
-49.55560166434736
 11
271.1971774929337
 21
-48.91495356041879
  0
CIRCLE
  5
19E
100
AcDbEntity
  8
0
  6
ByLayer
 62
  256
370
   -1
100
AcDbCircle
 10
273.222209665264
 20
-48.52567601849584
 40
1.174381567414331
  0
CIRCLE
  5
19F
100
AcDbEntity
  8
0
  6
ByLayer
 62
  256
370
   -1
100
AcDbCircle
 10
274.2650479976527
 20
-48.21846708613005
 40
0.2890281459799363
  0
LINE
  5
1A0
100
AcDbEntity
  8
0
  6
ByLayer
 62
  256
370
   -1
100
AcDbLine
 10
274.529551784022
 20
-48.12385749189735
 11
275.4878875463335
 21
-47.8267734055808
  0
LINE
  5
1A1
100
AcDbEntity
  8
0
  6
ByLayer
 62
  256
370
   -1
100
AcDbLine
 10
275.4878875463335
 20
-47.8267734055808
 11
275.5741377649415
 21
-48.20052435288228
  0
LINE
  5
1A2
100
AcDbEntity
  8
0
  6
ByLayer
 62
  256
370
   -1
100
AcDbLine
 10
275.20038681764
 20
-48.38260814772145
 11
275.0853865261627
 21
-47.98010712755064
  0
ARC
  5
1A3
100
AcDbEntity
  8
0
  6
ByLayer
 62
  256
370
   -1
100
AcDbCircle
 10
297.3589780922
 20
-84.38030716647665
 40
42.74168746826575
100
AcDbArc
 50
59.2545558668461
 51
117.2941352110156
  0
LINE
  5
1A4
100
AcDbEntity
  8
0
  6
ByLayer
 62
  256
370
   -1
100
AcDbLine
 10
277.7594100101825
 20
-46.39730072105073
 11
279.9207749506041
 21
-43.6115414645073
  0
LINE
  5
1A5
100
AcDbEntity
  8
0
  6
ByLayer
 62
  256
370
   -1
100
AcDbLine
 10
277.7594100101825
 20
-46.39730072105073
 11
281.3136545788759
 21
-46.44533105306009
  0
LWPOLYLINE
  5
1A6
100
AcDbEntity
  8
0
  6
ByLayer
 62
  256
370
   -1
100
AcDbPolyline
 90
    4
 70
    1
 43
0
 10
232.257430257106
 20
95.18747141684671
 10
374.404054239597
 20
95.18747141684671
 10
374.404054239597
 20
-72.76553370532281
 10
232.257430257106
 20
-72.76553370532281
  0
MTEXT
  5
1A7
100
AcDbEntity
  8
0
  6
ByLayer
 62
  256
370
   -1
100
AcDbMText
 10
95.0363121818252
 20
87.74446364466587
 30
0
 40
2
 41
23.5
 71
    1
 72
    1
  1
PROCEDURE FROM \PIN SERVICE \PTO MAINTENANCE.
  7
STANDARD
210
0
220
0
230
1
 50
0
 73
    2
 44
1
  0
MTEXT
  5
1A8
100
AcDbEntity
  8
0
  6
ByLayer
 62
  256
370
   -1
100
AcDbMText
 10
106.894856224542
 20
58.68952829666617
 30
0
 40
2
 41
8.833332909329036
 71
    1
 72
    1
  1
STEP 1
  7
STANDARD
210
0
220
0
230
1
 50
0
 73
    2
 44
1
  0
MTEXT
  5
1A9
100
AcDbEntity
  8
0
  6
ByLayer
 62
  256
370
   -1
100
AcDbMText
 10
106.894856224542
 20
22.63684048105044
 30
0
 40
2
 41
9.27777735377348
 71
    1
 72
    1
  1
STEP 2
  7
STANDARD
210
0
220
0
230
1
 50
0
 73
    2
 44
1
  0
MTEXT
  5
1AA
100
AcDbEntity
  8
0
  6
ByLayer
 62
  256
370
   -1
100
AcDbMText
 10
106.894856224542
 20
-13.41584733456529
 30
0
 40
2
 41
9.277777353773603
 71
    1
 72
    1
  1
STEP 3
  7
STANDARD
210
0
220
0
230
1
 50
0
 73
    2
 44
1
  0
MTEXT
  5
1AB
100
AcDbEntity
  8
0
  6
ByLayer
 62
  256
370
   -1
100
AcDbMText
 10
279.8015609813953
 20
88.73040413986101
 30
0
 40
2
 41
23.2777777777779
 71
    1
 72
    1
  1
PROCEDURE FROM \PMAINTENANCE\PTO IN SERVICE.
  7
STANDARD
210
0
220
0
230
1
 50
0
 73
    2
 44
1
  0
MTEXT
  5
1AC
100
AcDbEntity
  8
0
  6
ByLayer
 62
  256
370
   -1
100
AcDbMText
 10
293.080897894176
 20
60.45856728699415
 30
0
 40
2
 41
8.833332909329036
 71
    1
 72
    1
  1
STEP 1
  7
STANDARD
210
0
220
0
230
1
 50
0
 73
    2
 44
1
  0
MTEXT
  5
1AD
100
AcDbEntity
  8
0
  6
ByLayer
 62
  256
370
   -1
100
AcDbMText
 10
293.0808978941759
 20
24.40587947137843
 30
0
 40
2
 41
9.27777735377348
 71
    1
 72
    1
  1
STEP 2
  7
STANDARD
210
0
220
0
230
1
 50
0
 73
    2
 44
1
  0
MTEXT
  5
1AE
100
AcDbEntity
  8
0
  6
ByLayer
 62
  256
370
   -1
100
AcDbMText
 10
293.0808978941758
 20
-11.6468083442373
 30
0
 40
2
 41
9.277777353773603
 71
    1
 72
    1
  1
STEP 3
  7
STANDARD
210
0
220
0
230
1
 50
0
 73
    2
 44
1
  0
MTEXT
  5
1AF
100
AcDbEntity
  8
0
  6
ByLayer
 62
  256
370
   -1
100
AcDbMText
 10
293.0808978941758
 20
-47.69949615985303
 30
0
 40
2
 41
9.499999575995702
 71
    1
 72
    1
  1
STEP 4
  7
STANDARD
210
0
220
0
230
1
 50
0
 73
    2
 44
1
  0
MTEXT
  5
1B0
100
AcDbEntity
  8
0
  6
ByLayer
 62
  256
370
   -1
100
AcDbMText
 10
69.37056116854507
 20
71.32925155169873
 30
0
 40
1
 41
15.16666645466464
 71
    1
 72
    1
  1
KEY EXCHANGE BOX \PAT 66KV SWITCHROOM
  7
standard
210
0
220
0
230
1
 50
0
 73
    2
 44
1
  0
MTEXT
  5
1B1
100
AcDbEntity
  8
0
  6
ByLayer
 62
  256
370
   -1
100
AcDbMText
 10
69.37056116854507
 20
35.27656373608301
 30
0
 40
1
 41
15.16666645466464
 71
    1
 72
    1
  1
KEY EXCHANGE BOX \PAT 66KV SWITCHROOM
  7
standard
210
0
220
0
230
1
 50
0
 73
    2
 44
1
  0
MTEXT
  5
1B2
100
AcDbEntity
  8
0
  6
ByLayer
 62
  256
370
   -1
100
AcDbMText
 10
69.37056116854507
 20
-0.7761240795327211
 30
0
 40
1
 41
15.16666645466464
 71
    1
 72
    1
  1
KEY EXCHANGE BOX \PAT 66KV SWITCHROOM
  7
standard
210
0
220
0
230
1
 50
0
 73
    2
 44
1
  0
MTEXT
  5
1B3
100
AcDbEntity
  8
0
  6
ByLayer
 62
  256
370
   -1
100
AcDbMText
 10
255.5566028381791
 20
73.09829054202672
 30
0
 40
1
 41
15.16666645466464
 71
    1
 72
    1
  1
KEY EXCHANGE BOX \PAT 66KV SWITCHROOM
  7
standard
210
0
220
0
230
1
 50
0
 73
    2
 44
1
  0
MTEXT
  5
1B4
100
AcDbEntity
  8
0
  6
ByLayer
 62
  256
370
   -1
100
AcDbMText
 10
255.5566028381791
 20
37.04560272641099
 30
0
 40
1
 41
15.16666645466464
 71
    1
 72
    1
  1
KEY EXCHANGE BOX \PAT 66KV SWITCHROOM
  7
standard
210
0
220
0
230
1
 50
0
 73
    2
 44
1
  0
MTEXT
  5
1B5
100
AcDbEntity
  8
0
  6
ByLayer
 62
  256
370
   -1
100
AcDbMText
 10
255.5566028381789
 20
0.9929149107952635
 30
0
 40
1
 41
15.16666645466464
 71
    1
 72
    1
  1
KEY EXCHANGE BOX \PAT 66KV SWITCHROOM
  7
standard
210
0
220
0
230
1
 50
0
 73
    2
 44
1
  0
MTEXT
  5
1B6
100
AcDbEntity
  8
0
  6
ByLayer
 62
  256
370
   -1
100
AcDbMText
 10
255.5566028381789
 20
-35.05977290482046
 30
0
 40
1
 41
15.16666645466464
 71
    1
 72
    1
  1
KEY EXCHANGE BOX \PAT 66KV SWITCHROOM
  7
standard
210
0
220
0
230
1
 50
0
 73
    2
 44
1
  0
ENDSEC
  0
SECTION
  2
OBJECTS
  0
DICTIONARY
  5
C
330
0
100
AcDbDictionary
281
    1
  3
ACAD_GROUP
350
D
  0
DICTIONARY
  5
D
330
C
100
AcDbDictionary
281
    1
  0
ENDSEC
  0
EOF
