999
dxfrw 0.6.3
  0
SECTION
  2
HEADER
  9
$ACADVER
  1
AC1021
  9
$DWGCODEPAGE
  3
ANSI_1252
  9
$INSBASE
 10
0
 20
0
 30
0
  9
$EXTMIN
 10
68.5825011153342
 20
19.16052137590268
 30
0
  9
$EXTMAX
 10
313.64123528154
 20
71.0155831948139
 30
0
  9
$LIMMIN
 10
0
 20
0
  9
$LIMMAX
 10
420
 20
297
  9
$ORTHOMODE
 70
    0
  9
$REGENMODE
 70
    1
  9
$FILLMODE
 70
    1
  9
$QTEXTMODE
 70
    0
  9
$MIRRTEXT
 70
    0
  9
$LTSCALE
 40
1
  9
$ATTMODE
 70
    0
  9
$TEXTSIZE
 40
2.5
  9
$TRACEWID
 40
15.68
  9
$TEXTSTYLE
  7
STANDARD
  9
$CLAYER
  8
0
  9
$CELTYPE
  6
BYLAYER
  9
$CECOLOR
 62
  256
  9
$CELTSCALE
 40
1
  9
$DISPSILH
 70
    0
  9
$DIMSCALE
 40
2.5
  9
$DIMASZ
 40
2.5
  9
$DIMEXO
 40
0.625
  9
$DIMDLI
 40
3.75
  9
$DIMRND
 40
0
  9
$DIMDLE
 40
0
  9
$DIMEXE
 40
1.25
  9
$DIMTP
 40
0
  9
$DIMTM
 40
0
  9
$DIMTXT
 40
2.5
  9
$DIMCEN
 40
2.5
  9
$DIMTSZ
 40
0
  9
$DIMTOL
 70
    0
  9
$DIMLIM
 70
    0
  9
$DIMTIH
 70
    0
  9
$DIMTOH
 70
    0
  9
$DIMSE1
 70
    0
  9
$DIMSE2
 70
    0
  9
$DIMTAD
 70
    1
  9
$DIMZIN
 70
    8
  9
$DIMBLK
  1

  9
$DIMASO
 70
    1
  9
$DIMSHO
 70
    1
  9
$DIMPOST
  1

  9
$DIMAPOST
  1

  9
$DIMALT
 70
    0
  9
$DIMALTD
 70
    3
  9
$DIMALTF
 40
0.03937
  9
$DIMLFAC
 40
1
  9
$DIMTOFL
 70
    1
  9
$DIMTVP
 40
0
  9
$DIMTIX
 70
    0
  9
$DIMSOXD
 70
    0
  9
$DIMSAH
 70
    0
  9
$DIMBLK1
  1

  9
$DIMBLK2
  1

  9
$DIMSTYLE
  2
STANDARD
  9
$DIMCLRD
 70
    0
  9
$DIMCLRE
 70
    0
  9
$DIMCLRT
 70
    0
  9
$DIMTFAC
 40
1
  9
$DIMGAP
 40
0.625
  9
$DIMJUST
 70
    0
  9
$DIMSD1
 70
    0
  9
$DIMSD2
 70
    0
  9
$DIMTOLJ
 70
    0
  9
$DIMTZIN
 70
    8
  9
$DIMALTZ
 70
    0
  9
$DIMALTTZ
 70
    0
  9
$DIMUPT
 70
    0
  9
$DIMDEC
 70
    2
  9
$DIMTDEC
 70
    2
  9
$DIMALTU
 70
    2
  9
$DIMALTTD
 70
    3
  9
$DIMTXSTY
  7
STANDARD
  9
$DIMAUNIT
 70
    0
  9
$DIMADEC
 70
    0
  9
$DIMALTRND
 40
0
  9
$DIMAZIN
 70
    0
  9
$DIMDSEP
 70
   44
  9
$DIMATFIT
 70
    3
  9
$DIMFRAC
 70
    0
  9
$DIMLDRBLK
  1
STANDARD
  9
$DIMLUNIT
 70
    2
  9
$DIMLWD
 70
   -2
  9
$DIMLWE
 70
   -2
  9
$DIMTMOVE
 70
    0
  9
$DIMFXL
 40
1
  9
$DIMFXLON
 70
    0
  9
$DIMJOGANG
 40
0.7854
  9
$DIMTFILL
 70
    0
  9
$DIMTFILLCLR
 70
    0
  9
$DIMARCSYM
 70
    0
  9
$DIMLTYPE
  6

  9
$DIMLTEX1
  6

  9
$DIMLTEX2
  6

  9
$LUNITS
 70
    2
  9
$LUPREC
 70
    4
  9
$SKETCHINC
 40
1
  9
$FILLETRAD
 40
0
  9
$AUNITS
 70
    0
  9
$AUPREC
 70
    2
  9
$MENU
  1
.
  9
$ELEVATION
 40
0
  9
$PELEVATION
 40
0
  9
$THICKNESS
 40
0
  9
$LIMCHECK
 70
    0
  9
$CHAMFERA
 40
0
  9
$CHAMFERB
 40
0
  9
$CHAMFERC
 40
0
  9
$CHAMFERD
 40
0
  9
$SKPOLY
 70
    0
  9
$USRTIMER
 70
    1
  9
$ANGBASE
 50
0
  9
$ANGDIR
 70
    0
  9
$PDMODE
 70
   34
  9
$PDSIZE
 40
0
  9
$PLINEWID
 40
0
  9
$SPLFRAME
 70
    0
  9
$SPLINETYPE
 70
    2
  9
$SPLINESEGS
 70
    8
  9
$HANDSEED
  5
20000
  9
$SURFTAB1
 70
    6
  9
$SURFTAB2
 70
    6
  9
$SURFTYPE
 70
    6
  9
$SURFU
 70
    6
  9
$SURFV
 70
    6
  9
$UCSBASE
  2

  9
$UCSNAME
  2

  9
$UCSORG
 10
0
 20
0
 30
0
  9
$UCSXDIR
 10
1
 20
0
 30
0
  9
$UCSYDIR
 10
0
 20
1
 30
0
  9
$UCSORTHOREF
  2

  9
$UCSORTHOVIEW
 70
    0
  9
$UCSORGTOP
 10
0
 20
0
 30
0
  9
$UCSORGBOTTOM
 10
0
 20
0
 30
0
  9
$UCSORGLEFT
 10
0
 20
0
 30
0
  9
$UCSORGRIGHT
 10
0
 20
0
 30
0
  9
$UCSORGFRONT
 10
0
 20
0
 30
0
  9
$UCSORGBACK
 10
0
 20
0
 30
0
  9
$PUCSBASE
  2

  9
$PUCSNAME
  2

  9
$PUCSORG
 10
0
 20
0
 30
0
  9
$PUCSXDIR
 10
1
 20
0
 30
0
  9
$PUCSYDIR
 10
0
 20
1
 30
0
  9
$PUCSORTHOREF
  2

  9
$PUCSORTHOVIEW
 70
    0
  9
$PUCSORGTOP
 10
0
 20
0
 30
0
  9
$PUCSORGBOTTOM
 10
0
 20
0
 30
0
  9
$PUCSORGLEFT
 10
0
 20
0
 30
0
  9
$PUCSORGRIGHT
 10
0
 20
0
 30
0
  9
$PUCSORGFRONT
 10
0
 20
0
 30
0
  9
$PUCSORGBACK
 10
0
 20
0
 30
0
  9
$USERI1
 70
    0
  9
$USERI2
 70
    0
  9
$USERI3
 70
    0
  9
$USERI4
 70
    0
  9
$USERI5
 70
    0
  9
$USERR1
 40
0
  9
$USERR2
 40
0
  9
$USERR3
 40
0
  9
$USERR4
 40
0
  9
$USERR5
 40
0
  9
$WORLDVIEW
 70
    1
  9
$SHADEDGE
 70
    3
  9
$SHADEDIF
 70
   70
  9
$TILEMODE
 70
    1
  9
$MAXACTVP
 70
   64
  9
$PINSBASE
 10
0
 20
0
 30
0
  9
$PLIMCHECK
 70
    0
  9
$PEXTMIN
 10
0
 20
0
 30
0
  9
$PEXTMAX
 10
0
 20
0
 30
0
  9
$GRIDMODE
 70
    0
  9
$SNAPSTYLE
 70
    0
  9
$PLIMMIN
 10
0
 20
0
  9
$PLIMMAX
 10
297
 20
210
  9
$UNITMODE
 70
    0
  9
$VISRETAIN
 70
    1
  9
$PLINEGEN
 70
    0
  9
$PSLTSCALE
 70
    1
  9
$TREEDEPTH
 70
 3020
  9
$CMLSTYLE
  2
Standard
  9
$CMLJUST
 70
    0
  9
$CMLSCALE
 40
20
  9
$PROXYGRAPHICS
 70
    1
  9
$MEASUREMENT
 70
    1
  9
$CELWEIGHT
370
   -1
  9
$ENDCAPS
280
    0
  9
$JOINSTYLE
280
    0
  9
$LWDISPLAY
290
    0
  9
$INSUNITS
 70
    4
  9
$HYPERLINKBASE
  1

  9
$STYLESHEET
  1

  9
$XEDIT
290
    1
  9
$CEPSNTYPE
380
    0
  9
$PSTYLEMODE
290
    1
  9
$EXTNAMES
290
    1
  9
$PSVPSCALE
 40
1
  9
$OLESTARTUP
290
    0
  9
$SORTENTS
280
  127
  9
$INDEXCTL
280
    0
  9
$HIDETEXT
280
    1
  9
$XCLIPFRAME
290
    0
  9
$HALOGAP
280
    0
  9
$OBSCOLOR
 70
  257
  9
$OBSLTYPE
280
    0
  9
$INTERSECTIONDISPLAY
280
    0
  9
$INTERSECTIONCOLOR
 70
  257
  9
$DIMASSOC
280
    1
  9
$PROJECTNAME
  1

  9
$CAMERADISPLAY
290
    0
  9
$LENSLENGTH
 40
50
  9
$CAMERAHEIGHT
 40
0
  9
$STEPSPERSEC
 40
2
  9
$STEPSIZE
 40
50
  9
$3DDWFPREC
 40
2
  9
$PSOLWIDTH
 40
5
  9
$PSOLHEIGHT
 40
80
  9
$LOFTANG1
 40
1.570796326794897
  9
$LOFTANG2
 40
1.570796326794897
  9
$LOFTMAG1
 40
0
  9
$LOFTMAG2
 40
0
  9
$LOFTPARAM
 70
    7
  9
$LOFTNORMALS
280
    1
  9
$LATITUDE
 40
1
  9
$LONGITUDE
 40
1
  9
$NORTHDIRECTION
 40
0
  9
$TIMEZONE
 70
-8000
  9
$LIGHTGLYPHDISPLAY
280
    1
  9
$TILEMODELIGHTSYNCH
280
    1
  9
$SOLIDHIST
280
    1
  9
$SHOWHIST
280
    1
  9
$DWFFRAME
280
    2
  9
$DGNFRAME
280
    0
  9
$REALWORLDSCALE
290
    1
  9
$INTERFERECOLOR
 62
    1
  9
$CSHADOW
280
    0
  9
$SHADOWPLANELOCATION
 40
0
  0
ENDSEC
  0
SECTION
  2
CLASSES
  0
ENDSEC
  0
SECTION
  2
TABLES
  0
TABLE
  2
VPORT
  5
8
330
0
100
AcDbSymbolTable
 70
    1
  0
VPORT
  5
31
330
2
100
AcDbSymbolTableRecord
100
AcDbViewportTableRecord
  2
*ACTIVE
 70
    0
 10
0
 20
0
 11
1
 21
1
 12
157.9983943966327
 22
49.32225010265253
 13
0
 23
0
 14
10
 24
10
 15
10
 25
10
 16
0
 26
0
 36
1
 17
0
 27
0
 37
0
 40
106.7653549437563
 41
2.340044742729306
 42
50
 43
0
 44
0
 50
0
 51
0
 71
    0
 72
  100
 73
    1
 74
    3
 75
    0
 76
    0
 77
    0
 78
    0
281
    0
 65
    1
110
0
120
0
130
0
111
1
121
0
131
0
112
0
122
1
132
0
 79
    0
146
0
348
10020
 60
    7
 61
    5
292
1
282
    1
141
0
142
0
 63
  250
421
3358443
  0
ENDTAB
  0
TABLE
  2
LTYPE
  5
5
330
0
100
AcDbSymbolTable
 70
    4
  0
LTYPE
  5
14
330
5
100
AcDbSymbolTableRecord
100
AcDbLinetypeTableRecord
  2
ByBlock
 70
    0
  3

 72
   65
 73
    0
 40
0
  0
LTYPE
  5
15
330
5
100
AcDbSymbolTableRecord
100
AcDbLinetypeTableRecord
  2
ByLayer
 70
    0
  3

 72
   65
 73
    0
 40
0
  0
LTYPE
  5
16
330
5
100
AcDbSymbolTableRecord
100
AcDbLinetypeTableRecord
  2
Continuous
 70
    0
  3
Solid line
 72
   65
 73
    0
 40
0
  0
LTYPE
  5
32
330
5
100
AcDbSymbolTableRecord
100
AcDbLinetypeTableRecord
  2
DOT
 70
    0
  3
Dot . . . . . . . . . . . . . . . . . . . . . .
 72
   65
 73
    2
 40
6.35
 49
0
 74
    0
 49
-6.35
 74
    0
  0
LTYPE
  5
33
330
5
100
AcDbSymbolTableRecord
100
AcDbLinetypeTableRecord
  2
DOTTINY
 70
    0
  3
Dot (.15x) .....................................
 72
   65
 73
    2
 40
0.9525
 49
0
 74
    0
 49
-0.9525
 74
    0
  0
LTYPE
  5
34
330
5
100
AcDbSymbolTableRecord
100
AcDbLinetypeTableRecord
  2
DOT2
 70
    0
  3
Dot (.5x) .....................................
 72
   65
 73
    2
 40
3.175
 49
0
 74
    0
 49
-3.175
 74
    0
  0
LTYPE
  5
35
330
5
100
AcDbSymbolTableRecord
100
AcDbLinetypeTableRecord
  2
DOTX2
 70
    0
  3
Dot (2x) .  .  .  .  .  .  .  .  .  .  .  .  .
 72
   65
 73
    2
 40
12.7
 49
0
 74
    0
 49
-12.7
 74
    0
  0
LTYPE
  5
36
330
5
100
AcDbSymbolTableRecord
100
AcDbLinetypeTableRecord
  2
DASHED
 70
    0
  3
Dashed _ _ _ _ _ _ _ _ _ _ _ _ _ _ _ _ _
 72
   65
 73
    2
 40
19.05
 49
12.7
 74
    0
 49
-6.35
 74
    0
  0
LTYPE
  5
37
330
5
100
AcDbSymbolTableRecord
100
AcDbLinetypeTableRecord
  2
DASHEDTINY
 70
    0
  3
Dashed (.15x) _ _ _ _ _ _ _ _ _ _ _ _ _ _ _ _ _
 72
   65
 73
    2
 40
2.8575
 49
1.905
 74
    0
 49
-0.9525
 74
    0
  0
LTYPE
  5
38
330
5
100
AcDbSymbolTableRecord
100
AcDbLinetypeTableRecord
  2
DASHED2
 70
    0
  3
Dashed (.5x) _ _ _ _ _ _ _ _ _ _ _ _ _ _ _ _ _
 72
   65
 73
    2
 40
9.524999999999999
 49
6.35
 74
    0
 49
-3.175
 74
    0
  0
LTYPE
  5
39
330
5
100
AcDbSymbolTableRecord
100
AcDbLinetypeTableRecord
  2
DASHEDX2
 70
    0
  3
Dashed (2x) ____  ____  ____  ____  ____  ___
 72
   65
 73
    2
 40
38.09999999999999
 49
25.4
 74
    0
 49
-12.7
 74
    0
  0
LTYPE
  5
3A
330
5
100
AcDbSymbolTableRecord
100
AcDbLinetypeTableRecord
  2
DASHDOT
 70
    0
  3
Dash dot __ . __ . __ . __ . __ . __ . __ . __
 72
   65
 73
    4
 40
25.4
 49
12.7
 74
    0
 49
-6.35
 74
    0
 49
0
 74
    0
 49
-6.35
 74
    0
  0
LTYPE
  5
3B
330
5
100
AcDbSymbolTableRecord
100
AcDbLinetypeTableRecord
  2
DASHDOTTINY
 70
    0
  3
Dash dot (.15x) _._._._._._._._._._._._._._._.
 72
   65
 73
    4
 40
3.81
 49
1.905
 74
    0
 49
-0.9525
 74
    0
 49
0
 74
    0
 49
-0.9525
 74
    0
  0
LTYPE
  5
3C
330
5
100
AcDbSymbolTableRecord
100
AcDbLinetypeTableRecord
  2
DASHDOT2
 70
    0
  3
Dash dot (.5x) _._._._._._._._._._._._._._._.
 72
   65
 73
    4
 40
12.7
 49
6.35
 74
    0
 49
-3.175
 74
    0
 49
0
 74
    0
 49
-3.175
 74
    0
  0
LTYPE
  5
3D
330
5
100
AcDbSymbolTableRecord
100
AcDbLinetypeTableRecord
  2
DASHDOTX2
 70
    0
  3
Dash dot (2x) ____  .  ____  .  ____  .  ___
 72
   65
 73
    4
 40
50.8
 49
25.4
 74
    0
 49
-12.7
 74
    0
 49
0
 74
    0
 49
-12.7
 74
    0
  0
LTYPE
  5
3E
330
5
100
AcDbSymbolTableRecord
100
AcDbLinetypeTableRecord
  2
DIVIDE
 70
    0
  3
Divide ____ . . ____ . . ____ . . ____ . . ____
 72
   65
 73
    6
 40
31.75
 49
12.7
 74
    0
 49
-6.35
 74
    0
 49
0
 74
    0
 49
-6.35
 74
    0
 49
0
 74
    0
 49
-6.35
 74
    0
  0
LTYPE
  5
3F
330
5
100
AcDbSymbolTableRecord
100
AcDbLinetypeTableRecord
  2
DIVIDETINY
 70
    0
  3
Divide (.15x) __..__..__..__..__..__..__..__.._
 72
   65
 73
    6
 40
4.7625
 49
1.905
 74
    0
 49
-0.9525
 74
    0
 49
0
 74
    0
 49
-0.9525
 74
    0
 49
0
 74
    0
 49
-0.9525
 74
    0
  0
LTYPE
  5
40
330
5
100
AcDbSymbolTableRecord
100
AcDbLinetypeTableRecord
  2
DIVIDE2
 70
    0
  3
Divide (.5x) __..__..__..__..__..__..__..__.._
 72
   65
 73
    6
 40
15.875
 49
6.35
 74
    0
 49
-3.175
 74
    0
 49
0
 74
    0
 49
-3.175
 74
    0
 49
0
 74
    0
 49
-3.175
 74
    0
  0
LTYPE
  5
41
330
5
100
AcDbSymbolTableRecord
100
AcDbLinetypeTableRecord
  2
DIVIDEX2
 70
    0
  3
Divide (2x) ________  .  .  ________  .  .  _
 72
   65
 73
    6
 40
63.5
 49
25.4
 74
    0
 49
-12.7
 74
    0
 49
0
 74
    0
 49
-12.7
 74
    0
 49
0
 74
    0
 49
-12.7
 74
    0
  0
LTYPE
  5
42
330
5
100
AcDbSymbolTableRecord
100
AcDbLinetypeTableRecord
  2
BORDER
 70
    0
  3
Border __ __ . __ __ . __ __ . __ __ . __ __ .
 72
   65
 73
    6
 40
44.45
 49
12.7
 74
    0
 49
-6.35
 74
    0
 49
12.7
 74
    0
 49
-6.35
 74
    0
 49
0
 74
    0
 49
-6.35
 74
    0
  0
LTYPE
  5
43
330
5
100
AcDbSymbolTableRecord
100
AcDbLinetypeTableRecord
  2
BORDERTINY
 70
    0
  3
Border (.15x) __.__.__.__.__.__.__.__.__.__.__.
 72
   65
 73
    6
 40
6.6675
 49
1.905
 74
    0
 49
-0.9525
 74
    0
 49
1.905
 74
    0
 49
-0.9525
 74
    0
 49
0
 74
    0
 49
-0.9525
 74
    0
  0
LTYPE
  5
44
330
5
100
AcDbSymbolTableRecord
100
AcDbLinetypeTableRecord
  2
BORDER2
 70
    0
  3
Border (.5x) __.__.__.__.__.__.__.__.__.__.__.
 72
   65
 73
    6
 40
22.225
 49
6.35
 74
    0
 49
-3.175
 74
    0
 49
6.35
 74
    0
 49
-3.175
 74
    0
 49
0
 74
    0
 49
-3.175
 74
    0
  0
LTYPE
  5
45
330
5
100
AcDbSymbolTableRecord
100
AcDbLinetypeTableRecord
  2
BORDERX2
 70
    0
  3
Border (2x) ____  ____  .  ____  ____  .  ___
 72
   65
 73
    6
 40
88.89999999999999
 49
25.4
 74
    0
 49
-12.7
 74
    0
 49
25.4
 74
    0
 49
-12.7
 74
    0
 49
0
 74
    0
 49
-12.7
 74
    0
  0
LTYPE
  5
46
330
5
100
AcDbSymbolTableRecord
100
AcDbLinetypeTableRecord
  2
CENTER
 70
    0
  3
Center ____ _ ____ _ ____ _ ____ _ ____ _ ____
 72
   65
 73
    4
 40
50.8
 49
31.75
 74
    0
 49
-6.35
 74
    0
 49
6.35
 74
    0
 49
-6.35
 74
    0
  0
LTYPE
  5
47
330
5
100
AcDbSymbolTableRecord
100
AcDbLinetypeTableRecord
  2
CENTERTINY
 70
    0
  3
Center (.15x) ___ _ ___ _ ___ _ ___ _ ___ _ ___
 72
   65
 73
    4
 40
7.62
 49
4.7625
 74
    0
 49
-0.9525
 74
    0
 49
0.9525
 74
    0
 49
-0.9525
 74
    0
  0
LTYPE
  5
48
330
5
100
AcDbSymbolTableRecord
100
AcDbLinetypeTableRecord
  2
CENTER2
 70
    0
  3
Center (.5x) ___ _ ___ _ ___ _ ___ _ ___ _ ___
 72
   65
 73
    4
 40
28.575
 49
19.05
 74
    0
 49
-3.175
 74
    0
 49
3.175
 74
    0
 49
-3.175
 74
    0
  0
LTYPE
  5
49
330
5
100
AcDbSymbolTableRecord
100
AcDbLinetypeTableRecord
  2
CENTERX2
 70
    0
  3
Center (2x) ________  __  ________  __  _____
 72
   65
 73
    4
 40
101.6
 49
63.5
 74
    0
 49
-12.7
 74
    0
 49
12.7
 74
    0
 49
-12.7
 74
    0
  0
ENDTAB
  0
TABLE
  2
LAYER
  5
2
330
0
100
AcDbSymbolTable
 70
    1
  0
LAYER
  5
10
330
2
100
AcDbSymbolTableRecord
100
AcDbLayerTableRecord
  2
0
 70
    0
 62
    7
  6
CONTINUOUS
370
    0
390
F
  0
ENDTAB
  0
TABLE
  2
STYLE
  5
3
330
0
100
AcDbSymbolTable
 70
    3
  0
STYLE
  5
4A
330
2
100
AcDbSymbolTableRecord
100
AcDbTextStyleTableRecord
  2
courier
 70
    0
 40
0
 41
1
 50
0
 71
    0
 42
1
  3
courier
  4

  0
STYLE
  5
4B
330
2
100
AcDbSymbolTableRecord
100
AcDbTextStyleTableRecord
  2
Standard
 70
    0
 40
0
 41
1
 50
0
 71
    0
 42
1
  3
txt
  4

  0
ENDTAB
  0
TABLE
  2
VIEW
  5
6
330
0
100
AcDbSymbolTable
 70
    0
  0
ENDTAB
  0
TABLE
  2
UCS
  5
7
330
0
100
AcDbSymbolTable
 70
    0
  0
ENDTAB
  0
TABLE
  2
APPID
  5
9
330
0
100
AcDbSymbolTable
 70
    1
  0
APPID
  5
12
330
9
100
AcDbSymbolTableRecord
100
AcDbRegAppTableRecord
  2
ACAD
 70
    0
  0
APPID
  5
4C
330
9
100
AcDbSymbolTableRecord
100
AcDbRegAppTableRecord
  2
LibreCad
 70
    0
  0
ENDTAB
  0
TABLE
  2
DIMSTYLE
  5
A
330
0
100
AcDbSymbolTable
 70
    1
100
AcDbDimStyleTable
 71
    1
  0
DIMSTYLE
105
4D
330
A
100
AcDbSymbolTableRecord
100
AcDbDimStyleTableRecord
  2
Standard
 70
    0
 40
2.5
 41
2.5
 42
0.625
 43
0.38
 44
1.25
 45
0
 46
0
 47
0
 48
0
 49
1
140
2.5
141
0.09
142
0
143
25.4
144
1
145
0
146
1
147
0.625
148
0
 71
    0
 72
    0
 73
    0
 74
    1
 75
    0
 76
    0
 77
    0
 78
    8
 79
    0
170
    0
171
    2
172
    0
173
    0
174
    0
175
    0
176
    0
177
    0
178
    0
179
    0
271
    2
272
    4
273
    2
274
    2
275
    0
276
    0
277
    2
278
   44
279
    0
280
    0
281
    0
282
    0
283
    1
284
    0
285
    0
286
    0
288
    0
289
    3
340
STANDARD
341

371
   -2
372
   -2
  0
ENDTAB
  0
TABLE
  2
BLOCK_RECORD
  5
1
330
0
100
AcDbSymbolTable
 70
    2
  0
BLOCK_RECORD
  5
1F
330
1
100
AcDbSymbolTableRecord
100
AcDbBlockTableRecord
  2
*Model_Space
 70
    0
280
    1
281
    0
  0
BLOCK_RECORD
  5
1E
330
1
100
AcDbSymbolTableRecord
100
AcDbBlockTableRecord
  2
*Paper_Space
 70
    0
280
    1
281
    0
  0
ENDTAB
  0
ENDSEC
  0
SECTION
  2
BLOCKS
  0
BLOCK
  5
20
330
1F
100
AcDbEntity
  8
0
100
AcDbBlockBegin
  2
*Model_Space
 70
    0
 10
0
 20
0
 30
0
  3
*Model_Space
  1

  0
ENDBLK
  5
21
330
1F
100
AcDbEntity
  8
0
100
AcDbBlockEnd
  0
BLOCK
  5
1C
330
1B
100
AcDbEntity
  8
0
100
AcDbBlockBegin
  2
*Paper_Space
 70
    0
 10
0
 20
0
 30
0
  3
*Paper_Space
  1

  0
ENDBLK
  5
1D
330
1F
100
AcDbEntity
  8
0
100
AcDbBlockEnd
  0
ENDSEC
  0
SECTION
  2
ENTITIES
  0
HATCH
  5
4E
100
AcDbEntity
  8
0
  6
ByLayer
 62
  256
370
   -1
100
AcDbHatch
 10
0
 20
0
 30
0
210
0
220
0
230
1
  2
SOLID
 70
    1
 71
    0
 91
    1
 92
    0
 93
    1
 72
    2
 10
259.7960732074112
 20
56.45915855689529
 40
0.2708842229242035
 50
0
 51
360
 73
    1
 97
    0
 75
    0
 76
    1
 98
    0
  0
HATCH
  5
4F
100
AcDbEntity
  8
0
  6
ByLayer
 62
  256
370
   -1
100
AcDbHatch
 10
0
 20
0
 30
0
210
0
220
0
230
1
  2
SOLID
 70
    1
 71
    0
 91
    1
 92
    0
 93
    1
 72
    2
 10
275.5344768362183
 20
42.64954221996107
 40
0.1625305337545221
 50
0
 51
360
 73
    1
 97
    0
 75
    0
 76
    1
 98
    0
  0
HATCH
  5
50
100
AcDbEntity
  8
0
  6
ByLayer
 62
  256
370
   -1
100
AcDbHatch
 10
0
 20
0
 30
0
210
0
220
0
230
1
  2
SOLID
 70
    1
 71
    0
 91
    1
 92
    0
 93
    1
 72
    2
 10
276.0344113563574
 20
38.60803525341193
 40
0.1625305337545221
 50
0
 51
360
 73
    1
 97
    0
 75
    0
 76
    1
 98
    0
  0
HATCH
  5
51
100
AcDbEntity
  8
0
  6
ByLayer
 62
  256
370
   -1
100
AcDbHatch
 10
0
 20
0
 30
0
210
0
220
0
230
1
  2
SOLID
 70
    1
 71
    0
 91
    1
 92
    0
 93
    1
 72
    2
 10
290.6983975296238
 20
31.35298136713565
 40
0.1625305337545221
 50
0
 51
360
 73
    1
 97
    0
 75
    0
 76
    1
 98
    0
  0
HATCH
  5
52
100
AcDbEntity
  8
0
  6
ByLayer
 62
  256
370
   -1
100
AcDbHatch
 10
0
 20
0
 30
0
210
0
220
0
230
1
  2
SOLID
 70
    1
 71
    0
 91
    1
 92
    0
 93
    1
 72
    2
 10
290.6932914177939
 20
38.10184730767988
 40
0.1625305337545221
 50
0
 51
360
 73
    1
 97
    0
 75
    0
 76
    1
 98
    0
  0
HATCH
  5
53
100
AcDbEntity
  8
0
  6
ByLayer
 62
  256
370
   -1
100
AcDbHatch
 10
0
 20
0
 30
0
210
0
220
0
230
1
  2
SOLID
 70
    1
 71
    0
 91
    1
 92
    0
 93
    1
 72
    2
 10
284.8214047333687
 20
38.60803525341193
 40
0.1625305337545221
 50
0
 51
360
 73
    1
 97
    0
 75
    0
 76
    1
 98
    0
  0
HATCH
  5
54
100
AcDbEntity
  8
0
  6
ByLayer
 62
  256
370
   -1
100
AcDbHatch
 10
0
 20
0
 30
0
210
0
220
0
230
1
  2
SOLID
 70
    1
 71
    0
 91
    1
 92
    0
 93
    1
 72
    2
 10
290.6932914177939
 20
39.58616574035211
 40
0.1625305337545221
 50
0
 51
360
 73
    1
 97
    0
 75
    0
 76
    1
 98
    0
  0
HATCH
  5
55
100
AcDbEntity
  8
0
  6
ByLayer
 62
  256
370
   -1
100
AcDbHatch
 10
0
 20
0
 30
0
210
0
220
0
230
1
  2
SOLID
 70
    1
 71
    0
 91
    1
 92
    0
 93
    1
 72
    2
 10
284.8214047333687
 20
56.02528008440662
 40
0.1625305337545221
 50
0
 51
360
 73
    1
 97
    0
 75
    0
 76
    1
 98
    0
  0
HATCH
  5
56
100
AcDbEntity
  8
0
  6
ByLayer
 62
  256
370
   -1
100
AcDbHatch
 10
0
 20
0
 30
0
210
0
220
0
230
1
  2
SOLID
 70
    1
 71
    0
 91
    1
 92
    0
 93
    1
 72
    2
 10
284.8214047333687
 20
53.93656578739451
 40
0.1625305337545221
 50
0
 51
360
 73
    1
 97
    0
 75
    0
 76
    1
 98
    0
  0
HATCH
  5
57
100
AcDbEntity
  8
0
  6
ByLayer
 62
  256
370
   -1
100
AcDbHatch
 10
0
 20
0
 30
0
210
0
220
0
230
1
  2
SOLID
 70
    1
 71
    0
 91
    1
 92
    0
 93
    1
 72
    2
 10
261.8711292173518
 20
56.4591585568953
 40
0.2708842229242035
 50
0
 51
360
 73
    1
 97
    0
 75
    0
 76
    1
 98
    0
  0
HATCH
  5
58
100
AcDbEntity
  8
0
  6
ByLayer
 62
  256
370
   -1
100
AcDbHatch
 10
0
 20
0
 30
0
210
0
220
0
230
1
  2
SOLID
 70
    1
 71
    0
 91
    1
 92
    0
 93
    1
 72
    2
 10
261.8711292173518
 20
54.37044425988317
 40
0.2708842229242035
 50
0
 51
360
 73
    1
 97
    0
 75
    0
 76
    1
 98
    0
  0
HATCH
  5
59
100
AcDbEntity
  8
0
  6
ByLayer
 62
  256
370
   -1
100
AcDbHatch
 10
0
 20
0
 30
0
210
0
220
0
230
1
  2
SOLID
 70
    1
 71
    0
 91
    1
 92
    0
 93
    1
 72
    2
 10
290.6932914177939
 20
53.93656578738105
 40
0.1625305337545221
 50
0
 51
360
 73
    1
 97
    0
 75
    0
 76
    1
 98
    0
  0
HATCH
  5
5A
100
AcDbEntity
  8
0
  6
ByLayer
 62
  256
370
   -1
100
AcDbHatch
 10
0
 20
0
 30
0
210
0
220
0
230
1
  2
SOLID
 70
    1
 71
    0
 91
    1
 92
    0
 93
    1
 72
    2
 10
290.6932914177939
 20
56.02528008439316
 40
0.1625305337545221
 50
0
 51
360
 73
    1
 97
    0
 75
    0
 76
    1
 98
    0
  0
HATCH
  5
5B
100
AcDbEntity
  8
0
  6
ByLayer
 62
  256
370
   -1
100
AcDbHatch
 10
0
 20
0
 30
0
210
0
220
0
230
1
  2
SOLID
 70
    1
 71
    0
 91
    1
 92
    0
 93
    1
 72
    2
 10
207.9296095711874
 20
56.02528008439316
 40
0.1625305337545221
 50
0
 51
360
 73
    1
 97
    0
 75
    0
 76
    1
 98
    0
  0
HATCH
  5
5C
100
AcDbEntity
  8
0
  6
ByLayer
 62
  256
370
   -1
100
AcDbHatch
 10
0
 20
0
 30
0
210
0
220
0
230
1
  2
SOLID
 70
    1
 71
    0
 91
    1
 92
    0
 93
    1
 72
    2
 10
207.9296095711874
 20
53.93656578738105
 40
0.1625305337545221
 50
0
 51
360
 73
    1
 97
    0
 75
    0
 76
    1
 98
    0
  0
HATCH
  5
5D
100
AcDbEntity
  8
0
  6
ByLayer
 62
  256
370
   -1
100
AcDbHatch
 10
0
 20
0
 30
0
210
0
220
0
230
1
  2
SOLID
 70
    1
 71
    0
 91
    1
 92
    0
 93
    1
 72
    2
 10
179.1074473707453
 20
54.37044425988317
 40
0.2708842229242035
 50
0
 51
360
 73
    1
 97
    0
 75
    0
 76
    1
 98
    0
  0
HATCH
  5
5E
100
AcDbEntity
  8
0
  6
ByLayer
 62
  256
370
   -1
100
AcDbHatch
 10
0
 20
0
 30
0
210
0
220
0
230
1
  2
SOLID
 70
    1
 71
    0
 91
    1
 92
    0
 93
    1
 72
    2
 10
179.1074473707453
 20
56.4591585568953
 40
0.2708842229242035
 50
0
 51
360
 73
    1
 97
    0
 75
    0
 76
    1
 98
    0
  0
HATCH
  5
5F
100
AcDbEntity
  8
0
  6
ByLayer
 62
  256
370
   -1
100
AcDbHatch
 10
0
 20
0
 30
0
210
0
220
0
230
1
  2
SOLID
 70
    1
 71
    0
 91
    1
 92
    0
 93
    1
 72
    2
 10
202.0577228867622
 20
53.93656578739451
 40
0.1625305337545221
 50
0
 51
360
 73
    1
 97
    0
 75
    0
 76
    1
 98
    0
  0
HATCH
  5
60
100
AcDbEntity
  8
0
  6
ByLayer
 62
  256
370
   -1
100
AcDbHatch
 10
0
 20
0
 30
0
210
0
220
0
230
1
  2
SOLID
 70
    1
 71
    0
 91
    1
 92
    0
 93
    1
 72
    2
 10
202.0577228867622
 20
56.02528008440662
 40
0.1625305337545221
 50
0
 51
360
 73
    1
 97
    0
 75
    0
 76
    1
 98
    0
  0
HATCH
  5
61
100
AcDbEntity
  8
0
  6
ByLayer
 62
  256
370
   -1
100
AcDbHatch
 10
0
 20
0
 30
0
210
0
220
0
230
1
  2
SOLID
 70
    1
 71
    0
 91
    1
 92
    0
 93
    1
 72
    2
 10
207.9296095711874
 20
39.58616574035211
 40
0.1625305337545221
 50
0
 51
360
 73
    1
 97
    0
 75
    0
 76
    1
 98
    0
  0
HATCH
  5
62
100
AcDbEntity
  8
0
  6
ByLayer
 62
  256
370
   -1
100
AcDbHatch
 10
0
 20
0
 30
0
210
0
220
0
230
1
  2
SOLID
 70
    1
 71
    0
 91
    1
 92
    0
 93
    1
 72
    2
 10
202.0577228867622
 20
38.60803525341193
 40
0.1625305337545221
 50
0
 51
360
 73
    1
 97
    0
 75
    0
 76
    1
 98
    0
  0
HATCH
  5
63
100
AcDbEntity
  8
0
  6
ByLayer
 62
  256
370
   -1
100
AcDbHatch
 10
0
 20
0
 30
0
210
0
220
0
230
1
  2
SOLID
 70
    1
 71
    0
 91
    1
 92
    0
 93
    1
 72
    2
 10
207.9296095711874
 20
38.10184730767988
 40
0.1625305337545221
 50
0
 51
360
 73
    1
 97
    0
 75
    0
 76
    1
 98
    0
  0
HATCH
  5
64
100
AcDbEntity
  8
0
  6
ByLayer
 62
  256
370
   -1
100
AcDbHatch
 10
0
 20
0
 30
0
210
0
220
0
230
1
  2
SOLID
 70
    1
 71
    0
 91
    1
 92
    0
 93
    1
 72
    2
 10
207.9347156830173
 20
31.35298136713565
 40
0.1625305337545221
 50
0
 51
360
 73
    1
 97
    0
 75
    0
 76
    1
 98
    0
  0
HATCH
  5
65
100
AcDbEntity
  8
0
  6
ByLayer
 62
  256
370
   -1
100
AcDbHatch
 10
0
 20
0
 30
0
210
0
220
0
230
1
  2
SOLID
 70
    1
 71
    0
 91
    1
 92
    0
 93
    1
 72
    2
 10
193.2707295097509
 20
38.60803525341193
 40
0.1625305337545221
 50
0
 51
360
 73
    1
 97
    0
 75
    0
 76
    1
 98
    0
  0
HATCH
  5
66
100
AcDbEntity
  8
0
  6
ByLayer
 62
  256
370
   -1
100
AcDbHatch
 10
0
 20
0
 30
0
210
0
220
0
230
1
  2
SOLID
 70
    1
 71
    0
 91
    1
 92
    0
 93
    1
 72
    2
 10
192.7707949896118
 20
42.64954221996107
 40
0.1625305337545221
 50
0
 51
360
 73
    1
 97
    0
 75
    0
 76
    1
 98
    0
  0
HATCH
  5
67
100
AcDbEntity
  8
0
  6
ByLayer
 62
  256
370
   -1
100
AcDbHatch
 10
0
 20
0
 30
0
210
0
220
0
230
1
  2
SOLID
 70
    1
 71
    0
 91
    1
 92
    0
 93
    1
 72
    2
 10
177.0323913608047
 20
56.45915855689529
 40
0.2708842229242035
 50
0
 51
360
 73
    1
 97
    0
 75
    0
 76
    1
 98
    0
  0
HATCH
  5
68
100
AcDbEntity
  8
0
  6
ByLayer
 62
  256
370
   -1
100
AcDbHatch
 10
0
 20
0
 30
0
210
0
220
0
230
1
  2
SOLID
 70
    1
 71
    0
 91
    1
 92
    0
 93
    1
 72
    2
 10
94.95453589543466
 20
56.45915855689529
 40
0.2708842229242035
 50
0
 51
360
 73
    1
 97
    0
 75
    0
 76
    1
 98
    0
  0
HATCH
  5
69
100
AcDbEntity
  8
0
  6
ByLayer
 62
  256
370
   -1
100
AcDbHatch
 10
0
 20
0
 30
0
210
0
220
0
230
1
  2
SOLID
 70
    1
 71
    0
 91
    1
 92
    0
 93
    1
 72
    2
 10
110.6929395242418
 20
42.64954221996107
 40
0.1625305337545221
 50
0
 51
360
 73
    1
 97
    0
 75
    0
 76
    1
 98
    0
  0
HATCH
  5
6A
100
AcDbEntity
  8
0
  6
ByLayer
 62
  256
370
   -1
100
AcDbHatch
 10
0
 20
0
 30
0
210
0
220
0
230
1
  2
SOLID
 70
    1
 71
    0
 91
    1
 92
    0
 93
    1
 72
    2
 10
111.1928740443809
 20
38.60803525341193
 40
0.1625305337545221
 50
0
 51
360
 73
    1
 97
    0
 75
    0
 76
    1
 98
    0
  0
HATCH
  5
6B
100
AcDbEntity
  8
0
  6
ByLayer
 62
  256
370
   -1
100
AcDbHatch
 10
0
 20
0
 30
0
210
0
220
0
230
1
  2
SOLID
 70
    1
 71
    0
 91
    1
 92
    0
 93
    1
 72
    2
 10
125.8568602176473
 20
31.35298136713565
 40
0.1625305337545221
 50
0
 51
360
 73
    1
 97
    0
 75
    0
 76
    1
 98
    0
  0
HATCH
  5
6C
100
AcDbEntity
  8
0
  6
ByLayer
 62
  256
370
   -1
100
AcDbHatch
 10
0
 20
0
 30
0
210
0
220
0
230
1
  2
SOLID
 70
    1
 71
    0
 91
    1
 92
    0
 93
    1
 72
    2
 10
125.8517541058174
 20
38.10184730767988
 40
0.1625305337545221
 50
0
 51
360
 73
    1
 97
    0
 75
    0
 76
    1
 98
    0
  0
HATCH
  5
6D
100
AcDbEntity
  8
0
  6
ByLayer
 62
  256
370
   -1
100
AcDbHatch
 10
0
 20
0
 30
0
210
0
220
0
230
1
  2
SOLID
 70
    1
 71
    0
 91
    1
 92
    0
 93
    1
 72
    2
 10
124.1589810150301
 20
39.58616574035104
 40
0.1625305337545221
 50
0
 51
360
 73
    1
 97
    0
 75
    0
 76
    1
 98
    0
  0
HATCH
  5
6E
100
AcDbEntity
  8
0
  6
ByLayer
 62
  256
370
   -1
100
AcDbHatch
 10
0
 20
0
 30
0
210
0
220
0
230
1
  2
SOLID
 70
    1
 71
    0
 91
    1
 92
    0
 93
    1
 72
    2
 10
119.9798674213922
 20
38.60803525341193
 40
0.1625305337545221
 50
0
 51
360
 73
    1
 97
    0
 75
    0
 76
    1
 98
    0
  0
HATCH
  5
6F
100
AcDbEntity
  8
0
  6
ByLayer
 62
  256
370
   -1
100
AcDbHatch
 10
0
 20
0
 30
0
210
0
220
0
230
1
  2
SOLID
 70
    1
 71
    0
 91
    1
 92
    0
 93
    1
 72
    2
 10
125.8517541058174
 20
39.58616574035211
 40
0.1625305337545221
 50
0
 51
360
 73
    1
 97
    0
 75
    0
 76
    1
 98
    0
  0
HATCH
  5
70
100
AcDbEntity
  8
0
  6
ByLayer
 62
  256
370
   -1
100
AcDbHatch
 10
0
 20
0
 30
0
210
0
220
0
230
1
  2
SOLID
 70
    1
 71
    0
 91
    1
 92
    0
 93
    1
 72
    2
 10
119.9798674213922
 20
56.02528008440662
 40
0.1625305337545221
 50
0
 51
360
 73
    1
 97
    0
 75
    0
 76
    1
 98
    0
  0
HATCH
  5
71
100
AcDbEntity
  8
0
  6
ByLayer
 62
  256
370
   -1
100
AcDbHatch
 10
0
 20
0
 30
0
210
0
220
0
230
1
  2
SOLID
 70
    1
 71
    0
 91
    1
 92
    0
 93
    1
 72
    2
 10
119.9798674213922
 20
53.93656578739451
 40
0.1625305337545221
 50
0
 51
360
 73
    1
 97
    0
 75
    0
 76
    1
 98
    0
  0
HATCH
  5
72
100
AcDbEntity
  8
0
  6
ByLayer
 62
  256
370
   -1
100
AcDbHatch
 10
0
 20
0
 30
0
210
0
220
0
230
1
  2
SOLID
 70
    1
 71
    0
 91
    1
 92
    0
 93
    1
 72
    2
 10
97.02959190537533
 20
56.4591585568953
 40
0.2708842229242035
 50
0
 51
360
 73
    1
 97
    0
 75
    0
 76
    1
 98
    0
  0
HATCH
  5
73
100
AcDbEntity
  8
0
  6
ByLayer
 62
  256
370
   -1
100
AcDbHatch
 10
0
 20
0
 30
0
210
0
220
0
230
1
  2
SOLID
 70
    1
 71
    0
 91
    1
 92
    0
 93
    1
 72
    2
 10
97.02959190537533
 20
54.37044425988317
 40
0.2708842229242035
 50
0
 51
360
 73
    1
 97
    0
 75
    0
 76
    1
 98
    0
  0
ARC
  5
74
100
AcDbEntity
  8
0
  6
ByLayer
 62
  256
370
   -1
100
AcDbCircle
 10
99.16606050706977
 20
58.40801768018839
 40
0.8922908620341601
100
AcDbArc
 50
9.017562232333178
 51
170.9824377676669
  0
ARC
  5
75
100
AcDbEntity
  8
0
  6
ByLayer
 62
  256
370
   -1
100
AcDbCircle
 10
100.9285854150965
 20
58.40801768018839
 40
0.8922908620341601
100
AcDbArc
 50
9.017562232333178
 51
170.9824377676669
  0
ARC
  5
76
100
AcDbEntity
  8
0
  6
ByLayer
 62
  256
370
   -1
100
AcDbCircle
 10
102.6911103231233
 20
58.40801768018839
 40
0.8922908620341601
100
AcDbArc
 50
9.017562232333178
 51
170.9824377676669
  0
ARC
  5
77
100
AcDbEntity
  8
0
  6
ByLayer
 62
  256
370
   -1
100
AcDbCircle
 10
99.16606050706977
 20
56.31930338317627
 40
0.8922908620341601
100
AcDbArc
 50
9.017562232333178
 51
170.9824377676669
  0
ARC
  5
78
100
AcDbEntity
  8
0
  6
ByLayer
 62
  256
370
   -1
100
AcDbCircle
 10
100.9285854150965
 20
56.31930338317627
 40
0.8922908620341601
100
AcDbArc
 50
9.017562232333178
 51
170.9824377676669
  0
ARC
  5
79
100
AcDbEntity
  8
0
  6
ByLayer
 62
  256
370
   -1
100
AcDbCircle
 10
102.6911103231233
 20
56.31930338317627
 40
0.8922908620341601
100
AcDbArc
 50
9.017562232333178
 51
170.9824377676669
  0
ARC
  5
7A
100
AcDbEntity
  8
0
  6
ByLayer
 62
  256
370
   -1
100
AcDbCircle
 10
99.16606050706977
 20
54.23058908616415
 40
0.8922908620341601
100
AcDbArc
 50
9.017562232333178
 51
170.9824377676669
  0
ARC
  5
7B
100
AcDbEntity
  8
0
  6
ByLayer
 62
  256
370
   -1
100
AcDbCircle
 10
100.9285854150965
 20
54.23058908616415
 40
0.8922908620341601
100
AcDbArc
 50
9.017562232333178
 51
170.9824377676669
  0
ARC
  5
7C
100
AcDbEntity
  8
0
  6
ByLayer
 62
  256
370
   -1
100
AcDbCircle
 10
102.6911103231233
 20
54.23058908616415
 40
0.8922908620341601
100
AcDbArc
 50
9.017562232333178
 51
170.9824377676669
  0
LINE
  5
7D
100
AcDbEntity
  8
0
  6
ByLayer
 62
  256
370
   -1
100
AcDbLine
 10
98.28479805305639
 20
58.54787285390741
 11
97.02959190537533
 21
58.54787285390741
  0
LINE
  5
7E
100
AcDbEntity
  8
0
  6
ByLayer
 62
  256
370
   -1
100
AcDbLine
 10
98.28479805305639
 20
56.45915855689529
 11
97.02959190537533
 21
56.45915855689529
  0
LINE
  5
7F
100
AcDbEntity
  8
0
  6
ByLayer
 62
  256
370
   -1
100
AcDbLine
 10
98.28479805305639
 20
54.37044425988317
 11
97.02959190537533
 21
54.37044425988317
  0
CIRCLE
  5
80
100
AcDbEntity
  8
0
  6
ByLayer
 62
  256
370
   -1
100
AcDbCircle
 10
97.02959190537533
 20
54.37044425988317
 40
0.2708842229242035
  0
CIRCLE
  5
81
100
AcDbEntity
  8
0
  6
ByLayer
 62
  256
370
   -1
100
AcDbCircle
 10
97.02959190537533
 20
56.4591585568953
 40
0.2708842229242035
  0
ARC
  5
82
100
AcDbEntity
  8
0
  6
ByLayer
 62
  256
370
   -1
100
AcDbCircle
 10
89.72005286791349
 20
58.40801768018839
 40
0.8922908620341601
100
AcDbArc
 50
9.017562232333178
 51
170.9824377676669
  0
ARC
  5
83
100
AcDbEntity
  8
0
  6
ByLayer
 62
  256
370
   -1
100
AcDbCircle
 10
91.48257777594023
 20
58.40801768018839
 40
0.8922908620341601
100
AcDbArc
 50
9.017562232333178
 51
170.9824377676669
  0
ARC
  5
84
100
AcDbEntity
  8
0
  6
ByLayer
 62
  256
370
   -1
100
AcDbCircle
 10
93.24510268396702
 20
58.40801768018839
 40
0.8922908620341601
100
AcDbArc
 50
9.017562232333178
 51
170.9824377676669
  0
ARC
  5
85
100
AcDbEntity
  8
0
  6
ByLayer
 62
  256
370
   -1
100
AcDbCircle
 10
89.72005286791349
 20
56.31930338317627
 40
0.8922908620341601
100
AcDbArc
 50
9.017562232333178
 51
170.9824377676669
  0
ARC
  5
86
100
AcDbEntity
  8
0
  6
ByLayer
 62
  256
370
   -1
100
AcDbCircle
 10
91.48257777594023
 20
56.31930338317627
 40
0.8922908620341601
100
AcDbArc
 50
9.017562232333178
 51
170.9824377676669
  0
ARC
  5
87
100
AcDbEntity
  8
0
  6
ByLayer
 62
  256
370
   -1
100
AcDbCircle
 10
93.24510268396702
 20
56.31930338317627
 40
0.8922908620341601
100
AcDbArc
 50
9.017562232333178
 51
170.9824377676669
  0
ARC
  5
88
100
AcDbEntity
  8
0
  6
ByLayer
 62
  256
370
   -1
100
AcDbCircle
 10
89.72005286791349
 20
54.23058908616415
 40
0.8922908620341601
100
AcDbArc
 50
9.017562232333178
 51
170.9824377676669
  0
ARC
  5
89
100
AcDbEntity
  8
0
  6
ByLayer
 62
  256
370
   -1
100
AcDbCircle
 10
91.48257777594023
 20
54.23058908616415
 40
0.8922908620341601
100
AcDbArc
 50
9.017562232333178
 51
170.9824377676669
  0
ARC
  5
8A
100
AcDbEntity
  8
0
  6
ByLayer
 62
  256
370
   -1
100
AcDbCircle
 10
93.24510268396702
 20
54.23058908616415
 40
0.8922908620341601
100
AcDbArc
 50
9.017562232333178
 51
170.9824377676669
  0
LINE
  5
8B
100
AcDbEntity
  8
0
  6
ByLayer
 62
  256
370
   -1
100
AcDbLine
 10
94.1263651379804
 20
58.54787285390741
 11
94.95453589543466
 21
58.54787285390741
  0
LINE
  5
8C
100
AcDbEntity
  8
0
  6
ByLayer
 62
  256
370
   -1
100
AcDbLine
 10
94.1263651379804
 20
56.45915855689529
 11
94.95453589543466
 21
56.45915855689529
  0
MTEXT
  5
8D
100
AcDbEntity
  8
0
  6
ByLayer
 62
  256
370
   -1
100
AcDbMText
 10
96.38258929614878
 20
64.65638888239631
 30
0
 40
0.5
 41
6.805555555555555
 71
    5
 72
    1
  1
75MVA \P66/22KV\PTRANSFORMER
  7
courier
210
0
220
0
230
1
 50
0
 73
    2
 44
1
  0
LINE
  5
8E
100
AcDbEntity
  8
0
  6
ByLayer
 62
  256
370
   -1
100
AcDbLine
 10
88.83879041390011
 20
58.54787285390741
 11
78.24136092019255
 21
58.54787285390741
  0
LINE
  5
8F
100
AcDbEntity
  8
0
  6
ByLayer
 62
  256
370
   -1
100
AcDbLine
 10
88.83879041390011
 20
56.45915855689529
 11
78.24136092019255
 21
56.4591585568953
  0
LINE
  5
90
100
AcDbEntity
  8
0
  6
ByLayer
 62
  256
370
   -1
100
AcDbLine
 10
88.83879041390011
 20
54.37044425988317
 11
78.24136092019255
 21
54.37044425988317
  0
LWPOLYLINE
  5
91
100
AcDbEntity
  8
0
  6
CENTERTINY
 62
  256
370
   -1
100
AcDbPolyline
 90
    5
 70
    1
 43
0
 10
86.45811484609622
 20
61.79262880153398
 10
104.7638588443253
 20
61.79262880153398
 10
104.7638588443253
 20
51.56547605134963
 10
86.45811484609622
 20
51.56547605134963
 10
86.45811484609622
 20
51.56547605134963
  0
ARC
  5
92
100
AcDbEntity
  8
0
  6
ByLayer
 62
  256
370
   -1
100
AcDbCircle
 10
96.96097144995839
 20
36.29106664553908
 40
0.535374517220496
100
AcDbArc
 50
99.01756223233318
 51
260.9824377676669
  0
ARC
  5
93
100
AcDbEntity
  8
0
  6
ByLayer
 62
  256
370
   -1
100
AcDbCircle
 10
96.96097144995839
 20
37.3485815903551
 40
0.535374517220496
100
AcDbArc
 50
99.01756223233318
 51
260.9824377676669
  0
LINE
  5
94
100
AcDbEntity
  8
0
  6
ByLayer
 62
  256
370
   -1
100
AcDbLine
 10
96.87705834572698
 20
35.76230917313105
 11
97.37821181447693
 21
35.76230917313105
  0
LINE
  5
95
100
AcDbEntity
  8
0
  6
ByLayer
 62
  256
370
   -1
100
AcDbLine
 10
96.87705834573372
 20
36.81982411794712
 11
97.37821181448366
 21
36.81982411794712
  0
LINE
  5
96
100
AcDbEntity
  8
0
  6
ByLayer
 62
  256
370
   -1
100
AcDbLine
 10
96.87705834574045
 20
37.8773390627632
 11
97.3782118144904
 21
37.8773390627632
  0
TEXT
  5
97
100
AcDbEntity
  8
0
  6
ByLayer
 62
  256
370
   -1
100
AcDbText
 10
118.6910963559912
 20
59.14199547444206
 30
0
 40
0.5
  1
P1
 50
0
 41
1
 51
0
  7
courier
 71
    0
 72
    1
 11
118.6910963559912
 21
59.14199547444206
 31
0
210
0
220
0
230
1
100
AcDbText
  0
TEXT
  5
98
100
AcDbEntity
  8
0
  6
ByLayer
 62
  256
370
   -1
100
AcDbText
 10
118.6910963559912
 20
57.05328117742994
 30
0
 40
0.5
  1
P1
 50
0
 41
1
 51
0
  7
courier
 71
    0
 72
    1
 11
118.6910963559912
 21
57.05328117742994
 31
0
210
0
220
0
230
1
100
AcDbText
  0
TEXT
  5
99
100
AcDbEntity
  8
0
  6
ByLayer
 62
  256
370
   -1
100
AcDbText
 10
118.6910963559912
 20
54.96456688041782
 30
0
 40
0.5
  1
P1
 50
0
 41
1
 51
0
  7
courier
 71
    0
 72
    1
 11
118.6910963559912
 21
54.96456688041782
 31
0
210
0
220
0
230
1
100
AcDbText
  0
ARC
  5
9A
100
AcDbEntity
  8
0
  6
ByLayer
 62
  256
370
   -1
100
AcDbCircle
 10
121.6389468569979
 20
58.53123474593728
 40
0.535374517220496
100
AcDbArc
 50
9.017562232333178
 51
170.9824377676669
  0
ARC
  5
9B
100
AcDbEntity
  8
0
  6
ByLayer
 62
  256
370
   -1
100
AcDbCircle
 10
122.6964618018139
 20
58.53123474593728
 40
0.535374517220496
100
AcDbArc
 50
9.017562232333178
 51
170.9824377676669
  0
LINE
  5
9C
100
AcDbEntity
  8
0
  6
ByLayer
 62
  256
370
   -1
100
AcDbLine
 10
121.1101893845899
 20
58.61514785016869
 11
121.1101893845899
 21
58.11399438141874
  0
LINE
  5
9D
100
AcDbEntity
  8
0
  6
ByLayer
 62
  256
370
   -1
100
AcDbLine
 10
122.1677043294059
 20
58.61514785016195
 11
122.1677043294059
 21
58.11399438141201
  0
ARC
  5
9E
100
AcDbEntity
  8
0
  6
ByLayer
 62
  256
370
   -1
100
AcDbCircle
 10
121.6389468569979
 20
56.44252044892516
 40
0.535374517220496
100
AcDbArc
 50
9.017562232333178
 51
170.9824377676669
  0
ARC
  5
9F
100
AcDbEntity
  8
0
  6
ByLayer
 62
  256
370
   -1
100
AcDbCircle
 10
122.6964618018139
 20
56.44252044892516
 40
0.535374517220496
100
AcDbArc
 50
9.017562232333178
 51
170.9824377676669
  0
LINE
  5
A0
100
AcDbEntity
  8
0
  6
ByLayer
 62
  256
370
   -1
100
AcDbLine
 10
121.1101893845899
 20
56.52643355315657
 11
121.1101893845899
 21
56.02528008440662
  0
LINE
  5
A1
100
AcDbEntity
  8
0
  6
ByLayer
 62
  256
370
   -1
100
AcDbLine
 10
122.1677043294059
 20
56.52643355314984
 11
122.1677043294059
 21
56.02528008439989
  0
LINE
  5
A2
100
AcDbEntity
  8
0
  6
ByLayer
 62
  256
370
   -1
100
AcDbLine
 10
123.225219274222
 20
56.52643355314311
 11
123.225219274222
 21
56.02528008439316
  0
ARC
  5
A3
100
AcDbEntity
  8
0
  6
ByLayer
 62
  256
370
   -1
100
AcDbCircle
 10
121.6389468569979
 20
54.35380615191304
 40
0.535374517220496
100
AcDbArc
 50
9.017562232333178
 51
170.9824377676669
  0
ARC
  5
A4
100
AcDbEntity
  8
0
  6
ByLayer
 62
  256
370
   -1
100
AcDbCircle
 10
122.6964618018139
 20
54.35380615191304
 40
0.535374517220496
100
AcDbArc
 50
9.017562232333178
 51
170.9824377676669
  0
LINE
  5
A5
100
AcDbEntity
  8
0
  6
ByLayer
 62
  256
370
   -1
100
AcDbLine
 10
121.1101893845899
 20
54.43771925614445
 11
121.1101893845899
 21
53.93656578739451
  0
LINE
  5
A6
100
AcDbEntity
  8
0
  6
ByLayer
 62
  256
370
   -1
100
AcDbLine
 10
122.1677043294059
 20
54.43771925613772
 11
122.1677043294059
 21
53.93656578738777
  0
LINE
  5
A7
100
AcDbEntity
  8
0
  6
ByLayer
 62
  256
370
   -1
100
AcDbLine
 10
123.225219274222
 20
54.43771925613099
 11
123.225219274222
 21
53.93656578738104
  0
LINE
  5
A8
100
AcDbEntity
  8
0
  6
ByLayer
 62
  256
370
   -1
100
AcDbLine
 10
121.1101893845899
 20
58.11399438141874
 11
119.9798674213922
 21
58.11399438141874
  0
LINE
  5
A9
100
AcDbEntity
  8
0
  6
ByLayer
 62
  256
370
   -1
100
AcDbLine
 10
121.1101893845899
 20
56.02528008440662
 11
119.9798674213922
 21
56.02528008440662
  0
LINE
  5
AA
100
AcDbEntity
  8
0
  6
ByLayer
 62
  256
370
   -1
100
AcDbLine
 10
121.1101893845899
 20
53.93656578739451
 11
119.9798674213922
 21
53.93656578739451
  0
CIRCLE
  5
AB
100
AcDbEntity
  8
0
  6
ByLayer
 62
  256
370
   -1
100
AcDbCircle
 10
119.9798674213922
 20
56.02528008440662
 40
0.1625305337545221
  0
CIRCLE
  5
AC
100
AcDbEntity
  8
0
  6
ByLayer
 62
  256
370
   -1
100
AcDbCircle
 10
119.9798674213922
 20
53.93656578739451
 40
0.1625305337545221
  0
TEXT
  5
AD
100
AcDbEntity
  8
0
  6
ByLayer
 62
  256
370
   -1
100
AcDbText
 10
106.4905634139536
 20
59.14199547444206
 30
0
 40
0.5
  1
L1
 50
0
 41
1
 51
0
  7
courier
 71
    0
 72
    1
 11
106.4905634139536
 21
59.14199547444206
 31
0
210
0
220
0
230
1
100
AcDbText
  0
TEXT
  5
AE
100
AcDbEntity
  8
0
  6
ByLayer
 62
  256
370
   -1
100
AcDbText
 10
106.4905634139536
 20
57.05328117742994
 30
0
 40
0.5
  1
L2
 50
0
 41
1
 51
0
  7
courier
 71
    0
 72
    1
 11
106.4905634139536
 21
57.05328117742994
 31
0
210
0
220
0
230
1
100
AcDbText
  0
TEXT
  5
AF
100
AcDbEntity
  8
0
  6
ByLayer
 62
  256
370
   -1
100
AcDbText
 10
106.4905634139536
 20
54.96456688041782
 30
0
 40
0.5
  1
L3
 50
0
 41
1
 51
0
  7
courier
 71
    0
 72
    1
 11
106.4905634139536
 21
54.96456688041782
 31
0
210
0
220
0
230
1
100
AcDbText
  0
LINE
  5
B0
100
AcDbEntity
  8
0
  6
ByLayer
 62
  256
370
   -1
100
AcDbLine
 10
124.1589810150301
 20
53.93656578738104
 11
123.225219274222
 21
53.93656578738104
  0
LINE
  5
B1
100
AcDbEntity
  8
0
  6
ByLayer
 62
  256
370
   -1
100
AcDbLine
 10
125.8517541058174
 20
56.02528008439316
 11
123.225219274222
 21
56.02528008439316
  0
LINE
  5
B2
100
AcDbEntity
  8
0
  6
ByLayer
 62
  256
370
   -1
100
AcDbLine
 10
123.225219274222
 20
58.11399438140527
 11
127.5445271966048
 21
58.11399438140528
  0
LINE
  5
B3
100
AcDbEntity
  8
0
  6
ByLayer
 62
  256
370
   -1
100
AcDbLine
 10
123.225219274222
 20
58.61514785015522
 11
123.225219274222
 21
58.11399438140527
  0
TEXT
  5
B4
100
AcDbEntity
  8
0
  6
ByLayer
 62
  256
370
   -1
100
AcDbText
 10
124.3582701165193
 20
59.14199547444206
 30
0
 40
0.5
  1
P2
 50
0
 41
1
 51
0
  7
courier
 71
    0
 72
    1
 11
124.3582701165193
 21
59.14199547444206
 31
0
210
0
220
0
230
1
100
AcDbText
  0
TEXT
  5
B5
100
AcDbEntity
  8
0
  6
ByLayer
 62
  256
370
   -1
100
AcDbText
 10
124.3582701165193
 20
57.05328117742994
 30
0
 40
0.5
  1
P2
 50
0
 41
1
 51
0
  7
courier
 71
    0
 72
    1
 11
124.3582701165193
 21
57.05328117742994
 31
0
210
0
220
0
230
1
100
AcDbText
  0
TEXT
  5
B6
100
AcDbEntity
  8
0
  6
ByLayer
 62
  256
370
   -1
100
AcDbText
 10
124.3582701165193
 20
54.96456688041782
 30
0
 40
0.5
  1
P2
 50
0
 41
1
 51
0
  7
courier
 71
    0
 72
    1
 11
124.3582701165193
 21
54.96456688041782
 31
0
210
0
220
0
230
1
100
AcDbText
  0
LINE
  5
B7
100
AcDbEntity
  8
0
  6
ByLayer
 62
  256
370
   -1
100
AcDbLine
 10
97.3782118144904
 20
37.8773390627632
 11
97.3782118144904
 21
38.60803525341193
  0
LINE
  5
B8
100
AcDbEntity
  8
0
  6
ByLayer
 62
  256
370
   -1
100
AcDbLine
 10
97.3782118144904
 20
38.60803525341193
 11
108.3548388092489
 21
38.60803525341193
  0
CIRCLE
  5
B9
100
AcDbEntity
  8
0
  6
ByLayer
 62
  256
370
   -1
100
AcDbCircle
 10
108.6740527033136
 20
38.60803525341193
 40
0.3192138940647123
  0
LINE
  5
BA
100
AcDbEntity
  8
0
  6
ByLayer
 62
  256
370
   -1
100
AcDbLine
 10
109.1241596084936
 20
38.98889494241038
 11
108.2239457981336
 21
38.22717556441349
  0
LINE
  5
BB
100
AcDbEntity
  8
0
  6
ByLayer
 62
  256
370
   -1
100
AcDbLine
 10
97.3782118144904
 20
35.76230917313104
 11
97.3782118144904
 21
35.03161298248232
  0
LINE
  5
BC
100
AcDbEntity
  8
0
  6
ByLayer
 62
  256
370
   -1
100
AcDbLine
 10
97.3782118144904
 20
35.03161298248232
 11
108.3548388092489
 21
35.03161298248232
  0
CIRCLE
  5
BD
100
AcDbEntity
  8
0
  6
ByLayer
 62
  256
370
   -1
100
AcDbCircle
 10
108.6740527033136
 20
35.03161298248232
 40
0.3192138940647123
  0
LINE
  5
BE
100
AcDbEntity
  8
0
  6
ByLayer
 62
  256
370
   -1
100
AcDbLine
 10
109.1241596084936
 20
35.41247267148076
 11
108.2239457981336
 21
34.65075329348387
  0
LINE
  5
BF
100
AcDbEntity
  8
0
  6
ByLayer
 62
  256
370
   -1
100
AcDbLine
 10
119.9798674213922
 20
58.11399438141874
 11
119.9798674213922
 21
48.77173736875273
  0
CIRCLE
  5
C0
100
AcDbEntity
  8
0
  6
ByLayer
 62
  256
370
   -1
100
AcDbCircle
 10
119.9798674213922
 20
48.45252347468802
 40
0.3192138940647123
  0
LINE
  5
C1
100
AcDbEntity
  8
0
  6
ByLayer
 62
  256
370
   -1
100
AcDbLine
 10
120.4299743265722
 20
48.83338316368647
 11
119.5297605162122
 21
48.07166378568958
  0
CIRCLE
  5
C2
100
AcDbEntity
  8
0
  6
ByLayer
 62
  256
370
   -1
100
AcDbCircle
 10
124.1589810150301
 20
48.45252347468802
 40
0.3192138940647123
  0
LINE
  5
C3
100
AcDbEntity
  8
0
  6
ByLayer
 62
  256
370
   -1
100
AcDbLine
 10
124.6090879202101
 20
48.83338316368647
 11
123.7088741098501
 21
48.07166378568958
  0
LINE
  5
C4
100
AcDbEntity
  8
0
  6
ByLayer
 62
  256
370
   -1
100
AcDbLine
 10
124.1589810150301
 20
53.93656578738104
 11
124.1589810150301
 21
48.77173736875273
  0
CIRCLE
  5
C5
100
AcDbEntity
  8
0
  6
ByLayer
 62
  256
370
   -1
100
AcDbCircle
 10
125.8517541058174
 20
48.45252347468802
 40
0.3192138940647123
  0
LINE
  5
C6
100
AcDbEntity
  8
0
  6
ByLayer
 62
  256
370
   -1
100
AcDbLine
 10
126.3018610109974
 20
48.83338316368647
 11
125.4016472006375
 21
48.07166378568958
  0
CIRCLE
  5
C7
100
AcDbEntity
  8
0
  6
ByLayer
 62
  256
370
   -1
100
AcDbCircle
 10
127.5445271966048
 20
48.45252347468802
 40
0.3192138940647123
  0
LINE
  5
C8
100
AcDbEntity
  8
0
  6
ByLayer
 62
  256
370
   -1
100
AcDbLine
 10
127.9946341017847
 20
48.83338316368647
 11
127.0944202914248
 21
48.07166378568958
  0
LINE
  5
C9
100
AcDbEntity
  8
0
  6
ByLayer
 62
  256
370
   -1
100
AcDbLine
 10
125.8517541058174
 20
56.02528008439316
 11
125.8517541058174
 21
48.77173736875273
  0
LINE
  5
CA
100
AcDbEntity
  8
0
  6
ByLayer
 62
  256
370
   -1
100
AcDbLine
 10
127.5445271966048
 20
58.11399438140528
 11
127.5445271966048
 21
48.77173736875273
  0
LINE
  5
CB
100
AcDbEntity
  8
0
  6
ByLayer
 62
  256
370
   -1
100
AcDbLine
 10
108.9932665973783
 20
38.60803525341193
 11
119.9798674213922
 21
38.60803525341193
  0
CIRCLE
  5
CC
100
AcDbEntity
  8
0
  6
ByLayer
 62
  256
370
   -1
100
AcDbCircle
 10
125.8517541058174
 20
39.58616574035211
 40
0.1625305337545221
  0
LINE
  5
CD
100
AcDbEntity
  8
0
  6
ByLayer
 62
  256
370
   -1
100
AcDbLine
 10
125.8517541058174
 20
37.24395799327782
 11
126.297862603016
 21
37.02145650389051
  0
LINE
  5
CE
100
AcDbEntity
  8
0
  6
ByLayer
 62
  256
370
   -1
100
AcDbLine
 10
126.297862603016
 20
37.02145650389051
 11
125.5493297100904
 21
36.84215480531252
  0
LINE
  5
CF
100
AcDbEntity
  8
0
  6
ByLayer
 62
  256
370
   -1
100
AcDbLine
 10
125.5493297100904
 20
36.84215480531252
 11
126.3027794536048
 21
36.53462429775566
  0
LINE
  5
D0
100
AcDbEntity
  8
0
  6
ByLayer
 62
  256
370
   -1
100
AcDbLine
 10
126.3027794536048
 20
36.53462429775566
 11
125.5493297100904
 21
36.38085904397722
  0
LINE
  5
D1
100
AcDbEntity
  8
0
  6
ByLayer
 62
  256
370
   -1
100
AcDbLine
 10
125.5493297100904
 20
36.38085904397722
 11
126.3027794536048
 21
36.05795201104251
  0
LINE
  5
D2
100
AcDbEntity
  8
0
  6
ByLayer
 62
  256
370
   -1
100
AcDbLine
 10
126.3027794536048
 20
36.05795201104251
 11
125.5339531847126
 21
35.85805718113055
  0
LINE
  5
D3
100
AcDbEntity
  8
0
  6
ByLayer
 62
  256
370
   -1
100
AcDbLine
 10
125.5339531847126
 20
35.85805718113055
 11
125.8568602176473
 21
35.65816235121859
  0
LINE
  5
D4
100
AcDbEntity
  8
0
  6
ByLayer
 62
  256
370
   -1
100
AcDbLine
 10
125.8568602176473
 20
35.65816235121859
 11
125.8568602176473
 21
34.42804032099112
  0
LINE
  5
D5
100
AcDbEntity
  8
0
  6
ByLayer
 62
  256
370
   -1
100
AcDbLine
 10
124.9682772913709
 20
35.96819016733168
 11
127.4810834281626
 21
37.37068661577354
  0
LINE
  5
D6
100
AcDbEntity
  8
0
  6
ByLayer
 62
  256
370
   -1
100
AcDbLine
 10
127.4810834281626
 20
37.37068661577354
 11
126.9332169940969
 21
37.24194446513662
  0
LINE
  5
D7
100
AcDbEntity
  8
0
  6
ByLayer
 62
  256
370
   -1
100
AcDbLine
 10
127.4810834281626
 20
37.37068661577354
 11
127.1545128793976
 21
36.94855939860405
  0
CIRCLE
  5
D8
100
AcDbEntity
  8
0
  6
ByLayer
 62
  256
370
   -1
100
AcDbCircle
 10
125.8568602176473
 20
33.79749459575944
 40
0.6305457252316842
  0
CIRCLE
  5
D9
100
AcDbEntity
  8
0
  6
ByLayer
 62
  256
370
   -1
100
AcDbCircle
 10
119.9798674213922
 20
38.60803525341193
 40
0.1625305337545221
  0
LWPOLYLINE
  5
DA
100
AcDbEntity
  8
0
  6
CENTERTINY
 62
  256
370
   -1
100
AcDbPolyline
 90
    5
 70
    1
 43
0
 10
92.21784576883374
 20
48.93871237551826
 10
99.98589535224934
 20
48.93871237551826
 10
99.98589535224934
 20
27.29914567886053
 10
92.21784576883374
 20
27.29914567886053
 10
92.21784576883374
 20
27.29914567886053
  0
LINE
  5
DB
100
AcDbEntity
  8
0
  6
ByLayer
 62
  256
370
   -1
100
AcDbLine
 10
122.8410303136385
 20
39.58616574035021
 11
127.5445271966048
 21
39.58616574035317
  0
LINE
  5
DC
100
AcDbEntity
  8
0
  6
ByLayer
 62
  256
370
   -1
100
AcDbLine
 10
122.8410303136385
 20
35.03161298248232
 11
122.8410303136385
 21
39.58616574035021
  0
MTEXT
  5
DD
100
AcDbEntity
  8
0
  6
ByLayer
 62
  256
370
   -1
100
AcDbMText
 10
122.1524711443706
 20
63.3202239726901
 30
0
 40
0.5
 41
6.166666666666666
 71
    5
 72
    1
  1
* INSTALL \PNEAR 22KV\PSWITCHGEAR
  7
courier
210
0
220
0
230
1
 50
0
 73
    2
 44
1
  0
CIRCLE
  5
DE
100
AcDbEntity
  8
0
  6
ByLayer
 62
  256
370
   -1
100
AcDbCircle
 10
124.1589810150301
 20
39.58616574035104
 40
0.1625305337545221
  0
ARC
  5
DF
100
AcDbEntity
  8
0
  6
ByLayer
 62
  256
370
   -1
100
AcDbCircle
 10
119.9798674213922
 20
35.03161298248232
 40
0.3617519823771646
100
AcDbArc
 50
0
 51
180
  0
LINE
  5
E0
100
AcDbEntity
  8
0
  6
ByLayer
 62
  256
370
   -1
100
AcDbLine
 10
120.3416194037761
 20
35.03161298248232
 11
122.8410303136385
 21
35.03161298248232
  0
LINE
  5
E1
100
AcDbEntity
  8
0
  6
ByLayer
 62
  256
370
   -1
100
AcDbLine
 10
108.9932665973783
 20
35.03161298248232
 11
119.6181154390171
 21
35.03161298248231
  0
CIRCLE
  5
E2
100
AcDbEntity
  8
0
  6
ByLayer
 62
  256
370
   -1
100
AcDbCircle
 10
125.8517541058174
 20
38.10184730767988
 40
0.1625305337545221
  0
TEXT
  5
E3
100
AcDbEntity
  8
0
  6
ByLayer
 62
  256
370
   -1
100
AcDbText
 10
125.7828776275615
 20
33.53791991258726
 30
0
 40
0.5
  1
64
 50
0
 41
1
 51
0
  7
courier
 71
    0
 72
    1
 11
125.7828776275615
 21
33.53791991258726
 31
0
210
0
220
0
230
1
100
AcDbText
  0
MTEXT
  5
E4
100
AcDbEntity
  8
0
  6
ByLayer
 62
  256
370
   -1
100
AcDbMText
 10
88.68886251088972
 20
48.76125581305863
 30
0
 40
0.5
 41
3
 71
    1
 72
    1
  1
NGR\PPANEL
  7
courier
210
0
220
0
230
1
 50
0
 73
    2
 44
1
  0
TEXT
  5
E5
100
AcDbEntity
  8
0
  6
ByLayer
 62
  256
370
   -1
100
AcDbText
 10
95.9103559612456
 20
38.17129520787073
 30
0
 40
0.5
  1
P1
 50
0
 41
1
 51
0
  7
courier
 71
    0
 72
    1
 11
95.9103559612456
 21
38.17129520787073
 31
0
210
0
220
0
230
1
100
AcDbText
  0
TEXT
  5
E6
100
AcDbEntity
  8
0
  6
ByLayer
 62
  256
370
   -1
100
AcDbText
 10
95.9103559612456
 20
34.89610404140845
 30
0
 40
0.5
  1
P2
 50
0
 41
1
 51
0
  7
courier
 71
    0
 72
    1
 11
95.9103559612456
 21
34.89610404140845
 31
0
210
0
220
0
230
1
100
AcDbText
  0
LWPOLYLINE
  5
E7
100
AcDbEntity
  8
0
  6
CENTERTINY
 62
  256
370
   -1
100
AcDbPolyline
 90
    5
 70
    1
 43
0
 10
108.605747600724
 20
48.45654537418383
 10
140.5219193059849
 20
48.45654537418383
 10
140.5219193059849
 20
29.22142685483049
 10
108.605747600724
 20
29.22142685483049
 10
108.605747600724
 20
29.22142685483049
  0
LWPOLYLINE
  5
E8
100
AcDbEntity
  8
0
  6
ByLayer
 62
  256
370
   -1
100
AcDbPolyline
 90
    4
 70
    1
 43
0
 10
131.7277866957776
 20
36.32565064149372
 10
132.2492075183828
 20
36.32565064149372
 10
132.2492075183828
 20
34.79614956185188
 10
131.7277866957776
 20
34.79614956185188
  0
LINE
  5
E9
100
AcDbEntity
  8
0
  6
ByLayer
 62
  256
370
   -1
100
AcDbLine
 10
131.9884971070802
 20
36.32565064149372
 11
131.9884971070802
 21
38.10184730767988
  0
TEXT
  5
EA
100
AcDbEntity
  8
0
  6
ByLayer
 62
  256
370
   -1
100
AcDbText
 10
134.9381405327256
 20
35.46170260545366
 30
0
 40
0.5
  1
METROSIL
 50
0
 41
1
 51
0
  7
courier
 71
    0
 72
    1
 11
134.9381405327256
 21
35.46170260545366
 31
0
210
0
220
0
230
1
100
AcDbText
  0
LINE
  5
EB
100
AcDbEntity
  8
0
  6
ByLayer
 62
  256
370
   -1
100
AcDbLine
 10
125.8517541058174
 20
38.10184730767988
 11
131.9884971070802
 21
38.10184730767988
  0
LINE
  5
EC
100
AcDbEntity
  8
0
  6
ByLayer
 62
  256
370
   -1
100
AcDbLine
 10
125.8568602176473
 20
33.16694887052775
 11
125.8568602176473
 21
31.35298136713565
  0
LINE
  5
ED
100
AcDbEntity
  8
0
  6
ByLayer
 62
  256
370
   -1
100
AcDbLine
 10
119.9798674213922
 20
48.13330958062331
 11
119.9798674213923
 21
31.35298136713565
  0
CIRCLE
  5
EE
100
AcDbEntity
  8
0
  6
ByLayer
 62
  256
370
   -1
100
AcDbCircle
 10
125.8568602176473
 20
31.35298136713565
 40
0.1625305337545221
  0
LINE
  5
EF
100
AcDbEntity
  8
0
  6
ByLayer
 62
  256
370
   -1
100
AcDbLine
 10
131.9884971070802
 20
34.79614956185188
 11
131.9884971070802
 21
31.35298136713565
  0
LINE
  5
F0
100
AcDbEntity
  8
0
  6
ByLayer
 62
  256
370
   -1
100
AcDbLine
 10
119.9798674213923
 20
31.35298136713565
 11
131.9884971070802
 21
31.35298136713565
  0
LINE
  5
F1
100
AcDbEntity
  8
0
  6
CENTERTINY
 62
  256
370
   -1
100
AcDbLine
 10
128.3141774841128
 20
34.93258347368217
 11
123.8246777720729
 21
34.93258347368217
  0
LINE
  5
F2
100
AcDbEntity
  8
0
  6
CENTERTINY
 62
  256
370
   -1
100
AcDbLine
 10
123.8246777720729
 20
34.93258347368217
 11
123.8246777720729
 21
32.83748360806354
  0
LINE
  5
F3
100
AcDbEntity
  8
0
  6
CENTERTINY
 62
  256
370
   -1
100
AcDbLine
 10
123.8246777720729
 20
32.83748360806354
 11
129.8106773881262
 21
32.83748360806354
  0
LINE
  5
F4
100
AcDbEntity
  8
0
  6
ByLayer
 62
  256
370
   -1
100
AcDbLine
 10
124.1589810150301
 20
48.13330958062331
 11
124.1589810150301
 21
44.265826633202
  0
CIRCLE
  5
F5
100
AcDbEntity
  8
0
  6
ByLayer
 62
  256
370
   -1
100
AcDbCircle
 10
124.1589810150301
 20
43.63528090797031
 40
0.6305457252316842
  0
TEXT
  5
F6
100
AcDbEntity
  8
0
  6
ByLayer
 62
  256
370
   -1
100
AcDbText
 10
124.0849984249442
 20
43.37570622479814
 30
0
 40
0.5
  1
50
 50
0
 41
1
 51
0
  7
courier
 71
    0
 72
    1
 11
124.0849984249442
 21
43.37570622479814
 31
0
210
0
220
0
230
1
100
AcDbText
  0
CIRCLE
  5
F7
100
AcDbEntity
  8
0
  6
ByLayer
 62
  256
370
   -1
100
AcDbCircle
 10
124.1589810150301
 20
42.37418945750694
 40
0.6305457252316842
  0
TEXT
  5
F8
100
AcDbEntity
  8
0
  6
ByLayer
 62
  256
370
   -1
100
AcDbText
 10
124.0849984249442
 20
42.11461477433477
 30
0
 40
0.5
  1
51
 50
0
 41
1
 51
0
  7
courier
 71
    0
 72
    1
 11
124.0849984249442
 21
42.11461477433477
 31
0
210
0
220
0
230
1
100
AcDbText
  0
LINE
  5
F9
100
AcDbEntity
  8
0
  6
ByLayer
 62
  256
370
   -1
100
AcDbLine
 10
125.8517541058174
 20
48.13330958062438
 11
125.8517541058174
 21
44.26582663320306
  0
CIRCLE
  5
FA
100
AcDbEntity
  8
0
  6
ByLayer
 62
  256
370
   -1
100
AcDbCircle
 10
125.8517541058174
 20
43.63528090797138
 40
0.6305457252316842
  0
TEXT
  5
FB
100
AcDbEntity
  8
0
  6
ByLayer
 62
  256
370
   -1
100
AcDbText
 10
125.7777715157316
 20
43.3757062247992
 30
0
 40
0.5
  1
50
 50
0
 41
1
 51
0
  7
courier
 71
    0
 72
    1
 11
125.7777715157316
 21
43.3757062247992
 31
0
210
0
220
0
230
1
100
AcDbText
  0
CIRCLE
  5
FC
100
AcDbEntity
  8
0
  6
ByLayer
 62
  256
370
   -1
100
AcDbCircle
 10
125.8517541058174
 20
42.37418945750801
 40
0.6305457252316842
  0
TEXT
  5
FD
100
AcDbEntity
  8
0
  6
ByLayer
 62
  256
370
   -1
100
AcDbText
 10
125.7777715157316
 20
42.11461477433583
 30
0
 40
0.5
  1
51
 50
0
 41
1
 51
0
  7
courier
 71
    0
 72
    1
 11
125.7777715157316
 21
42.11461477433583
 31
0
210
0
220
0
230
1
100
AcDbText
  0
LINE
  5
FE
100
AcDbEntity
  8
0
  6
ByLayer
 62
  256
370
   -1
100
AcDbLine
 10
127.5445271966048
 20
48.13330958062544
 11
127.5445271966048
 21
44.26582663320413
  0
CIRCLE
  5
FF
100
AcDbEntity
  8
0
  6
ByLayer
 62
  256
370
   -1
100
AcDbCircle
 10
127.5445271966048
 20
43.63528090797244
 40
0.6305457252316842
  0
TEXT
  5
100
100
AcDbEntity
  8
0
  6
ByLayer
 62
  256
370
   -1
100
AcDbText
 10
127.4705446065189
 20
43.37570622480027
 30
0
 40
0.5
  1
50
 50
0
 41
1
 51
0
  7
courier
 71
    0
 72
    1
 11
127.4705446065189
 21
43.37570622480027
 31
0
210
0
220
0
230
1
100
AcDbText
  0
CIRCLE
  5
101
100
AcDbEntity
  8
0
  6
ByLayer
 62
  256
370
   -1
100
AcDbCircle
 10
127.5445271966048
 20
42.37418945750908
 40
0.6305457252316842
  0
TEXT
  5
102
100
AcDbEntity
  8
0
  6
ByLayer
 62
  256
370
   -1
100
AcDbText
 10
127.4705446065189
 20
42.1146147743369
 30
0
 40
0.5
  1
51
 50
0
 41
1
 51
0
  7
courier
 71
    0
 72
    1
 11
127.4705446065189
 21
42.1146147743369
 31
0
210
0
220
0
230
1
100
AcDbText
  0
LINE
  5
103
100
AcDbEntity
  8
0
  6
ByLayer
 62
  256
370
   -1
100
AcDbLine
 10
124.1589810150301
 20
41.74364373227526
 11
124.1589810150301
 21
39.58616574035104
  0
LINE
  5
104
100
AcDbEntity
  8
0
  6
ByLayer
 62
  256
370
   -1
100
AcDbLine
 10
127.5445271966048
 20
41.74364373227739
 11
127.5445271966048
 21
39.58616574035317
  0
LINE
  5
105
100
AcDbEntity
  8
0
  6
ByLayer
 62
  256
370
   -1
100
AcDbLine
 10
125.8517541058174
 20
41.74364373227633
 11
125.8517541058174
 21
37.24395799327782
  0
LINE
  5
106
100
AcDbEntity
  8
0
  6
CENTERTINY
 62
  256
370
   -1
100
AcDbLine
 10
122.8840206895503
 20
41.28817580888659
 11
128.3141774841128
 21
41.28817580888659
  0
LINE
  5
107
100
AcDbEntity
  8
0
  6
CENTERTINY
 62
  256
370
   -1
100
AcDbLine
 10
128.3141774841128
 20
41.28817580888659
 11
128.3141774841128
 21
34.93258347368217
  0
LINE
  5
108
100
AcDbEntity
  8
0
  6
CENTERTINY
 62
  256
370
   -1
100
AcDbLine
 10
129.8106773881262
 20
32.83748360806354
 11
129.8106773881262
 21
44.62323273783054
  0
LINE
  5
109
100
AcDbEntity
  8
0
  6
CENTERTINY
 62
  256
370
   -1
100
AcDbLine
 10
122.8840206895503
 20
44.62323273783054
 11
122.8840206895503
 21
41.28817580888659
  0
LINE
  5
10A
100
AcDbEntity
  8
0
  6
CENTERTINY
 62
  256
370
   -1
100
AcDbLine
 10
129.8106773881262
 20
44.62323273783054
 11
122.8840206895503
 21
44.62323273783054
  0
TEXT
  5
10B
100
AcDbEntity
  8
0
  6
ByLayer
 62
  256
370
   -1
100
AcDbText
 10
131.2310670440445
 20
43.8645741416786
 30
0
 40
0.5
  1
P14N
 50
0
 41
1
 51
0
  7
courier
 71
    0
 72
    1
 11
131.2310670440445
 21
43.8645741416786
 31
0
210
0
220
0
230
1
100
AcDbText
  0
CIRCLE
  5
10C
100
AcDbEntity
  8
0
  6
ByLayer
 62
  256
370
   -1
100
AcDbCircle
 10
111.1928740443809
 20
38.60803525341193
 40
0.1625305337545221
  0
LINE
  5
10D
100
AcDbEntity
  8
0
  6
ByLayer
 62
  256
370
   -1
100
AcDbLine
 10
111.1928740443809
 20
37.47292503294437
 11
111.1928740443809
 21
38.60803525341193
  0
LINE
  5
10E
100
AcDbEntity
  8
0
  6
ByLayer
 62
  256
370
   -1
100
AcDbLine
 10
111.750983549863
 20
37.47292503294437
 11
110.6347645388988
 21
37.47292503294437
  0
LINE
  5
10F
100
AcDbEntity
  8
0
  6
ByLayer
 62
  256
370
   -1
100
AcDbLine
 10
111.6015694731124
 20
37.21413226064638
 11
110.7841786156494
 21
37.21413226064638
  0
LINE
  5
110
100
AcDbEntity
  8
0
  6
ByLayer
 62
  256
370
   -1
100
AcDbLine
 10
111.4521553963618
 20
36.95533948834839
 11
110.9335926923999
 21
36.95533948834839
  0
LINE
  5
111
100
AcDbEntity
  8
0
  6
ByLayer
 62
  256
370
   -1
100
AcDbLine
 10
111.3027413196112
 20
36.69654671605039
 11
111.0830067691505
 21
36.69654671605039
  0
MTEXT
  5
112
100
AcDbEntity
  8
0
  6
ByLayer
 62
  256
370
   -1
100
AcDbMText
 10
140.1122086865103
 20
47.95241567151273
 30
0
 40
0.5
 41
6.805555555555555
 71
    3
 72
    1
  1
TRANSFORMER\PRELAY\PPANEL
  7
courier
210
0
220
0
230
1
 50
0
 73
    2
 44
1
  0
LINE
  5
113
100
AcDbEntity
  8
0
  6
ByLayer
 62
  256
370
   -1
100
AcDbLine
 10
97.3782118144904
 20
45.49526830024195
 11
97.3782118144904
 21
46.22596449089068
  0
LINE
  5
114
100
AcDbEntity
  8
0
  6
ByLayer
 62
  256
370
   -1
100
AcDbLine
 10
97.3782118144904
 20
46.22596449089068
 11
108.3548388092489
 21
46.22596449089068
  0
CIRCLE
  5
115
100
AcDbEntity
  8
0
  6
ByLayer
 62
  256
370
   -1
100
AcDbCircle
 10
108.6740527033136
 20
46.22596449089068
 40
0.3192138940647123
  0
LINE
  5
116
100
AcDbEntity
  8
0
  6
ByLayer
 62
  256
370
   -1
100
AcDbLine
 10
109.1241596084936
 20
46.60682417988913
 11
108.2239457981336
 21
45.84510480189224
  0
LINE
  5
117
100
AcDbEntity
  8
0
  6
ByLayer
 62
  256
370
   -1
100
AcDbLine
 10
97.3782118144904
 20
43.3802384106098
 11
97.3782118144904
 21
42.64954221996107
  0
LINE
  5
118
100
AcDbEntity
  8
0
  6
ByLayer
 62
  256
370
   -1
100
AcDbLine
 10
97.3782118144904
 20
42.64954221996107
 11
108.3548388092489
 21
42.64954221996107
  0
CIRCLE
  5
119
100
AcDbEntity
  8
0
  6
ByLayer
 62
  256
370
   -1
100
AcDbCircle
 10
108.6740527033136
 20
42.64954221996107
 40
0.3192138940647123
  0
LINE
  5
11A
100
AcDbEntity
  8
0
  6
ByLayer
 62
  256
370
   -1
100
AcDbLine
 10
109.1241596084936
 20
43.03040190895952
 11
108.2239457981336
 21
42.26868253096263
  0
ARC
  5
11B
100
AcDbEntity
  8
0
  6
ByLayer
 62
  256
370
   -1
100
AcDbCircle
 10
96.96097144995839
 20
43.90899588301783
 40
0.535374517220496
100
AcDbArc
 50
99.01756223233318
 51
260.9824377676669
  0
ARC
  5
11C
100
AcDbEntity
  8
0
  6
ByLayer
 62
  256
370
   -1
100
AcDbCircle
 10
96.96097144995839
 20
44.96651082783386
 40
0.535374517220496
100
AcDbArc
 50
99.01756223233318
 51
260.9824377676669
  0
LINE
  5
11D
100
AcDbEntity
  8
0
  6
ByLayer
 62
  256
370
   -1
100
AcDbLine
 10
96.87705834572698
 20
43.38023841060981
 11
97.37821181447693
 21
43.38023841060981
  0
LINE
  5
11E
100
AcDbEntity
  8
0
  6
ByLayer
 62
  256
370
   -1
100
AcDbLine
 10
96.87705834573372
 20
44.43775335542588
 11
97.37821181448366
 21
44.43775335542588
  0
LINE
  5
11F
100
AcDbEntity
  8
0
  6
ByLayer
 62
  256
370
   -1
100
AcDbLine
 10
96.87705834574045
 20
45.49526830024195
 11
97.3782118144904
 21
45.49526830024195
  0
TEXT
  5
120
100
AcDbEntity
  8
0
  6
ByLayer
 62
  256
370
   -1
100
AcDbText
 10
95.9103559612456
 20
45.78922444534948
 30
0
 40
0.5
  1
P1
 50
0
 41
1
 51
0
  7
courier
 71
    0
 72
    1
 11
95.9103559612456
 21
45.78922444534948
 31
0
210
0
220
0
230
1
100
AcDbText
  0
TEXT
  5
121
100
AcDbEntity
  8
0
  6
ByLayer
 62
  256
370
   -1
100
AcDbText
 10
95.9103559612456
 20
42.5140332788872
 30
0
 40
0.5
  1
P2
 50
0
 41
1
 51
0
  7
courier
 71
    0
 72
    1
 11
95.9103559612456
 21
42.5140332788872
 31
0
210
0
220
0
230
1
100
AcDbText
  0
CIRCLE
  5
122
100
AcDbEntity
  8
0
  6
ByLayer
 62
  256
370
   -1
100
AcDbCircle
 10
112.3926124511053
 20
44.58873730847406
 40
0.6305457252316842
  0
TEXT
  5
123
100
AcDbEntity
  8
0
  6
ByLayer
 62
  256
370
   -1
100
AcDbText
 10
112.3442055973959
 20
44.4186777026196
 30
0
 40
0.3
  1
51G
 50
0
 41
1
 51
0
  7
courier
 71
    0
 72
    1
 11
112.3442055973959
 21
44.4186777026196
 31
0
210
0
220
0
230
1
100
AcDbText
  0
LINE
  5
124
100
AcDbEntity
  8
0
  6
ByLayer
 62
  256
370
   -1
100
AcDbLine
 10
112.3926124511053
 20
45.21928303370574
 11
112.3926124511053
 21
46.22596449089068
  0
LINE
  5
125
100
AcDbEntity
  8
0
  6
ByLayer
 62
  256
370
   -1
100
AcDbLine
 10
108.9932665973783
 20
46.22596449089068
 11
112.3926124511053
 21
46.22596449089068
  0
LINE
  5
126
100
AcDbEntity
  8
0
  6
ByLayer
 62
  256
370
   -1
100
AcDbLine
 10
112.3926124511053
 20
43.95819158324237
 11
112.3926124511053
 21
42.64954221996106
  0
LINE
  5
127
100
AcDbEntity
  8
0
  6
ByLayer
 62
  256
370
   -1
100
AcDbLine
 10
108.9932665973783
 20
42.64954221996107
 11
112.3926124511053
 21
42.64954221996107
  0
CIRCLE
  5
128
100
AcDbEntity
  8
0
  6
ByLayer
 62
  256
370
   -1
100
AcDbCircle
 10
110.6929395242418
 20
42.64954221996107
 40
0.1625305337545221
  0
LINE
  5
129
100
AcDbEntity
  8
0
  6
ByLayer
 62
  256
370
   -1
100
AcDbLine
 10
110.6929395242418
 20
41.51443199949352
 11
110.6929395242418
 21
42.64954221996107
  0
LINE
  5
12A
100
AcDbEntity
  8
0
  6
ByLayer
 62
  256
370
   -1
100
AcDbLine
 10
111.2510490297239
 20
41.51443199949352
 11
110.1348300187597
 21
41.51443199949352
  0
LINE
  5
12B
100
AcDbEntity
  8
0
  6
ByLayer
 62
  256
370
   -1
100
AcDbLine
 10
111.1016349529733
 20
41.25563922719552
 11
110.2842440955103
 21
41.25563922719552
  0
LINE
  5
12C
100
AcDbEntity
  8
0
  6
ByLayer
 62
  256
370
   -1
100
AcDbLine
 10
110.9522208762227
 20
40.99684645489753
 11
110.4336581722608
 21
40.99684645489753
  0
LINE
  5
12D
100
AcDbEntity
  8
0
  6
ByLayer
 62
  256
370
   -1
100
AcDbLine
 10
110.8028067994722
 20
40.73805368259953
 11
110.5830722490114
 21
40.73805368259953
  0
LINE
  5
12E
100
AcDbEntity
  8
0
  6
ByLayer
 62
  256
370
   -1
100
AcDbLine
 10
103.5723727771367
 20
58.54787285390741
 11
137.1379369727593
 21
58.54787285390741
  0
LINE
  5
12F
100
AcDbEntity
  8
0
  6
ByLayer
 62
  256
370
   -1
100
AcDbLine
 10
103.5723727771367
 20
56.45915855689529
 11
137.1379369727593
 21
56.45915855689529
  0
LINE
  5
130
100
AcDbEntity
  8
0
  6
ByLayer
 62
  256
370
   -1
100
AcDbLine
 10
103.5723727771367
 20
54.37044425988317
 11
137.1379369727593
 21
54.37044425988317
  0
MTEXT
  5
131
100
AcDbEntity
  8
0
  6
ByLayer
 62
  256
370
   -1
100
AcDbMText
 10
138.9467578537322
 20
56.67965837771879
 30
0
 40
0.5
 41
6.166666666666667
 71
    4
 72
    1
  1
TO 22KV \PSWITCHGEAR
  7
courier
210
0
220
0
230
1
 50
0
 73
    2
 44
1
  0
MTEXT
  5
132
100
AcDbEntity
  8
0
  6
ByLayer
 62
  256
370
   -1
100
AcDbMText
 10
71.16989163913277
 20
56.67965837771879
 30
0
 40
0.5
 41
6.166666666666667
 71
    4
 72
    1
  1
TO 66KV \PSWITCHGEAR
  7
courier
210
0
220
0
230
1
 50
0
 73
    2
 44
1
  0
TEXT
  5
133
100
AcDbEntity
  8
0
  6
ByLayer
 62
  256
370
   -1
100
AcDbText
 10
83.49423547697016
 20
59.14199547444206
 30
0
 40
0.5
  1
L1
 50
0
 41
1
 51
0
  7
courier
 71
    0
 72
    1
 11
83.49423547697016
 21
59.14199547444206
 31
0
210
0
220
0
230
1
100
AcDbText
  0
TEXT
  5
134
100
AcDbEntity
  8
0
  6
ByLayer
 62
  256
370
   -1
100
AcDbText
 10
83.49423547697016
 20
57.05328117742994
 30
0
 40
0.5
  1
L2
 50
0
 41
1
 51
0
  7
courier
 71
    0
 72
    1
 11
83.49423547697016
 21
57.05328117742994
 31
0
210
0
220
0
230
1
100
AcDbText
  0
TEXT
  5
135
100
AcDbEntity
  8
0
  6
ByLayer
 62
  256
370
   -1
100
AcDbText
 10
83.49423547697016
 20
54.96456688041782
 30
0
 40
0.5
  1
L3
 50
0
 41
1
 51
0
  7
courier
 71
    0
 72
    1
 11
83.49423547697016
 21
54.96456688041782
 31
0
210
0
220
0
230
1
100
AcDbText
  0
LINE
  5
136
100
AcDbEntity
  8
0
  6
ByLayer
 62
  256
370
   -1
100
AcDbLine
 10
97.02448579354544
 20
32.46006338480324
 11
97.47059429074397
 21
32.23756189541593
  0
LINE
  5
137
100
AcDbEntity
  8
0
  6
ByLayer
 62
  256
370
   -1
100
AcDbLine
 10
97.47059429074397
 20
32.23756189541593
 11
96.72206139781845
 21
32.05826019683794
  0
LINE
  5
138
100
AcDbEntity
  8
0
  6
ByLayer
 62
  256
370
   -1
100
AcDbLine
 10
96.72206139781845
 20
32.05826019683794
 11
97.47551114133277
 21
31.75072968928107
  0
LINE
  5
139
100
AcDbEntity
  8
0
  6
ByLayer
 62
  256
370
   -1
100
AcDbLine
 10
97.47551114133277
 20
31.75072968928107
 11
96.72206139781845
 21
31.59696443550263
  0
LINE
  5
13A
100
AcDbEntity
  8
0
  6
ByLayer
 62
  256
370
   -1
100
AcDbLine
 10
96.72206139781845
 20
31.59696443550263
 11
97.47551114133277
 21
31.27405740256793
  0
LINE
  5
13B
100
AcDbEntity
  8
0
  6
ByLayer
 62
  256
370
   -1
100
AcDbLine
 10
97.47551114133277
 20
31.27405740256793
 11
96.70668487244062
 21
31.07416257265596
  0
LINE
  5
13C
100
AcDbEntity
  8
0
  6
ByLayer
 62
  256
370
   -1
100
AcDbLine
 10
96.70668487244062
 20
31.07416257265596
 11
97.02959190537533
 21
30.874267742744
  0
LINE
  5
13D
100
AcDbEntity
  8
0
  6
ByLayer
 62
  256
370
   -1
100
AcDbLine
 10
97.02959190537533
 20
58.54787285390741
 11
97.02959190537533
 21
32.4575166557132
  0
LINE
  5
13E
100
AcDbEntity
  8
0
  6
ByLayer
 62
  256
370
   -1
100
AcDbLine
 10
97.02959190537533
 20
30.874267742744
 11
97.02959190537533
 21
25.67144537684345
  0
TEXT
  5
13F
100
AcDbEntity
  8
0
  6
ByLayer
 62
  256
370
   -1
100
AcDbText
 10
94.87315309286524
 20
31.46075883516698
 30
0
 40
0.5
  1
NGR
 50
0
 41
1
 51
0
  7
courier
 71
    0
 72
    1
 11
94.87315309286524
 21
31.46075883516698
 31
0
210
0
220
0
230
1
100
AcDbText
  0
LINE
  5
140
100
AcDbEntity
  8
0
  6
ByLayer
 62
  256
370
   -1
100
AcDbLine
 10
97.95977441451215
 20
25.67144537684345
 11
96.0994093962385
 21
25.67144537684345
  0
LINE
  5
141
100
AcDbEntity
  8
0
  6
ByLayer
 62
  256
370
   -1
100
AcDbLine
 10
97.7107509532612
 20
25.24012408968013
 11
96.34843285748947
 21
25.24012408968013
  0
LINE
  5
142
100
AcDbEntity
  8
0
  6
ByLayer
 62
  256
370
   -1
100
AcDbLine
 10
97.46172749201024
 20
24.80880280251681
 11
96.59745631874043
 21
24.80880280251681
  0
LINE
  5
143
100
AcDbEntity
  8
0
  6
ByLayer
 62
  256
370
   -1
100
AcDbLine
 10
97.21270403075928
 20
24.37748151535348
 11
96.84647977999138
 21
24.37748151535348
  0
TEXT
  5
144
100
AcDbEntity
  8
0
  6
ByLayer
 62
  256
370
   -1
100
AcDbText
 10
121.1720130364338
 20
60.16999656747885
 30
0
 40
0.5
  1
2000/1A CLASS X
 50
0
 41
1
 51
0
  7
courier
 71
    0
 72
    1
 11
121.1720130364338
 21
60.16999656747885
 31
0
210
0
220
0
230
1
100
AcDbText
  0
TEXT
  5
145
100
AcDbEntity
  8
0
  6
ByLayer
 62
  256
370
   -1
100
AcDbText
 10
90.64572410330743
 20
36.66566734184629
 30
0
 40
0.5
  1
2000/1A CLASS X
 50
0
 41
1
 51
0
  7
courier
 71
    0
 72
    1
 11
90.64572410330743
 21
36.66566734184629
 31
0
210
0
220
0
230
1
100
AcDbText
  0
TEXT
  5
146
100
AcDbEntity
  8
0
  6
ByLayer
 62
  256
370
   -1
100
AcDbText
 10
90.06227085965941
 20
44.12090323290444
 30
0
 40
0.5
  1
2000/1A CLASS 5P10
 50
0
 41
1
 51
0
  7
courier
 71
    0
 72
    1
 11
90.06227085965941
 21
44.12090323290444
 31
0
210
0
220
0
230
1
100
AcDbText
  0
LINE
  5
147
100
AcDbEntity
  8
0
  6
ByLayer
 62
  256
370
   -1
100
AcDbLine
 10
94.1263651379804
 20
54.37044425988317
 11
94.95453589543466
 21
54.37044425988317
  0
LINE
  5
148
100
AcDbEntity
  8
0
  6
ByLayer
 62
  256
370
   -1
100
AcDbLine
 10
94.95453589543466
 20
58.54787285390741
 11
94.95453589543466
 21
54.37044425988317
  0
CIRCLE
  5
149
100
AcDbEntity
  8
0
  6
ByLayer
 62
  256
370
   -1
100
AcDbCircle
 10
94.95453589543466
 20
56.45915855689529
 40
0.2708842229242035
  0
LINE
  5
14A
100
AcDbEntity
  8
0
  6
ByLayer
 62
  256
370
   -1
100
AcDbLine
 10
116.2104246476122
 20
60.60974733776327
 11
134.1178499974059
 21
23.79308263259302
  0
LINE
  5
14B
100
AcDbEntity
  8
0
  6
ByLayer
 62
  256
370
   -1
100
AcDbLine
 10
132.239448736938
 20
62.23769509683542
 11
118.2140526587779
 21
24.16876288468659
  0
ARC
  5
14C
100
AcDbEntity
  8
0
  6
ByLayer
 62
  256
370
   -1
100
AcDbCircle
 10
181.2439159724398
 20
58.40801768018839
 40
0.8922908620341601
100
AcDbArc
 50
9.017562232333178
 51
170.9824377676669
  0
ARC
  5
14D
100
AcDbEntity
  8
0
  6
ByLayer
 62
  256
370
   -1
100
AcDbCircle
 10
183.0064408804665
 20
58.40801768018839
 40
0.8922908620341601
100
AcDbArc
 50
9.017562232333178
 51
170.9824377676669
  0
ARC
  5
14E
100
AcDbEntity
  8
0
  6
ByLayer
 62
  256
370
   -1
100
AcDbCircle
 10
184.7689657884933
 20
58.40801768018839
 40
0.8922908620341601
100
AcDbArc
 50
9.017562232333178
 51
170.9824377676669
  0
ARC
  5
14F
100
AcDbEntity
  8
0
  6
ByLayer
 62
  256
370
   -1
100
AcDbCircle
 10
181.2439159724398
 20
56.31930338317627
 40
0.8922908620341601
100
AcDbArc
 50
9.017562232333178
 51
170.9824377676669
  0
ARC
  5
150
100
AcDbEntity
  8
0
  6
ByLayer
 62
  256
370
   -1
100
AcDbCircle
 10
183.0064408804665
 20
56.31930338317627
 40
0.8922908620341601
100
AcDbArc
 50
9.017562232333178
 51
170.9824377676669
  0
ARC
  5
151
100
AcDbEntity
  8
0
  6
ByLayer
 62
  256
370
   -1
100
AcDbCircle
 10
184.7689657884933
 20
56.31930338317627
 40
0.8922908620341601
100
AcDbArc
 50
9.017562232333178
 51
170.9824377676669
  0
ARC
  5
152
100
AcDbEntity
  8
0
  6
ByLayer
 62
  256
370
   -1
100
AcDbCircle
 10
181.2439159724398
 20
54.23058908616415
 40
0.8922908620341601
100
AcDbArc
 50
9.017562232333178
 51
170.9824377676669
  0
ARC
  5
153
100
AcDbEntity
  8
0
  6
ByLayer
 62
  256
370
   -1
100
AcDbCircle
 10
183.0064408804665
 20
54.23058908616415
 40
0.8922908620341601
100
AcDbArc
 50
9.017562232333178
 51
170.9824377676669
  0
ARC
  5
154
100
AcDbEntity
  8
0
  6
ByLayer
 62
  256
370
   -1
100
AcDbCircle
 10
184.7689657884933
 20
54.23058908616415
 40
0.8922908620341601
100
AcDbArc
 50
9.017562232333178
 51
170.9824377676669
  0
LINE
  5
155
100
AcDbEntity
  8
0
  6
ByLayer
 62
  256
370
   -1
100
AcDbLine
 10
180.3626535184264
 20
58.54787285390741
 11
179.1074473707453
 21
58.54787285390741
  0
LINE
  5
156
100
AcDbEntity
  8
0
  6
ByLayer
 62
  256
370
   -1
100
AcDbLine
 10
180.3626535184264
 20
56.45915855689529
 11
179.1074473707453
 21
56.45915855689529
  0
LINE
  5
157
100
AcDbEntity
  8
0
  6
ByLayer
 62
  256
370
   -1
100
AcDbLine
 10
180.3626535184264
 20
54.37044425988317
 11
179.1074473707453
 21
54.37044425988317
  0
CIRCLE
  5
158
100
AcDbEntity
  8
0
  6
ByLayer
 62
  256
370
   -1
100
AcDbCircle
 10
179.1074473707453
 20
54.37044425988317
 40
0.2708842229242035
  0
CIRCLE
  5
159
100
AcDbEntity
  8
0
  6
ByLayer
 62
  256
370
   -1
100
AcDbCircle
 10
179.1074473707453
 20
56.4591585568953
 40
0.2708842229242035
  0
ARC
  5
15A
100
AcDbEntity
  8
0
  6
ByLayer
 62
  256
370
   -1
100
AcDbCircle
 10
171.7979083332835
 20
58.40801768018839
 40
0.8922908620341601
100
AcDbArc
 50
9.017562232333178
 51
170.9824377676669
  0
ARC
  5
15B
100
AcDbEntity
  8
0
  6
ByLayer
 62
  256
370
   -1
100
AcDbCircle
 10
173.5604332413102
 20
58.40801768018839
 40
0.8922908620341601
100
AcDbArc
 50
9.017562232333178
 51
170.9824377676669
  0
ARC
  5
15C
100
AcDbEntity
  8
0
  6
ByLayer
 62
  256
370
   -1
100
AcDbCircle
 10
175.322958149337
 20
58.40801768018839
 40
0.8922908620341601
100
AcDbArc
 50
9.017562232333178
 51
170.9824377676669
  0
ARC
  5
15D
100
AcDbEntity
  8
0
  6
ByLayer
 62
  256
370
   -1
100
AcDbCircle
 10
171.7979083332835
 20
56.31930338317627
 40
0.8922908620341601
100
AcDbArc
 50
9.017562232333178
 51
170.9824377676669
  0
ARC
  5
15E
100
AcDbEntity
  8
0
  6
ByLayer
 62
  256
370
   -1
100
AcDbCircle
 10
173.5604332413102
 20
56.31930338317627
 40
0.8922908620341601
100
AcDbArc
 50
9.017562232333178
 51
170.9824377676669
  0
ARC
  5
15F
100
AcDbEntity
  8
0
  6
ByLayer
 62
  256
370
   -1
100
AcDbCircle
 10
175.322958149337
 20
56.31930338317627
 40
0.8922908620341601
100
AcDbArc
 50
9.017562232333178
 51
170.9824377676669
  0
ARC
  5
160
100
AcDbEntity
  8
0
  6
ByLayer
 62
  256
370
   -1
100
AcDbCircle
 10
171.7979083332835
 20
54.23058908616415
 40
0.8922908620341601
100
AcDbArc
 50
9.017562232333178
 51
170.9824377676669
  0
ARC
  5
161
100
AcDbEntity
  8
0
  6
ByLayer
 62
  256
370
   -1
100
AcDbCircle
 10
173.5604332413102
 20
54.23058908616415
 40
0.8922908620341601
100
AcDbArc
 50
9.017562232333178
 51
170.9824377676669
  0
ARC
  5
162
100
AcDbEntity
  8
0
  6
ByLayer
 62
  256
370
   -1
100
AcDbCircle
 10
175.322958149337
 20
54.23058908616415
 40
0.8922908620341601
100
AcDbArc
 50
9.017562232333178
 51
170.9824377676669
  0
LINE
  5
163
100
AcDbEntity
  8
0
  6
ByLayer
 62
  256
370
   -1
100
AcDbLine
 10
176.2042206033504
 20
58.54787285390741
 11
177.0323913608047
 21
58.54787285390741
  0
LINE
  5
164
100
AcDbEntity
  8
0
  6
ByLayer
 62
  256
370
   -1
100
AcDbLine
 10
176.2042206033504
 20
56.45915855689529
 11
177.0323913608047
 21
56.45915855689529
  0
MTEXT
  5
165
100
AcDbEntity
  8
0
  6
ByLayer
 62
  256
370
   -1
100
AcDbMText
 10
178.4604447615188
 20
64.65638888239631
 30
0
 40
0.5
 41
6.805555555555555
 71
    5
 72
    1
  1
75MVA \P66/22KV\PTRANSFORMER
  7
courier
210
0
220
0
230
1
 50
0
 73
    2
 44
1
  0
LINE
  5
166
100
AcDbEntity
  8
0
  6
ByLayer
 62
  256
370
   -1
100
AcDbLine
 10
170.9166458792701
 20
58.54787285390741
 11
160.3192163855626
 21
58.54787285390741
  0
LINE
  5
167
100
AcDbEntity
  8
0
  6
ByLayer
 62
  256
370
   -1
100
AcDbLine
 10
170.9166458792701
 20
56.45915855689529
 11
160.3192163855626
 21
56.4591585568953
  0
LINE
  5
168
100
AcDbEntity
  8
0
  6
ByLayer
 62
  256
370
   -1
100
AcDbLine
 10
170.9166458792701
 20
54.37044425988317
 11
160.3192163855626
 21
54.37044425988317
  0
LWPOLYLINE
  5
169
100
AcDbEntity
  8
0
  6
CENTERTINY
 62
  256
370
   -1
100
AcDbPolyline
 90
    5
 70
    1
 43
0
 10
168.5359703114663
 20
61.79262880153398
 10
186.8417143096953
 20
61.79262880153398
 10
186.8417143096953
 20
51.56547605134963
 10
168.5359703114663
 20
51.56547605134963
 10
168.5359703114663
 20
51.56547605134963
  0
ARC
  5
16A
100
AcDbEntity
  8
0
  6
ByLayer
 62
  256
370
   -1
100
AcDbCircle
 10
179.0388269153284
 20
36.29106664553908
 40
0.535374517220496
100
AcDbArc
 50
99.01756223233318
 51
260.9824377676669
  0
ARC
  5
16B
100
AcDbEntity
  8
0
  6
ByLayer
 62
  256
370
   -1
100
AcDbCircle
 10
179.0388269153284
 20
37.3485815903551
 40
0.535374517220496
100
AcDbArc
 50
99.01756223233318
 51
260.9824377676669
  0
LINE
  5
16C
100
AcDbEntity
  8
0
  6
ByLayer
 62
  256
370
   -1
100
AcDbLine
 10
178.954913811097
 20
35.76230917313105
 11
179.4560672798469
 21
35.76230917313105
  0
LINE
  5
16D
100
AcDbEntity
  8
0
  6
ByLayer
 62
  256
370
   -1
100
AcDbLine
 10
178.9549138111037
 20
36.81982411794712
 11
179.4560672798537
 21
36.81982411794712
  0
LINE
  5
16E
100
AcDbEntity
  8
0
  6
ByLayer
 62
  256
370
   -1
100
AcDbLine
 10
178.9549138111105
 20
37.8773390627632
 11
179.4560672798604
 21
37.8773390627632
  0
TEXT
  5
16F
100
AcDbEntity
  8
0
  6
ByLayer
 62
  256
370
   -1
100
AcDbText
 10
200.7689518213612
 20
59.14199547444206
 30
0
 40
0.5
  1
P1
 50
0
 41
1
 51
0
  7
courier
 71
    0
 72
    1
 11
200.7689518213612
 21
59.14199547444206
 31
0
210
0
220
0
230
1
100
AcDbText
  0
TEXT
  5
170
100
AcDbEntity
  8
0
  6
ByLayer
 62
  256
370
   -1
100
AcDbText
 10
200.7689518213612
 20
57.05328117742994
 30
0
 40
0.5
  1
P1
 50
0
 41
1
 51
0
  7
courier
 71
    0
 72
    1
 11
200.7689518213612
 21
57.05328117742994
 31
0
210
0
220
0
230
1
100
AcDbText
  0
TEXT
  5
171
100
AcDbEntity
  8
0
  6
ByLayer
 62
  256
370
   -1
100
AcDbText
 10
200.7689518213612
 20
54.96456688041782
 30
0
 40
0.5
  1
P1
 50
0
 41
1
 51
0
  7
courier
 71
    0
 72
    1
 11
200.7689518213612
 21
54.96456688041782
 31
0
210
0
220
0
230
1
100
AcDbText
  0
ARC
  5
172
100
AcDbEntity
  8
0
  6
ByLayer
 62
  256
370
   -1
100
AcDbCircle
 10
203.7168023223679
 20
58.53123474593728
 40
0.535374517220496
100
AcDbArc
 50
9.017562232333178
 51
170.9824377676669
  0
ARC
  5
173
100
AcDbEntity
  8
0
  6
ByLayer
 62
  256
370
   -1
100
AcDbCircle
 10
204.7743172671839
 20
58.53123474593728
 40
0.535374517220496
100
AcDbArc
 50
9.017562232333178
 51
170.9824377676669
  0
LINE
  5
174
100
AcDbEntity
  8
0
  6
ByLayer
 62
  256
370
   -1
100
AcDbLine
 10
203.1880448499599
 20
58.61514785016869
 11
203.1880448499599
 21
58.11399438141874
  0
LINE
  5
175
100
AcDbEntity
  8
0
  6
ByLayer
 62
  256
370
   -1
100
AcDbLine
 10
204.2455597947759
 20
58.61514785016195
 11
204.2455597947759
 21
58.11399438141201
  0
ARC
  5
176
100
AcDbEntity
  8
0
  6
ByLayer
 62
  256
370
   -1
100
AcDbCircle
 10
203.7168023223679
 20
56.44252044892516
 40
0.535374517220496
100
AcDbArc
 50
9.017562232333178
 51
170.9824377676669
  0
ARC
  5
177
100
AcDbEntity
  8
0
  6
ByLayer
 62
  256
370
   -1
100
AcDbCircle
 10
204.7743172671839
 20
56.44252044892516
 40
0.535374517220496
100
AcDbArc
 50
9.017562232333178
 51
170.9824377676669
  0
LINE
  5
178
100
AcDbEntity
  8
0
  6
ByLayer
 62
  256
370
   -1
100
AcDbLine
 10
203.1880448499599
 20
56.52643355315657
 11
203.1880448499599
 21
56.02528008440662
  0
LINE
  5
179
100
AcDbEntity
  8
0
  6
ByLayer
 62
  256
370
   -1
100
AcDbLine
 10
204.2455597947759
 20
56.52643355314984
 11
204.2455597947759
 21
56.02528008439989
  0
LINE
  5
17A
100
AcDbEntity
  8
0
  6
ByLayer
 62
  256
370
   -1
100
AcDbLine
 10
205.303074739592
 20
56.52643355314311
 11
205.303074739592
 21
56.02528008439316
  0
ARC
  5
17B
100
AcDbEntity
  8
0
  6
ByLayer
 62
  256
370
   -1
100
AcDbCircle
 10
203.7168023223679
 20
54.35380615191304
 40
0.535374517220496
100
AcDbArc
 50
9.017562232333178
 51
170.9824377676669
  0
ARC
  5
17C
100
AcDbEntity
  8
0
  6
ByLayer
 62
  256
370
   -1
100
AcDbCircle
 10
204.7743172671839
 20
54.35380615191304
 40
0.535374517220496
100
AcDbArc
 50
9.017562232333178
 51
170.9824377676669
  0
LINE
  5
17D
100
AcDbEntity
  8
0
  6
ByLayer
 62
  256
370
   -1
100
AcDbLine
 10
203.1880448499599
 20
54.43771925614445
 11
203.1880448499599
 21
53.93656578739451
  0
LINE
  5
17E
100
AcDbEntity
  8
0
  6
ByLayer
 62
  256
370
   -1
100
AcDbLine
 10
204.2455597947759
 20
54.43771925613772
 11
204.2455597947759
 21
53.93656578738777
  0
LINE
  5
17F
100
AcDbEntity
  8
0
  6
ByLayer
 62
  256
370
   -1
100
AcDbLine
 10
205.303074739592
 20
54.43771925613099
 11
205.303074739592
 21
53.93656578738104
  0
LINE
  5
180
100
AcDbEntity
  8
0
  6
ByLayer
 62
  256
370
   -1
100
AcDbLine
 10
203.1880448499599
 20
58.11399438141874
 11
202.0577228867622
 21
58.11399438141874
  0
LINE
  5
181
100
AcDbEntity
  8
0
  6
ByLayer
 62
  256
370
   -1
100
AcDbLine
 10
203.1880448499599
 20
56.02528008440662
 11
202.0577228867622
 21
56.02528008440662
  0
LINE
  5
182
100
AcDbEntity
  8
0
  6
ByLayer
 62
  256
370
   -1
100
AcDbLine
 10
203.1880448499599
 20
53.93656578739451
 11
202.0577228867622
 21
53.93656578739451
  0
CIRCLE
  5
183
100
AcDbEntity
  8
0
  6
ByLayer
 62
  256
370
   -1
100
AcDbCircle
 10
202.0577228867622
 20
56.02528008440662
 40
0.1625305337545221
  0
CIRCLE
  5
184
100
AcDbEntity
  8
0
  6
ByLayer
 62
  256
370
   -1
100
AcDbCircle
 10
202.0577228867622
 20
53.93656578739451
 40
0.1625305337545221
  0
TEXT
  5
185
100
AcDbEntity
  8
0
  6
ByLayer
 62
  256
370
   -1
100
AcDbText
 10
188.5684188793236
 20
59.14199547444206
 30
0
 40
0.5
  1
L1
 50
0
 41
1
 51
0
  7
courier
 71
    0
 72
    1
 11
188.5684188793236
 21
59.14199547444206
 31
0
210
0
220
0
230
1
100
AcDbText
  0
TEXT
  5
186
100
AcDbEntity
  8
0
  6
ByLayer
 62
  256
370
   -1
100
AcDbText
 10
188.5684188793236
 20
57.05328117742994
 30
0
 40
0.5
  1
L2
 50
0
 41
1
 51
0
  7
courier
 71
    0
 72
    1
 11
188.5684188793236
 21
57.05328117742994
 31
0
210
0
220
0
230
1
100
AcDbText
  0
TEXT
  5
187
100
AcDbEntity
  8
0
  6
ByLayer
 62
  256
370
   -1
100
AcDbText
 10
188.5684188793236
 20
54.96456688041782
 30
0
 40
0.5
  1
L3
 50
0
 41
1
 51
0
  7
courier
 71
    0
 72
    1
 11
188.5684188793236
 21
54.96456688041782
 31
0
210
0
220
0
230
1
100
AcDbText
  0
LINE
  5
188
100
AcDbEntity
  8
0
  6
ByLayer
 62
  256
370
   -1
100
AcDbLine
 10
207.9296095711874
 20
56.02528008439316
 11
205.303074739592
 21
56.02528008439316
  0
LINE
  5
189
100
AcDbEntity
  8
0
  6
ByLayer
 62
  256
370
   -1
100
AcDbLine
 10
205.303074739592
 20
58.61514785015522
 11
205.303074739592
 21
58.11399438140527
  0
TEXT
  5
18A
100
AcDbEntity
  8
0
  6
ByLayer
 62
  256
370
   -1
100
AcDbText
 10
206.4361255818893
 20
59.14199547444206
 30
0
 40
0.5
  1
P2
 50
0
 41
1
 51
0
  7
courier
 71
    0
 72
    1
 11
206.4361255818893
 21
59.14199547444206
 31
0
210
0
220
0
230
1
100
AcDbText
  0
TEXT
  5
18B
100
AcDbEntity
  8
0
  6
ByLayer
 62
  256
370
   -1
100
AcDbText
 10
206.4361255818893
 20
57.05328117742994
 30
0
 40
0.5
  1
P2
 50
0
 41
1
 51
0
  7
courier
 71
    0
 72
    1
 11
206.4361255818893
 21
57.05328117742994
 31
0
210
0
220
0
230
1
100
AcDbText
  0
TEXT
  5
18C
100
AcDbEntity
  8
0
  6
ByLayer
 62
  256
370
   -1
100
AcDbText
 10
206.4361255818893
 20
54.96456688041782
 30
0
 40
0.5
  1
P2
 50
0
 41
1
 51
0
  7
courier
 71
    0
 72
    1
 11
206.4361255818893
 21
54.96456688041782
 31
0
210
0
220
0
230
1
100
AcDbText
  0
LINE
  5
18D
100
AcDbEntity
  8
0
  6
ByLayer
 62
  256
370
   -1
100
AcDbLine
 10
179.4560672798604
 20
37.8773390627632
 11
179.4560672798604
 21
38.60803525341193
  0
LINE
  5
18E
100
AcDbEntity
  8
0
  6
ByLayer
 62
  256
370
   -1
100
AcDbLine
 10
179.4560672798604
 20
38.60803525341193
 11
190.4326942746189
 21
38.60803525341193
  0
CIRCLE
  5
18F
100
AcDbEntity
  8
0
  6
ByLayer
 62
  256
370
   -1
100
AcDbCircle
 10
190.7519081686836
 20
38.60803525341193
 40
0.3192138940647123
  0
LINE
  5
190
100
AcDbEntity
  8
0
  6
ByLayer
 62
  256
370
   -1
100
AcDbLine
 10
191.2020150738636
 20
38.98889494241038
 11
190.3018012635036
 21
38.22717556441349
  0
LINE
  5
191
100
AcDbEntity
  8
0
  6
ByLayer
 62
  256
370
   -1
100
AcDbLine
 10
179.4560672798604
 20
35.76230917313104
 11
179.4560672798604
 21
35.03161298248232
  0
LINE
  5
192
100
AcDbEntity
  8
0
  6
ByLayer
 62
  256
370
   -1
100
AcDbLine
 10
179.4560672798604
 20
35.03161298248232
 11
190.4326942746189
 21
35.03161298248232
  0
CIRCLE
  5
193
100
AcDbEntity
  8
0
  6
ByLayer
 62
  256
370
   -1
100
AcDbCircle
 10
190.7519081686836
 20
35.03161298248232
 40
0.3192138940647123
  0
LINE
  5
194
100
AcDbEntity
  8
0
  6
ByLayer
 62
  256
370
   -1
100
AcDbLine
 10
191.2020150738636
 20
35.41247267148076
 11
190.3018012635036
 21
34.65075329348387
  0
LINE
  5
195
100
AcDbEntity
  8
0
  6
ByLayer
 62
  256
370
   -1
100
AcDbLine
 10
202.0577228867622
 20
58.11399438141874
 11
202.0577228867622
 21
48.77173736875273
  0
CIRCLE
  5
196
100
AcDbEntity
  8
0
  6
ByLayer
 62
  256
370
   -1
100
AcDbCircle
 10
202.0577228867622
 20
48.45252347468802
 40
0.3192138940647123
  0
LINE
  5
197
100
AcDbEntity
  8
0
  6
ByLayer
 62
  256
370
   -1
100
AcDbLine
 10
202.5078297919422
 20
48.83338316368647
 11
201.6076159815822
 21
48.07166378568958
  0
CIRCLE
  5
198
100
AcDbEntity
  8
0
  6
ByLayer
 62
  256
370
   -1
100
AcDbCircle
 10
207.9296095711874
 20
48.45252347468802
 40
0.3192138940647123
  0
LINE
  5
199
100
AcDbEntity
  8
0
  6
ByLayer
 62
  256
370
   -1
100
AcDbLine
 10
208.3797164763674
 20
48.83338316368647
 11
207.4795026660075
 21
48.07166378568958
  0
LINE
  5
19A
100
AcDbEntity
  8
0
  6
ByLayer
 62
  256
370
   -1
100
AcDbLine
 10
191.0711220627483
 20
38.60803525341193
 11
202.0577228867622
 21
38.60803525341193
  0
CIRCLE
  5
19B
100
AcDbEntity
  8
0
  6
ByLayer
 62
  256
370
   -1
100
AcDbCircle
 10
207.9296095711874
 20
39.58616574035211
 40
0.1625305337545221
  0
LINE
  5
19C
100
AcDbEntity
  8
0
  6
ByLayer
 62
  256
370
   -1
100
AcDbLine
 10
207.9296095711874
 20
37.24395799327782
 11
208.375718068386
 21
37.02145650389051
  0
LINE
  5
19D
100
AcDbEntity
  8
0
  6
ByLayer
 62
  256
370
   -1
100
AcDbLine
 10
208.375718068386
 20
37.02145650389051
 11
207.6271851754604
 21
36.84215480531252
  0
LINE
  5
19E
100
AcDbEntity
  8
0
  6
ByLayer
 62
  256
370
   -1
100
AcDbLine
 10
207.6271851754604
 20
36.84215480531252
 11
208.3806349189748
 21
36.53462429775566
  0
LINE
  5
19F
100
AcDbEntity
  8
0
  6
ByLayer
 62
  256
370
   -1
100
AcDbLine
 10
208.3806349189748
 20
36.53462429775566
 11
207.6271851754604
 21
36.38085904397722
  0
LINE
  5
1A0
100
AcDbEntity
  8
0
  6
ByLayer
 62
  256
370
   -1
100
AcDbLine
 10
207.6271851754604
 20
36.38085904397722
 11
208.3806349189748
 21
36.05795201104251
  0
LINE
  5
1A1
100
AcDbEntity
  8
0
  6
ByLayer
 62
  256
370
   -1
100
AcDbLine
 10
208.3806349189748
 20
36.05795201104251
 11
207.6118086500826
 21
35.85805718113055
  0
LINE
  5
1A2
100
AcDbEntity
  8
0
  6
ByLayer
 62
  256
370
   -1
100
AcDbLine
 10
207.6118086500826
 20
35.85805718113055
 11
207.9347156830173
 21
35.65816235121859
  0
LINE
  5
1A3
100
AcDbEntity
  8
0
  6
ByLayer
 62
  256
370
   -1
100
AcDbLine
 10
207.9347156830173
 20
35.65816235121859
 11
207.9347156830173
 21
34.42804032099112
  0
LINE
  5
1A4
100
AcDbEntity
  8
0
  6
ByLayer
 62
  256
370
   -1
100
AcDbLine
 10
207.0461327567409
 20
35.96819016733168
 11
209.5589388935326
 21
37.37068661577354
  0
LINE
  5
1A5
100
AcDbEntity
  8
0
  6
ByLayer
 62
  256
370
   -1
100
AcDbLine
 10
209.5589388935326
 20
37.37068661577354
 11
209.0110724594669
 21
37.24194446513662
  0
LINE
  5
1A6
100
AcDbEntity
  8
0
  6
ByLayer
 62
  256
370
   -1
100
AcDbLine
 10
209.5589388935326
 20
37.37068661577354
 11
209.2323683447676
 21
36.94855939860405
  0
CIRCLE
  5
1A7
100
AcDbEntity
  8
0
  6
ByLayer
 62
  256
370
   -1
100
AcDbCircle
 10
207.9347156830173
 20
33.79749459575944
 40
0.6305457252316842
  0
CIRCLE
  5
1A8
100
AcDbEntity
  8
0
  6
ByLayer
 62
  256
370
   -1
100
AcDbCircle
 10
202.0577228867622
 20
38.60803525341193
 40
0.1625305337545221
  0
LWPOLYLINE
  5
1A9
100
AcDbEntity
  8
0
  6
CENTERTINY
 62
  256
370
   -1
100
AcDbPolyline
 90
    5
 70
    1
 43
0
 10
174.2957012342038
 20
48.93871237551826
 10
182.0637508176194
 20
48.93871237551826
 10
182.0637508176194
 20
27.29914567886053
 10
174.2957012342038
 20
27.29914567886053
 10
174.2957012342038
 20
27.29914567886053
  0
LINE
  5
1AA
100
AcDbEntity
  8
0
  6
ByLayer
 62
  256
370
   -1
100
AcDbLine
 10
204.9188857790085
 20
35.03161298248232
 11
204.9188857790085
 21
39.58616574035021
  0
MTEXT
  5
1AB
100
AcDbEntity
  8
0
  6
ByLayer
 62
  256
370
   -1
100
AcDbMText
 10
204.2303266097406
 20
63.3202239726901
 30
0
 40
0.5
 41
6.166666666666666
 71
    5
 72
    1
  1
* INSTALL \PNEAR 22KV\PSWITCHGEAR
  7
courier
210
0
220
0
230
1
 50
0
 73
    2
 44
1
  0
ARC
  5
1AC
100
AcDbEntity
  8
0
  6
ByLayer
 62
  256
370
   -1
100
AcDbCircle
 10
202.0577228867622
 20
35.03161298248232
 40
0.3617519823771646
100
AcDbArc
 50
0
 51
180
  0
LINE
  5
1AD
100
AcDbEntity
  8
0
  6
ByLayer
 62
  256
370
   -1
100
AcDbLine
 10
202.4194748691461
 20
35.03161298248232
 11
204.9188857790085
 21
35.03161298248232
  0
LINE
  5
1AE
100
AcDbEntity
  8
0
  6
ByLayer
 62
  256
370
   -1
100
AcDbLine
 10
191.0711220627483
 20
35.03161298248232
 11
201.6959709043871
 21
35.03161298248231
  0
CIRCLE
  5
1AF
100
AcDbEntity
  8
0
  6
ByLayer
 62
  256
370
   -1
100
AcDbCircle
 10
207.9296095711874
 20
38.10184730767988
 40
0.1625305337545221
  0
TEXT
  5
1B0
100
AcDbEntity
  8
0
  6
ByLayer
 62
  256
370
   -1
100
AcDbText
 10
207.8607330929315
 20
33.53791991258726
 30
0
 40
0.5
  1
64
 50
0
 41
1
 51
0
  7
courier
 71
    0
 72
    1
 11
207.8607330929315
 21
33.53791991258726
 31
0
210
0
220
0
230
1
100
AcDbText
  0
MTEXT
  5
1B1
100
AcDbEntity
  8
0
  6
ByLayer
 62
  256
370
   -1
100
AcDbMText
 10
170.7667179762597
 20
48.76125581305863
 30
0
 40
0.5
 41
3
 71
    1
 72
    1
  1
NGR\PPANEL
  7
courier
210
0
220
0
230
1
 50
0
 73
    2
 44
1
  0
TEXT
  5
1B2
100
AcDbEntity
  8
0
  6
ByLayer
 62
  256
370
   -1
100
AcDbText
 10
177.9882114266156
 20
38.17129520787073
 30
0
 40
0.5
  1
P1
 50
0
 41
1
 51
0
  7
courier
 71
    0
 72
    1
 11
177.9882114266156
 21
38.17129520787073
 31
0
210
0
220
0
230
1
100
AcDbText
  0
TEXT
  5
1B3
100
AcDbEntity
  8
0
  6
ByLayer
 62
  256
370
   -1
100
AcDbText
 10
177.9882114266156
 20
34.89610404140845
 30
0
 40
0.5
  1
P2
 50
0
 41
1
 51
0
  7
courier
 71
    0
 72
    1
 11
177.9882114266156
 21
34.89610404140845
 31
0
210
0
220
0
230
1
100
AcDbText
  0
LWPOLYLINE
  5
1B4
100
AcDbEntity
  8
0
  6
CENTERTINY
 62
  256
370
   -1
100
AcDbPolyline
 90
    5
 70
    1
 43
0
 10
190.683603066094
 20
48.45654537418383
 10
222.5997747713549
 20
48.45654537418383
 10
222.5997747713549
 20
29.22142685483049
 10
190.683603066094
 20
29.22142685483049
 10
190.683603066094
 20
29.22142685483049
  0
LWPOLYLINE
  5
1B5
100
AcDbEntity
  8
0
  6
ByLayer
 62
  256
370
   -1
100
AcDbPolyline
 90
    4
 70
    1
 43
0
 10
213.8056421611476
 20
36.32565064149372
 10
214.3270629837528
 20
36.32565064149372
 10
214.3270629837528
 20
34.79614956185188
 10
213.8056421611476
 20
34.79614956185188
  0
LINE
  5
1B6
100
AcDbEntity
  8
0
  6
ByLayer
 62
  256
370
   -1
100
AcDbLine
 10
214.0663525724502
 20
36.32565064149372
 11
214.0663525724502
 21
38.10184730767988
  0
TEXT
  5
1B7
100
AcDbEntity
  8
0
  6
ByLayer
 62
  256
370
   -1
100
AcDbText
 10
217.0159959980956
 20
35.46170260545366
 30
0
 40
0.5
  1
METROSIL
 50
0
 41
1
 51
0
  7
courier
 71
    0
 72
    1
 11
217.0159959980956
 21
35.46170260545366
 31
0
210
0
220
0
230
1
100
AcDbText
  0
LINE
  5
1B8
100
AcDbEntity
  8
0
  6
ByLayer
 62
  256
370
   -1
100
AcDbLine
 10
207.9296095711874
 20
38.10184730767988
 11
214.0663525724502
 21
38.10184730767988
  0
LINE
  5
1B9
100
AcDbEntity
  8
0
  6
ByLayer
 62
  256
370
   -1
100
AcDbLine
 10
207.9347156830173
 20
33.16694887052775
 11
207.9347156830173
 21
31.35298136713565
  0
LINE
  5
1BA
100
AcDbEntity
  8
0
  6
ByLayer
 62
  256
370
   -1
100
AcDbLine
 10
202.0577228867622
 20
48.13330958062331
 11
202.0577228867623
 21
31.35298136713565
  0
CIRCLE
  5
1BB
100
AcDbEntity
  8
0
  6
ByLayer
 62
  256
370
   -1
100
AcDbCircle
 10
207.9347156830173
 20
31.35298136713565
 40
0.1625305337545221
  0
LINE
  5
1BC
100
AcDbEntity
  8
0
  6
ByLayer
 62
  256
370
   -1
100
AcDbLine
 10
214.0663525724502
 20
34.79614956185188
 11
214.0663525724502
 21
31.35298136713565
  0
LINE
  5
1BD
100
AcDbEntity
  8
0
  6
ByLayer
 62
  256
370
   -1
100
AcDbLine
 10
202.0577228867623
 20
31.35298136713565
 11
214.0663525724502
 21
31.35298136713565
  0
CIRCLE
  5
1BE
100
AcDbEntity
  8
0
  6
ByLayer
 62
  256
370
   -1
100
AcDbCircle
 10
193.2707295097509
 20
38.60803525341193
 40
0.1625305337545221
  0
LINE
  5
1BF
100
AcDbEntity
  8
0
  6
ByLayer
 62
  256
370
   -1
100
AcDbLine
 10
193.2707295097509
 20
37.47292503294437
 11
193.2707295097509
 21
38.60803525341193
  0
LINE
  5
1C0
100
AcDbEntity
  8
0
  6
ByLayer
 62
  256
370
   -1
100
AcDbLine
 10
193.828839015233
 20
37.47292503294437
 11
192.7126200042688
 21
37.47292503294437
  0
LINE
  5
1C1
100
AcDbEntity
  8
0
  6
ByLayer
 62
  256
370
   -1
100
AcDbLine
 10
193.6794249384824
 20
37.21413226064638
 11
192.8620340810194
 21
37.21413226064638
  0
LINE
  5
1C2
100
AcDbEntity
  8
0
  6
ByLayer
 62
  256
370
   -1
100
AcDbLine
 10
193.5300108617318
 20
36.95533948834839
 11
193.0114481577699
 21
36.95533948834839
  0
LINE
  5
1C3
100
AcDbEntity
  8
0
  6
ByLayer
 62
  256
370
   -1
100
AcDbLine
 10
193.3805967849812
 20
36.69654671605039
 11
193.1608622345205
 21
36.69654671605039
  0
MTEXT
  5
1C4
100
AcDbEntity
  8
0
  6
ByLayer
 62
  256
370
   -1
100
AcDbMText
 10
222.1900641518803
 20
47.95241567151273
 30
0
 40
0.5
 41
6.805555555555555
 71
    3
 72
    1
  1
TRANSFORMER\PRELAY\PPANEL
  7
courier
210
0
220
0
230
1
 50
0
 73
    2
 44
1
  0
LINE
  5
1C5
100
AcDbEntity
  8
0
  6
ByLayer
 62
  256
370
   -1
100
AcDbLine
 10
179.4560672798604
 20
45.49526830024195
 11
179.4560672798604
 21
46.22596449089068
  0
LINE
  5
1C6
100
AcDbEntity
  8
0
  6
ByLayer
 62
  256
370
   -1
100
AcDbLine
 10
179.4560672798604
 20
46.22596449089068
 11
190.4326942746189
 21
46.22596449089068
  0
CIRCLE
  5
1C7
100
AcDbEntity
  8
0
  6
ByLayer
 62
  256
370
   -1
100
AcDbCircle
 10
190.7519081686836
 20
46.22596449089068
 40
0.3192138940647123
  0
LINE
  5
1C8
100
AcDbEntity
  8
0
  6
ByLayer
 62
  256
370
   -1
100
AcDbLine
 10
191.2020150738636
 20
46.60682417988913
 11
190.3018012635036
 21
45.84510480189224
  0
LINE
  5
1C9
100
AcDbEntity
  8
0
  6
ByLayer
 62
  256
370
   -1
100
AcDbLine
 10
179.4560672798604
 20
43.3802384106098
 11
179.4560672798604
 21
42.64954221996107
  0
LINE
  5
1CA
100
AcDbEntity
  8
0
  6
ByLayer
 62
  256
370
   -1
100
AcDbLine
 10
179.4560672798604
 20
42.64954221996107
 11
190.4326942746189
 21
42.64954221996107
  0
CIRCLE
  5
1CB
100
AcDbEntity
  8
0
  6
ByLayer
 62
  256
370
   -1
100
AcDbCircle
 10
190.7519081686836
 20
42.64954221996107
 40
0.3192138940647123
  0
LINE
  5
1CC
100
AcDbEntity
  8
0
  6
ByLayer
 62
  256
370
   -1
100
AcDbLine
 10
191.2020150738636
 20
43.03040190895952
 11
190.3018012635036
 21
42.26868253096263
  0
ARC
  5
1CD
100
AcDbEntity
  8
0
  6
ByLayer
 62
  256
370
   -1
100
AcDbCircle
 10
179.0388269153284
 20
43.90899588301783
 40
0.535374517220496
100
AcDbArc
 50
99.01756223233318
 51
260.9824377676669
  0
ARC
  5
1CE
100
AcDbEntity
  8
0
  6
ByLayer
 62
  256
370
   -1
100
AcDbCircle
 10
179.0388269153284
 20
44.96651082783386
 40
0.535374517220496
100
AcDbArc
 50
99.01756223233318
 51
260.9824377676669
  0
LINE
  5
1CF
100
AcDbEntity
  8
0
  6
ByLayer
 62
  256
370
   -1
100
AcDbLine
 10
178.954913811097
 20
43.38023841060981
 11
179.4560672798469
 21
43.38023841060981
  0
LINE
  5
1D0
100
AcDbEntity
  8
0
  6
ByLayer
 62
  256
370
   -1
100
AcDbLine
 10
178.9549138111037
 20
44.43775335542588
 11
179.4560672798537
 21
44.43775335542588
  0
LINE
  5
1D1
100
AcDbEntity
  8
0
  6
ByLayer
 62
  256
370
   -1
100
AcDbLine
 10
178.9549138111105
 20
45.49526830024195
 11
179.4560672798604
 21
45.49526830024195
  0
TEXT
  5
1D2
100
AcDbEntity
  8
0
  6
ByLayer
 62
  256
370
   -1
100
AcDbText
 10
177.9882114266156
 20
45.78922444534948
 30
0
 40
0.5
  1
P1
 50
0
 41
1
 51
0
  7
courier
 71
    0
 72
    1
 11
177.9882114266156
 21
45.78922444534948
 31
0
210
0
220
0
230
1
100
AcDbText
  0
TEXT
  5
1D3
100
AcDbEntity
  8
0
  6
ByLayer
 62
  256
370
   -1
100
AcDbText
 10
177.9882114266156
 20
42.5140332788872
 30
0
 40
0.5
  1
P2
 50
0
 41
1
 51
0
  7
courier
 71
    0
 72
    1
 11
177.9882114266156
 21
42.5140332788872
 31
0
210
0
220
0
230
1
100
AcDbText
  0
CIRCLE
  5
1D4
100
AcDbEntity
  8
0
  6
ByLayer
 62
  256
370
   -1
100
AcDbCircle
 10
194.4704679164753
 20
44.58873730847406
 40
0.6305457252316842
  0
TEXT
  5
1D5
100
AcDbEntity
  8
0
  6
ByLayer
 62
  256
370
   -1
100
AcDbText
 10
194.4220610627659
 20
44.4186777026196
 30
0
 40
0.3
  1
51G
 50
0
 41
1
 51
0
  7
courier
 71
    0
 72
    1
 11
194.4220610627659
 21
44.4186777026196
 31
0
210
0
220
0
230
1
100
AcDbText
  0
LINE
  5
1D6
100
AcDbEntity
  8
0
  6
ByLayer
 62
  256
370
   -1
100
AcDbLine
 10
194.4704679164753
 20
45.21928303370574
 11
194.4704679164753
 21
46.22596449089068
  0
LINE
  5
1D7
100
AcDbEntity
  8
0
  6
ByLayer
 62
  256
370
   -1
100
AcDbLine
 10
191.0711220627483
 20
46.22596449089068
 11
194.4704679164753
 21
46.22596449089068
  0
LINE
  5
1D8
100
AcDbEntity
  8
0
  6
ByLayer
 62
  256
370
   -1
100
AcDbLine
 10
194.4704679164753
 20
43.95819158324237
 11
194.4704679164753
 21
42.64954221996106
  0
LINE
  5
1D9
100
AcDbEntity
  8
0
  6
ByLayer
 62
  256
370
   -1
100
AcDbLine
 10
191.0711220627483
 20
42.64954221996107
 11
194.4704679164753
 21
42.64954221996107
  0
CIRCLE
  5
1DA
100
AcDbEntity
  8
0
  6
ByLayer
 62
  256
370
   -1
100
AcDbCircle
 10
192.7707949896118
 20
42.64954221996107
 40
0.1625305337545221
  0
LINE
  5
1DB
100
AcDbEntity
  8
0
  6
ByLayer
 62
  256
370
   -1
100
AcDbLine
 10
192.7707949896118
 20
41.51443199949352
 11
192.7707949896118
 21
42.64954221996107
  0
LINE
  5
1DC
100
AcDbEntity
  8
0
  6
ByLayer
 62
  256
370
   -1
100
AcDbLine
 10
193.3289044950939
 20
41.51443199949352
 11
192.2126854841297
 21
41.51443199949352
  0
LINE
  5
1DD
100
AcDbEntity
  8
0
  6
ByLayer
 62
  256
370
   -1
100
AcDbLine
 10
193.1794904183433
 20
41.25563922719552
 11
192.3620995608803
 21
41.25563922719552
  0
LINE
  5
1DE
100
AcDbEntity
  8
0
  6
ByLayer
 62
  256
370
   -1
100
AcDbLine
 10
193.0300763415927
 20
40.99684645489753
 11
192.5115136376308
 21
40.99684645489753
  0
LINE
  5
1DF
100
AcDbEntity
  8
0
  6
ByLayer
 62
  256
370
   -1
100
AcDbLine
 10
192.8806622648422
 20
40.73805368259953
 11
192.6609277143814
 21
40.73805368259953
  0
LINE
  5
1E0
100
AcDbEntity
  8
0
  6
ByLayer
 62
  256
370
   -1
100
AcDbLine
 10
185.6502282425067
 20
58.54787285390741
 11
219.2157924381293
 21
58.54787285390741
  0
LINE
  5
1E1
100
AcDbEntity
  8
0
  6
ByLayer
 62
  256
370
   -1
100
AcDbLine
 10
185.6502282425067
 20
56.45915855689529
 11
219.2157924381293
 21
56.45915855689529
  0
LINE
  5
1E2
100
AcDbEntity
  8
0
  6
ByLayer
 62
  256
370
   -1
100
AcDbLine
 10
185.6502282425067
 20
54.37044425988317
 11
219.2157924381293
 21
54.37044425988317
  0
MTEXT
  5
1E3
100
AcDbEntity
  8
0
  6
ByLayer
 62
  256
370
   -1
100
AcDbMText
 10
221.0246133191022
 20
56.67965837771879
 30
0
 40
0.5
 41
6.166666666666667
 71
    4
 72
    1
  1
TO 22KV \PSWITCHGEAR
  7
courier
210
0
220
0
230
1
 50
0
 73
    2
 44
1
  0
MTEXT
  5
1E4
100
AcDbEntity
  8
0
  6
ByLayer
 62
  256
370
   -1
100
AcDbMText
 10
153.2477471045028
 20
56.67965837771879
 30
0
 40
0.5
 41
6.166666666666667
 71
    4
 72
    1
  1
TO 66KV \PSWITCHGEAR
  7
courier
210
0
220
0
230
1
 50
0
 73
    2
 44
1
  0
TEXT
  5
1E5
100
AcDbEntity
  8
0
  6
ByLayer
 62
  256
370
   -1
100
AcDbText
 10
165.5720909423402
 20
59.14199547444206
 30
0
 40
0.5
  1
L1
 50
0
 41
1
 51
0
  7
courier
 71
    0
 72
    1
 11
165.5720909423402
 21
59.14199547444206
 31
0
210
0
220
0
230
1
100
AcDbText
  0
TEXT
  5
1E6
100
AcDbEntity
  8
0
  6
ByLayer
 62
  256
370
   -1
100
AcDbText
 10
165.5720909423402
 20
57.05328117742994
 30
0
 40
0.5
  1
L2
 50
0
 41
1
 51
0
  7
courier
 71
    0
 72
    1
 11
165.5720909423402
 21
57.05328117742994
 31
0
210
0
220
0
230
1
100
AcDbText
  0
TEXT
  5
1E7
100
AcDbEntity
  8
0
  6
ByLayer
 62
  256
370
   -1
100
AcDbText
 10
165.5720909423402
 20
54.96456688041782
 30
0
 40
0.5
  1
L3
 50
0
 41
1
 51
0
  7
courier
 71
    0
 72
    1
 11
165.5720909423402
 21
54.96456688041782
 31
0
210
0
220
0
230
1
100
AcDbText
  0
LINE
  5
1E8
100
AcDbEntity
  8
0
  6
ByLayer
 62
  256
370
   -1
100
AcDbLine
 10
179.1023412589155
 20
32.46006338480324
 11
179.548449756114
 21
32.23756189541593
  0
LINE
  5
1E9
100
AcDbEntity
  8
0
  6
ByLayer
 62
  256
370
   -1
100
AcDbLine
 10
179.548449756114
 20
32.23756189541593
 11
178.7999168631885
 21
32.05826019683794
  0
LINE
  5
1EA
100
AcDbEntity
  8
0
  6
ByLayer
 62
  256
370
   -1
100
AcDbLine
 10
178.7999168631885
 20
32.05826019683794
 11
179.5533666067028
 21
31.75072968928107
  0
LINE
  5
1EB
100
AcDbEntity
  8
0
  6
ByLayer
 62
  256
370
   -1
100
AcDbLine
 10
179.5533666067028
 20
31.75072968928107
 11
178.7999168631885
 21
31.59696443550263
  0
LINE
  5
1EC
100
AcDbEntity
  8
0
  6
ByLayer
 62
  256
370
   -1
100
AcDbLine
 10
178.7999168631885
 20
31.59696443550263
 11
179.5533666067028
 21
31.27405740256793
  0
LINE
  5
1ED
100
AcDbEntity
  8
0
  6
ByLayer
 62
  256
370
   -1
100
AcDbLine
 10
179.5533666067028
 20
31.27405740256793
 11
178.7845403378107
 21
31.07416257265596
  0
LINE
  5
1EE
100
AcDbEntity
  8
0
  6
ByLayer
 62
  256
370
   -1
100
AcDbLine
 10
178.7845403378107
 20
31.07416257265596
 11
179.1074473707453
 21
30.874267742744
  0
LINE
  5
1EF
100
AcDbEntity
  8
0
  6
ByLayer
 62
  256
370
   -1
100
AcDbLine
 10
179.1074473707453
 20
58.54787285390741
 11
179.1074473707453
 21
32.4575166557132
  0
LINE
  5
1F0
100
AcDbEntity
  8
0
  6
ByLayer
 62
  256
370
   -1
100
AcDbLine
 10
179.1074473707453
 20
30.874267742744
 11
179.1074473707453
 21
25.67144537684345
  0
TEXT
  5
1F1
100
AcDbEntity
  8
0
  6
ByLayer
 62
  256
370
   -1
100
AcDbText
 10
176.9510085582353
 20
31.46075883516698
 30
0
 40
0.5
  1
NGR
 50
0
 41
1
 51
0
  7
courier
 71
    0
 72
    1
 11
176.9510085582353
 21
31.46075883516698
 31
0
210
0
220
0
230
1
100
AcDbText
  0
LINE
  5
1F2
100
AcDbEntity
  8
0
  6
ByLayer
 62
  256
370
   -1
100
AcDbLine
 10
180.0376298798822
 20
25.67144537684345
 11
178.1772648616085
 21
25.67144537684345
  0
LINE
  5
1F3
100
AcDbEntity
  8
0
  6
ByLayer
 62
  256
370
   -1
100
AcDbLine
 10
179.7886064186312
 20
25.24012408968013
 11
178.4262883228595
 21
25.24012408968013
  0
LINE
  5
1F4
100
AcDbEntity
  8
0
  6
ByLayer
 62
  256
370
   -1
100
AcDbLine
 10
179.5395829573803
 20
24.80880280251681
 11
178.6753117841104
 21
24.80880280251681
  0
LINE
  5
1F5
100
AcDbEntity
  8
0
  6
ByLayer
 62
  256
370
   -1
100
AcDbLine
 10
179.2905594961293
 20
24.37748151535348
 11
178.9243352453614
 21
24.37748151535348
  0
TEXT
  5
1F6
100
AcDbEntity
  8
0
  6
ByLayer
 62
  256
370
   -1
100
AcDbText
 10
203.2498685018038
 20
60.16999656747885
 30
0
 40
0.5
  1
2000/1A CLASS X
 50
0
 41
1
 51
0
  7
courier
 71
    0
 72
    1
 11
203.2498685018038
 21
60.16999656747885
 31
0
210
0
220
0
230
1
100
AcDbText
  0
TEXT
  5
1F7
100
AcDbEntity
  8
0
  6
ByLayer
 62
  256
370
   -1
100
AcDbText
 10
172.7235795686775
 20
36.66566734184629
 30
0
 40
0.5
  1
2000/1A CLASS X
 50
0
 41
1
 51
0
  7
courier
 71
    0
 72
    1
 11
172.7235795686775
 21
36.66566734184629
 31
0
210
0
220
0
230
1
100
AcDbText
  0
TEXT
  5
1F8
100
AcDbEntity
  8
0
  6
ByLayer
 62
  256
370
   -1
100
AcDbText
 10
172.1401263250294
 20
44.12090323290444
 30
0
 40
0.5
  1
2000/1A CLASS 5P10
 50
0
 41
1
 51
0
  7
courier
 71
    0
 72
    1
 11
172.1401263250294
 21
44.12090323290444
 31
0
210
0
220
0
230
1
100
AcDbText
  0
LINE
  5
1F9
100
AcDbEntity
  8
0
  6
ByLayer
 62
  256
370
   -1
100
AcDbLine
 10
176.2042206033504
 20
54.37044425988317
 11
177.0323913608047
 21
54.37044425988317
  0
LINE
  5
1FA
100
AcDbEntity
  8
0
  6
ByLayer
 62
  256
370
   -1
100
AcDbLine
 10
177.0323913608047
 20
58.54787285390741
 11
177.0323913608047
 21
54.37044425988317
  0
CIRCLE
  5
1FB
100
AcDbEntity
  8
0
  6
ByLayer
 62
  256
370
   -1
100
AcDbCircle
 10
177.0323913608047
 20
56.45915855689529
 40
0.2708842229242035
  0
LWPOLYLINE
  5
1FC
100
AcDbEntity
  8
0
  6
ByLayer
 62
  256
370
   -1
100
AcDbPolyline
 90
    4
 70
    1
 43
0
 10
68.5825011153342
 20
71.0155831948139
 10
148.1138715883271
 20
71.0155831948139
 10
148.1138715883271
 20
19.16052137590268
 10
68.5825011153342
 20
19.16052137590268
  0
LWPOLYLINE
  5
1FD
100
AcDbEntity
  8
0
  6
ByLayer
 62
  256
370
   -1
100
AcDbPolyline
 90
    4
 70
    1
 43
0
 10
151.3461829619407
 20
71.0155831948139
 10
230.8775534349336
 20
71.0155831948139
 10
230.8775534349336
 20
19.16052137590268
 10
151.3461829619407
 20
19.16052137590268
  0
LINE
  5
1FE
100
AcDbEntity
  8
0
  6
ByLayer
 62
  256
370
   -1
100
AcDbLine
 10
204.9188857790085
 20
39.58616574035021
 11
207.9296095711874
 21
39.58616574035211
  0
LINE
  5
1FF
100
AcDbEntity
  8
0
  6
ByLayer
 62
  256
370
   -1
100
AcDbLine
 10
207.9296095711874
 20
48.13330958064338
 11
207.9296095711874
 21
37.24395799327782
  0
LINE
  5
200
100
AcDbEntity
  8
0
  6
ByLayer
 62
  256
370
   -1
100
AcDbLine
 10
207.9296095711875
 20
58.11399438140528
 11
207.9296095711874
 21
48.77173736875273
  0
LINE
  5
201
100
AcDbEntity
  8
0
  6
ByLayer
 62
  256
370
   -1
100
AcDbLine
 10
205.303074739592
 20
58.11399438140527
 11
207.9296095711875
 21
58.11399438140528
  0
LINE
  5
202
100
AcDbEntity
  8
0
  6
ByLayer
 62
  256
370
   -1
100
AcDbLine
 10
207.9296095711874
 20
53.93656578738104
 11
205.303074739592
 21
53.93656578738104
  0
LWPOLYLINE
  5
203
100
AcDbEntity
  8
0
  6
CENTERTINY
 62
  256
370
   -1
100
AcDbPolyline
 90
    5
 70
    1
 43
0
 10
205.8608773076912
 20
34.92023349193407
 10
209.9862293508315
 20
34.92023349193407
 10
209.9862293508315
 20
32.62514327075039
 10
205.8608773076912
 20
32.62514327075039
 10
205.8608773076912
 20
32.62514327075039
  0
TEXT
  5
204
100
AcDbEntity
  8
0
  6
ByLayer
 62
  256
370
   -1
100
AcDbText
 10
211.3026511160117
 20
34.36102804196787
 30
0
 40
0.5
  1
P14N
 50
0
 41
1
 51
0
  7
courier
 71
    0
 72
    1
 11
211.3026511160117
 21
34.36102804196787
 31
0
210
0
220
0
230
1
100
AcDbText
  0
CIRCLE
  5
205
100
AcDbEntity
  8
0
  6
ByLayer
 62
  256
370
   -1
100
AcDbCircle
 10
207.9296095711874
 20
56.02528008439316
 40
0.1625305337545221
  0
CIRCLE
  5
206
100
AcDbEntity
  8
0
  6
ByLayer
 62
  256
370
   -1
100
AcDbCircle
 10
207.9296095711874
 20
53.93656578738105
 40
0.1625305337545221
  0
LINE
  5
207
100
AcDbEntity
  8
0
  6
ByLayer
 62
  256
370
   -1
100
AcDbLine
 10
215.5176078780642
 20
58.79689598782115
 11
214.3459306029446
 21
53.32906870392956
  0
LINE
  5
208
100
AcDbEntity
  8
0
  6
ByLayer
 62
  256
370
   -1
100
AcDbLine
 10
214.3459306029446
 20
53.32906870392956
 11
216.7958012691038
 21
53.57760630774282
  0
LINE
  5
209
100
AcDbEntity
  8
0
  6
ByLayer
 62
  256
370
   -1
100
AcDbLine
 10
216.7958012691038
 20
53.57760630774282
 11
213.8843607672914
 21
50.52414431803713
  0
LINE
  5
20A
100
AcDbEntity
  8
0
  6
ByLayer
 62
  256
370
   -1
100
AcDbLine
 10
213.8843607672914
 20
50.52414431803713
 11
214.168403743078
 21
52.01536994091665
  0
LINE
  5
20B
100
AcDbEntity
  8
0
  6
ByLayer
 62
  256
370
   -1
100
AcDbLine
 10
213.8843607672914
 20
50.52414431803713
 11
215.7306401099042
 21
51.12773564158361
  0
LINE
  5
20C
100
AcDbEntity
  8
0
  6
ByLayer
 62
  256
370
   -1
100
AcDbLine
 10
203.3266986366012
 20
51.2491832805807
 11
203.3266986366012
 21
43.801024608029
  0
LINE
  5
20D
100
AcDbEntity
  8
0
  6
ByLayer
 62
  256
370
   -1
100
AcDbLine
 10
203.3266986366012
 20
43.801024608029
 11
202.7176767757898
 21
45.01768571451463
  0
LINE
  5
20E
100
AcDbEntity
  8
0
  6
ByLayer
 62
  256
370
   -1
100
AcDbLine
 10
203.3266986366012
 20
43.801024608029
 11
203.9286291522539
 21
45.03893049304909
  0
LINE
  5
20F
100
AcDbEntity
  8
0
  6
ByLayer
 62
  256
370
   -1
100
AcDbLine
 10
189.5127664970192
 20
22.11478122911318
 11
180.3891796222281
 21
21.81727296145695
  0
LINE
  5
210
100
AcDbEntity
  8
0
  6
ByLayer
 62
  256
370
   -1
100
AcDbLine
 10
180.3891796222281
 20
21.81727296145695
 11
176.5215721426971
 21
23.40398372229018
  0
LINE
  5
211
100
AcDbEntity
  8
0
  6
ByLayer
 62
  256
370
   -1
100
AcDbLine
 10
176.5215721426971
 20
23.40398372229018
 11
172.3564563955099
 21
27.46993004692534
  0
LINE
  5
212
100
AcDbEntity
  8
0
  6
ByLayer
 62
  256
370
   -1
100
AcDbLine
 10
172.3564563955099
 20
27.46993004692534
 11
172.1581175504057
 21
41.75032689442443
  0
LINE
  5
213
100
AcDbEntity
  8
0
  6
ByLayer
 62
  256
370
   -1
100
AcDbLine
 10
172.1581175504057
 20
41.75032689442443
 11
170.5979368597853
 21
39.63805976429099
  0
LINE
  5
214
100
AcDbEntity
  8
0
  6
ByLayer
 62
  256
370
   -1
100
AcDbLine
 10
172.1581175504057
 20
41.75032689442443
 11
173.5610003761882
 21
39.62736766415667
  0
LINE
  5
215
100
AcDbEntity
  8
0
  6
ByLayer
 62
  256
370
   -1
100
AcDbLine
 10
183.3497408702376
 20
35.71840420516249
 11
200.7118677651924
 21
35.71840420516249
  0
LINE
  5
216
100
AcDbEntity
  8
0
  6
ByLayer
 62
  256
370
   -1
100
AcDbLine
 10
200.7118677651924
 20
35.71840420516249
 11
203.090727687405
 21
35.8959310650291
  0
LINE
  5
217
100
AcDbEntity
  8
0
  6
ByLayer
 62
  256
370
   -1
100
AcDbLine
 10
203.090727687405
 20
35.8959310650291
 11
204.1203834746314
 21
36.49952238857558
  0
LINE
  5
218
100
AcDbEntity
  8
0
  6
ByLayer
 62
  256
370
   -1
100
AcDbLine
 10
204.1203834746314
 20
36.49952238857558
 11
204.3689210784446
 21
37.24513520001535
  0
LINE
  5
219
100
AcDbEntity
  8
0
  6
ByLayer
 62
  256
370
   -1
100
AcDbLine
 10
204.3689210784446
 20
37.24513520001535
 11
204.4754371943646
 21
38.31029635921503
  0
LINE
  5
21A
100
AcDbEntity
  8
0
  6
ByLayer
 62
  256
370
   -1
100
AcDbLine
 10
204.4754371943646
 20
38.31029635921503
 11
204.4754371943646
 21
39.48197363433468
  0
LINE
  5
21B
100
AcDbEntity
  8
0
  6
ByLayer
 62
  256
370
   -1
100
AcDbLine
 10
204.4754371943646
 20
39.48197363433468
 11
204.5109425663379
 21
40.12107032985448
  0
LINE
  5
21C
100
AcDbEntity
  8
0
  6
ByLayer
 62
  256
370
   -1
100
AcDbLine
 10
204.5109425663379
 20
40.12107032985448
 11
205.292060749751
 21
40.79567239734761
  0
LINE
  5
21D
100
AcDbEntity
  8
0
  6
ByLayer
 62
  256
370
   -1
100
AcDbLine
 10
205.292060749751
 20
40.79567239734761
 11
206.9253078605238
 21
40.79567239734761
  0
LINE
  5
21E
100
AcDbEntity
  8
0
  6
ByLayer
 62
  256
370
   -1
100
AcDbLine
 10
206.9253078605238
 20
40.79567239734761
 11
206.179695049084
 21
41.29274760497412
  0
LINE
  5
21F
100
AcDbEntity
  8
0
  6
ByLayer
 62
  256
370
   -1
100
AcDbLine
 10
206.9253078605238
 20
40.79567239734761
 11
206.2230652339773
 21
40.34383443693447
  0
LINE
  5
220
100
AcDbEntity
  8
0
  6
ByLayer
 62
  256
370
   -1
100
AcDbLine
 10
210.3927779169368
 20
39.01083080779023
 11
210.3927779169368
 21
36.57114417522874
  0
LINE
  5
221
100
AcDbEntity
  8
0
  6
ByLayer
 62
  256
370
   -1
100
AcDbLine
 10
210.3927779169368
 20
36.57114417522874
 11
210.095005580965
 21
37.20311945276582
  0
LINE
  5
222
100
AcDbEntity
  8
0
  6
ByLayer
 62
  256
370
   -1
100
AcDbLine
 10
210.3927779169368
 20
36.57114417522874
 11
210.7225286782946
 21
37.1715635883203
  0
TEXT
  5
223
100
AcDbEntity
  8
0
  6
ByLayer
 62
  256
370
   -1
100
AcDbText
 10
206.5781859068116
 20
22.16174032359512
 30
0
 40
1
  1
FAULT OUTSIDE ZONE
 50
0
 41
1
 51
0
  7
courier
 71
    0
 72
    1
 11
206.5781859068116
 21
22.16174032359512
 31
0
210
0
220
0
230
1
100
AcDbText
  0
LWPOLYLINE
  5
224
100
AcDbEntity
  8
0
  6
ByLayer
 62
  256
370
   -1
100
AcDbPolyline
 90
    4
 70
    1
 43
0
 10
193.9250556067304
 20
25.31458399929629
 10
219.6231939090463
 20
25.31458399929629
 10
219.6231939090463
 20
19.86811289641739
 10
193.9250556067304
 20
19.86811289641739
  0
LINE
  5
225
100
AcDbEntity
  8
0
  6
ByLayer
 62
  256
370
   -1
100
AcDbLine
 10
209.1600540697582
 20
41.56345654924576
 11
209.1912813098403
 21
51.13779829300179
  0
LINE
  5
226
100
AcDbEntity
  8
0
  6
ByLayer
 62
  256
370
   -1
100
AcDbLine
 10
209.1912813098403
 20
51.13779829300179
 11
208.6291909883629
 21
50.23220833062152
  0
LINE
  5
227
100
AcDbEntity
  8
0
  6
ByLayer
 62
  256
370
   -1
100
AcDbLine
 10
209.1912813098403
 20
51.13779829300182
 11
209.8158261114818
 21
50.20098109053945
  0
TEXT
  5
228
100
AcDbEntity
  8
0
  6
ByLayer
 62
  256
370
   -1
100
AcDbText
 10
212.0031984939405
 20
38.62951292148296
 30
0
 40
0.5
  1
I = 0
 50
0
 41
1
 51
0
  7
courier
 71
    0
 72
    1
 11
212.0031984939405
 21
38.62951292148296
 31
0
210
0
220
0
230
1
100
AcDbText
  0
ARC
  5
229
100
AcDbEntity
  8
0
  6
ByLayer
 62
  256
370
   -1
100
AcDbCircle
 10
264.0075978190463
 20
58.40801768018839
 40
0.8922908620341601
100
AcDbArc
 50
9.017562232333178
 51
170.9824377676669
  0
ARC
  5
22A
100
AcDbEntity
  8
0
  6
ByLayer
 62
  256
370
   -1
100
AcDbCircle
 10
265.770122727073
 20
58.40801768018839
 40
0.8922908620341601
100
AcDbArc
 50
9.017562232333178
 51
170.9824377676669
  0
ARC
  5
22B
100
AcDbEntity
  8
0
  6
ByLayer
 62
  256
370
   -1
100
AcDbCircle
 10
267.5326476350998
 20
58.40801768018839
 40
0.8922908620341601
100
AcDbArc
 50
9.017562232333178
 51
170.9824377676669
  0
ARC
  5
22C
100
AcDbEntity
  8
0
  6
ByLayer
 62
  256
370
   -1
100
AcDbCircle
 10
264.0075978190463
 20
56.31930338317627
 40
0.8922908620341601
100
AcDbArc
 50
9.017562232333178
 51
170.9824377676669
  0
ARC
  5
22D
100
AcDbEntity
  8
0
  6
ByLayer
 62
  256
370
   -1
100
AcDbCircle
 10
265.770122727073
 20
56.31930338317627
 40
0.8922908620341601
100
AcDbArc
 50
9.017562232333178
 51
170.9824377676669
  0
ARC
  5
22E
100
AcDbEntity
  8
0
  6
ByLayer
 62
  256
370
   -1
100
AcDbCircle
 10
267.5326476350998
 20
56.31930338317627
 40
0.8922908620341601
100
AcDbArc
 50
9.017562232333178
 51
170.9824377676669
  0
ARC
  5
22F
100
AcDbEntity
  8
0
  6
ByLayer
 62
  256
370
   -1
100
AcDbCircle
 10
264.0075978190463
 20
54.23058908616415
 40
0.8922908620341601
100
AcDbArc
 50
9.017562232333178
 51
170.9824377676669
  0
ARC
  5
230
100
AcDbEntity
  8
0
  6
ByLayer
 62
  256
370
   -1
100
AcDbCircle
 10
265.770122727073
 20
54.23058908616415
 40
0.8922908620341601
100
AcDbArc
 50
9.017562232333178
 51
170.9824377676669
  0
ARC
  5
231
100
AcDbEntity
  8
0
  6
ByLayer
 62
  256
370
   -1
100
AcDbCircle
 10
267.5326476350998
 20
54.23058908616415
 40
0.8922908620341601
100
AcDbArc
 50
9.017562232333178
 51
170.9824377676669
  0
LINE
  5
232
100
AcDbEntity
  8
0
  6
ByLayer
 62
  256
370
   -1
100
AcDbLine
 10
263.1263353650329
 20
58.54787285390741
 11
261.8711292173518
 21
58.54787285390741
  0
LINE
  5
233
100
AcDbEntity
  8
0
  6
ByLayer
 62
  256
370
   -1
100
AcDbLine
 10
263.1263353650329
 20
56.45915855689529
 11
261.8711292173518
 21
56.45915855689529
  0
LINE
  5
234
100
AcDbEntity
  8
0
  6
ByLayer
 62
  256
370
   -1
100
AcDbLine
 10
263.1263353650329
 20
54.37044425988317
 11
261.8711292173518
 21
54.37044425988317
  0
CIRCLE
  5
235
100
AcDbEntity
  8
0
  6
ByLayer
 62
  256
370
   -1
100
AcDbCircle
 10
261.8711292173518
 20
54.37044425988317
 40
0.2708842229242035
  0
CIRCLE
  5
236
100
AcDbEntity
  8
0
  6
ByLayer
 62
  256
370
   -1
100
AcDbCircle
 10
261.8711292173518
 20
56.4591585568953
 40
0.2708842229242035
  0
ARC
  5
237
100
AcDbEntity
  8
0
  6
ByLayer
 62
  256
370
   -1
100
AcDbCircle
 10
254.56159017989
 20
58.40801768018839
 40
0.8922908620341601
100
AcDbArc
 50
9.017562232333178
 51
170.9824377676669
  0
ARC
  5
238
100
AcDbEntity
  8
0
  6
ByLayer
 62
  256
370
   -1
100
AcDbCircle
 10
256.3241150879167
 20
58.40801768018839
 40
0.8922908620341601
100
AcDbArc
 50
9.017562232333178
 51
170.9824377676669
  0
ARC
  5
239
100
AcDbEntity
  8
0
  6
ByLayer
 62
  256
370
   -1
100
AcDbCircle
 10
258.0866399959435
 20
58.40801768018839
 40
0.8922908620341601
100
AcDbArc
 50
9.017562232333178
 51
170.9824377676669
  0
ARC
  5
23A
100
AcDbEntity
  8
0
  6
ByLayer
 62
  256
370
   -1
100
AcDbCircle
 10
254.56159017989
 20
56.31930338317627
 40
0.8922908620341601
100
AcDbArc
 50
9.017562232333178
 51
170.9824377676669
  0
ARC
  5
23B
100
AcDbEntity
  8
0
  6
ByLayer
 62
  256
370
   -1
100
AcDbCircle
 10
256.3241150879167
 20
56.31930338317627
 40
0.8922908620341601
100
AcDbArc
 50
9.017562232333178
 51
170.9824377676669
  0
ARC
  5
23C
100
AcDbEntity
  8
0
  6
ByLayer
 62
  256
370
   -1
100
AcDbCircle
 10
258.0866399959435
 20
56.31930338317627
 40
0.8922908620341601
100
AcDbArc
 50
9.017562232333178
 51
170.9824377676669
  0
ARC
  5
23D
100
AcDbEntity
  8
0
  6
ByLayer
 62
  256
370
   -1
100
AcDbCircle
 10
254.56159017989
 20
54.23058908616415
 40
0.8922908620341601
100
AcDbArc
 50
9.017562232333178
 51
170.9824377676669
  0
ARC
  5
23E
100
AcDbEntity
  8
0
  6
ByLayer
 62
  256
370
   -1
100
AcDbCircle
 10
256.3241150879167
 20
54.23058908616415
 40
0.8922908620341601
100
AcDbArc
 50
9.017562232333178
 51
170.9824377676669
  0
ARC
  5
23F
100
AcDbEntity
  8
0
  6
ByLayer
 62
  256
370
   -1
100
AcDbCircle
 10
258.0866399959435
 20
54.23058908616415
 40
0.8922908620341601
100
AcDbArc
 50
9.017562232333178
 51
170.9824377676669
  0
LINE
  5
240
100
AcDbEntity
  8
0
  6
ByLayer
 62
  256
370
   -1
100
AcDbLine
 10
258.9679024499569
 20
58.54787285390741
 11
259.7960732074112
 21
58.54787285390741
  0
LINE
  5
241
100
AcDbEntity
  8
0
  6
ByLayer
 62
  256
370
   -1
100
AcDbLine
 10
258.9679024499569
 20
56.45915855689529
 11
259.7960732074112
 21
56.45915855689529
  0
MTEXT
  5
242
100
AcDbEntity
  8
0
  6
ByLayer
 62
  256
370
   -1
100
AcDbMText
 10
261.2241266081253
 20
64.65638888239631
 30
0
 40
0.5
 41
6.805555555555555
 71
    5
 72
    1
  1
75MVA \P66/22KV\PTRANSFORMER
  7
courier
210
0
220
0
230
1
 50
0
 73
    2
 44
1
  0
LINE
  5
243
100
AcDbEntity
  8
0
  6
ByLayer
 62
  256
370
   -1
100
AcDbLine
 10
253.6803277258766
 20
58.54787285390741
 11
243.0828982321691
 21
58.54787285390741
  0
LINE
  5
244
100
AcDbEntity
  8
0
  6
ByLayer
 62
  256
370
   -1
100
AcDbLine
 10
253.6803277258766
 20
56.45915855689529
 11
243.0828982321691
 21
56.4591585568953
  0
LINE
  5
245
100
AcDbEntity
  8
0
  6
ByLayer
 62
  256
370
   -1
100
AcDbLine
 10
253.6803277258766
 20
54.37044425988317
 11
243.0828982321691
 21
54.37044425988317
  0
LWPOLYLINE
  5
246
100
AcDbEntity
  8
0
  6
CENTERTINY
 62
  256
370
   -1
100
AcDbPolyline
 90
    5
 70
    1
 43
0
 10
251.2996521580728
 20
61.79262880153398
 10
269.6053961563018
 20
61.79262880153398
 10
269.6053961563018
 20
51.56547605134963
 10
251.2996521580728
 20
51.56547605134963
 10
251.2996521580728
 20
51.56547605134963
  0
ARC
  5
247
100
AcDbEntity
  8
0
  6
ByLayer
 62
  256
370
   -1
100
AcDbCircle
 10
261.8025087619349
 20
36.29106664553908
 40
0.535374517220496
100
AcDbArc
 50
99.01756223233318
 51
260.9824377676669
  0
ARC
  5
248
100
AcDbEntity
  8
0
  6
ByLayer
 62
  256
370
   -1
100
AcDbCircle
 10
261.8025087619349
 20
37.3485815903551
 40
0.535374517220496
100
AcDbArc
 50
99.01756223233318
 51
260.9824377676669
  0
LINE
  5
249
100
AcDbEntity
  8
0
  6
ByLayer
 62
  256
370
   -1
100
AcDbLine
 10
261.7185956577035
 20
35.76230917313105
 11
262.2197491264534
 21
35.76230917313105
  0
LINE
  5
24A
100
AcDbEntity
  8
0
  6
ByLayer
 62
  256
370
   -1
100
AcDbLine
 10
261.7185956577102
 20
36.81982411794712
 11
262.2197491264602
 21
36.81982411794712
  0
LINE
  5
24B
100
AcDbEntity
  8
0
  6
ByLayer
 62
  256
370
   -1
100
AcDbLine
 10
261.7185956577169
 20
37.8773390627632
 11
262.2197491264669
 21
37.8773390627632
  0
TEXT
  5
24C
100
AcDbEntity
  8
0
  6
ByLayer
 62
  256
370
   -1
100
AcDbText
 10
283.5326336679677
 20
59.14199547444206
 30
0
 40
0.5
  1
P1
 50
0
 41
1
 51
0
  7
courier
 71
    0
 72
    1
 11
283.5326336679677
 21
59.14199547444206
 31
0
210
0
220
0
230
1
100
AcDbText
  0
TEXT
  5
24D
100
AcDbEntity
  8
0
  6
ByLayer
 62
  256
370
   -1
100
AcDbText
 10
283.5326336679677
 20
57.05328117742994
 30
0
 40
0.5
  1
P1
 50
0
 41
1
 51
0
  7
courier
 71
    0
 72
    1
 11
283.5326336679677
 21
57.05328117742994
 31
0
210
0
220
0
230
1
100
AcDbText
  0
TEXT
  5
24E
100
AcDbEntity
  8
0
  6
ByLayer
 62
  256
370
   -1
100
AcDbText
 10
283.5326336679677
 20
54.96456688041782
 30
0
 40
0.5
  1
P1
 50
0
 41
1
 51
0
  7
courier
 71
    0
 72
    1
 11
283.5326336679677
 21
54.96456688041782
 31
0
210
0
220
0
230
1
100
AcDbText
  0
ARC
  5
24F
100
AcDbEntity
  8
0
  6
ByLayer
 62
  256
370
   -1
100
AcDbCircle
 10
286.4804841689744
 20
58.53123474593728
 40
0.535374517220496
100
AcDbArc
 50
9.017562232333178
 51
170.9824377676669
  0
ARC
  5
250
100
AcDbEntity
  8
0
  6
ByLayer
 62
  256
370
   -1
100
AcDbCircle
 10
287.5379991137904
 20
58.53123474593728
 40
0.535374517220496
100
AcDbArc
 50
9.017562232333178
 51
170.9824377676669
  0
LINE
  5
251
100
AcDbEntity
  8
0
  6
ByLayer
 62
  256
370
   -1
100
AcDbLine
 10
285.9517266965664
 20
58.61514785016869
 11
285.9517266965664
 21
58.11399438141874
  0
LINE
  5
252
100
AcDbEntity
  8
0
  6
ByLayer
 62
  256
370
   -1
100
AcDbLine
 10
287.0092416413823
 20
58.61514785016195
 11
287.0092416413823
 21
58.11399438141201
  0
ARC
  5
253
100
AcDbEntity
  8
0
  6
ByLayer
 62
  256
370
   -1
100
AcDbCircle
 10
286.4804841689744
 20
56.44252044892516
 40
0.535374517220496
100
AcDbArc
 50
9.017562232333178
 51
170.9824377676669
  0
ARC
  5
254
100
AcDbEntity
  8
0
  6
ByLayer
 62
  256
370
   -1
100
AcDbCircle
 10
287.5379991137904
 20
56.44252044892516
 40
0.535374517220496
100
AcDbArc
 50
9.017562232333178
 51
170.9824377676669
  0
LINE
  5
255
100
AcDbEntity
  8
0
  6
ByLayer
 62
  256
370
   -1
100
AcDbLine
 10
285.9517266965664
 20
56.52643355315657
 11
285.9517266965664
 21
56.02528008440662
  0
LINE
  5
256
100
AcDbEntity
  8
0
  6
ByLayer
 62
  256
370
   -1
100
AcDbLine
 10
287.0092416413823
 20
56.52643355314984
 11
287.0092416413823
 21
56.02528008439989
  0
LINE
  5
257
100
AcDbEntity
  8
0
  6
ByLayer
 62
  256
370
   -1
100
AcDbLine
 10
288.0667565861985
 20
56.52643355314311
 11
288.0667565861985
 21
56.02528008439316
  0
ARC
  5
258
100
AcDbEntity
  8
0
  6
ByLayer
 62
  256
370
   -1
100
AcDbCircle
 10
286.4804841689744
 20
54.35380615191304
 40
0.535374517220496
100
AcDbArc
 50
9.017562232333178
 51
170.9824377676669
  0
ARC
  5
259
100
AcDbEntity
  8
0
  6
ByLayer
 62
  256
370
   -1
100
AcDbCircle
 10
287.5379991137904
 20
54.35380615191304
 40
0.535374517220496
100
AcDbArc
 50
9.017562232333178
 51
170.9824377676669
  0
LINE
  5
25A
100
AcDbEntity
  8
0
  6
ByLayer
 62
  256
370
   -1
100
AcDbLine
 10
285.9517266965664
 20
54.43771925614445
 11
285.9517266965664
 21
53.93656578739451
  0
LINE
  5
25B
100
AcDbEntity
  8
0
  6
ByLayer
 62
  256
370
   -1
100
AcDbLine
 10
287.0092416413823
 20
54.43771925613772
 11
287.0092416413823
 21
53.93656578738777
  0
LINE
  5
25C
100
AcDbEntity
  8
0
  6
ByLayer
 62
  256
370
   -1
100
AcDbLine
 10
288.0667565861985
 20
54.43771925613099
 11
288.0667565861985
 21
53.93656578738104
  0
LINE
  5
25D
100
AcDbEntity
  8
0
  6
ByLayer
 62
  256
370
   -1
100
AcDbLine
 10
285.9517266965664
 20
58.11399438141874
 11
284.8214047333687
 21
58.11399438141874
  0
LINE
  5
25E
100
AcDbEntity
  8
0
  6
ByLayer
 62
  256
370
   -1
100
AcDbLine
 10
285.9517266965664
 20
56.02528008440662
 11
284.8214047333687
 21
56.02528008440662
  0
LINE
  5
25F
100
AcDbEntity
  8
0
  6
ByLayer
 62
  256
370
   -1
100
AcDbLine
 10
285.9517266965664
 20
53.93656578739451
 11
284.8214047333687
 21
53.93656578739451
  0
CIRCLE
  5
260
100
AcDbEntity
  8
0
  6
ByLayer
 62
  256
370
   -1
100
AcDbCircle
 10
284.8214047333687
 20
56.02528008440662
 40
0.1625305337545221
  0
CIRCLE
  5
261
100
AcDbEntity
  8
0
  6
ByLayer
 62
  256
370
   -1
100
AcDbCircle
 10
284.8214047333687
 20
53.93656578739451
 40
0.1625305337545221
  0
TEXT
  5
262
100
AcDbEntity
  8
0
  6
ByLayer
 62
  256
370
   -1
100
AcDbText
 10
271.3321007259301
 20
59.14199547444206
 30
0
 40
0.5
  1
L1
 50
0
 41
1
 51
0
  7
courier
 71
    0
 72
    1
 11
271.3321007259301
 21
59.14199547444206
 31
0
210
0
220
0
230
1
100
AcDbText
  0
TEXT
  5
263
100
AcDbEntity
  8
0
  6
ByLayer
 62
  256
370
   -1
100
AcDbText
 10
271.3321007259301
 20
57.05328117742994
 30
0
 40
0.5
  1
L2
 50
0
 41
1
 51
0
  7
courier
 71
    0
 72
    1
 11
271.3321007259301
 21
57.05328117742994
 31
0
210
0
220
0
230
1
100
AcDbText
  0
TEXT
  5
264
100
AcDbEntity
  8
0
  6
ByLayer
 62
  256
370
   -1
100
AcDbText
 10
271.3321007259301
 20
54.96456688041782
 30
0
 40
0.5
  1
L3
 50
0
 41
1
 51
0
  7
courier
 71
    0
 72
    1
 11
271.3321007259301
 21
54.96456688041782
 31
0
210
0
220
0
230
1
100
AcDbText
  0
LINE
  5
265
100
AcDbEntity
  8
0
  6
ByLayer
 62
  256
370
   -1
100
AcDbLine
 10
290.6932914177939
 20
56.02528008439316
 11
288.0667565861985
 21
56.02528008439316
  0
LINE
  5
266
100
AcDbEntity
  8
0
  6
ByLayer
 62
  256
370
   -1
100
AcDbLine
 10
288.0667565861985
 20
58.61514785015522
 11
288.0667565861985
 21
58.11399438140527
  0
TEXT
  5
267
100
AcDbEntity
  8
0
  6
ByLayer
 62
  256
370
   -1
100
AcDbText
 10
289.1998074284958
 20
59.14199547444206
 30
0
 40
0.5
  1
P2
 50
0
 41
1
 51
0
  7
courier
 71
    0
 72
    1
 11
289.1998074284958
 21
59.14199547444206
 31
0
210
0
220
0
230
1
100
AcDbText
  0
TEXT
  5
268
100
AcDbEntity
  8
0
  6
ByLayer
 62
  256
370
   -1
100
AcDbText
 10
289.1998074284958
 20
57.05328117742994
 30
0
 40
0.5
  1
P2
 50
0
 41
1
 51
0
  7
courier
 71
    0
 72
    1
 11
289.1998074284958
 21
57.05328117742994
 31
0
210
0
220
0
230
1
100
AcDbText
  0
TEXT
  5
269
100
AcDbEntity
  8
0
  6
ByLayer
 62
  256
370
   -1
100
AcDbText
 10
289.1998074284958
 20
54.96456688041782
 30
0
 40
0.5
  1
P2
 50
0
 41
1
 51
0
  7
courier
 71
    0
 72
    1
 11
289.1998074284958
 21
54.96456688041782
 31
0
210
0
220
0
230
1
100
AcDbText
  0
LINE
  5
26A
100
AcDbEntity
  8
0
  6
ByLayer
 62
  256
370
   -1
100
AcDbLine
 10
262.2197491264669
 20
37.8773390627632
 11
262.2197491264669
 21
38.60803525341193
  0
LINE
  5
26B
100
AcDbEntity
  8
0
  6
ByLayer
 62
  256
370
   -1
100
AcDbLine
 10
262.2197491264669
 20
38.60803525341193
 11
273.1963761212254
 21
38.60803525341193
  0
CIRCLE
  5
26C
100
AcDbEntity
  8
0
  6
ByLayer
 62
  256
370
   -1
100
AcDbCircle
 10
273.5155900152901
 20
38.60803525341193
 40
0.3192138940647123
  0
LINE
  5
26D
100
AcDbEntity
  8
0
  6
ByLayer
 62
  256
370
   -1
100
AcDbLine
 10
273.9656969204701
 20
38.98889494241038
 11
273.0654831101101
 21
38.22717556441349
  0
LINE
  5
26E
100
AcDbEntity
  8
0
  6
ByLayer
 62
  256
370
   -1
100
AcDbLine
 10
262.2197491264669
 20
35.76230917313104
 11
262.2197491264669
 21
35.03161298248232
  0
LINE
  5
26F
100
AcDbEntity
  8
0
  6
ByLayer
 62
  256
370
   -1
100
AcDbLine
 10
262.2197491264669
 20
35.03161298248232
 11
273.1963761212254
 21
35.03161298248232
  0
CIRCLE
  5
270
100
AcDbEntity
  8
0
  6
ByLayer
 62
  256
370
   -1
100
AcDbCircle
 10
273.5155900152901
 20
35.03161298248232
 40
0.3192138940647123
  0
LINE
  5
271
100
AcDbEntity
  8
0
  6
ByLayer
 62
  256
370
   -1
100
AcDbLine
 10
273.9656969204701
 20
35.41247267148076
 11
273.0654831101101
 21
34.65075329348387
  0
LINE
  5
272
100
AcDbEntity
  8
0
  6
ByLayer
 62
  256
370
   -1
100
AcDbLine
 10
284.8214047333687
 20
58.11399438141874
 11
284.8214047333687
 21
48.77173736875273
  0
CIRCLE
  5
273
100
AcDbEntity
  8
0
  6
ByLayer
 62
  256
370
   -1
100
AcDbCircle
 10
284.8214047333687
 20
48.45252347468802
 40
0.3192138940647123
  0
LINE
  5
274
100
AcDbEntity
  8
0
  6
ByLayer
 62
  256
370
   -1
100
AcDbLine
 10
285.2715116385487
 20
48.83338316368647
 11
284.3712978281887
 21
48.07166378568958
  0
CIRCLE
  5
275
100
AcDbEntity
  8
0
  6
ByLayer
 62
  256
370
   -1
100
AcDbCircle
 10
290.6932914177939
 20
48.45252347468802
 40
0.3192138940647123
  0
LINE
  5
276
100
AcDbEntity
  8
0
  6
ByLayer
 62
  256
370
   -1
100
AcDbLine
 10
291.1433983229739
 20
48.83338316368647
 11
290.243184512614
 21
48.07166378568958
  0
LINE
  5
277
100
AcDbEntity
  8
0
  6
ByLayer
 62
  256
370
   -1
100
AcDbLine
 10
273.8348039093548
 20
38.60803525341193
 11
284.8214047333687
 21
38.60803525341193
  0
CIRCLE
  5
278
100
AcDbEntity
  8
0
  6
ByLayer
 62
  256
370
   -1
100
AcDbCircle
 10
290.6932914177939
 20
39.58616574035211
 40
0.1625305337545221
  0
LINE
  5
279
100
AcDbEntity
  8
0
  6
ByLayer
 62
  256
370
   -1
100
AcDbLine
 10
290.6932914177939
 20
37.24395799327782
 11
291.1393999149925
 21
37.02145650389051
  0
LINE
  5
27A
100
AcDbEntity
  8
0
  6
ByLayer
 62
  256
370
   -1
100
AcDbLine
 10
291.1393999149925
 20
37.02145650389051
 11
290.3908670220669
 21
36.84215480531252
  0
LINE
  5
27B
100
AcDbEntity
  8
0
  6
ByLayer
 62
  256
370
   -1
100
AcDbLine
 10
290.3908670220669
 20
36.84215480531252
 11
291.1443167655813
 21
36.53462429775566
  0
LINE
  5
27C
100
AcDbEntity
  8
0
  6
ByLayer
 62
  256
370
   -1
100
AcDbLine
 10
291.1443167655813
 20
36.53462429775566
 11
290.3908670220669
 21
36.38085904397722
  0
LINE
  5
27D
100
AcDbEntity
  8
0
  6
ByLayer
 62
  256
370
   -1
100
AcDbLine
 10
290.3908670220669
 20
36.38085904397722
 11
291.1443167655813
 21
36.05795201104251
  0
LINE
  5
27E
100
AcDbEntity
  8
0
  6
ByLayer
 62
  256
370
   -1
100
AcDbLine
 10
291.1443167655813
 20
36.05795201104251
 11
290.3754904966891
 21
35.85805718113055
  0
LINE
  5
27F
100
AcDbEntity
  8
0
  6
ByLayer
 62
  256
370
   -1
100
AcDbLine
 10
290.3754904966891
 20
35.85805718113055
 11
290.6983975296238
 21
35.65816235121859
  0
LINE
  5
280
100
AcDbEntity
  8
0
  6
ByLayer
 62
  256
370
   -1
100
AcDbLine
 10
290.6983975296238
 20
35.65816235121859
 11
290.6983975296238
 21
34.42804032099112
  0
LINE
  5
281
100
AcDbEntity
  8
0
  6
ByLayer
 62
  256
370
   -1
100
AcDbLine
 10
289.8098146033474
 20
35.96819016733168
 11
292.3226207401391
 21
37.37068661577354
  0
LINE
  5
282
100
AcDbEntity
  8
0
  6
ByLayer
 62
  256
370
   -1
100
AcDbLine
 10
292.3226207401391
 20
37.37068661577354
 11
291.7747543060734
 21
37.24194446513662
  0
LINE
  5
283
100
AcDbEntity
  8
0
  6
ByLayer
 62
  256
370
   -1
100
AcDbLine
 10
292.3226207401391
 20
37.37068661577354
 11
291.9960501913741
 21
36.94855939860405
  0
CIRCLE
  5
284
100
AcDbEntity
  8
0
  6
ByLayer
 62
  256
370
   -1
100
AcDbCircle
 10
290.6983975296238
 20
33.79749459575944
 40
0.6305457252316842
  0
CIRCLE
  5
285
100
AcDbEntity
  8
0
  6
ByLayer
 62
  256
370
   -1
100
AcDbCircle
 10
284.8214047333687
 20
38.60803525341193
 40
0.1625305337545221
  0
LWPOLYLINE
  5
286
100
AcDbEntity
  8
0
  6
CENTERTINY
 62
  256
370
   -1
100
AcDbPolyline
 90
    5
 70
    1
 43
0
 10
257.0593830808103
 20
48.93871237551826
 10
264.8274326642259
 20
48.93871237551826
 10
264.8274326642259
 20
27.29914567886053
 10
257.0593830808103
 20
27.29914567886053
 10
257.0593830808103
 20
27.29914567886053
  0
LINE
  5
287
100
AcDbEntity
  8
0
  6
ByLayer
 62
  256
370
   -1
100
AcDbLine
 10
287.682567625615
 20
35.03161298248232
 11
287.682567625615
 21
39.58616574035021
  0
MTEXT
  5
288
100
AcDbEntity
  8
0
  6
ByLayer
 62
  256
370
   -1
100
AcDbMText
 10
286.994008456347
 20
63.3202239726901
 30
0
 40
0.5
 41
6.166666666666666
 71
    5
 72
    1
  1
* INSTALL \PNEAR 22KV\PSWITCHGEAR
  7
courier
210
0
220
0
230
1
 50
0
 73
    2
 44
1
  0
ARC
  5
289
100
AcDbEntity
  8
0
  6
ByLayer
 62
  256
370
   -1
100
AcDbCircle
 10
284.8214047333687
 20
35.03161298248232
 40
0.3617519823771646
100
AcDbArc
 50
0
 51
180
  0
LINE
  5
28A
100
AcDbEntity
  8
0
  6
ByLayer
 62
  256
370
   -1
100
AcDbLine
 10
285.1831567157526
 20
35.03161298248232
 11
287.682567625615
 21
35.03161298248232
  0
LINE
  5
28B
100
AcDbEntity
  8
0
  6
ByLayer
 62
  256
370
   -1
100
AcDbLine
 10
273.8348039093548
 20
35.03161298248232
 11
284.4596527509936
 21
35.03161298248231
  0
CIRCLE
  5
28C
100
AcDbEntity
  8
0
  6
ByLayer
 62
  256
370
   -1
100
AcDbCircle
 10
290.6932914177939
 20
38.10184730767988
 40
0.1625305337545221
  0
TEXT
  5
28D
100
AcDbEntity
  8
0
  6
ByLayer
 62
  256
370
   -1
100
AcDbText
 10
290.624414939538
 20
33.53791991258726
 30
0
 40
0.5
  1
64
 50
0
 41
1
 51
0
  7
courier
 71
    0
 72
    1
 11
290.624414939538
 21
33.53791991258726
 31
0
210
0
220
0
230
1
100
AcDbText
  0
MTEXT
  5
28E
100
AcDbEntity
  8
0
  6
ByLayer
 62
  256
370
   -1
100
AcDbMText
 10
253.5303998228662
 20
48.76125581305863
 30
0
 40
0.5
 41
3
 71
    1
 72
    1
  1
NGR\PPANEL
  7
courier
210
0
220
0
230
1
 50
0
 73
    2
 44
1
  0
TEXT
  5
28F
100
AcDbEntity
  8
0
  6
ByLayer
 62
  256
370
   -1
100
AcDbText
 10
260.7518932732221
 20
38.17129520787073
 30
0
 40
0.5
  1
P1
 50
0
 41
1
 51
0
  7
courier
 71
    0
 72
    1
 11
260.7518932732221
 21
38.17129520787073
 31
0
210
0
220
0
230
1
100
AcDbText
  0
TEXT
  5
290
100
AcDbEntity
  8
0
  6
ByLayer
 62
  256
370
   -1
100
AcDbText
 10
260.7518932732221
 20
34.89610404140845
 30
0
 40
0.5
  1
P2
 50
0
 41
1
 51
0
  7
courier
 71
    0
 72
    1
 11
260.7518932732221
 21
34.89610404140845
 31
0
210
0
220
0
230
1
100
AcDbText
  0
LWPOLYLINE
  5
291
100
AcDbEntity
  8
0
  6
CENTERTINY
 62
  256
370
   -1
100
AcDbPolyline
 90
    5
 70
    1
 43
0
 10
273.4472849127005
 20
48.45654537418383
 10
305.3634566179614
 20
48.45654537418383
 10
305.3634566179614
 20
29.22142685483049
 10
273.4472849127005
 20
29.22142685483049
 10
273.4472849127005
 20
29.22142685483049
  0
LWPOLYLINE
  5
292
100
AcDbEntity
  8
0
  6
ByLayer
 62
  256
370
   -1
100
AcDbPolyline
 90
    4
 70
    1
 43
0
 10
296.5693240077541
 20
36.32565064149372
 10
297.0907448303593
 20
36.32565064149372
 10
297.0907448303593
 20
34.79614956185188
 10
296.5693240077541
 20
34.79614956185188
  0
LINE
  5
293
100
AcDbEntity
  8
0
  6
ByLayer
 62
  256
370
   -1
100
AcDbLine
 10
296.8300344190567
 20
36.32565064149372
 11
296.8300344190567
 21
38.10184730767988
  0
TEXT
  5
294
100
AcDbEntity
  8
0
  6
ByLayer
 62
  256
370
   -1
100
AcDbText
 10
299.7796778447021
 20
35.46170260545366
 30
0
 40
0.5
  1
METROSIL
 50
0
 41
1
 51
0
  7
courier
 71
    0
 72
    1
 11
299.7796778447021
 21
35.46170260545366
 31
0
210
0
220
0
230
1
100
AcDbText
  0
LINE
  5
295
100
AcDbEntity
  8
0
  6
ByLayer
 62
  256
370
   -1
100
AcDbLine
 10
290.6932914177939
 20
38.10184730767988
 11
296.8300344190567
 21
38.10184730767988
  0
LINE
  5
296
100
AcDbEntity
  8
0
  6
ByLayer
 62
  256
370
   -1
100
AcDbLine
 10
290.6983975296238
 20
33.16694887052775
 11
290.6983975296238
 21
31.35298136713565
  0
LINE
  5
297
100
AcDbEntity
  8
0
  6
ByLayer
 62
  256
370
   -1
100
AcDbLine
 10
284.8214047333687
 20
48.13330958062331
 11
284.8214047333688
 21
31.35298136713565
  0
CIRCLE
  5
298
100
AcDbEntity
  8
0
  6
ByLayer
 62
  256
370
   -1
100
AcDbCircle
 10
290.6983975296238
 20
31.35298136713565
 40
0.1625305337545221
  0
LINE
  5
299
100
AcDbEntity
  8
0
  6
ByLayer
 62
  256
370
   -1
100
AcDbLine
 10
296.8300344190567
 20
34.79614956185188
 11
296.8300344190567
 21
31.35298136713565
  0
LINE
  5
29A
100
AcDbEntity
  8
0
  6
ByLayer
 62
  256
370
   -1
100
AcDbLine
 10
284.8214047333688
 20
31.35298136713565
 11
296.8300344190567
 21
31.35298136713565
  0
CIRCLE
  5
29B
100
AcDbEntity
  8
0
  6
ByLayer
 62
  256
370
   -1
100
AcDbCircle
 10
276.0344113563574
 20
38.60803525341193
 40
0.1625305337545221
  0
LINE
  5
29C
100
AcDbEntity
  8
0
  6
ByLayer
 62
  256
370
   -1
100
AcDbLine
 10
276.0344113563574
 20
37.47292503294437
 11
276.0344113563574
 21
38.60803525341193
  0
LINE
  5
29D
100
AcDbEntity
  8
0
  6
ByLayer
 62
  256
370
   -1
100
AcDbLine
 10
276.5925208618395
 20
37.47292503294437
 11
275.4763018508753
 21
37.47292503294437
  0
LINE
  5
29E
100
AcDbEntity
  8
0
  6
ByLayer
 62
  256
370
   -1
100
AcDbLine
 10
276.4431067850889
 20
37.21413226064638
 11
275.6257159276259
 21
37.21413226064638
  0
LINE
  5
29F
100
AcDbEntity
  8
0
  6
ByLayer
 62
  256
370
   -1
100
AcDbLine
 10
276.2936927083383
 20
36.95533948834839
 11
275.7751300043764
 21
36.95533948834839
  0
LINE
  5
2A0
100
AcDbEntity
  8
0
  6
ByLayer
 62
  256
370
   -1
100
AcDbLine
 10
276.1442786315877
 20
36.69654671605039
 11
275.924544081127
 21
36.69654671605039
  0
MTEXT
  5
2A1
100
AcDbEntity
  8
0
  6
ByLayer
 62
  256
370
   -1
100
AcDbMText
 10
304.9537459984868
 20
47.95241567151273
 30
0
 40
0.5
 41
6.805555555555555
 71
    3
 72
    1
  1
TRANSFORMER\PRELAY\PPANEL
  7
courier
210
0
220
0
230
1
 50
0
 73
    2
 44
1
  0
LINE
  5
2A2
100
AcDbEntity
  8
0
  6
ByLayer
 62
  256
370
   -1
100
AcDbLine
 10
262.2197491264669
 20
45.49526830024195
 11
262.2197491264669
 21
46.22596449089068
  0
LINE
  5
2A3
100
AcDbEntity
  8
0
  6
ByLayer
 62
  256
370
   -1
100
AcDbLine
 10
262.2197491264669
 20
46.22596449089068
 11
273.1963761212254
 21
46.22596449089068
  0
CIRCLE
  5
2A4
100
AcDbEntity
  8
0
  6
ByLayer
 62
  256
370
   -1
100
AcDbCircle
 10
273.5155900152901
 20
46.22596449089068
 40
0.3192138940647123
  0
LINE
  5
2A5
100
AcDbEntity
  8
0
  6
ByLayer
 62
  256
370
   -1
100
AcDbLine
 10
273.9656969204701
 20
46.60682417988913
 11
273.0654831101101
 21
45.84510480189224
  0
LINE
  5
2A6
100
AcDbEntity
  8
0
  6
ByLayer
 62
  256
370
   -1
100
AcDbLine
 10
262.2197491264669
 20
43.3802384106098
 11
262.2197491264669
 21
42.64954221996107
  0
LINE
  5
2A7
100
AcDbEntity
  8
0
  6
ByLayer
 62
  256
370
   -1
100
AcDbLine
 10
262.2197491264669
 20
42.64954221996107
 11
273.1963761212254
 21
42.64954221996107
  0
CIRCLE
  5
2A8
100
AcDbEntity
  8
0
  6
ByLayer
 62
  256
370
   -1
100
AcDbCircle
 10
273.5155900152901
 20
42.64954221996107
 40
0.3192138940647123
  0
LINE
  5
2A9
100
AcDbEntity
  8
0
  6
ByLayer
 62
  256
370
   -1
100
AcDbLine
 10
273.9656969204701
 20
43.03040190895952
 11
273.0654831101101
 21
42.26868253096263
  0
ARC
  5
2AA
100
AcDbEntity
  8
0
  6
ByLayer
 62
  256
370
   -1
100
AcDbCircle
 10
261.8025087619349
 20
43.90899588301783
 40
0.535374517220496
100
AcDbArc
 50
99.01756223233318
 51
260.9824377676669
  0
ARC
  5
2AB
100
AcDbEntity
  8
0
  6
ByLayer
 62
  256
370
   -1
100
AcDbCircle
 10
261.8025087619349
 20
44.96651082783386
 40
0.535374517220496
100
AcDbArc
 50
99.01756223233318
 51
260.9824377676669
  0
LINE
  5
2AC
100
AcDbEntity
  8
0
  6
ByLayer
 62
  256
370
   -1
100
AcDbLine
 10
261.7185956577035
 20
43.38023841060981
 11
262.2197491264534
 21
43.38023841060981
  0
LINE
  5
2AD
100
AcDbEntity
  8
0
  6
ByLayer
 62
  256
370
   -1
100
AcDbLine
 10
261.7185956577102
 20
44.43775335542588
 11
262.2197491264602
 21
44.43775335542588
  0
LINE
  5
2AE
100
AcDbEntity
  8
0
  6
ByLayer
 62
  256
370
   -1
100
AcDbLine
 10
261.7185956577169
 20
45.49526830024195
 11
262.2197491264669
 21
45.49526830024195
  0
TEXT
  5
2AF
100
AcDbEntity
  8
0
  6
ByLayer
 62
  256
370
   -1
100
AcDbText
 10
260.7518932732221
 20
45.78922444534948
 30
0
 40
0.5
  1
P1
 50
0
 41
1
 51
0
  7
courier
 71
    0
 72
    1
 11
260.7518932732221
 21
45.78922444534948
 31
0
210
0
220
0
230
1
100
AcDbText
  0
TEXT
  5
2B0
100
AcDbEntity
  8
0
  6
ByLayer
 62
  256
370
   -1
100
AcDbText
 10
260.7518932732221
 20
42.5140332788872
 30
0
 40
0.5
  1
P2
 50
0
 41
1
 51
0
  7
courier
 71
    0
 72
    1
 11
260.7518932732221
 21
42.5140332788872
 31
0
210
0
220
0
230
1
100
AcDbText
  0
CIRCLE
  5
2B1
100
AcDbEntity
  8
0
  6
ByLayer
 62
  256
370
   -1
100
AcDbCircle
 10
277.2341497630817
 20
44.58873730847406
 40
0.6305457252316842
  0
TEXT
  5
2B2
100
AcDbEntity
  8
0
  6
ByLayer
 62
  256
370
   -1
100
AcDbText
 10
277.1857429093724
 20
44.4186777026196
 30
0
 40
0.3
  1
51G
 50
0
 41
1
 51
0
  7
courier
 71
    0
 72
    1
 11
277.1857429093724
 21
44.4186777026196
 31
0
210
0
220
0
230
1
100
AcDbText
  0
LINE
  5
2B3
100
AcDbEntity
  8
0
  6
ByLayer
 62
  256
370
   -1
100
AcDbLine
 10
277.2341497630817
 20
45.21928303370574
 11
277.2341497630817
 21
46.22596449089068
  0
LINE
  5
2B4
100
AcDbEntity
  8
0
  6
ByLayer
 62
  256
370
   -1
100
AcDbLine
 10
273.8348039093548
 20
46.22596449089068
 11
277.2341497630817
 21
46.22596449089068
  0
LINE
  5
2B5
100
AcDbEntity
  8
0
  6
ByLayer
 62
  256
370
   -1
100
AcDbLine
 10
277.2341497630817
 20
43.95819158324237
 11
277.2341497630817
 21
42.64954221996106
  0
LINE
  5
2B6
100
AcDbEntity
  8
0
  6
ByLayer
 62
  256
370
   -1
100
AcDbLine
 10
273.8348039093548
 20
42.64954221996107
 11
277.2341497630817
 21
42.64954221996107
  0
CIRCLE
  5
2B7
100
AcDbEntity
  8
0
  6
ByLayer
 62
  256
370
   -1
100
AcDbCircle
 10
275.5344768362183
 20
42.64954221996107
 40
0.1625305337545221
  0
LINE
  5
2B8
100
AcDbEntity
  8
0
  6
ByLayer
 62
  256
370
   -1
100
AcDbLine
 10
275.5344768362183
 20
41.51443199949352
 11
275.5344768362183
 21
42.64954221996107
  0
LINE
  5
2B9
100
AcDbEntity
  8
0
  6
ByLayer
 62
  256
370
   -1
100
AcDbLine
 10
276.0925863417004
 20
41.51443199949352
 11
274.9763673307362
 21
41.51443199949352
  0
LINE
  5
2BA
100
AcDbEntity
  8
0
  6
ByLayer
 62
  256
370
   -1
100
AcDbLine
 10
275.9431722649498
 20
41.25563922719552
 11
275.1257814074868
 21
41.25563922719552
  0
LINE
  5
2BB
100
AcDbEntity
  8
0
  6
ByLayer
 62
  256
370
   -1
100
AcDbLine
 10
275.7937581881991
 20
40.99684645489753
 11
275.2751954842373
 21
40.99684645489753
  0
LINE
  5
2BC
100
AcDbEntity
  8
0
  6
ByLayer
 62
  256
370
   -1
100
AcDbLine
 10
275.6443441114487
 20
40.73805368259953
 11
275.4246095609878
 21
40.73805368259953
  0
LINE
  5
2BD
100
AcDbEntity
  8
0
  6
ByLayer
 62
  256
370
   -1
100
AcDbLine
 10
268.4139100891132
 20
58.54787285390741
 11
301.9794742847358
 21
58.54787285390741
  0
LINE
  5
2BE
100
AcDbEntity
  8
0
  6
ByLayer
 62
  256
370
   -1
100
AcDbLine
 10
268.4139100891132
 20
56.45915855689529
 11
301.9794742847358
 21
56.45915855689529
  0
LINE
  5
2BF
100
AcDbEntity
  8
0
  6
ByLayer
 62
  256
370
   -1
100
AcDbLine
 10
268.4139100891132
 20
54.37044425988317
 11
301.9794742847358
 21
54.37044425988317
  0
MTEXT
  5
2C0
100
AcDbEntity
  8
0
  6
ByLayer
 62
  256
370
   -1
100
AcDbMText
 10
303.7882951657087
 20
56.67965837771879
 30
0
 40
0.5
 41
6.166666666666667
 71
    4
 72
    1
  1
TO 22KV \PSWITCHGEAR
  7
courier
210
0
220
0
230
1
 50
0
 73
    2
 44
1
  0
MTEXT
  5
2C1
100
AcDbEntity
  8
0
  6
ByLayer
 62
  256
370
   -1
100
AcDbMText
 10
236.0114289511093
 20
56.67965837771879
 30
0
 40
0.5
 41
6.166666666666667
 71
    4
 72
    1
  1
TO 66KV \PSWITCHGEAR
  7
courier
210
0
220
0
230
1
 50
0
 73
    2
 44
1
  0
TEXT
  5
2C2
100
AcDbEntity
  8
0
  6
ByLayer
 62
  256
370
   -1
100
AcDbText
 10
248.3357727889467
 20
59.14199547444206
 30
0
 40
0.5
  1
L1
 50
0
 41
1
 51
0
  7
courier
 71
    0
 72
    1
 11
248.3357727889467
 21
59.14199547444206
 31
0
210
0
220
0
230
1
100
AcDbText
  0
TEXT
  5
2C3
100
AcDbEntity
  8
0
  6
ByLayer
 62
  256
370
   -1
100
AcDbText
 10
248.3357727889467
 20
57.05328117742994
 30
0
 40
0.5
  1
L2
 50
0
 41
1
 51
0
  7
courier
 71
    0
 72
    1
 11
248.3357727889467
 21
57.05328117742994
 31
0
210
0
220
0
230
1
100
AcDbText
  0
TEXT
  5
2C4
100
AcDbEntity
  8
0
  6
ByLayer
 62
  256
370
   -1
100
AcDbText
 10
248.3357727889467
 20
54.96456688041782
 30
0
 40
0.5
  1
L3
 50
0
 41
1
 51
0
  7
courier
 71
    0
 72
    1
 11
248.3357727889467
 21
54.96456688041782
 31
0
210
0
220
0
230
1
100
AcDbText
  0
LINE
  5
2C5
100
AcDbEntity
  8
0
  6
ByLayer
 62
  256
370
   -1
100
AcDbLine
 10
261.866023105522
 20
32.46006338480324
 11
262.3121316027205
 21
32.23756189541593
  0
LINE
  5
2C6
100
AcDbEntity
  8
0
  6
ByLayer
 62
  256
370
   -1
100
AcDbLine
 10
262.3121316027205
 20
32.23756189541593
 11
261.563598709795
 21
32.05826019683794
  0
LINE
  5
2C7
100
AcDbEntity
  8
0
  6
ByLayer
 62
  256
370
   -1
100
AcDbLine
 10
261.563598709795
 20
32.05826019683794
 11
262.3170484533093
 21
31.75072968928107
  0
LINE
  5
2C8
100
AcDbEntity
  8
0
  6
ByLayer
 62
  256
370
   -1
100
AcDbLine
 10
262.3170484533093
 20
31.75072968928107
 11
261.563598709795
 21
31.59696443550263
  0
LINE
  5
2C9
100
AcDbEntity
  8
0
  6
ByLayer
 62
  256
370
   -1
100
AcDbLine
 10
261.563598709795
 20
31.59696443550263
 11
262.3170484533093
 21
31.27405740256793
  0
LINE
  5
2CA
100
AcDbEntity
  8
0
  6
ByLayer
 62
  256
370
   -1
100
AcDbLine
 10
262.3170484533093
 20
31.27405740256793
 11
261.5482221844172
 21
31.07416257265596
  0
LINE
  5
2CB
100
AcDbEntity
  8
0
  6
ByLayer
 62
  256
370
   -1
100
AcDbLine
 10
261.5482221844172
 20
31.07416257265596
 11
261.8711292173518
 21
30.874267742744
  0
LINE
  5
2CC
100
AcDbEntity
  8
0
  6
ByLayer
 62
  256
370
   -1
100
AcDbLine
 10
261.8711292173518
 20
58.54787285390741
 11
261.8711292173518
 21
32.4575166557132
  0
LINE
  5
2CD
100
AcDbEntity
  8
0
  6
ByLayer
 62
  256
370
   -1
100
AcDbLine
 10
261.8711292173518
 20
30.874267742744
 11
261.8711292173518
 21
25.67144537684345
  0
TEXT
  5
2CE
100
AcDbEntity
  8
0
  6
ByLayer
 62
  256
370
   -1
100
AcDbText
 10
259.7146904048418
 20
31.46075883516698
 30
0
 40
0.5
  1
NGR
 50
0
 41
1
 51
0
  7
courier
 71
    0
 72
    1
 11
259.7146904048418
 21
31.46075883516698
 31
0
210
0
220
0
230
1
100
AcDbText
  0
LINE
  5
2CF
100
AcDbEntity
  8
0
  6
ByLayer
 62
  256
370
   -1
100
AcDbLine
 10
262.8013117264887
 20
25.67144537684345
 11
260.940946708215
 21
25.67144537684345
  0
LINE
  5
2D0
100
AcDbEntity
  8
0
  6
ByLayer
 62
  256
370
   -1
100
AcDbLine
 10
262.5522882652377
 20
25.24012408968013
 11
261.189970169466
 21
25.24012408968013
  0
LINE
  5
2D1
100
AcDbEntity
  8
0
  6
ByLayer
 62
  256
370
   -1
100
AcDbLine
 10
262.3032648039868
 20
24.80880280251681
 11
261.4389936307169
 21
24.80880280251681
  0
LINE
  5
2D2
100
AcDbEntity
  8
0
  6
ByLayer
 62
  256
370
   -1
100
AcDbLine
 10
262.0542413427358
 20
24.37748151535348
 11
261.6880170919679
 21
24.37748151535348
  0
TEXT
  5
2D3
100
AcDbEntity
  8
0
  6
ByLayer
 62
  256
370
   -1
100
AcDbText
 10
286.0135503484103
 20
60.16999656747885
 30
0
 40
0.5
  1
2000/1A CLASS X
 50
0
 41
1
 51
0
  7
courier
 71
    0
 72
    1
 11
286.0135503484103
 21
60.16999656747885
 31
0
210
0
220
0
230
1
100
AcDbText
  0
TEXT
  5
2D4
100
AcDbEntity
  8
0
  6
ByLayer
 62
  256
370
   -1
100
AcDbText
 10
255.487261415284
 20
36.66566734184629
 30
0
 40
0.5
  1
2000/1A CLASS X
 50
0
 41
1
 51
0
  7
courier
 71
    0
 72
    1
 11
255.487261415284
 21
36.66566734184629
 31
0
210
0
220
0
230
1
100
AcDbText
  0
TEXT
  5
2D5
100
AcDbEntity
  8
0
  6
ByLayer
 62
  256
370
   -1
100
AcDbText
 10
254.9038081716359
 20
44.12090323290444
 30
0
 40
0.5
  1
2000/1A CLASS 5P10
 50
0
 41
1
 51
0
  7
courier
 71
    0
 72
    1
 11
254.9038081716359
 21
44.12090323290444
 31
0
210
0
220
0
230
1
100
AcDbText
  0
LINE
  5
2D6
100
AcDbEntity
  8
0
  6
ByLayer
 62
  256
370
   -1
100
AcDbLine
 10
258.9679024499569
 20
54.37044425988317
 11
259.7960732074112
 21
54.37044425988317
  0
LINE
  5
2D7
100
AcDbEntity
  8
0
  6
ByLayer
 62
  256
370
   -1
100
AcDbLine
 10
259.7960732074112
 20
58.54787285390741
 11
259.7960732074112
 21
54.37044425988317
  0
CIRCLE
  5
2D8
100
AcDbEntity
  8
0
  6
ByLayer
 62
  256
370
   -1
100
AcDbCircle
 10
259.7960732074112
 20
56.45915855689529
 40
0.2708842229242035
  0
LWPOLYLINE
  5
2D9
100
AcDbEntity
  8
0
  6
ByLayer
 62
  256
370
   -1
100
AcDbPolyline
 90
    4
 70
    1
 43
0
 10
234.1098648085472
 20
71.0155831948139
 10
313.64123528154
 20
71.0155831948139
 10
313.64123528154
 20
19.16052137590268
 10
234.1098648085472
 20
19.16052137590268
  0
LINE
  5
2DA
100
AcDbEntity
  8
0
  6
ByLayer
 62
  256
370
   -1
100
AcDbLine
 10
287.682567625615
 20
39.58616574035021
 11
290.6932914177939
 21
39.58616574035211
  0
LINE
  5
2DB
100
AcDbEntity
  8
0
  6
ByLayer
 62
  256
370
   -1
100
AcDbLine
 10
290.6932914177939
 20
48.13330958064338
 11
290.6932914177939
 21
37.24395799327782
  0
LINE
  5
2DC
100
AcDbEntity
  8
0
  6
ByLayer
 62
  256
370
   -1
100
AcDbLine
 10
290.693291417794
 20
58.11399438140528
 11
290.6932914177939
 21
48.77173736875273
  0
LINE
  5
2DD
100
AcDbEntity
  8
0
  6
ByLayer
 62
  256
370
   -1
100
AcDbLine
 10
288.0667565861985
 20
58.11399438140527
 11
290.693291417794
 21
58.11399438140528
  0
LINE
  5
2DE
100
AcDbEntity
  8
0
  6
ByLayer
 62
  256
370
   -1
100
AcDbLine
 10
290.6932914177939
 20
53.93656578738104
 11
288.0667565861985
 21
53.93656578738104
  0
LWPOLYLINE
  5
2DF
100
AcDbEntity
  8
0
  6
CENTERTINY
 62
  256
370
   -1
100
AcDbPolyline
 90
    5
 70
    1
 43
0
 10
288.6245591542977
 20
34.92023349193407
 10
292.749911197438
 20
34.92023349193407
 10
292.749911197438
 20
32.62514327075039
 10
288.6245591542977
 20
32.62514327075039
 10
288.6245591542977
 20
32.62514327075039
  0
TEXT
  5
2E0
100
AcDbEntity
  8
0
  6
ByLayer
 62
  256
370
   -1
100
AcDbText
 10
294.0663329626182
 20
34.36102804196787
 30
0
 40
0.5
  1
P14N
 50
0
 41
1
 51
0
  7
courier
 71
    0
 72
    1
 11
294.0663329626182
 21
34.36102804196787
 31
0
210
0
220
0
230
1
100
AcDbText
  0
CIRCLE
  5
2E1
100
AcDbEntity
  8
0
  6
ByLayer
 62
  256
370
   -1
100
AcDbCircle
 10
290.6932914177939
 20
56.02528008439316
 40
0.1625305337545221
  0
CIRCLE
  5
2E2
100
AcDbEntity
  8
0
  6
ByLayer
 62
  256
370
   -1
100
AcDbCircle
 10
290.6932914177939
 20
53.93656578738105
 40
0.1625305337545221
  0
LINE
  5
2E3
100
AcDbEntity
  8
0
  6
ByLayer
 62
  256
370
   -1
100
AcDbLine
 10
272.2764483436257
 20
22.11478122911318
 11
263.1528614688347
 21
21.81727296145695
  0
LINE
  5
2E4
100
AcDbEntity
  8
0
  6
ByLayer
 62
  256
370
   -1
100
AcDbLine
 10
263.1528614688347
 20
21.81727296145695
 11
259.2852539893036
 21
23.40398372229018
  0
LINE
  5
2E5
100
AcDbEntity
  8
0
  6
ByLayer
 62
  256
370
   -1
100
AcDbLine
 10
259.2852539893036
 20
23.40398372229018
 11
255.1201382421164
 21
27.46993004692534
  0
LINE
  5
2E6
100
AcDbEntity
  8
0
  6
ByLayer
 62
  256
370
   -1
100
AcDbLine
 10
255.1201382421164
 20
27.46993004692534
 11
254.9217993970122
 21
41.75032689442443
  0
LINE
  5
2E7
100
AcDbEntity
  8
0
  6
ByLayer
 62
  256
370
   -1
100
AcDbLine
 10
254.9217993970122
 20
41.75032689442443
 11
253.3616187063918
 21
39.63805976429099
  0
LINE
  5
2E8
100
AcDbEntity
  8
0
  6
ByLayer
 62
  256
370
   -1
100
AcDbLine
 10
254.9217993970122
 20
41.75032689442443
 11
256.3246822227946
 21
39.62736766415667
  0
LINE
  5
2E9
100
AcDbEntity
  8
0
  6
ByLayer
 62
  256
370
   -1
100
AcDbLine
 10
266.1134227168441
 20
35.71840420516249
 11
283.4755496117989
 21
35.71840420516249
  0
LINE
  5
2EA
100
AcDbEntity
  8
0
  6
ByLayer
 62
  256
370
   -1
100
AcDbLine
 10
283.4755496117989
 20
35.71840420516249
 11
285.8544095340114
 21
35.8959310650291
  0
LINE
  5
2EB
100
AcDbEntity
  8
0
  6
ByLayer
 62
  256
370
   -1
100
AcDbLine
 10
285.8544095340114
 20
35.8959310650291
 11
286.8840653212378
 21
36.49952238857558
  0
LINE
  5
2EC
100
AcDbEntity
  8
0
  6
ByLayer
 62
  256
370
   -1
100
AcDbLine
 10
286.8840653212378
 20
36.49952238857558
 11
287.1326029250511
 21
37.24513520001535
  0
LINE
  5
2ED
100
AcDbEntity
  8
0
  6
ByLayer
 62
  256
370
   -1
100
AcDbLine
 10
287.1326029250511
 20
37.24513520001535
 11
287.239119040971
 21
38.31029635921503
  0
LINE
  5
2EE
100
AcDbEntity
  8
0
  6
ByLayer
 62
  256
370
   -1
100
AcDbLine
 10
287.239119040971
 20
38.31029635921503
 11
287.239119040971
 21
39.48197363433468
  0
LINE
  5
2EF
100
AcDbEntity
  8
0
  6
ByLayer
 62
  256
370
   -1
100
AcDbLine
 10
287.239119040971
 20
39.48197363433468
 11
287.2746244129444
 21
40.12107032985448
  0
LINE
  5
2F0
100
AcDbEntity
  8
0
  6
ByLayer
 62
  256
370
   -1
100
AcDbLine
 10
287.2746244129444
 20
40.12107032985448
 11
288.0557425963575
 21
40.79567239734761
  0
LINE
  5
2F1
100
AcDbEntity
  8
0
  6
ByLayer
 62
  256
370
   -1
100
AcDbLine
 10
288.0557425963575
 20
40.79567239734761
 11
289.6889897071303
 21
40.79567239734761
  0
LINE
  5
2F2
100
AcDbEntity
  8
0
  6
ByLayer
 62
  256
370
   -1
100
AcDbLine
 10
289.6889897071303
 20
40.79567239734761
 11
288.9433768956906
 21
41.29274760497412
  0
LINE
  5
2F3
100
AcDbEntity
  8
0
  6
ByLayer
 62
  256
370
   -1
100
AcDbLine
 10
289.6889897071303
 20
40.79567239734761
 11
288.9867470805838
 21
40.34383443693447
  0
LINE
  5
2F4
100
AcDbEntity
  8
0
  6
ByLayer
 62
  256
370
   -1
100
AcDbLine
 10
293.1564597635432
 20
39.01083080779023
 11
293.1564597635432
 21
36.57114417522874
  0
LINE
  5
2F5
100
AcDbEntity
  8
0
  6
ByLayer
 62
  256
370
   -1
100
AcDbLine
 10
293.1564597635432
 20
36.57114417522874
 11
292.8586874275715
 21
37.20311945276582
  0
LINE
  5
2F6
100
AcDbEntity
  8
0
  6
ByLayer
 62
  256
370
   -1
100
AcDbLine
 10
293.1564597635432
 20
36.57114417522874
 11
293.4862105249011
 21
37.1715635883203
  0
LWPOLYLINE
  5
2F7
100
AcDbEntity
  8
0
  6
ByLayer
 62
  256
370
   -1
100
AcDbPolyline
 90
    4
 70
    1
 43
0
 10
276.6887374533369
 20
25.31458399929629
 10
302.3868757556528
 20
25.31458399929629
 10
302.3868757556528
 20
19.86811289641739
 10
276.6887374533369
 20
19.86811289641739
  0
LINE
  5
2F8
100
AcDbEntity
  8
0
  6
ByLayer
 62
  256
370
   -1
100
AcDbLine
 10
267.633916165865
 20
57.30230431134368
 11
266.4622388907453
 21
51.8344770274521
  0
LINE
  5
2F9
100
AcDbEntity
  8
0
  6
ByLayer
 62
  256
370
   -1
100
AcDbLine
 10
266.4622388907453
 20
51.8344770274521
 11
268.9121095569046
 21
52.08301463126535
  0
LINE
  5
2FA
100
AcDbEntity
  8
0
  6
ByLayer
 62
  256
370
   -1
100
AcDbLine
 10
268.9121095569046
 20
52.08301463126535
 11
266.0006690550922
 21
49.02955264155966
  0
LINE
  5
2FB
100
AcDbEntity
  8
0
  6
ByLayer
 62
  256
370
   -1
100
AcDbLine
 10
266.0006690550922
 20
49.02955264155966
 11
266.2847120308787
 21
50.52077826443918
  0
LINE
  5
2FC
100
AcDbEntity
  8
0
  6
ByLayer
 62
  256
370
   -1
100
AcDbLine
 10
266.0006690550922
 20
49.02955264155966
 11
267.8469483977049
 21
49.63314396510614
  0
LINE
  5
2FD
100
AcDbEntity
  8
0
  6
ByLayer
 62
  256
370
   -1
100
AcDbLine
 10
286.0903804832077
 20
43.00715892319141
 11
286.0903804832077
 21
50.45531759574311
  0
LINE
  5
2FE
100
AcDbEntity
  8
0
  6
ByLayer
 62
  256
370
   -1
100
AcDbLine
 10
286.0903804832077
 20
50.45531759574311
 11
285.4813586223963
 21
49.23865648925747
  0
LINE
  5
2FF
100
AcDbEntity
  8
0
  6
ByLayer
 62
  256
370
   -1
100
AcDbLine
 10
286.0903804832077
 20
50.45531759574311
 11
286.6923109988604
 21
49.21741171072302
  0
LINE
  5
300
100
AcDbEntity
  8
0
  6
ByLayer
 62
  256
370
   -1
100
AcDbLine
 10
291.9237359163646
 20
52.69288565452634
 11
291.9549631564468
 21
43.11854391077032
  0
LINE
  5
301
100
AcDbEntity
  8
0
  6
ByLayer
 62
  256
370
   -1
100
AcDbLine
 10
291.9549631564468
 20
43.11854391077032
 11
291.3928728349694
 21
44.02413387315058
  0
LINE
  5
302
100
AcDbEntity
  8
0
  6
ByLayer
 62
  256
370
   -1
100
AcDbLine
 10
291.9549631564468
 20
43.11854391077028
 11
292.5795079580883
 21
44.05536111323266
  0
LINE
  5
303
100
AcDbEntity
  8
0
  6
ByLayer
 62
  256
370
   -1
100
AcDbLine
 10
296.783327725461
 20
61.43095762059274
 11
277.6360162593023
 21
61.43095762059274
  0
LINE
  5
304
100
AcDbEntity
  8
0
  6
ByLayer
 62
  256
370
   -1
100
AcDbLine
 10
277.6360162593023
 20
61.43095762059274
 11
280.0959139129407
 21
62.82711574833348
  0
LINE
  5
305
100
AcDbEntity
  8
0
  6
ByLayer
 62
  256
370
   -1
100
AcDbLine
 10
277.6360162593023
 20
61.43095762059274
 11
279.8964627518349
 21
60.16776693358921
  0
TEXT
  5
306
100
AcDbEntity
  8
0
  6
ByLayer
 62
  256
370
   -1
100
AcDbText
 10
297.0029709116893
 20
38.57254246107168
 30
0
 40
0.5
  1
I >>   (TRIP)
 50
0
 41
1
 51
0
  7
courier
 71
    0
 72
    1
 11
297.0029709116893
 21
38.57254246107168
 31
0
210
0
220
0
230
1
100
AcDbText
  0
TEXT
  5
307
100
AcDbEntity
  8
0
  6
ByLayer
 62
  256
370
   -1
100
AcDbText
 10
289.3418677534181
 20
22.16174032359512
 30
0
 40
1
  1
FAULT INSIDE ZONE
 50
0
 41
1
 51
0
  7
courier
 71
    0
 72
    1
 11
289.3418677534181
 21
22.16174032359512
 31
0
210
0
220
0
230
1
100
AcDbText
  0
LINE
  5
308
100
AcDbEntity
  8
0
  6
ByLayer
 62
  256
370
   -1
100
AcDbLine
 10
196.4739361221655
 20
61.6598652217884
 11
215.6212475883242
 21
61.6598652217884
  0
LINE
  5
309
100
AcDbEntity
  8
0
  6
ByLayer
 62
  256
370
   -1
100
AcDbLine
 10
215.6212475883242
 20
61.6598652217884
 11
213.1613499346858
 21
63.05602334952915
  0
LINE
  5
30A
100
AcDbEntity
  8
0
  6
ByLayer
 62
  256
370
   -1
100
AcDbLine
 10
215.6212475883242
 20
61.6598652217884
 11
213.3608010957916
 21
60.39667453478489
  0
LINE
  5
30B
100
AcDbEntity
  8
0
  6
ByLayer
 62
  256
370
   -1
100
AcDbLine
 10
197.7482623274069
 20
39.52201469296882
 11
187.3380346810072
 21
39.52201469296882
  0
LINE
  5
30C
100
AcDbEntity
  8
0
  6
ByLayer
 62
  256
370
   -1
100
AcDbLine
 10
187.3380346810072
 20
39.52201469296882
 11
188.3032372620543
 21
39.93726446029225
  0
LINE
  5
30D
100
AcDbEntity
  8
0
  6
ByLayer
 62
  256
370
   -1
100
AcDbLine
 10
187.3380346810072
 20
39.52201469296882
 11
188.3575373867033
 21
39.10456805748899
  0
LINE
  5
30E
100
AcDbEntity
  8
0
  6
ByLayer
 62
  256
370
   -1
100
AcDbLine
 10
201.3392096461449
 20
37.26247601620534
 11
201.3247049844025
 21
38.19077436771843
  0
LINE
  5
30F
100
AcDbEntity
  8
0
  6
ByLayer
 62
  256
370
   -1
100
AcDbLine
 10
201.3247049844025
 20
38.19077436771843
 11
201.1361443817514
 21
37.92969045635537
  0
LINE
  5
310
100
AcDbEntity
  8
0
  6
ByLayer
 62
  256
370
   -1
100
AcDbLine
 10
201.3247049844025
 20
38.19077436771842
 11
201.4842562635689
 21
37.91518579461298
  0
TEXT
  5
311
100
AcDbEntity
  8
0
  6
ByLayer
 62
  256
370
   -1
100
AcDbText
 10
199.3113342944941
 20
37.21930578821114
 30
0
 40
0.5
  1
I = 0
 50
0
 41
1
 51
0
  7
courier
 71
    0
 72
    1
 11
199.3113342944941
 21
37.21930578821114
 31
0
210
0
220
0
230
1
100
AcDbText
  0
LINE
  5
312
100
AcDbEntity
  8
0
  6
ByLayer
 62
  256
370
   -1
100
AcDbLine
 10
280.5119441740134
 20
39.52201469296882
 11
270.1017165276137
 21
39.52201469296882
  0
LINE
  5
313
100
AcDbEntity
  8
0
  6
ByLayer
 62
  256
370
   -1
100
AcDbLine
 10
270.1017165276137
 20
39.52201469296882
 11
271.0669191086608
 21
39.93726446029225
  0
LINE
  5
314
100
AcDbEntity
  8
0
  6
ByLayer
 62
  256
370
   -1
100
AcDbLine
 10
270.1017165276137
 20
39.52201469296882
 11
271.1212192333098
 21
39.10456805748899
  0
LINE
  5
315
100
AcDbEntity
  8
0
  6
ByLayer
 62
  256
370
   -1
100
AcDbLine
 10
284.1028914927515
 20
37.26247601620534
 11
284.0883868310091
 21
38.19077436771843
  0
LINE
  5
316
100
AcDbEntity
  8
0
  6
ByLayer
 62
  256
370
   -1
100
AcDbLine
 10
284.0883868310091
 20
38.19077436771843
 11
283.8998262283579
 21
37.92969045635537
  0
LINE
  5
317
100
AcDbEntity
  8
0
  6
ByLayer
 62
  256
370
   -1
100
AcDbLine
 10
284.0883868310091
 20
38.19077436771842
 11
284.2479381101754
 21
37.91518579461298
  0
TEXT
  5
318
100
AcDbEntity
  8
0
  6
ByLayer
 62
  256
370
   -1
100
AcDbText
 10
280.7384892770385
 20
36.48638317295183
 30
0
 40
0.5
  1
I >>   (TRIP)
 50
0
 41
1
 51
0
  7
courier
 71
    0
 72
    1
 11
280.7384892770385
 21
36.48638317295183
 31
0
210
0
220
0
230
1
100
AcDbText
  0
ENDSEC
  0
SECTION
  2
OBJECTS
  0
DICTIONARY
  5
C
330
0
100
AcDbDictionary
281
    1
  3
ACAD_GROUP
350
D
  0
DICTIONARY
  5
D
330
C
100
AcDbDictionary
281
    1
  0
ENDSEC
  0
EOF
